<?xml version="1.0" encoding="utf-8" standalone="no"?>
<!DOCTYPE svg PUBLIC "-//W3C//DTD SVG 1.1//EN"
  "http://www.w3.org/Graphics/SVG/1.1/DTD/svg11.dtd">
<svg xmlns:xlink="http://www.w3.org/1999/xlink" width="1152pt" height="432pt" viewBox="0 0 1152 432" xmlns="http://www.w3.org/2000/svg" version="1.1">
 <metadata>
  <rdf:RDF xmlns:dc="http://purl.org/dc/elements/1.1/" xmlns:cc="http://creativecommons.org/ns#" xmlns:rdf="http://www.w3.org/1999/02/22-rdf-syntax-ns#">
   <cc:Work>
    <dc:type rdf:resource="http://purl.org/dc/dcmitype/StillImage"/>
    <dc:date>2025-05-27T17:47:43.782246</dc:date>
    <dc:format>image/svg+xml</dc:format>
    <dc:creator>
     <cc:Agent>
      <dc:title>Matplotlib v3.10.3, https://matplotlib.org/</dc:title>
     </cc:Agent>
    </dc:creator>
   </cc:Work>
  </rdf:RDF>
 </metadata>
 <defs>
  <style type="text/css">*{stroke-linejoin: round; stroke-linecap: butt}</style>
 </defs>
 <g id="figure_1">
  <g id="patch_1">
   <path d="M 0 432 
L 1152 432 
L 1152 0 
L 0 0 
z
" style="fill: #ffffff"/>
  </g>
  <g id="axes_1">
   <g id="patch_2">
    <path d="M 77.87 318.306348 
L 1134.72 318.306348 
L 1134.72 17.28 
L 77.87 17.28 
z
" style="fill: #ffffff"/>
   </g>
   <g id="patch_3">
    <path d="M 125.908636 318.306348 
L 132.870758 318.306348 
L 132.870758 317.767583 
L 125.908636 317.767583 
z
" clip-path="url(#p157e42b95b)" style="fill: #87ceeb; opacity: 0.4"/>
   </g>
   <g id="patch_4">
    <path d="M 195.529848 318.306348 
L 202.49197 318.306348 
L 202.49197 309.976244 
L 195.529848 309.976244 
z
" clip-path="url(#p157e42b95b)" style="fill: #87ceeb; opacity: 0.4"/>
   </g>
   <g id="patch_5">
    <path d="M 265.151061 318.306348 
L 272.113182 318.306348 
L 272.113182 317.857284 
L 265.151061 317.857284 
z
" clip-path="url(#p157e42b95b)" style="fill: #87ceeb; opacity: 0.4"/>
   </g>
   <g id="patch_6">
    <path d="M 334.772273 318.306348 
L 341.734394 318.306348 
L 341.734394 289.73909 
L 334.772273 289.73909 
z
" clip-path="url(#p157e42b95b)" style="fill: #87ceeb; opacity: 0.4"/>
   </g>
   <g id="patch_7">
    <path d="M 404.393485 318.306348 
L 411.355606 318.306348 
L 411.355606 295.177068 
L 404.393485 295.177068 
z
" clip-path="url(#p157e42b95b)" style="fill: #87ceeb; opacity: 0.4"/>
   </g>
   <g id="patch_8">
    <path d="M 474.014697 318.306348 
L 480.976818 318.306348 
L 480.976818 288.191352 
L 474.014697 288.191352 
z
" clip-path="url(#p157e42b95b)" style="fill: #87ceeb; opacity: 0.4"/>
   </g>
   <g id="patch_9">
    <path d="M 543.635909 318.306348 
L 550.59803 318.306348 
L 550.59803 287.169191 
L 543.635909 287.169191 
z
" clip-path="url(#p157e42b95b)" style="fill: #87ceeb; opacity: 0.4"/>
   </g>
   <g id="patch_10">
    <path d="M 613.257121 318.306348 
L 620.219242 318.306348 
L 620.219242 286.127199 
L 613.257121 286.127199 
z
" clip-path="url(#p157e42b95b)" style="fill: #87ceeb; opacity: 0.4"/>
   </g>
   <g id="patch_11">
    <path d="M 682.878333 318.306348 
L 689.840455 318.306348 
L 689.840455 293.149087 
L 682.878333 293.149087 
z
" clip-path="url(#p157e42b95b)" style="fill: #87ceeb; opacity: 0.4"/>
   </g>
   <g id="patch_12">
    <path d="M 752.499545 318.306348 
L 759.461667 318.306348 
L 759.461667 287.536953 
L 752.499545 287.536953 
z
" clip-path="url(#p157e42b95b)" style="fill: #87ceeb; opacity: 0.4"/>
   </g>
   <g id="patch_13">
    <path d="M 822.120758 318.306348 
L 829.082879 318.306348 
L 829.082879 313.483858 
L 822.120758 313.483858 
z
" clip-path="url(#p157e42b95b)" style="fill: #87ceeb; opacity: 0.4"/>
   </g>
   <g id="patch_14">
    <path d="M 891.74197 318.306348 
L 898.704091 318.306348 
L 898.704091 314.027384 
L 891.74197 314.027384 
z
" clip-path="url(#p157e42b95b)" style="fill: #87ceeb; opacity: 0.4"/>
   </g>
   <g id="patch_15">
    <path d="M 961.363182 318.306348 
L 968.325303 318.306348 
L 968.325303 303.024111 
L 961.363182 303.024111 
z
" clip-path="url(#p157e42b95b)" style="fill: #87ceeb; opacity: 0.4"/>
   </g>
   <g id="patch_16">
    <path d="M 1030.984394 318.306348 
L 1037.946515 318.306348 
L 1037.946515 318.306348 
L 1030.984394 318.306348 
z
" clip-path="url(#p157e42b95b)" style="fill: #87ceeb; opacity: 0.4"/>
   </g>
   <g id="patch_17">
    <path d="M 132.870758 318.306348 
L 139.832879 318.306348 
L 139.832879 316.25391 
L 132.870758 316.25391 
z
" clip-path="url(#p157e42b95b)" style="fill: #87ceeb; opacity: 0.6"/>
   </g>
   <g id="patch_18">
    <path d="M 202.49197 318.306348 
L 209.454091 318.306348 
L 209.454091 292.87124 
L 202.49197 292.87124 
z
" clip-path="url(#p157e42b95b)" style="fill: #87ceeb; opacity: 0.6"/>
   </g>
   <g id="patch_19">
    <path d="M 272.113182 318.306348 
L 279.075303 318.306348 
L 279.075303 317.232116 
L 272.113182 317.232116 
z
" clip-path="url(#p157e42b95b)" style="fill: #87ceeb; opacity: 0.6"/>
   </g>
   <g id="patch_20">
    <path d="M 341.734394 318.306348 
L 348.696515 318.306348 
L 348.696515 247.832453 
L 341.734394 247.832453 
z
" clip-path="url(#p157e42b95b)" style="fill: #87ceeb; opacity: 0.6"/>
   </g>
   <g id="patch_21">
    <path d="M 411.355606 318.306348 
L 418.317727 318.306348 
L 418.317727 262.228074 
L 411.355606 262.228074 
z
" clip-path="url(#p157e42b95b)" style="fill: #87ceeb; opacity: 0.6"/>
   </g>
   <g id="patch_22">
    <path d="M 480.976818 318.306348 
L 487.938939 318.306348 
L 487.938939 247.0728 
L 480.976818 247.0728 
z
" clip-path="url(#p157e42b95b)" style="fill: #87ceeb; opacity: 0.6"/>
   </g>
   <g id="patch_23">
    <path d="M 550.59803 318.306348 
L 557.560152 318.306348 
L 557.560152 245.61212 
L 550.59803 245.61212 
z
" clip-path="url(#p157e42b95b)" style="fill: #87ceeb; opacity: 0.6"/>
   </g>
   <g id="patch_24">
    <path d="M 620.219242 318.306348 
L 627.181364 318.306348 
L 627.181364 246.347643 
L 620.219242 246.347643 
z
" clip-path="url(#p157e42b95b)" style="fill: #87ceeb; opacity: 0.6"/>
   </g>
   <g id="patch_25">
    <path d="M 689.840455 318.306348 
L 696.802576 318.306348 
L 696.802576 263.744496 
L 689.840455 263.744496 
z
" clip-path="url(#p157e42b95b)" style="fill: #87ceeb; opacity: 0.6"/>
   </g>
   <g id="patch_26">
    <path d="M 759.461667 318.306348 
L 766.423788 318.306348 
L 766.423788 244.26366 
L 759.461667 244.26366 
z
" clip-path="url(#p157e42b95b)" style="fill: #87ceeb; opacity: 0.6"/>
   </g>
   <g id="patch_27">
    <path d="M 829.082879 318.306348 
L 836.045 318.306348 
L 836.045 307.512436 
L 829.082879 307.512436 
z
" clip-path="url(#p157e42b95b)" style="fill: #87ceeb; opacity: 0.6"/>
   </g>
   <g id="patch_28">
    <path d="M 898.704091 318.306348 
L 905.666212 318.306348 
L 905.666212 310.042075 
L 898.704091 310.042075 
z
" clip-path="url(#p157e42b95b)" style="fill: #87ceeb; opacity: 0.6"/>
   </g>
   <g id="patch_29">
    <path d="M 968.325303 318.306348 
L 975.287424 318.306348 
L 975.287424 287.741874 
L 968.325303 287.741874 
z
" clip-path="url(#p157e42b95b)" style="fill: #87ceeb; opacity: 0.6"/>
   </g>
   <g id="patch_30">
    <path d="M 1037.946515 318.306348 
L 1044.908636 318.306348 
L 1044.908636 318.306348 
L 1037.946515 318.306348 
z
" clip-path="url(#p157e42b95b)" style="fill: #87ceeb; opacity: 0.6"/>
   </g>
   <g id="patch_31">
    <path d="M 139.832879 318.306348 
L 146.795 318.306348 
L 146.795 314.77872 
L 139.832879 314.77872 
z
" clip-path="url(#p157e42b95b)" style="fill: #87ceeb; opacity: 0.8"/>
   </g>
   <g id="patch_32">
    <path d="M 209.454091 318.306348 
L 216.416212 318.306348 
L 216.416212 266.628236 
L 209.454091 266.628236 
z
" clip-path="url(#p157e42b95b)" style="fill: #87ceeb; opacity: 0.8"/>
   </g>
   <g id="patch_33">
    <path d="M 279.075303 318.306348 
L 286.037424 318.306348 
L 286.037424 315.823288 
L 279.075303 315.823288 
z
" clip-path="url(#p157e42b95b)" style="fill: #87ceeb; opacity: 0.8"/>
   </g>
   <g id="patch_34">
    <path d="M 348.696515 318.306348 
L 355.658636 318.306348 
L 355.658636 170.583952 
L 348.696515 170.583952 
z
" clip-path="url(#p157e42b95b)" style="fill: #87ceeb; opacity: 0.8"/>
   </g>
   <g id="patch_35">
    <path d="M 418.317727 318.306348 
L 425.279848 318.306348 
L 425.279848 200.180955 
L 418.317727 200.180955 
z
" clip-path="url(#p157e42b95b)" style="fill: #87ceeb; opacity: 0.8"/>
   </g>
   <g id="patch_36">
    <path d="M 487.938939 318.306348 
L 494.901061 318.306348 
L 494.901061 167.615543 
L 487.938939 167.615543 
z
" clip-path="url(#p157e42b95b)" style="fill: #87ceeb; opacity: 0.8"/>
   </g>
   <g id="patch_37">
    <path d="M 557.560152 318.306348 
L 564.522273 318.306348 
L 564.522273 163.969024 
L 557.560152 163.969024 
z
" clip-path="url(#p157e42b95b)" style="fill: #87ceeb; opacity: 0.8"/>
   </g>
   <g id="patch_38">
    <path d="M 627.181364 318.306348 
L 634.143485 318.306348 
L 634.143485 170.098385 
L 627.181364 170.098385 
z
" clip-path="url(#p157e42b95b)" style="fill: #87ceeb; opacity: 0.8"/>
   </g>
   <g id="patch_39">
    <path d="M 696.802576 318.306348 
L 703.764697 318.306348 
L 703.764697 203.955162 
L 696.802576 203.955162 
z
" clip-path="url(#p157e42b95b)" style="fill: #87ceeb; opacity: 0.8"/>
   </g>
   <g id="patch_40">
    <path d="M 766.423788 318.306348 
L 773.385909 318.306348 
L 773.385909 166.911117 
L 766.423788 166.911117 
z
" clip-path="url(#p157e42b95b)" style="fill: #87ceeb; opacity: 0.8"/>
   </g>
   <g id="patch_41">
    <path d="M 836.045 318.306348 
L 843.007121 318.306348 
L 843.007121 297.625576 
L 836.045 297.625576 
z
" clip-path="url(#p157e42b95b)" style="fill: #87ceeb; opacity: 0.8"/>
   </g>
   <g id="patch_42">
    <path d="M 905.666212 318.306348 
L 912.628333 318.306348 
L 912.628333 302.113407 
L 905.666212 302.113407 
z
" clip-path="url(#p157e42b95b)" style="fill: #87ceeb; opacity: 0.8"/>
   </g>
   <g id="patch_43">
    <path d="M 975.287424 318.306348 
L 982.249545 318.306348 
L 982.249545 220.029811 
L 975.287424 220.029811 
z
" clip-path="url(#p157e42b95b)" style="fill: #87ceeb; opacity: 0.8"/>
   </g>
   <g id="patch_44">
    <path d="M 1044.908636 318.306348 
L 1051.870758 318.306348 
L 1051.870758 318.306348 
L 1044.908636 318.306348 
z
" clip-path="url(#p157e42b95b)" style="fill: #87ceeb; opacity: 0.8"/>
   </g>
   <g id="patch_45">
    <path d="M 146.795 318.306348 
L 153.757121 318.306348 
L 153.757121 311.148471 
L 146.795 311.148471 
z
" clip-path="url(#p157e42b95b)" style="fill: #87ceeb"/>
   </g>
   <g id="patch_46">
    <path d="M 216.416212 318.306348 
L 223.378333 318.306348 
L 223.378333 208.02703 
L 216.416212 208.02703 
z
" clip-path="url(#p157e42b95b)" style="fill: #87ceeb"/>
   </g>
   <g id="patch_47">
    <path d="M 286.037424 318.306348 
L 292.999545 318.306348 
L 292.999545 313.701241 
L 286.037424 313.701241 
z
" clip-path="url(#p157e42b95b)" style="fill: #87ceeb"/>
   </g>
   <g id="patch_48">
    <path d="M 355.658636 318.306348 
L 362.620758 318.306348 
L 362.620758 31.614588 
L 355.658636 31.614588 
z
" clip-path="url(#p157e42b95b)" style="fill: #87ceeb"/>
   </g>
   <g id="patch_49">
    <path d="M 425.279848 318.306348 
L 432.24197 318.306348 
L 432.24197 92.452907 
L 425.279848 92.452907 
z
" clip-path="url(#p157e42b95b)" style="fill: #87ceeb"/>
   </g>
   <g id="patch_50">
    <path d="M 494.901061 318.306348 
L 501.863182 318.306348 
L 501.863182 50.630368 
L 494.901061 50.630368 
z
" clip-path="url(#p157e42b95b)" style="fill: #87ceeb"/>
   </g>
   <g id="patch_51">
    <path d="M 564.522273 318.306348 
L 571.484394 318.306348 
L 571.484394 52.35335 
L 564.522273 52.35335 
z
" clip-path="url(#p157e42b95b)" style="fill: #87ceeb"/>
   </g>
   <g id="patch_52">
    <path d="M 634.143485 318.306348 
L 641.105606 318.306348 
L 641.105606 54.253452 
L 634.143485 54.253452 
z
" clip-path="url(#p157e42b95b)" style="fill: #87ceeb"/>
   </g>
   <g id="patch_53">
    <path d="M 703.764697 318.306348 
L 710.726818 318.306348 
L 710.726818 105.799839 
L 703.764697 105.799839 
z
" clip-path="url(#p157e42b95b)" style="fill: #87ceeb"/>
   </g>
   <g id="patch_54">
    <path d="M 773.385909 318.306348 
L 780.34803 318.306348 
L 780.34803 32.065163 
L 773.385909 32.065163 
z
" clip-path="url(#p157e42b95b)" style="fill: #87ceeb"/>
   </g>
   <g id="patch_55">
    <path d="M 843.007121 318.306348 
L 849.969242 318.306348 
L 849.969242 275.523757 
L 843.007121 275.523757 
z
" clip-path="url(#p157e42b95b)" style="fill: #87ceeb"/>
   </g>
   <g id="patch_56">
    <path d="M 912.628333 318.306348 
L 919.590455 318.306348 
L 919.590455 296.743727 
L 912.628333 296.743727 
z
" clip-path="url(#p157e42b95b)" style="fill: #87ceeb"/>
   </g>
   <g id="patch_57">
    <path d="M 982.249545 318.306348 
L 989.211667 318.306348 
L 989.211667 182.647109 
L 982.249545 182.647109 
z
" clip-path="url(#p157e42b95b)" style="fill: #87ceeb"/>
   </g>
   <g id="patch_58">
    <path d="M 1051.870758 318.306348 
L 1058.832879 318.306348 
L 1058.832879 318.306348 
L 1051.870758 318.306348 
z
" clip-path="url(#p157e42b95b)" style="fill: #87ceeb"/>
   </g>
   <g id="patch_59">
    <path d="M 153.757121 318.306348 
L 160.719242 318.306348 
L 160.719242 317.767583 
L 153.757121 317.767583 
z
" clip-path="url(#p157e42b95b)" style="fill: #fa8072; opacity: 0.4"/>
   </g>
   <g id="patch_60">
    <path d="M 223.378333 318.306348 
L 230.340455 318.306348 
L 230.340455 310.163845 
L 223.378333 310.163845 
z
" clip-path="url(#p157e42b95b)" style="fill: #fa8072; opacity: 0.4"/>
   </g>
   <g id="patch_61">
    <path d="M 292.999545 318.306348 
L 299.961667 318.306348 
L 299.961667 317.892504 
L 292.999545 317.892504 
z
" clip-path="url(#p157e42b95b)" style="fill: #fa8072; opacity: 0.4"/>
   </g>
   <g id="patch_62">
    <path d="M 362.620758 318.306348 
L 369.582879 318.306348 
L 369.582879 290.12878 
L 362.620758 290.12878 
z
" clip-path="url(#p157e42b95b)" style="fill: #fa8072; opacity: 0.4"/>
   </g>
   <g id="patch_63">
    <path d="M 432.24197 318.306348 
L 439.204091 318.306348 
L 439.204091 295.706563 
L 432.24197 295.706563 
z
" clip-path="url(#p157e42b95b)" style="fill: #fa8072; opacity: 0.4"/>
   </g>
   <g id="patch_64">
    <path d="M 501.863182 318.306348 
L 508.825303 318.306348 
L 508.825303 287.901785 
L 501.863182 287.901785 
z
" clip-path="url(#p157e42b95b)" style="fill: #fa8072; opacity: 0.4"/>
   </g>
   <g id="patch_65">
    <path d="M 571.484394 318.306348 
L 578.446515 318.306348 
L 578.446515 287.720833 
L 571.484394 287.720833 
z
" clip-path="url(#p157e42b95b)" style="fill: #fa8072; opacity: 0.4"/>
   </g>
   <g id="patch_66">
    <path d="M 641.105606 318.306348 
L 648.067727 318.306348 
L 648.067727 287.65954 
L 641.105606 287.65954 
z
" clip-path="url(#p157e42b95b)" style="fill: #fa8072; opacity: 0.4"/>
   </g>
   <g id="patch_67">
    <path d="M 710.726818 318.306348 
L 717.688939 318.306348 
L 717.688939 293.89587 
L 710.726818 293.89587 
z
" clip-path="url(#p157e42b95b)" style="fill: #fa8072; opacity: 0.4"/>
   </g>
   <g id="patch_68">
    <path d="M 780.34803 318.306348 
L 787.310152 318.306348 
L 787.310152 288.027301 
L 780.34803 288.027301 
z
" clip-path="url(#p157e42b95b)" style="fill: #fa8072; opacity: 0.4"/>
   </g>
   <g id="patch_69">
    <path d="M 849.969242 318.306348 
L 856.931364 318.306348 
L 856.931364 312.743099 
L 849.969242 312.743099 
z
" clip-path="url(#p157e42b95b)" style="fill: #fa8072; opacity: 0.4"/>
   </g>
   <g id="patch_70">
    <path d="M 919.590455 318.306348 
L 926.552576 318.306348 
L 926.552576 314.111285 
L 919.590455 314.111285 
z
" clip-path="url(#p157e42b95b)" style="fill: #fa8072; opacity: 0.4"/>
   </g>
   <g id="patch_71">
    <path d="M 989.211667 318.306348 
L 996.173788 318.306348 
L 996.173788 306.785892 
L 989.211667 306.785892 
z
" clip-path="url(#p157e42b95b)" style="fill: #fa8072; opacity: 0.4"/>
   </g>
   <g id="patch_72">
    <path d="M 1058.832879 318.306348 
L 1065.795 318.306348 
L 1065.795 318.306348 
L 1058.832879 318.306348 
z
" clip-path="url(#p157e42b95b)" style="fill: #fa8072; opacity: 0.4"/>
   </g>
   <g id="patch_73">
    <path d="M 160.719242 318.306348 
L 167.681364 318.306348 
L 167.681364 316.305221 
L 160.719242 316.305221 
z
" clip-path="url(#p157e42b95b)" style="fill: #fa8072; opacity: 0.6"/>
   </g>
   <g id="patch_74">
    <path d="M 230.340455 318.306348 
L 237.302576 318.306348 
L 237.302576 292.529321 
L 230.340455 292.529321 
z
" clip-path="url(#p157e42b95b)" style="fill: #fa8072; opacity: 0.6"/>
   </g>
   <g id="patch_75">
    <path d="M 299.961667 318.306348 
L 306.923788 318.306348 
L 306.923788 317.223311 
L 299.961667 317.223311 
z
" clip-path="url(#p157e42b95b)" style="fill: #fa8072; opacity: 0.6"/>
   </g>
   <g id="patch_76">
    <path d="M 369.582879 318.306348 
L 376.545 318.306348 
L 376.545 248.55188 
L 369.582879 248.55188 
z
" clip-path="url(#p157e42b95b)" style="fill: #fa8072; opacity: 0.6"/>
   </g>
   <g id="patch_77">
    <path d="M 439.204091 318.306348 
L 446.166212 318.306348 
L 446.166212 262.85384 
L 439.204091 262.85384 
z
" clip-path="url(#p157e42b95b)" style="fill: #fa8072; opacity: 0.6"/>
   </g>
   <g id="patch_78">
    <path d="M 508.825303 318.306348 
L 515.787424 318.306348 
L 515.787424 247.246541 
L 508.825303 247.246541 
z
" clip-path="url(#p157e42b95b)" style="fill: #fa8072; opacity: 0.6"/>
   </g>
   <g id="patch_79">
    <path d="M 578.446515 318.306348 
L 585.408636 318.306348 
L 585.408636 246.408937 
L 578.446515 246.408937 
z
" clip-path="url(#p157e42b95b)" style="fill: #fa8072; opacity: 0.6"/>
   </g>
   <g id="patch_80">
    <path d="M 648.067727 318.306348 
L 655.029848 318.306348 
L 655.029848 248.431626 
L 648.067727 248.431626 
z
" clip-path="url(#p157e42b95b)" style="fill: #fa8072; opacity: 0.6"/>
   </g>
   <g id="patch_81">
    <path d="M 717.688939 318.306348 
L 724.651061 318.306348 
L 724.651061 264.537954 
L 717.688939 264.537954 
z
" clip-path="url(#p157e42b95b)" style="fill: #fa8072; opacity: 0.6"/>
   </g>
   <g id="patch_82">
    <path d="M 787.310152 318.306348 
L 794.272273 318.306348 
L 794.272273 245.979881 
L 787.310152 245.979881 
z
" clip-path="url(#p157e42b95b)" style="fill: #fa8072; opacity: 0.6"/>
   </g>
   <g id="patch_83">
    <path d="M 856.931364 318.306348 
L 863.893485 318.306348 
L 863.893485 307.542671 
L 856.931364 307.542671 
z
" clip-path="url(#p157e42b95b)" style="fill: #fa8072; opacity: 0.6"/>
   </g>
   <g id="patch_84">
    <path d="M 926.552576 318.306348 
L 933.514697 318.306348 
L 933.514697 311.006939 
L 926.552576 311.006939 
z
" clip-path="url(#p157e42b95b)" style="fill: #fa8072; opacity: 0.6"/>
   </g>
   <g id="patch_85">
    <path d="M 996.173788 318.306348 
L 1003.135909 318.306348 
L 1003.135909 274.105417 
L 996.173788 274.105417 
z
" clip-path="url(#p157e42b95b)" style="fill: #fa8072; opacity: 0.6"/>
   </g>
   <g id="patch_86">
    <path d="M 1065.795 318.306348 
L 1072.757121 318.306348 
L 1072.757121 318.306348 
L 1065.795 318.306348 
z
" clip-path="url(#p157e42b95b)" style="fill: #fa8072; opacity: 0.6"/>
   </g>
   <g id="patch_87">
    <path d="M 167.681364 318.306348 
L 174.643485 318.306348 
L 174.643485 315.06093 
L 167.681364 315.06093 
z
" clip-path="url(#p157e42b95b)" style="fill: #fa8072; opacity: 0.8"/>
   </g>
   <g id="patch_88">
    <path d="M 237.302576 318.306348 
L 244.264697 318.306348 
L 244.264697 267.145652 
L 237.302576 267.145652 
z
" clip-path="url(#p157e42b95b)" style="fill: #fa8072; opacity: 0.8"/>
   </g>
   <g id="patch_89">
    <path d="M 306.923788 318.306348 
L 313.885909 318.306348 
L 313.885909 315.823288 
L 306.923788 315.823288 
z
" clip-path="url(#p157e42b95b)" style="fill: #fa8072; opacity: 0.8"/>
   </g>
   <g id="patch_90">
    <path d="M 376.545 318.306348 
L 383.507121 318.306348 
L 383.507121 170.643904 
L 376.545 170.643904 
z
" clip-path="url(#p157e42b95b)" style="fill: #fa8072; opacity: 0.8"/>
   </g>
   <g id="patch_91">
    <path d="M 446.166212 318.306348 
L 453.128333 318.306348 
L 453.128333 201.288079 
L 446.166212 201.288079 
z
" clip-path="url(#p157e42b95b)" style="fill: #fa8072; opacity: 0.8"/>
   </g>
   <g id="patch_92">
    <path d="M 515.787424 318.306348 
L 522.749545 318.306348 
L 522.749545 168.484245 
L 515.787424 168.484245 
z
" clip-path="url(#p157e42b95b)" style="fill: #fa8072; opacity: 0.8"/>
   </g>
   <g id="patch_93">
    <path d="M 585.408636 318.306348 
L 592.370758 318.306348 
L 592.370758 167.769228 
L 585.408636 167.769228 
z
" clip-path="url(#p157e42b95b)" style="fill: #fa8072; opacity: 0.8"/>
   </g>
   <g id="patch_94">
    <path d="M 655.029848 318.306348 
L 661.99197 318.306348 
L 661.99197 171.017789 
L 655.029848 171.017789 
z
" clip-path="url(#p157e42b95b)" style="fill: #fa8072; opacity: 0.8"/>
   </g>
   <g id="patch_95">
    <path d="M 724.651061 318.306348 
L 731.613182 318.306348 
L 731.613182 199.381115 
L 724.651061 199.381115 
z
" clip-path="url(#p157e42b95b)" style="fill: #fa8072; opacity: 0.8"/>
   </g>
   <g id="patch_96">
    <path d="M 794.272273 318.306348 
L 801.234394 318.306348 
L 801.234394 168.198283 
L 794.272273 168.198283 
z
" clip-path="url(#p157e42b95b)" style="fill: #fa8072; opacity: 0.8"/>
   </g>
   <g id="patch_97">
    <path d="M 863.893485 318.306348 
L 870.855606 318.306348 
L 870.855606 297.988396 
L 863.893485 297.988396 
z
" clip-path="url(#p157e42b95b)" style="fill: #fa8072; opacity: 0.8"/>
   </g>
   <g id="patch_98">
    <path d="M 933.514697 318.306348 
L 940.476818 318.306348 
L 940.476818 304.210938 
L 933.514697 304.210938 
z
" clip-path="url(#p157e42b95b)" style="fill: #fa8072; opacity: 0.8"/>
   </g>
   <g id="patch_99">
    <path d="M 1003.135909 318.306348 
L 1010.09803 318.306348 
L 1010.09803 249.88895 
L 1003.135909 249.88895 
z
" clip-path="url(#p157e42b95b)" style="fill: #fa8072; opacity: 0.8"/>
   </g>
   <g id="patch_100">
    <path d="M 1072.757121 318.306348 
L 1079.719242 318.306348 
L 1079.719242 318.306348 
L 1072.757121 318.306348 
z
" clip-path="url(#p157e42b95b)" style="fill: #fa8072; opacity: 0.8"/>
   </g>
   <g id="patch_101">
    <path d="M 174.643485 318.306348 
L 181.605606 318.306348 
L 181.605606 311.263921 
L 174.643485 311.263921 
z
" clip-path="url(#p157e42b95b)" style="fill: #fa8072"/>
   </g>
   <g id="patch_102">
    <path d="M 244.264697 318.306348 
L 251.226818 318.306348 
L 251.226818 208.822823 
L 244.264697 208.822823 
z
" clip-path="url(#p157e42b95b)" style="fill: #fa8072"/>
   </g>
   <g id="patch_103">
    <path d="M 313.885909 318.306348 
L 320.84803 318.306348 
L 320.84803 313.762877 
L 313.885909 313.762877 
z
" clip-path="url(#p157e42b95b)" style="fill: #fa8072"/>
   </g>
   <g id="patch_104">
    <path d="M 383.507121 318.306348 
L 390.469242 318.306348 
L 390.469242 34.941939 
L 383.507121 34.941939 
z
" clip-path="url(#p157e42b95b)" style="fill: #fa8072"/>
   </g>
   <g id="patch_105">
    <path d="M 453.128333 318.306348 
L 460.090455 318.306348 
L 460.090455 92.76579 
L 453.128333 92.76579 
z
" clip-path="url(#p157e42b95b)" style="fill: #fa8072"/>
   </g>
   <g id="patch_106">
    <path d="M 522.749545 318.306348 
L 529.711667 318.306348 
L 529.711667 60.244001 
L 522.749545 60.244001 
z
" clip-path="url(#p157e42b95b)" style="fill: #fa8072"/>
   </g>
   <g id="patch_107">
    <path d="M 592.370758 318.306348 
L 599.332879 318.306348 
L 599.332879 57.072958 
L 592.370758 57.072958 
z
" clip-path="url(#p157e42b95b)" style="fill: #fa8072"/>
   </g>
   <g id="patch_108">
    <path d="M 661.99197 318.306348 
L 668.954091 318.306348 
L 668.954091 55.540618 
L 661.99197 55.540618 
z
" clip-path="url(#p157e42b95b)" style="fill: #fa8072"/>
   </g>
   <g id="patch_109">
    <path d="M 731.613182 318.306348 
L 738.575303 318.306348 
L 738.575303 112.614236 
L 731.613182 112.614236 
z
" clip-path="url(#p157e42b95b)" style="fill: #fa8072"/>
   </g>
   <g id="patch_110">
    <path d="M 801.234394 318.306348 
L 808.196515 318.306348 
L 808.196515 39.113929 
L 801.234394 39.113929 
z
" clip-path="url(#p157e42b95b)" style="fill: #fa8072"/>
   </g>
   <g id="patch_111">
    <path d="M 870.855606 318.306348 
L 877.817727 318.306348 
L 877.817727 276.385456 
L 870.855606 276.385456 
z
" clip-path="url(#p157e42b95b)" style="fill: #fa8072"/>
   </g>
   <g id="patch_112">
    <path d="M 940.476818 318.306348 
L 947.438939 318.306348 
L 947.438939 298.086147 
L 940.476818 298.086147 
z
" clip-path="url(#p157e42b95b)" style="fill: #fa8072"/>
   </g>
   <g id="patch_113">
    <path d="M 1010.09803 318.306348 
L 1017.060152 318.306348 
L 1017.060152 209.920024 
L 1010.09803 209.920024 
z
" clip-path="url(#p157e42b95b)" style="fill: #fa8072"/>
   </g>
   <g id="patch_114">
    <path d="M 1079.719242 318.306348 
L 1086.681364 318.306348 
L 1086.681364 318.306348 
L 1079.719242 318.306348 
z
" clip-path="url(#p157e42b95b)" style="fill: #fa8072"/>
   </g>
   <g id="matplotlib.axis_1">
    <g id="xtick_1">
     <g id="line2d_1">
      <defs>
       <path id="m2e2073bab7" d="M 0 0 
L 0 3.5 
" style="stroke: #000000; stroke-width: 0.8"/>
      </defs>
      <g>
       <use xlink:href="#m2e2073bab7" x="153.757121" y="318.306348" style="stroke: #000000; stroke-width: 0.8"/>
      </g>
     </g>
     <g id="text_1">
      <!-- DTree -->
      <g transform="translate(119.13187 366.175352) rotate(-45) scale(0.16 -0.16)">
       <defs>
        <path id="DejaVuSans-44" d="M 1259 4147 
L 1259 519 
L 2022 519 
Q 2988 519 3436 956 
Q 3884 1394 3884 2338 
Q 3884 3275 3436 3711 
Q 2988 4147 2022 4147 
L 1259 4147 
z
M 628 4666 
L 1925 4666 
Q 3281 4666 3915 4102 
Q 4550 3538 4550 2338 
Q 4550 1131 3912 565 
Q 3275 0 1925 0 
L 628 0 
L 628 4666 
z
" transform="scale(0.015625)"/>
        <path id="DejaVuSans-54" d="M -19 4666 
L 3928 4666 
L 3928 4134 
L 2272 4134 
L 2272 0 
L 1638 0 
L 1638 4134 
L -19 4134 
L -19 4666 
z
" transform="scale(0.015625)"/>
        <path id="DejaVuSans-72" d="M 2631 2963 
Q 2534 3019 2420 3045 
Q 2306 3072 2169 3072 
Q 1681 3072 1420 2755 
Q 1159 2438 1159 1844 
L 1159 0 
L 581 0 
L 581 3500 
L 1159 3500 
L 1159 2956 
Q 1341 3275 1631 3429 
Q 1922 3584 2338 3584 
Q 2397 3584 2469 3576 
Q 2541 3569 2628 3553 
L 2631 2963 
z
" transform="scale(0.015625)"/>
        <path id="DejaVuSans-65" d="M 3597 1894 
L 3597 1613 
L 953 1613 
Q 991 1019 1311 708 
Q 1631 397 2203 397 
Q 2534 397 2845 478 
Q 3156 559 3463 722 
L 3463 178 
Q 3153 47 2828 -22 
Q 2503 -91 2169 -91 
Q 1331 -91 842 396 
Q 353 884 353 1716 
Q 353 2575 817 3079 
Q 1281 3584 2069 3584 
Q 2775 3584 3186 3129 
Q 3597 2675 3597 1894 
z
M 3022 2063 
Q 3016 2534 2758 2815 
Q 2500 3097 2075 3097 
Q 1594 3097 1305 2825 
Q 1016 2553 972 2059 
L 3022 2063 
z
" transform="scale(0.015625)"/>
       </defs>
       <use xlink:href="#DejaVuSans-44"/>
       <use xlink:href="#DejaVuSans-54" transform="translate(77.001953 0)"/>
       <use xlink:href="#DejaVuSans-72" transform="translate(123.335938 0)"/>
       <use xlink:href="#DejaVuSans-65" transform="translate(162.199219 0)"/>
       <use xlink:href="#DejaVuSans-65" transform="translate(223.722656 0)"/>
      </g>
     </g>
    </g>
    <g id="xtick_2">
     <g id="line2d_2">
      <g>
       <use xlink:href="#m2e2073bab7" x="223.378333" y="318.306348" style="stroke: #000000; stroke-width: 0.8"/>
      </g>
     </g>
     <g id="text_2">
      <!-- barshift_128b -->
      <g transform="translate(143.082823 411.530948) rotate(-45) scale(0.16 -0.16)">
       <defs>
        <path id="DejaVuSans-62" d="M 3116 1747 
Q 3116 2381 2855 2742 
Q 2594 3103 2138 3103 
Q 1681 3103 1420 2742 
Q 1159 2381 1159 1747 
Q 1159 1113 1420 752 
Q 1681 391 2138 391 
Q 2594 391 2855 752 
Q 3116 1113 3116 1747 
z
M 1159 2969 
Q 1341 3281 1617 3432 
Q 1894 3584 2278 3584 
Q 2916 3584 3314 3078 
Q 3713 2572 3713 1747 
Q 3713 922 3314 415 
Q 2916 -91 2278 -91 
Q 1894 -91 1617 61 
Q 1341 213 1159 525 
L 1159 0 
L 581 0 
L 581 4863 
L 1159 4863 
L 1159 2969 
z
" transform="scale(0.015625)"/>
        <path id="DejaVuSans-61" d="M 2194 1759 
Q 1497 1759 1228 1600 
Q 959 1441 959 1056 
Q 959 750 1161 570 
Q 1363 391 1709 391 
Q 2188 391 2477 730 
Q 2766 1069 2766 1631 
L 2766 1759 
L 2194 1759 
z
M 3341 1997 
L 3341 0 
L 2766 0 
L 2766 531 
Q 2569 213 2275 61 
Q 1981 -91 1556 -91 
Q 1019 -91 701 211 
Q 384 513 384 1019 
Q 384 1609 779 1909 
Q 1175 2209 1959 2209 
L 2766 2209 
L 2766 2266 
Q 2766 2663 2505 2880 
Q 2244 3097 1772 3097 
Q 1472 3097 1187 3025 
Q 903 2953 641 2809 
L 641 3341 
Q 956 3463 1253 3523 
Q 1550 3584 1831 3584 
Q 2591 3584 2966 3190 
Q 3341 2797 3341 1997 
z
" transform="scale(0.015625)"/>
        <path id="DejaVuSans-73" d="M 2834 3397 
L 2834 2853 
Q 2591 2978 2328 3040 
Q 2066 3103 1784 3103 
Q 1356 3103 1142 2972 
Q 928 2841 928 2578 
Q 928 2378 1081 2264 
Q 1234 2150 1697 2047 
L 1894 2003 
Q 2506 1872 2764 1633 
Q 3022 1394 3022 966 
Q 3022 478 2636 193 
Q 2250 -91 1575 -91 
Q 1294 -91 989 -36 
Q 684 19 347 128 
L 347 722 
Q 666 556 975 473 
Q 1284 391 1588 391 
Q 1994 391 2212 530 
Q 2431 669 2431 922 
Q 2431 1156 2273 1281 
Q 2116 1406 1581 1522 
L 1381 1569 
Q 847 1681 609 1914 
Q 372 2147 372 2553 
Q 372 3047 722 3315 
Q 1072 3584 1716 3584 
Q 2034 3584 2315 3537 
Q 2597 3491 2834 3397 
z
" transform="scale(0.015625)"/>
        <path id="DejaVuSans-68" d="M 3513 2113 
L 3513 0 
L 2938 0 
L 2938 2094 
Q 2938 2591 2744 2837 
Q 2550 3084 2163 3084 
Q 1697 3084 1428 2787 
Q 1159 2491 1159 1978 
L 1159 0 
L 581 0 
L 581 4863 
L 1159 4863 
L 1159 2956 
Q 1366 3272 1645 3428 
Q 1925 3584 2291 3584 
Q 2894 3584 3203 3211 
Q 3513 2838 3513 2113 
z
" transform="scale(0.015625)"/>
        <path id="DejaVuSans-69" d="M 603 3500 
L 1178 3500 
L 1178 0 
L 603 0 
L 603 3500 
z
M 603 4863 
L 1178 4863 
L 1178 4134 
L 603 4134 
L 603 4863 
z
" transform="scale(0.015625)"/>
        <path id="DejaVuSans-66" d="M 2375 4863 
L 2375 4384 
L 1825 4384 
Q 1516 4384 1395 4259 
Q 1275 4134 1275 3809 
L 1275 3500 
L 2222 3500 
L 2222 3053 
L 1275 3053 
L 1275 0 
L 697 0 
L 697 3053 
L 147 3053 
L 147 3500 
L 697 3500 
L 697 3744 
Q 697 4328 969 4595 
Q 1241 4863 1831 4863 
L 2375 4863 
z
" transform="scale(0.015625)"/>
        <path id="DejaVuSans-74" d="M 1172 4494 
L 1172 3500 
L 2356 3500 
L 2356 3053 
L 1172 3053 
L 1172 1153 
Q 1172 725 1289 603 
Q 1406 481 1766 481 
L 2356 481 
L 2356 0 
L 1766 0 
Q 1100 0 847 248 
Q 594 497 594 1153 
L 594 3053 
L 172 3053 
L 172 3500 
L 594 3500 
L 594 4494 
L 1172 4494 
z
" transform="scale(0.015625)"/>
        <path id="DejaVuSans-5f" d="M 3263 -1063 
L 3263 -1509 
L -63 -1509 
L -63 -1063 
L 3263 -1063 
z
" transform="scale(0.015625)"/>
        <path id="DejaVuSans-31" d="M 794 531 
L 1825 531 
L 1825 4091 
L 703 3866 
L 703 4441 
L 1819 4666 
L 2450 4666 
L 2450 531 
L 3481 531 
L 3481 0 
L 794 0 
L 794 531 
z
" transform="scale(0.015625)"/>
        <path id="DejaVuSans-32" d="M 1228 531 
L 3431 531 
L 3431 0 
L 469 0 
L 469 531 
Q 828 903 1448 1529 
Q 2069 2156 2228 2338 
Q 2531 2678 2651 2914 
Q 2772 3150 2772 3378 
Q 2772 3750 2511 3984 
Q 2250 4219 1831 4219 
Q 1534 4219 1204 4116 
Q 875 4013 500 3803 
L 500 4441 
Q 881 4594 1212 4672 
Q 1544 4750 1819 4750 
Q 2544 4750 2975 4387 
Q 3406 4025 3406 3419 
Q 3406 3131 3298 2873 
Q 3191 2616 2906 2266 
Q 2828 2175 2409 1742 
Q 1991 1309 1228 531 
z
" transform="scale(0.015625)"/>
        <path id="DejaVuSans-38" d="M 2034 2216 
Q 1584 2216 1326 1975 
Q 1069 1734 1069 1313 
Q 1069 891 1326 650 
Q 1584 409 2034 409 
Q 2484 409 2743 651 
Q 3003 894 3003 1313 
Q 3003 1734 2745 1975 
Q 2488 2216 2034 2216 
z
M 1403 2484 
Q 997 2584 770 2862 
Q 544 3141 544 3541 
Q 544 4100 942 4425 
Q 1341 4750 2034 4750 
Q 2731 4750 3128 4425 
Q 3525 4100 3525 3541 
Q 3525 3141 3298 2862 
Q 3072 2584 2669 2484 
Q 3125 2378 3379 2068 
Q 3634 1759 3634 1313 
Q 3634 634 3220 271 
Q 2806 -91 2034 -91 
Q 1263 -91 848 271 
Q 434 634 434 1313 
Q 434 1759 690 2068 
Q 947 2378 1403 2484 
z
M 1172 3481 
Q 1172 3119 1398 2916 
Q 1625 2713 2034 2713 
Q 2441 2713 2670 2916 
Q 2900 3119 2900 3481 
Q 2900 3844 2670 4047 
Q 2441 4250 2034 4250 
Q 1625 4250 1398 4047 
Q 1172 3844 1172 3481 
z
" transform="scale(0.015625)"/>
       </defs>
       <use xlink:href="#DejaVuSans-62"/>
       <use xlink:href="#DejaVuSans-61" transform="translate(63.476562 0)"/>
       <use xlink:href="#DejaVuSans-72" transform="translate(124.755859 0)"/>
       <use xlink:href="#DejaVuSans-73" transform="translate(165.869141 0)"/>
       <use xlink:href="#DejaVuSans-68" transform="translate(217.96875 0)"/>
       <use xlink:href="#DejaVuSans-69" transform="translate(281.347656 0)"/>
       <use xlink:href="#DejaVuSans-66" transform="translate(309.130859 0)"/>
       <use xlink:href="#DejaVuSans-74" transform="translate(342.585938 0)"/>
       <use xlink:href="#DejaVuSans-5f" transform="translate(381.794922 0)"/>
       <use xlink:href="#DejaVuSans-31" transform="translate(431.794922 0)"/>
       <use xlink:href="#DejaVuSans-32" transform="translate(495.417969 0)"/>
       <use xlink:href="#DejaVuSans-38" transform="translate(559.041016 0)"/>
       <use xlink:href="#DejaVuSans-62" transform="translate(622.664062 0)"/>
      </g>
     </g>
    </g>
    <g id="xtick_3">
     <g id="line2d_3">
      <g>
       <use xlink:href="#m2e2073bab7" x="292.999545" y="318.306348" style="stroke: #000000; stroke-width: 0.8"/>
      </g>
     </g>
     <g id="text_3">
      <!-- sobel -->
      <g transform="translate(260.543344 364.006302) rotate(-45) scale(0.16 -0.16)">
       <defs>
        <path id="DejaVuSans-6f" d="M 1959 3097 
Q 1497 3097 1228 2736 
Q 959 2375 959 1747 
Q 959 1119 1226 758 
Q 1494 397 1959 397 
Q 2419 397 2687 759 
Q 2956 1122 2956 1747 
Q 2956 2369 2687 2733 
Q 2419 3097 1959 3097 
z
M 1959 3584 
Q 2709 3584 3137 3096 
Q 3566 2609 3566 1747 
Q 3566 888 3137 398 
Q 2709 -91 1959 -91 
Q 1206 -91 779 398 
Q 353 888 353 1747 
Q 353 2609 779 3096 
Q 1206 3584 1959 3584 
z
" transform="scale(0.015625)"/>
        <path id="DejaVuSans-6c" d="M 603 4863 
L 1178 4863 
L 1178 0 
L 603 0 
L 603 4863 
z
" transform="scale(0.015625)"/>
       </defs>
       <use xlink:href="#DejaVuSans-73"/>
       <use xlink:href="#DejaVuSans-6f" transform="translate(52.099609 0)"/>
       <use xlink:href="#DejaVuSans-62" transform="translate(113.28125 0)"/>
       <use xlink:href="#DejaVuSans-65" transform="translate(176.757812 0)"/>
       <use xlink:href="#DejaVuSans-6c" transform="translate(238.28125 0)"/>
      </g>
     </g>
    </g>
    <g id="xtick_4">
     <g id="line2d_4">
      <g>
       <use xlink:href="#m2e2073bab7" x="362.620758" y="318.306348" style="stroke: #000000; stroke-width: 0.8"/>
      </g>
     </g>
     <g id="text_4">
      <!-- BK_32b -->
      <g transform="translate(317.535629 376.320566) rotate(-45) scale(0.16 -0.16)">
       <defs>
        <path id="DejaVuSans-42" d="M 1259 2228 
L 1259 519 
L 2272 519 
Q 2781 519 3026 730 
Q 3272 941 3272 1375 
Q 3272 1813 3026 2020 
Q 2781 2228 2272 2228 
L 1259 2228 
z
M 1259 4147 
L 1259 2741 
L 2194 2741 
Q 2656 2741 2882 2914 
Q 3109 3088 3109 3444 
Q 3109 3797 2882 3972 
Q 2656 4147 2194 4147 
L 1259 4147 
z
M 628 4666 
L 2241 4666 
Q 2963 4666 3353 4366 
Q 3744 4066 3744 3513 
Q 3744 3084 3544 2831 
Q 3344 2578 2956 2516 
Q 3422 2416 3680 2098 
Q 3938 1781 3938 1306 
Q 3938 681 3513 340 
Q 3088 0 2303 0 
L 628 0 
L 628 4666 
z
" transform="scale(0.015625)"/>
        <path id="DejaVuSans-4b" d="M 628 4666 
L 1259 4666 
L 1259 2694 
L 3353 4666 
L 4166 4666 
L 1850 2491 
L 4331 0 
L 3500 0 
L 1259 2247 
L 1259 0 
L 628 0 
L 628 4666 
z
" transform="scale(0.015625)"/>
        <path id="DejaVuSans-33" d="M 2597 2516 
Q 3050 2419 3304 2112 
Q 3559 1806 3559 1356 
Q 3559 666 3084 287 
Q 2609 -91 1734 -91 
Q 1441 -91 1130 -33 
Q 819 25 488 141 
L 488 750 
Q 750 597 1062 519 
Q 1375 441 1716 441 
Q 2309 441 2620 675 
Q 2931 909 2931 1356 
Q 2931 1769 2642 2001 
Q 2353 2234 1838 2234 
L 1294 2234 
L 1294 2753 
L 1863 2753 
Q 2328 2753 2575 2939 
Q 2822 3125 2822 3475 
Q 2822 3834 2567 4026 
Q 2313 4219 1838 4219 
Q 1578 4219 1281 4162 
Q 984 4106 628 3988 
L 628 4550 
Q 988 4650 1302 4700 
Q 1616 4750 1894 4750 
Q 2613 4750 3031 4423 
Q 3450 4097 3450 3541 
Q 3450 3153 3228 2886 
Q 3006 2619 2597 2516 
z
" transform="scale(0.015625)"/>
       </defs>
       <use xlink:href="#DejaVuSans-42"/>
       <use xlink:href="#DejaVuSans-4b" transform="translate(68.603516 0)"/>
       <use xlink:href="#DejaVuSans-5f" transform="translate(134.179688 0)"/>
       <use xlink:href="#DejaVuSans-33" transform="translate(184.179688 0)"/>
       <use xlink:href="#DejaVuSans-32" transform="translate(247.802734 0)"/>
       <use xlink:href="#DejaVuSans-62" transform="translate(311.425781 0)"/>
      </g>
     </g>
    </g>
    <g id="xtick_5">
     <g id="line2d_5">
      <g>
       <use xlink:href="#m2e2073bab7" x="432.24197" y="318.306348" style="stroke: #000000; stroke-width: 0.8"/>
      </g>
     </g>
     <g id="text_5">
      <!-- KS_32b -->
      <g transform="translate(387.736669 375.740739) rotate(-45) scale(0.16 -0.16)">
       <defs>
        <path id="DejaVuSans-53" d="M 3425 4513 
L 3425 3897 
Q 3066 4069 2747 4153 
Q 2428 4238 2131 4238 
Q 1616 4238 1336 4038 
Q 1056 3838 1056 3469 
Q 1056 3159 1242 3001 
Q 1428 2844 1947 2747 
L 2328 2669 
Q 3034 2534 3370 2195 
Q 3706 1856 3706 1288 
Q 3706 609 3251 259 
Q 2797 -91 1919 -91 
Q 1588 -91 1214 -16 
Q 841 59 441 206 
L 441 856 
Q 825 641 1194 531 
Q 1563 422 1919 422 
Q 2459 422 2753 634 
Q 3047 847 3047 1241 
Q 3047 1584 2836 1778 
Q 2625 1972 2144 2069 
L 1759 2144 
Q 1053 2284 737 2584 
Q 422 2884 422 3419 
Q 422 4038 858 4394 
Q 1294 4750 2059 4750 
Q 2388 4750 2728 4690 
Q 3069 4631 3425 4513 
z
" transform="scale(0.015625)"/>
       </defs>
       <use xlink:href="#DejaVuSans-4b"/>
       <use xlink:href="#DejaVuSans-53" transform="translate(65.576172 0)"/>
       <use xlink:href="#DejaVuSans-5f" transform="translate(129.052734 0)"/>
       <use xlink:href="#DejaVuSans-33" transform="translate(179.052734 0)"/>
       <use xlink:href="#DejaVuSans-32" transform="translate(242.675781 0)"/>
       <use xlink:href="#DejaVuSans-62" transform="translate(306.298828 0)"/>
      </g>
     </g>
    </g>
    <g id="xtick_6">
     <g id="line2d_6">
      <g>
       <use xlink:href="#m2e2073bab7" x="501.863182" y="318.306348" style="stroke: #000000; stroke-width: 0.8"/>
      </g>
     </g>
     <g id="text_6">
      <!-- CLA_16b -->
      <g transform="translate(449.761786 383.336833) rotate(-45) scale(0.16 -0.16)">
       <defs>
        <path id="DejaVuSans-43" d="M 4122 4306 
L 4122 3641 
Q 3803 3938 3442 4084 
Q 3081 4231 2675 4231 
Q 1875 4231 1450 3742 
Q 1025 3253 1025 2328 
Q 1025 1406 1450 917 
Q 1875 428 2675 428 
Q 3081 428 3442 575 
Q 3803 722 4122 1019 
L 4122 359 
Q 3791 134 3420 21 
Q 3050 -91 2638 -91 
Q 1578 -91 968 557 
Q 359 1206 359 2328 
Q 359 3453 968 4101 
Q 1578 4750 2638 4750 
Q 3056 4750 3426 4639 
Q 3797 4528 4122 4306 
z
" transform="scale(0.015625)"/>
        <path id="DejaVuSans-4c" d="M 628 4666 
L 1259 4666 
L 1259 531 
L 3531 531 
L 3531 0 
L 628 0 
L 628 4666 
z
" transform="scale(0.015625)"/>
        <path id="DejaVuSans-41" d="M 2188 4044 
L 1331 1722 
L 3047 1722 
L 2188 4044 
z
M 1831 4666 
L 2547 4666 
L 4325 0 
L 3669 0 
L 3244 1197 
L 1141 1197 
L 716 0 
L 50 0 
L 1831 4666 
z
" transform="scale(0.015625)"/>
        <path id="DejaVuSans-36" d="M 2113 2584 
Q 1688 2584 1439 2293 
Q 1191 2003 1191 1497 
Q 1191 994 1439 701 
Q 1688 409 2113 409 
Q 2538 409 2786 701 
Q 3034 994 3034 1497 
Q 3034 2003 2786 2293 
Q 2538 2584 2113 2584 
z
M 3366 4563 
L 3366 3988 
Q 3128 4100 2886 4159 
Q 2644 4219 2406 4219 
Q 1781 4219 1451 3797 
Q 1122 3375 1075 2522 
Q 1259 2794 1537 2939 
Q 1816 3084 2150 3084 
Q 2853 3084 3261 2657 
Q 3669 2231 3669 1497 
Q 3669 778 3244 343 
Q 2819 -91 2113 -91 
Q 1303 -91 875 529 
Q 447 1150 447 2328 
Q 447 3434 972 4092 
Q 1497 4750 2381 4750 
Q 2619 4750 2861 4703 
Q 3103 4656 3366 4563 
z
" transform="scale(0.015625)"/>
       </defs>
       <use xlink:href="#DejaVuSans-43"/>
       <use xlink:href="#DejaVuSans-4c" transform="translate(69.824219 0)"/>
       <use xlink:href="#DejaVuSans-41" transform="translate(127.787109 0)"/>
       <use xlink:href="#DejaVuSans-5f" transform="translate(196.195312 0)"/>
       <use xlink:href="#DejaVuSans-31" transform="translate(246.195312 0)"/>
       <use xlink:href="#DejaVuSans-36" transform="translate(309.818359 0)"/>
       <use xlink:href="#DejaVuSans-62" transform="translate(373.441406 0)"/>
      </g>
     </g>
    </g>
    <g id="xtick_7">
     <g id="line2d_7">
      <g>
       <use xlink:href="#m2e2073bab7" x="571.484394" y="318.306348" style="stroke: #000000; stroke-width: 0.8"/>
      </g>
     </g>
     <g id="text_7">
      <!-- BK_16b -->
      <g transform="translate(526.399266 376.320566) rotate(-45) scale(0.16 -0.16)">
       <use xlink:href="#DejaVuSans-42"/>
       <use xlink:href="#DejaVuSans-4b" transform="translate(68.603516 0)"/>
       <use xlink:href="#DejaVuSans-5f" transform="translate(134.179688 0)"/>
       <use xlink:href="#DejaVuSans-31" transform="translate(184.179688 0)"/>
       <use xlink:href="#DejaVuSans-36" transform="translate(247.802734 0)"/>
       <use xlink:href="#DejaVuSans-62" transform="translate(311.425781 0)"/>
      </g>
     </g>
    </g>
    <g id="xtick_8">
     <g id="line2d_8">
      <g>
       <use xlink:href="#m2e2073bab7" x="641.105606" y="318.306348" style="stroke: #000000; stroke-width: 0.8"/>
      </g>
     </g>
     <g id="text_8">
      <!-- CSkipA_16b -->
      <g transform="translate(571.503318 400.837726) rotate(-45) scale(0.16 -0.16)">
       <defs>
        <path id="DejaVuSans-6b" d="M 581 4863 
L 1159 4863 
L 1159 1991 
L 2875 3500 
L 3609 3500 
L 1753 1863 
L 3688 0 
L 2938 0 
L 1159 1709 
L 1159 0 
L 581 0 
L 581 4863 
z
" transform="scale(0.015625)"/>
        <path id="DejaVuSans-70" d="M 1159 525 
L 1159 -1331 
L 581 -1331 
L 581 3500 
L 1159 3500 
L 1159 2969 
Q 1341 3281 1617 3432 
Q 1894 3584 2278 3584 
Q 2916 3584 3314 3078 
Q 3713 2572 3713 1747 
Q 3713 922 3314 415 
Q 2916 -91 2278 -91 
Q 1894 -91 1617 61 
Q 1341 213 1159 525 
z
M 3116 1747 
Q 3116 2381 2855 2742 
Q 2594 3103 2138 3103 
Q 1681 3103 1420 2742 
Q 1159 2381 1159 1747 
Q 1159 1113 1420 752 
Q 1681 391 2138 391 
Q 2594 391 2855 752 
Q 3116 1113 3116 1747 
z
" transform="scale(0.015625)"/>
       </defs>
       <use xlink:href="#DejaVuSans-43"/>
       <use xlink:href="#DejaVuSans-53" transform="translate(69.824219 0)"/>
       <use xlink:href="#DejaVuSans-6b" transform="translate(133.300781 0)"/>
       <use xlink:href="#DejaVuSans-69" transform="translate(191.210938 0)"/>
       <use xlink:href="#DejaVuSans-70" transform="translate(218.994141 0)"/>
       <use xlink:href="#DejaVuSans-41" transform="translate(282.470703 0)"/>
       <use xlink:href="#DejaVuSans-5f" transform="translate(350.878906 0)"/>
       <use xlink:href="#DejaVuSans-31" transform="translate(400.878906 0)"/>
       <use xlink:href="#DejaVuSans-36" transform="translate(464.501953 0)"/>
       <use xlink:href="#DejaVuSans-62" transform="translate(528.125 0)"/>
      </g>
     </g>
    </g>
    <g id="xtick_9">
     <g id="line2d_9">
      <g>
       <use xlink:href="#m2e2073bab7" x="710.726818" y="318.306348" style="stroke: #000000; stroke-width: 0.8"/>
      </g>
     </g>
     <g id="text_9">
      <!-- KS_16b -->
      <g transform="translate(666.221517 375.740739) rotate(-45) scale(0.16 -0.16)">
       <use xlink:href="#DejaVuSans-4b"/>
       <use xlink:href="#DejaVuSans-53" transform="translate(65.576172 0)"/>
       <use xlink:href="#DejaVuSans-5f" transform="translate(129.052734 0)"/>
       <use xlink:href="#DejaVuSans-31" transform="translate(179.052734 0)"/>
       <use xlink:href="#DejaVuSans-36" transform="translate(242.675781 0)"/>
       <use xlink:href="#DejaVuSans-62" transform="translate(306.298828 0)"/>
      </g>
     </g>
    </g>
    <g id="xtick_10">
     <g id="line2d_10">
      <g>
       <use xlink:href="#m2e2073bab7" x="780.34803" y="318.306348" style="stroke: #000000; stroke-width: 0.8"/>
      </g>
     </g>
     <g id="text_10">
      <!-- LFA_16b -->
      <g transform="translate(730.92657 380.656899) rotate(-45) scale(0.16 -0.16)">
       <defs>
        <path id="DejaVuSans-46" d="M 628 4666 
L 3309 4666 
L 3309 4134 
L 1259 4134 
L 1259 2759 
L 3109 2759 
L 3109 2228 
L 1259 2228 
L 1259 0 
L 628 0 
L 628 4666 
z
" transform="scale(0.015625)"/>
       </defs>
       <use xlink:href="#DejaVuSans-4c"/>
       <use xlink:href="#DejaVuSans-46" transform="translate(55.712891 0)"/>
       <use xlink:href="#DejaVuSans-41" transform="translate(104.107422 0)"/>
       <use xlink:href="#DejaVuSans-5f" transform="translate(172.515625 0)"/>
       <use xlink:href="#DejaVuSans-31" transform="translate(222.515625 0)"/>
       <use xlink:href="#DejaVuSans-36" transform="translate(286.138672 0)"/>
       <use xlink:href="#DejaVuSans-62" transform="translate(349.761719 0)"/>
      </g>
     </g>
    </g>
    <g id="xtick_11">
     <g id="line2d_11">
      <g>
       <use xlink:href="#m2e2073bab7" x="849.969242" y="318.306348" style="stroke: #000000; stroke-width: 0.8"/>
      </g>
     </g>
     <g id="text_11">
      <!-- WT_8b -->
      <g transform="translate(809.167413 372.037267) rotate(-45) scale(0.16 -0.16)">
       <defs>
        <path id="DejaVuSans-57" d="M 213 4666 
L 850 4666 
L 1831 722 
L 2809 4666 
L 3519 4666 
L 4500 722 
L 5478 4666 
L 6119 4666 
L 4947 0 
L 4153 0 
L 3169 4050 
L 2175 0 
L 1381 0 
L 213 4666 
z
" transform="scale(0.015625)"/>
       </defs>
       <use xlink:href="#DejaVuSans-57"/>
       <use xlink:href="#DejaVuSans-54" transform="translate(98.876953 0)"/>
       <use xlink:href="#DejaVuSans-5f" transform="translate(159.960938 0)"/>
       <use xlink:href="#DejaVuSans-38" transform="translate(209.960938 0)"/>
       <use xlink:href="#DejaVuSans-62" transform="translate(273.583984 0)"/>
      </g>
     </g>
    </g>
    <g id="xtick_12">
     <g id="line2d_12">
      <g>
       <use xlink:href="#m2e2073bab7" x="919.590455" y="318.306348" style="stroke: #000000; stroke-width: 0.8"/>
      </g>
     </g>
     <g id="text_12">
      <!-- int2float -->
      <g transform="translate(869.873777 381.266778) rotate(-45) scale(0.16 -0.16)">
       <defs>
        <path id="DejaVuSans-6e" d="M 3513 2113 
L 3513 0 
L 2938 0 
L 2938 2094 
Q 2938 2591 2744 2837 
Q 2550 3084 2163 3084 
Q 1697 3084 1428 2787 
Q 1159 2491 1159 1978 
L 1159 0 
L 581 0 
L 581 3500 
L 1159 3500 
L 1159 2956 
Q 1366 3272 1645 3428 
Q 1925 3584 2291 3584 
Q 2894 3584 3203 3211 
Q 3513 2838 3513 2113 
z
" transform="scale(0.015625)"/>
       </defs>
       <use xlink:href="#DejaVuSans-69"/>
       <use xlink:href="#DejaVuSans-6e" transform="translate(27.783203 0)"/>
       <use xlink:href="#DejaVuSans-74" transform="translate(91.162109 0)"/>
       <use xlink:href="#DejaVuSans-32" transform="translate(130.371094 0)"/>
       <use xlink:href="#DejaVuSans-66" transform="translate(193.994141 0)"/>
       <use xlink:href="#DejaVuSans-6c" transform="translate(229.199219 0)"/>
       <use xlink:href="#DejaVuSans-6f" transform="translate(256.982422 0)"/>
       <use xlink:href="#DejaVuSans-61" transform="translate(318.164062 0)"/>
       <use xlink:href="#DejaVuSans-74" transform="translate(379.443359 0)"/>
      </g>
     </g>
    </g>
    <g id="xtick_13">
     <g id="line2d_13">
      <g>
       <use xlink:href="#m2e2073bab7" x="989.211667" y="318.306348" style="stroke: #000000; stroke-width: 0.8"/>
      </g>
     </g>
     <g id="text_13">
      <!-- RCA_4b -->
      <g transform="translate(943.571459 376.875645) rotate(-45) scale(0.16 -0.16)">
       <defs>
        <path id="DejaVuSans-52" d="M 2841 2188 
Q 3044 2119 3236 1894 
Q 3428 1669 3622 1275 
L 4263 0 
L 3584 0 
L 2988 1197 
Q 2756 1666 2539 1819 
Q 2322 1972 1947 1972 
L 1259 1972 
L 1259 0 
L 628 0 
L 628 4666 
L 2053 4666 
Q 2853 4666 3247 4331 
Q 3641 3997 3641 3322 
Q 3641 2881 3436 2590 
Q 3231 2300 2841 2188 
z
M 1259 4147 
L 1259 2491 
L 2053 2491 
Q 2509 2491 2742 2702 
Q 2975 2913 2975 3322 
Q 2975 3731 2742 3939 
Q 2509 4147 2053 4147 
L 1259 4147 
z
" transform="scale(0.015625)"/>
        <path id="DejaVuSans-34" d="M 2419 4116 
L 825 1625 
L 2419 1625 
L 2419 4116 
z
M 2253 4666 
L 3047 4666 
L 3047 1625 
L 3713 1625 
L 3713 1100 
L 3047 1100 
L 3047 0 
L 2419 0 
L 2419 1100 
L 313 1100 
L 313 1709 
L 2253 4666 
z
" transform="scale(0.015625)"/>
       </defs>
       <use xlink:href="#DejaVuSans-52"/>
       <use xlink:href="#DejaVuSans-43" transform="translate(64.482422 0)"/>
       <use xlink:href="#DejaVuSans-41" transform="translate(134.306641 0)"/>
       <use xlink:href="#DejaVuSans-5f" transform="translate(202.714844 0)"/>
       <use xlink:href="#DejaVuSans-34" transform="translate(252.714844 0)"/>
       <use xlink:href="#DejaVuSans-62" transform="translate(316.337891 0)"/>
      </g>
     </g>
    </g>
    <g id="xtick_14">
     <g id="line2d_14">
      <g>
       <use xlink:href="#m2e2073bab7" x="1058.832879" y="318.306348" style="stroke: #000000; stroke-width: 0.8"/>
      </g>
     </g>
     <g id="text_14">
      <!-- dec -->
      <g transform="translate(1036.115306 354.267674) rotate(-45) scale(0.16 -0.16)">
       <defs>
        <path id="DejaVuSans-64" d="M 2906 2969 
L 2906 4863 
L 3481 4863 
L 3481 0 
L 2906 0 
L 2906 525 
Q 2725 213 2448 61 
Q 2172 -91 1784 -91 
Q 1150 -91 751 415 
Q 353 922 353 1747 
Q 353 2572 751 3078 
Q 1150 3584 1784 3584 
Q 2172 3584 2448 3432 
Q 2725 3281 2906 2969 
z
M 947 1747 
Q 947 1113 1208 752 
Q 1469 391 1925 391 
Q 2381 391 2643 752 
Q 2906 1113 2906 1747 
Q 2906 2381 2643 2742 
Q 2381 3103 1925 3103 
Q 1469 3103 1208 2742 
Q 947 2381 947 1747 
z
" transform="scale(0.015625)"/>
        <path id="DejaVuSans-63" d="M 3122 3366 
L 3122 2828 
Q 2878 2963 2633 3030 
Q 2388 3097 2138 3097 
Q 1578 3097 1268 2742 
Q 959 2388 959 1747 
Q 959 1106 1268 751 
Q 1578 397 2138 397 
Q 2388 397 2633 464 
Q 2878 531 3122 666 
L 3122 134 
Q 2881 22 2623 -34 
Q 2366 -91 2075 -91 
Q 1284 -91 818 406 
Q 353 903 353 1747 
Q 353 2603 823 3093 
Q 1294 3584 2113 3584 
Q 2378 3584 2631 3529 
Q 2884 3475 3122 3366 
z
" transform="scale(0.015625)"/>
       </defs>
       <use xlink:href="#DejaVuSans-64"/>
       <use xlink:href="#DejaVuSans-65" transform="translate(63.476562 0)"/>
       <use xlink:href="#DejaVuSans-63" transform="translate(125 0)"/>
      </g>
     </g>
    </g>
   </g>
   <g id="matplotlib.axis_2">
    <g id="ytick_1">
     <g id="line2d_15">
      <path d="M 77.87 318.306348 
L 1134.72 318.306348 
" clip-path="url(#p157e42b95b)" style="fill: none; stroke-dasharray: 2.96,1.28; stroke-dashoffset: 0; stroke: #b0b0b0; stroke-opacity: 0.5; stroke-width: 0.8"/>
     </g>
     <g id="line2d_16">
      <defs>
       <path id="m6a48295e89" d="M 0 0 
L -3.5 0 
" style="stroke: #000000; stroke-width: 0.8"/>
      </defs>
      <g>
       <use xlink:href="#m6a48295e89" x="77.87" y="318.306348" style="stroke: #000000; stroke-width: 0.8"/>
      </g>
     </g>
     <g id="text_15">
      <!-- 0 -->
      <g transform="translate(60.69 324.385098) scale(0.16 -0.16)">
       <defs>
        <path id="DejaVuSans-30" d="M 2034 4250 
Q 1547 4250 1301 3770 
Q 1056 3291 1056 2328 
Q 1056 1369 1301 889 
Q 1547 409 2034 409 
Q 2525 409 2770 889 
Q 3016 1369 3016 2328 
Q 3016 3291 2770 3770 
Q 2525 4250 2034 4250 
z
M 2034 4750 
Q 2819 4750 3233 4129 
Q 3647 3509 3647 2328 
Q 3647 1150 3233 529 
Q 2819 -91 2034 -91 
Q 1250 -91 836 529 
Q 422 1150 422 2328 
Q 422 3509 836 4129 
Q 1250 4750 2034 4750 
z
" transform="scale(0.015625)"/>
       </defs>
       <use xlink:href="#DejaVuSans-30"/>
      </g>
     </g>
    </g>
    <g id="ytick_2">
     <g id="line2d_17">
      <path d="M 77.87 255.296511 
L 1134.72 255.296511 
" clip-path="url(#p157e42b95b)" style="fill: none; stroke-dasharray: 2.96,1.28; stroke-dashoffset: 0; stroke: #b0b0b0; stroke-opacity: 0.5; stroke-width: 0.8"/>
     </g>
     <g id="line2d_18">
      <g>
       <use xlink:href="#m6a48295e89" x="77.87" y="255.296511" style="stroke: #000000; stroke-width: 0.8"/>
      </g>
     </g>
     <g id="text_16">
      <!-- 100 -->
      <g transform="translate(40.33 261.375261) scale(0.16 -0.16)">
       <use xlink:href="#DejaVuSans-31"/>
       <use xlink:href="#DejaVuSans-30" transform="translate(63.623047 0)"/>
       <use xlink:href="#DejaVuSans-30" transform="translate(127.246094 0)"/>
      </g>
     </g>
    </g>
    <g id="ytick_3">
     <g id="line2d_19">
      <path d="M 77.87 192.286674 
L 1134.72 192.286674 
" clip-path="url(#p157e42b95b)" style="fill: none; stroke-dasharray: 2.96,1.28; stroke-dashoffset: 0; stroke: #b0b0b0; stroke-opacity: 0.5; stroke-width: 0.8"/>
     </g>
     <g id="line2d_20">
      <g>
       <use xlink:href="#m6a48295e89" x="77.87" y="192.286674" style="stroke: #000000; stroke-width: 0.8"/>
      </g>
     </g>
     <g id="text_17">
      <!-- 200 -->
      <g transform="translate(40.33 198.365424) scale(0.16 -0.16)">
       <use xlink:href="#DejaVuSans-32"/>
       <use xlink:href="#DejaVuSans-30" transform="translate(63.623047 0)"/>
       <use xlink:href="#DejaVuSans-30" transform="translate(127.246094 0)"/>
      </g>
     </g>
    </g>
    <g id="ytick_4">
     <g id="line2d_21">
      <path d="M 77.87 129.276837 
L 1134.72 129.276837 
" clip-path="url(#p157e42b95b)" style="fill: none; stroke-dasharray: 2.96,1.28; stroke-dashoffset: 0; stroke: #b0b0b0; stroke-opacity: 0.5; stroke-width: 0.8"/>
     </g>
     <g id="line2d_22">
      <g>
       <use xlink:href="#m6a48295e89" x="77.87" y="129.276837" style="stroke: #000000; stroke-width: 0.8"/>
      </g>
     </g>
     <g id="text_18">
      <!-- 300 -->
      <g transform="translate(40.33 135.355587) scale(0.16 -0.16)">
       <use xlink:href="#DejaVuSans-33"/>
       <use xlink:href="#DejaVuSans-30" transform="translate(63.623047 0)"/>
       <use xlink:href="#DejaVuSans-30" transform="translate(127.246094 0)"/>
      </g>
     </g>
    </g>
    <g id="ytick_5">
     <g id="line2d_23">
      <path d="M 77.87 66.267001 
L 1134.72 66.267001 
" clip-path="url(#p157e42b95b)" style="fill: none; stroke-dasharray: 2.96,1.28; stroke-dashoffset: 0; stroke: #b0b0b0; stroke-opacity: 0.5; stroke-width: 0.8"/>
     </g>
     <g id="line2d_24">
      <g>
       <use xlink:href="#m6a48295e89" x="77.87" y="66.267001" style="stroke: #000000; stroke-width: 0.8"/>
      </g>
     </g>
     <g id="text_19">
      <!-- 400 -->
      <g transform="translate(40.33 72.345751) scale(0.16 -0.16)">
       <use xlink:href="#DejaVuSans-34"/>
       <use xlink:href="#DejaVuSans-30" transform="translate(63.623047 0)"/>
       <use xlink:href="#DejaVuSans-30" transform="translate(127.246094 0)"/>
      </g>
     </g>
    </g>
    <g id="text_20">
     <!-- rea (% de original) -->
     <g transform="translate(33.0025 247.574424) rotate(-90) scale(0.16 -0.16)">
      <defs>
       <path id="DejaVuSans-c1" d="M 2188 4044 
L 1331 1722 
L 3047 1722 
L 2188 4044 
z
M 1831 4666 
L 2547 4666 
L 4325 0 
L 3669 0 
L 3244 1197 
L 1141 1197 
L 716 0 
L 50 0 
L 1831 4666 
z
M 2359 5935 
L 2938 5935 
L 2225 5110 
L 1747 5110 
L 2359 5935 
z
" transform="scale(0.015625)"/>
       <path id="DejaVuSans-20" transform="scale(0.015625)"/>
       <path id="DejaVuSans-28" d="M 1984 4856 
Q 1566 4138 1362 3434 
Q 1159 2731 1159 2009 
Q 1159 1288 1364 580 
Q 1569 -128 1984 -844 
L 1484 -844 
Q 1016 -109 783 600 
Q 550 1309 550 2009 
Q 550 2706 781 3412 
Q 1013 4119 1484 4856 
L 1984 4856 
z
" transform="scale(0.015625)"/>
       <path id="DejaVuSans-25" d="M 4653 2053 
Q 4381 2053 4226 1822 
Q 4072 1591 4072 1178 
Q 4072 772 4226 539 
Q 4381 306 4653 306 
Q 4919 306 5073 539 
Q 5228 772 5228 1178 
Q 5228 1588 5073 1820 
Q 4919 2053 4653 2053 
z
M 4653 2450 
Q 5147 2450 5437 2106 
Q 5728 1763 5728 1178 
Q 5728 594 5436 251 
Q 5144 -91 4653 -91 
Q 4153 -91 3862 251 
Q 3572 594 3572 1178 
Q 3572 1766 3864 2108 
Q 4156 2450 4653 2450 
z
M 1428 4353 
Q 1159 4353 1004 4120 
Q 850 3888 850 3481 
Q 850 3069 1003 2837 
Q 1156 2606 1428 2606 
Q 1700 2606 1854 2837 
Q 2009 3069 2009 3481 
Q 2009 3884 1853 4118 
Q 1697 4353 1428 4353 
z
M 4250 4750 
L 4750 4750 
L 1831 -91 
L 1331 -91 
L 4250 4750 
z
M 1428 4750 
Q 1922 4750 2215 4408 
Q 2509 4066 2509 3481 
Q 2509 2891 2217 2550 
Q 1925 2209 1428 2209 
Q 931 2209 642 2551 
Q 353 2894 353 3481 
Q 353 4063 643 4406 
Q 934 4750 1428 4750 
z
" transform="scale(0.015625)"/>
       <path id="DejaVuSans-67" d="M 2906 1791 
Q 2906 2416 2648 2759 
Q 2391 3103 1925 3103 
Q 1463 3103 1205 2759 
Q 947 2416 947 1791 
Q 947 1169 1205 825 
Q 1463 481 1925 481 
Q 2391 481 2648 825 
Q 2906 1169 2906 1791 
z
M 3481 434 
Q 3481 -459 3084 -895 
Q 2688 -1331 1869 -1331 
Q 1566 -1331 1297 -1286 
Q 1028 -1241 775 -1147 
L 775 -588 
Q 1028 -725 1275 -790 
Q 1522 -856 1778 -856 
Q 2344 -856 2625 -561 
Q 2906 -266 2906 331 
L 2906 616 
Q 2728 306 2450 153 
Q 2172 0 1784 0 
Q 1141 0 747 490 
Q 353 981 353 1791 
Q 353 2603 747 3093 
Q 1141 3584 1784 3584 
Q 2172 3584 2450 3431 
Q 2728 3278 2906 2969 
L 2906 3500 
L 3481 3500 
L 3481 434 
z
" transform="scale(0.015625)"/>
       <path id="DejaVuSans-29" d="M 513 4856 
L 1013 4856 
Q 1481 4119 1714 3412 
Q 1947 2706 1947 2009 
Q 1947 1309 1714 600 
Q 1481 -109 1013 -844 
L 513 -844 
Q 928 -128 1133 580 
Q 1338 1288 1338 2009 
Q 1338 2731 1133 3434 
Q 928 4138 513 4856 
z
" transform="scale(0.015625)"/>
      </defs>
      <use xlink:href="#DejaVuSans-c1"/>
      <use xlink:href="#DejaVuSans-72" transform="translate(68.408203 0)"/>
      <use xlink:href="#DejaVuSans-65" transform="translate(107.271484 0)"/>
      <use xlink:href="#DejaVuSans-61" transform="translate(168.794922 0)"/>
      <use xlink:href="#DejaVuSans-20" transform="translate(230.074219 0)"/>
      <use xlink:href="#DejaVuSans-28" transform="translate(261.861328 0)"/>
      <use xlink:href="#DejaVuSans-25" transform="translate(300.875 0)"/>
      <use xlink:href="#DejaVuSans-20" transform="translate(395.894531 0)"/>
      <use xlink:href="#DejaVuSans-64" transform="translate(427.681641 0)"/>
      <use xlink:href="#DejaVuSans-65" transform="translate(491.158203 0)"/>
      <use xlink:href="#DejaVuSans-20" transform="translate(552.681641 0)"/>
      <use xlink:href="#DejaVuSans-6f" transform="translate(584.46875 0)"/>
      <use xlink:href="#DejaVuSans-72" transform="translate(645.650391 0)"/>
      <use xlink:href="#DejaVuSans-69" transform="translate(686.763672 0)"/>
      <use xlink:href="#DejaVuSans-67" transform="translate(714.546875 0)"/>
      <use xlink:href="#DejaVuSans-69" transform="translate(778.023438 0)"/>
      <use xlink:href="#DejaVuSans-6e" transform="translate(805.806641 0)"/>
      <use xlink:href="#DejaVuSans-61" transform="translate(869.185547 0)"/>
      <use xlink:href="#DejaVuSans-6c" transform="translate(930.464844 0)"/>
      <use xlink:href="#DejaVuSans-29" transform="translate(958.248047 0)"/>
     </g>
    </g>
   </g>
   <g id="patch_115">
    <path d="M 77.87 318.306348 
L 77.87 17.28 
" style="fill: none; stroke: #000000; stroke-width: 0.8; stroke-linejoin: miter; stroke-linecap: square"/>
   </g>
   <g id="patch_116">
    <path d="M 1134.72 318.306348 
L 1134.72 17.28 
" style="fill: none; stroke: #000000; stroke-width: 0.8; stroke-linejoin: miter; stroke-linecap: square"/>
   </g>
   <g id="patch_117">
    <path d="M 77.87 318.306348 
L 1134.72 318.306348 
" style="fill: none; stroke: #000000; stroke-width: 0.8; stroke-linejoin: miter; stroke-linecap: square"/>
   </g>
   <g id="patch_118">
    <path d="M 77.87 17.28 
L 1134.72 17.28 
" style="fill: none; stroke: #000000; stroke-width: 0.8; stroke-linejoin: miter; stroke-linecap: square"/>
   </g>
   <g id="legend_1">
    <g id="patch_119">
     <path d="M 911.4725 217.96 
L 1123.52 217.96 
Q 1126.72 217.96 1126.72 214.76 
L 1126.72 28.48 
Q 1126.72 25.28 1123.52 25.28 
L 911.4725 25.28 
Q 908.2725 25.28 908.2725 28.48 
L 908.2725 214.76 
Q 908.2725 217.96 911.4725 217.96 
z
" style="fill: #ffffff; opacity: 0.8; stroke: #cccccc; stroke-linejoin: miter"/>
    </g>
    <g id="patch_120">
     <path d="M 914.6725 43.8375 
L 946.6725 43.8375 
L 946.6725 32.6375 
L 914.6725 32.6375 
z
" style="fill: #87ceeb; opacity: 0.4"/>
    </g>
    <g id="text_21">
     <!-- No Resynthesis - D3 -->
     <g transform="translate(959.4725 43.8375) scale(0.16 -0.16)">
      <defs>
       <path id="DejaVuSans-4e" d="M 628 4666 
L 1478 4666 
L 3547 763 
L 3547 4666 
L 4159 4666 
L 4159 0 
L 3309 0 
L 1241 3903 
L 1241 0 
L 628 0 
L 628 4666 
z
" transform="scale(0.015625)"/>
       <path id="DejaVuSans-79" d="M 2059 -325 
Q 1816 -950 1584 -1140 
Q 1353 -1331 966 -1331 
L 506 -1331 
L 506 -850 
L 844 -850 
Q 1081 -850 1212 -737 
Q 1344 -625 1503 -206 
L 1606 56 
L 191 3500 
L 800 3500 
L 1894 763 
L 2988 3500 
L 3597 3500 
L 2059 -325 
z
" transform="scale(0.015625)"/>
       <path id="DejaVuSans-2d" d="M 313 2009 
L 1997 2009 
L 1997 1497 
L 313 1497 
L 313 2009 
z
" transform="scale(0.015625)"/>
      </defs>
      <use xlink:href="#DejaVuSans-4e"/>
      <use xlink:href="#DejaVuSans-6f" transform="translate(74.804688 0)"/>
      <use xlink:href="#DejaVuSans-20" transform="translate(135.986328 0)"/>
      <use xlink:href="#DejaVuSans-52" transform="translate(167.773438 0)"/>
      <use xlink:href="#DejaVuSans-65" transform="translate(232.755859 0)"/>
      <use xlink:href="#DejaVuSans-73" transform="translate(294.279297 0)"/>
      <use xlink:href="#DejaVuSans-79" transform="translate(346.378906 0)"/>
      <use xlink:href="#DejaVuSans-6e" transform="translate(405.558594 0)"/>
      <use xlink:href="#DejaVuSans-74" transform="translate(468.9375 0)"/>
      <use xlink:href="#DejaVuSans-68" transform="translate(508.146484 0)"/>
      <use xlink:href="#DejaVuSans-65" transform="translate(571.525391 0)"/>
      <use xlink:href="#DejaVuSans-73" transform="translate(633.048828 0)"/>
      <use xlink:href="#DejaVuSans-69" transform="translate(685.148438 0)"/>
      <use xlink:href="#DejaVuSans-73" transform="translate(712.931641 0)"/>
      <use xlink:href="#DejaVuSans-20" transform="translate(765.03125 0)"/>
      <use xlink:href="#DejaVuSans-2d" transform="translate(796.818359 0)"/>
      <use xlink:href="#DejaVuSans-20" transform="translate(832.902344 0)"/>
      <use xlink:href="#DejaVuSans-44" transform="translate(864.689453 0)"/>
      <use xlink:href="#DejaVuSans-33" transform="translate(941.691406 0)"/>
     </g>
    </g>
    <g id="patch_121">
     <path d="M 914.6725 67.3225 
L 946.6725 67.3225 
L 946.6725 56.1225 
L 914.6725 56.1225 
z
" style="fill: #87ceeb; opacity: 0.6"/>
    </g>
    <g id="text_22">
     <!-- No Resynthesis - D4 -->
     <g transform="translate(959.4725 67.3225) scale(0.16 -0.16)">
      <use xlink:href="#DejaVuSans-4e"/>
      <use xlink:href="#DejaVuSans-6f" transform="translate(74.804688 0)"/>
      <use xlink:href="#DejaVuSans-20" transform="translate(135.986328 0)"/>
      <use xlink:href="#DejaVuSans-52" transform="translate(167.773438 0)"/>
      <use xlink:href="#DejaVuSans-65" transform="translate(232.755859 0)"/>
      <use xlink:href="#DejaVuSans-73" transform="translate(294.279297 0)"/>
      <use xlink:href="#DejaVuSans-79" transform="translate(346.378906 0)"/>
      <use xlink:href="#DejaVuSans-6e" transform="translate(405.558594 0)"/>
      <use xlink:href="#DejaVuSans-74" transform="translate(468.9375 0)"/>
      <use xlink:href="#DejaVuSans-68" transform="translate(508.146484 0)"/>
      <use xlink:href="#DejaVuSans-65" transform="translate(571.525391 0)"/>
      <use xlink:href="#DejaVuSans-73" transform="translate(633.048828 0)"/>
      <use xlink:href="#DejaVuSans-69" transform="translate(685.148438 0)"/>
      <use xlink:href="#DejaVuSans-73" transform="translate(712.931641 0)"/>
      <use xlink:href="#DejaVuSans-20" transform="translate(765.03125 0)"/>
      <use xlink:href="#DejaVuSans-2d" transform="translate(796.818359 0)"/>
      <use xlink:href="#DejaVuSans-20" transform="translate(832.902344 0)"/>
      <use xlink:href="#DejaVuSans-44" transform="translate(864.689453 0)"/>
      <use xlink:href="#DejaVuSans-34" transform="translate(941.691406 0)"/>
     </g>
    </g>
    <g id="patch_122">
     <path d="M 914.6725 90.8075 
L 946.6725 90.8075 
L 946.6725 79.6075 
L 914.6725 79.6075 
z
" style="fill: #87ceeb; opacity: 0.8"/>
    </g>
    <g id="text_23">
     <!-- No Resynthesis - D5 -->
     <g transform="translate(959.4725 90.8075) scale(0.16 -0.16)">
      <defs>
       <path id="DejaVuSans-35" d="M 691 4666 
L 3169 4666 
L 3169 4134 
L 1269 4134 
L 1269 2991 
Q 1406 3038 1543 3061 
Q 1681 3084 1819 3084 
Q 2600 3084 3056 2656 
Q 3513 2228 3513 1497 
Q 3513 744 3044 326 
Q 2575 -91 1722 -91 
Q 1428 -91 1123 -41 
Q 819 9 494 109 
L 494 744 
Q 775 591 1075 516 
Q 1375 441 1709 441 
Q 2250 441 2565 725 
Q 2881 1009 2881 1497 
Q 2881 1984 2565 2268 
Q 2250 2553 1709 2553 
Q 1456 2553 1204 2497 
Q 953 2441 691 2322 
L 691 4666 
z
" transform="scale(0.015625)"/>
      </defs>
      <use xlink:href="#DejaVuSans-4e"/>
      <use xlink:href="#DejaVuSans-6f" transform="translate(74.804688 0)"/>
      <use xlink:href="#DejaVuSans-20" transform="translate(135.986328 0)"/>
      <use xlink:href="#DejaVuSans-52" transform="translate(167.773438 0)"/>
      <use xlink:href="#DejaVuSans-65" transform="translate(232.755859 0)"/>
      <use xlink:href="#DejaVuSans-73" transform="translate(294.279297 0)"/>
      <use xlink:href="#DejaVuSans-79" transform="translate(346.378906 0)"/>
      <use xlink:href="#DejaVuSans-6e" transform="translate(405.558594 0)"/>
      <use xlink:href="#DejaVuSans-74" transform="translate(468.9375 0)"/>
      <use xlink:href="#DejaVuSans-68" transform="translate(508.146484 0)"/>
      <use xlink:href="#DejaVuSans-65" transform="translate(571.525391 0)"/>
      <use xlink:href="#DejaVuSans-73" transform="translate(633.048828 0)"/>
      <use xlink:href="#DejaVuSans-69" transform="translate(685.148438 0)"/>
      <use xlink:href="#DejaVuSans-73" transform="translate(712.931641 0)"/>
      <use xlink:href="#DejaVuSans-20" transform="translate(765.03125 0)"/>
      <use xlink:href="#DejaVuSans-2d" transform="translate(796.818359 0)"/>
      <use xlink:href="#DejaVuSans-20" transform="translate(832.902344 0)"/>
      <use xlink:href="#DejaVuSans-44" transform="translate(864.689453 0)"/>
      <use xlink:href="#DejaVuSans-35" transform="translate(941.691406 0)"/>
     </g>
    </g>
    <g id="patch_123">
     <path d="M 914.6725 114.2925 
L 946.6725 114.2925 
L 946.6725 103.0925 
L 914.6725 103.0925 
z
" style="fill: #87ceeb"/>
    </g>
    <g id="text_24">
     <!-- No Resynthesis - D6 -->
     <g transform="translate(959.4725 114.2925) scale(0.16 -0.16)">
      <use xlink:href="#DejaVuSans-4e"/>
      <use xlink:href="#DejaVuSans-6f" transform="translate(74.804688 0)"/>
      <use xlink:href="#DejaVuSans-20" transform="translate(135.986328 0)"/>
      <use xlink:href="#DejaVuSans-52" transform="translate(167.773438 0)"/>
      <use xlink:href="#DejaVuSans-65" transform="translate(232.755859 0)"/>
      <use xlink:href="#DejaVuSans-73" transform="translate(294.279297 0)"/>
      <use xlink:href="#DejaVuSans-79" transform="translate(346.378906 0)"/>
      <use xlink:href="#DejaVuSans-6e" transform="translate(405.558594 0)"/>
      <use xlink:href="#DejaVuSans-74" transform="translate(468.9375 0)"/>
      <use xlink:href="#DejaVuSans-68" transform="translate(508.146484 0)"/>
      <use xlink:href="#DejaVuSans-65" transform="translate(571.525391 0)"/>
      <use xlink:href="#DejaVuSans-73" transform="translate(633.048828 0)"/>
      <use xlink:href="#DejaVuSans-69" transform="translate(685.148438 0)"/>
      <use xlink:href="#DejaVuSans-73" transform="translate(712.931641 0)"/>
      <use xlink:href="#DejaVuSans-20" transform="translate(765.03125 0)"/>
      <use xlink:href="#DejaVuSans-2d" transform="translate(796.818359 0)"/>
      <use xlink:href="#DejaVuSans-20" transform="translate(832.902344 0)"/>
      <use xlink:href="#DejaVuSans-44" transform="translate(864.689453 0)"/>
      <use xlink:href="#DejaVuSans-36" transform="translate(941.691406 0)"/>
     </g>
    </g>
    <g id="patch_124">
     <path d="M 914.6725 137.7775 
L 946.6725 137.7775 
L 946.6725 126.5775 
L 914.6725 126.5775 
z
" style="fill: #fa8072; opacity: 0.4"/>
    </g>
    <g id="text_25">
     <!-- Resynthesis - D3 -->
     <g transform="translate(959.4725 137.7775) scale(0.16 -0.16)">
      <use xlink:href="#DejaVuSans-52"/>
      <use xlink:href="#DejaVuSans-65" transform="translate(64.982422 0)"/>
      <use xlink:href="#DejaVuSans-73" transform="translate(126.505859 0)"/>
      <use xlink:href="#DejaVuSans-79" transform="translate(178.605469 0)"/>
      <use xlink:href="#DejaVuSans-6e" transform="translate(237.785156 0)"/>
      <use xlink:href="#DejaVuSans-74" transform="translate(301.164062 0)"/>
      <use xlink:href="#DejaVuSans-68" transform="translate(340.373047 0)"/>
      <use xlink:href="#DejaVuSans-65" transform="translate(403.751953 0)"/>
      <use xlink:href="#DejaVuSans-73" transform="translate(465.275391 0)"/>
      <use xlink:href="#DejaVuSans-69" transform="translate(517.375 0)"/>
      <use xlink:href="#DejaVuSans-73" transform="translate(545.158203 0)"/>
      <use xlink:href="#DejaVuSans-20" transform="translate(597.257812 0)"/>
      <use xlink:href="#DejaVuSans-2d" transform="translate(629.044922 0)"/>
      <use xlink:href="#DejaVuSans-20" transform="translate(665.128906 0)"/>
      <use xlink:href="#DejaVuSans-44" transform="translate(696.916016 0)"/>
      <use xlink:href="#DejaVuSans-33" transform="translate(773.917969 0)"/>
     </g>
    </g>
    <g id="patch_125">
     <path d="M 914.6725 161.2625 
L 946.6725 161.2625 
L 946.6725 150.0625 
L 914.6725 150.0625 
z
" style="fill: #fa8072; opacity: 0.6"/>
    </g>
    <g id="text_26">
     <!-- Resynthesis - D4 -->
     <g transform="translate(959.4725 161.2625) scale(0.16 -0.16)">
      <use xlink:href="#DejaVuSans-52"/>
      <use xlink:href="#DejaVuSans-65" transform="translate(64.982422 0)"/>
      <use xlink:href="#DejaVuSans-73" transform="translate(126.505859 0)"/>
      <use xlink:href="#DejaVuSans-79" transform="translate(178.605469 0)"/>
      <use xlink:href="#DejaVuSans-6e" transform="translate(237.785156 0)"/>
      <use xlink:href="#DejaVuSans-74" transform="translate(301.164062 0)"/>
      <use xlink:href="#DejaVuSans-68" transform="translate(340.373047 0)"/>
      <use xlink:href="#DejaVuSans-65" transform="translate(403.751953 0)"/>
      <use xlink:href="#DejaVuSans-73" transform="translate(465.275391 0)"/>
      <use xlink:href="#DejaVuSans-69" transform="translate(517.375 0)"/>
      <use xlink:href="#DejaVuSans-73" transform="translate(545.158203 0)"/>
      <use xlink:href="#DejaVuSans-20" transform="translate(597.257812 0)"/>
      <use xlink:href="#DejaVuSans-2d" transform="translate(629.044922 0)"/>
      <use xlink:href="#DejaVuSans-20" transform="translate(665.128906 0)"/>
      <use xlink:href="#DejaVuSans-44" transform="translate(696.916016 0)"/>
      <use xlink:href="#DejaVuSans-34" transform="translate(773.917969 0)"/>
     </g>
    </g>
    <g id="patch_126">
     <path d="M 914.6725 184.7475 
L 946.6725 184.7475 
L 946.6725 173.5475 
L 914.6725 173.5475 
z
" style="fill: #fa8072; opacity: 0.8"/>
    </g>
    <g id="text_27">
     <!-- Resynthesis - D5 -->
     <g transform="translate(959.4725 184.7475) scale(0.16 -0.16)">
      <use xlink:href="#DejaVuSans-52"/>
      <use xlink:href="#DejaVuSans-65" transform="translate(64.982422 0)"/>
      <use xlink:href="#DejaVuSans-73" transform="translate(126.505859 0)"/>
      <use xlink:href="#DejaVuSans-79" transform="translate(178.605469 0)"/>
      <use xlink:href="#DejaVuSans-6e" transform="translate(237.785156 0)"/>
      <use xlink:href="#DejaVuSans-74" transform="translate(301.164062 0)"/>
      <use xlink:href="#DejaVuSans-68" transform="translate(340.373047 0)"/>
      <use xlink:href="#DejaVuSans-65" transform="translate(403.751953 0)"/>
      <use xlink:href="#DejaVuSans-73" transform="translate(465.275391 0)"/>
      <use xlink:href="#DejaVuSans-69" transform="translate(517.375 0)"/>
      <use xlink:href="#DejaVuSans-73" transform="translate(545.158203 0)"/>
      <use xlink:href="#DejaVuSans-20" transform="translate(597.257812 0)"/>
      <use xlink:href="#DejaVuSans-2d" transform="translate(629.044922 0)"/>
      <use xlink:href="#DejaVuSans-20" transform="translate(665.128906 0)"/>
      <use xlink:href="#DejaVuSans-44" transform="translate(696.916016 0)"/>
      <use xlink:href="#DejaVuSans-35" transform="translate(773.917969 0)"/>
     </g>
    </g>
    <g id="patch_127">
     <path d="M 914.6725 208.2325 
L 946.6725 208.2325 
L 946.6725 197.0325 
L 914.6725 197.0325 
z
" style="fill: #fa8072"/>
    </g>
    <g id="text_28">
     <!-- Resynthesis - D6 -->
     <g transform="translate(959.4725 208.2325) scale(0.16 -0.16)">
      <use xlink:href="#DejaVuSans-52"/>
      <use xlink:href="#DejaVuSans-65" transform="translate(64.982422 0)"/>
      <use xlink:href="#DejaVuSans-73" transform="translate(126.505859 0)"/>
      <use xlink:href="#DejaVuSans-79" transform="translate(178.605469 0)"/>
      <use xlink:href="#DejaVuSans-6e" transform="translate(237.785156 0)"/>
      <use xlink:href="#DejaVuSans-74" transform="translate(301.164062 0)"/>
      <use xlink:href="#DejaVuSans-68" transform="translate(340.373047 0)"/>
      <use xlink:href="#DejaVuSans-65" transform="translate(403.751953 0)"/>
      <use xlink:href="#DejaVuSans-73" transform="translate(465.275391 0)"/>
      <use xlink:href="#DejaVuSans-69" transform="translate(517.375 0)"/>
      <use xlink:href="#DejaVuSans-73" transform="translate(545.158203 0)"/>
      <use xlink:href="#DejaVuSans-20" transform="translate(597.257812 0)"/>
      <use xlink:href="#DejaVuSans-2d" transform="translate(629.044922 0)"/>
      <use xlink:href="#DejaVuSans-20" transform="translate(665.128906 0)"/>
      <use xlink:href="#DejaVuSans-44" transform="translate(696.916016 0)"/>
      <use xlink:href="#DejaVuSans-36" transform="translate(773.917969 0)"/>
     </g>
    </g>
   </g>
  </g>
 </g>
 <defs>
  <clipPath id="p157e42b95b">
   <rect x="77.87" y="17.28" width="1056.85" height="301.026348"/>
  </clipPath>
 </defs>
</svg>
