<?xml version="1.0" encoding="utf-8" standalone="no"?>
<!DOCTYPE svg PUBLIC "-//W3C//DTD SVG 1.1//EN"
  "http://www.w3.org/Graphics/SVG/1.1/DTD/svg11.dtd">
<svg xmlns:xlink="http://www.w3.org/1999/xlink" width="1152pt" height="432pt" viewBox="0 0 1152 432" xmlns="http://www.w3.org/2000/svg" version="1.1">
 <metadata>
  <rdf:RDF xmlns:dc="http://purl.org/dc/elements/1.1/" xmlns:cc="http://creativecommons.org/ns#" xmlns:rdf="http://www.w3.org/1999/02/22-rdf-syntax-ns#">
   <cc:Work>
    <dc:type rdf:resource="http://purl.org/dc/dcmitype/StillImage"/>
    <dc:date>2025-05-28T14:44:23.459018</dc:date>
    <dc:format>image/svg+xml</dc:format>
    <dc:creator>
     <cc:Agent>
      <dc:title>Matplotlib v3.10.3, https://matplotlib.org/</dc:title>
     </cc:Agent>
    </dc:creator>
   </cc:Work>
  </rdf:RDF>
 </metadata>
 <defs>
  <style type="text/css">*{stroke-linejoin: round; stroke-linecap: butt}</style>
 </defs>
 <g id="figure_1">
  <g id="patch_1">
   <path d="M 0 432 
L 1152 432 
L 1152 0 
L 0 0 
z
" style="fill: #ffffff"/>
  </g>
  <g id="axes_1">
   <g id="patch_2">
    <path d="M 88.04 318.306348 
L 898.12 318.306348 
L 898.12 17.28 
L 88.04 17.28 
z
" style="fill: #ffffff"/>
   </g>
   <g id="patch_3">
    <path d="M 124.861818 318.306348 
L 128.876658 318.306348 
L 128.876658 318.26194 
L 124.861818 318.26194 
z
" clip-path="url(#pdbdebf3724)" style="fill: #87ceeb; opacity: 0.4"/>
   </g>
   <g id="patch_4">
    <path d="M 182.216675 318.306348 
L 186.231515 318.306348 
L 186.231515 317.619746 
L 182.216675 317.619746 
z
" clip-path="url(#pdbdebf3724)" style="fill: #87ceeb; opacity: 0.4"/>
   </g>
   <g id="patch_5">
    <path d="M 239.571532 318.306348 
L 243.586372 318.306348 
L 243.586372 318.269334 
L 239.571532 318.269334 
z
" clip-path="url(#pdbdebf3724)" style="fill: #87ceeb; opacity: 0.4"/>
   </g>
   <g id="patch_6">
    <path d="M 296.926389 318.306348 
L 300.941229 318.306348 
L 300.941229 315.951717 
L 296.926389 315.951717 
z
" clip-path="url(#pdbdebf3724)" style="fill: #87ceeb; opacity: 0.4"/>
   </g>
   <g id="patch_7">
    <path d="M 354.281246 318.306348 
L 358.296086 318.306348 
L 358.296086 316.399937 
L 354.281246 316.399937 
z
" clip-path="url(#pdbdebf3724)" style="fill: #87ceeb; opacity: 0.4"/>
   </g>
   <g id="patch_8">
    <path d="M 411.636103 318.306348 
L 415.650943 318.306348 
L 415.650943 315.824146 
L 411.636103 315.824146 
z
" clip-path="url(#pdbdebf3724)" style="fill: #87ceeb; opacity: 0.4"/>
   </g>
   <g id="patch_9">
    <path d="M 468.99096 318.306348 
L 473.0058 318.306348 
L 473.0058 315.739895 
L 468.99096 315.739895 
z
" clip-path="url(#pdbdebf3724)" style="fill: #87ceeb; opacity: 0.4"/>
   </g>
   <g id="patch_10">
    <path d="M 526.345817 318.306348 
L 530.360657 318.306348 
L 530.360657 315.65401 
L 526.345817 315.65401 
z
" clip-path="url(#pdbdebf3724)" style="fill: #87ceeb; opacity: 0.4"/>
   </g>
   <g id="patch_11">
    <path d="M 583.700674 318.306348 
L 587.715514 318.306348 
L 587.715514 316.232783 
L 583.700674 316.232783 
z
" clip-path="url(#pdbdebf3724)" style="fill: #87ceeb; opacity: 0.4"/>
   </g>
   <g id="patch_12">
    <path d="M 641.055531 318.306348 
L 645.070371 318.306348 
L 645.070371 315.770207 
L 641.055531 315.770207 
z
" clip-path="url(#pdbdebf3724)" style="fill: #87ceeb; opacity: 0.4"/>
   </g>
   <g id="patch_13">
    <path d="M 698.410388 318.306348 
L 702.425228 318.306348 
L 702.425228 317.908858 
L 698.410388 317.908858 
z
" clip-path="url(#pdbdebf3724)" style="fill: #87ceeb; opacity: 0.4"/>
   </g>
   <g id="patch_14">
    <path d="M 755.765245 318.306348 
L 759.780085 318.306348 
L 759.780085 317.953658 
L 755.765245 317.953658 
z
" clip-path="url(#pdbdebf3724)" style="fill: #87ceeb; opacity: 0.4"/>
   </g>
   <g id="patch_15">
    <path d="M 813.120102 318.306348 
L 817.134942 318.306348 
L 817.134942 317.046723 
L 813.120102 317.046723 
z
" clip-path="url(#pdbdebf3724)" style="fill: #87ceeb; opacity: 0.4"/>
   </g>
   <g id="patch_16">
    <path d="M 128.876658 318.306348 
L 132.891498 318.306348 
L 132.891498 318.137177 
L 128.876658 318.137177 
z
" clip-path="url(#pdbdebf3724)" style="fill: #87ceeb; opacity: 0.485714"/>
   </g>
   <g id="patch_17">
    <path d="M 186.231515 318.306348 
L 190.246355 318.306348 
L 190.246355 316.209881 
L 186.231515 316.209881 
z
" clip-path="url(#pdbdebf3724)" style="fill: #87ceeb; opacity: 0.485714"/>
   </g>
   <g id="patch_18">
    <path d="M 243.586372 318.306348 
L 247.601212 318.306348 
L 247.601212 318.217805 
L 243.586372 318.217805 
z
" clip-path="url(#pdbdebf3724)" style="fill: #87ceeb; opacity: 0.485714"/>
   </g>
   <g id="patch_19">
    <path d="M 300.941229 318.306348 
L 304.956069 318.306348 
L 304.956069 312.497599 
L 300.941229 312.497599 
z
" clip-path="url(#pdbdebf3724)" style="fill: #87ceeb; opacity: 0.485714"/>
   </g>
   <g id="patch_20">
    <path d="M 358.296086 318.306348 
L 362.310926 318.306348 
L 362.310926 313.684145 
L 358.296086 313.684145 
z
" clip-path="url(#pdbdebf3724)" style="fill: #87ceeb; opacity: 0.485714"/>
   </g>
   <g id="patch_21">
    <path d="M 415.650943 318.306348 
L 419.665783 318.306348 
L 419.665783 312.434985 
L 415.650943 312.434985 
z
" clip-path="url(#pdbdebf3724)" style="fill: #87ceeb; opacity: 0.485714"/>
   </g>
   <g id="patch_22">
    <path d="M 473.0058 318.306348 
L 477.02064 318.306348 
L 477.02064 312.31459 
L 473.0058 312.31459 
z
" clip-path="url(#pdbdebf3724)" style="fill: #87ceeb; opacity: 0.485714"/>
   </g>
   <g id="patch_23">
    <path d="M 530.360657 318.306348 
L 534.375497 318.306348 
L 534.375497 312.375215 
L 530.360657 312.375215 
z
" clip-path="url(#pdbdebf3724)" style="fill: #87ceeb; opacity: 0.485714"/>
   </g>
   <g id="patch_24">
    <path d="M 587.715514 318.306348 
L 591.730354 318.306348 
L 591.730354 313.809135 
L 587.715514 313.809135 
z
" clip-path="url(#pdbdebf3724)" style="fill: #87ceeb; opacity: 0.485714"/>
   </g>
   <g id="patch_25">
    <path d="M 645.070371 318.306348 
L 649.085211 318.306348 
L 649.085211 312.203444 
L 645.070371 312.203444 
z
" clip-path="url(#pdbdebf3724)" style="fill: #87ceeb; opacity: 0.485714"/>
   </g>
   <g id="patch_26">
    <path d="M 702.425228 318.306348 
L 706.440068 318.306348 
L 706.440068 317.416669 
L 702.425228 317.416669 
z
" clip-path="url(#pdbdebf3724)" style="fill: #87ceeb; opacity: 0.485714"/>
   </g>
   <g id="patch_27">
    <path d="M 759.780085 318.306348 
L 763.794925 318.306348 
L 763.794925 317.625172 
L 759.780085 317.625172 
z
" clip-path="url(#pdbdebf3724)" style="fill: #87ceeb; opacity: 0.485714"/>
   </g>
   <g id="patch_28">
    <path d="M 817.134942 318.306348 
L 821.149782 318.306348 
L 821.149782 315.787098 
L 817.134942 315.787098 
z
" clip-path="url(#pdbdebf3724)" style="fill: #87ceeb; opacity: 0.485714"/>
   </g>
   <g id="patch_29">
    <path d="M 132.891498 318.306348 
L 136.906338 318.306348 
L 136.906338 318.015586 
L 132.891498 318.015586 
z
" clip-path="url(#pdbdebf3724)" style="fill: #87ceeb; opacity: 0.571429"/>
   </g>
   <g id="patch_30">
    <path d="M 190.246355 318.306348 
L 194.261195 318.306348 
L 194.261195 314.046825 
L 190.246355 314.046825 
z
" clip-path="url(#pdbdebf3724)" style="fill: #87ceeb; opacity: 0.571429"/>
   </g>
   <g id="patch_31">
    <path d="M 247.601212 318.306348 
L 251.616052 318.306348 
L 251.616052 318.101684 
L 247.601212 318.101684 
z
" clip-path="url(#pdbdebf3724)" style="fill: #87ceeb; opacity: 0.571429"/>
   </g>
   <g id="patch_32">
    <path d="M 304.956069 318.306348 
L 308.970909 318.306348 
L 308.970909 306.130459 
L 304.956069 306.130459 
z
" clip-path="url(#pdbdebf3724)" style="fill: #87ceeb; opacity: 0.571429"/>
   </g>
   <g id="patch_33">
    <path d="M 362.310926 318.306348 
L 366.325766 318.306348 
L 366.325766 308.569966 
L 362.310926 308.569966 
z
" clip-path="url(#pdbdebf3724)" style="fill: #87ceeb; opacity: 0.571429"/>
   </g>
   <g id="patch_34">
    <path d="M 419.665783 318.306348 
L 423.680623 318.306348 
L 423.680623 305.885791 
L 419.665783 305.885791 
z
" clip-path="url(#pdbdebf3724)" style="fill: #87ceeb; opacity: 0.571429"/>
   </g>
   <g id="patch_35">
    <path d="M 477.02064 318.306348 
L 481.03548 318.306348 
L 481.03548 305.58523 
L 477.02064 305.58523 
z
" clip-path="url(#pdbdebf3724)" style="fill: #87ceeb; opacity: 0.571429"/>
   </g>
   <g id="patch_36">
    <path d="M 534.375497 318.306348 
L 538.390337 318.306348 
L 538.390337 306.090437 
L 534.375497 306.090437 
z
" clip-path="url(#pdbdebf3724)" style="fill: #87ceeb; opacity: 0.571429"/>
   </g>
   <g id="patch_37">
    <path d="M 591.730354 318.306348 
L 595.745194 318.306348 
L 595.745194 308.881052 
L 591.730354 308.881052 
z
" clip-path="url(#pdbdebf3724)" style="fill: #87ceeb; opacity: 0.571429"/>
   </g>
   <g id="patch_38">
    <path d="M 649.085211 318.306348 
L 653.100051 318.306348 
L 653.100051 305.827729 
L 649.085211 305.827729 
z
" clip-path="url(#pdbdebf3724)" style="fill: #87ceeb; opacity: 0.571429"/>
   </g>
   <g id="patch_39">
    <path d="M 706.440068 318.306348 
L 710.454908 318.306348 
L 710.454908 316.601753 
L 706.440068 316.601753 
z
" clip-path="url(#pdbdebf3724)" style="fill: #87ceeb; opacity: 0.571429"/>
   </g>
   <g id="patch_40">
    <path d="M 763.794925 318.306348 
L 767.809765 318.306348 
L 767.809765 316.971659 
L 763.794925 316.971659 
z
" clip-path="url(#pdbdebf3724)" style="fill: #87ceeb; opacity: 0.571429"/>
   </g>
   <g id="patch_41">
    <path d="M 821.149782 318.306348 
L 825.164622 318.306348 
L 825.164622 310.205991 
L 821.149782 310.205991 
z
" clip-path="url(#pdbdebf3724)" style="fill: #87ceeb; opacity: 0.571429"/>
   </g>
   <g id="patch_42">
    <path d="M 136.906338 318.306348 
L 140.921178 318.306348 
L 140.921178 317.716366 
L 136.906338 317.716366 
z
" clip-path="url(#pdbdebf3724)" style="fill: #87ceeb; opacity: 0.657143"/>
   </g>
   <g id="patch_43">
    <path d="M 194.261195 318.306348 
L 198.276035 318.306348 
L 198.276035 309.216672 
L 194.261195 309.216672 
z
" clip-path="url(#pdbdebf3724)" style="fill: #87ceeb; opacity: 0.657143"/>
   </g>
   <g id="patch_44">
    <path d="M 251.616052 318.306348 
L 255.630892 318.306348 
L 255.630892 317.926776 
L 251.616052 317.926776 
z
" clip-path="url(#pdbdebf3724)" style="fill: #87ceeb; opacity: 0.657143"/>
   </g>
   <g id="patch_45">
    <path d="M 308.970909 318.306348 
L 312.985749 318.306348 
L 312.985749 294.676032 
L 308.970909 294.676032 
z
" clip-path="url(#pdbdebf3724)" style="fill: #87ceeb; opacity: 0.657143"/>
   </g>
   <g id="patch_46">
    <path d="M 366.325766 318.306348 
L 370.340606 318.306348 
L 370.340606 299.690577 
L 366.325766 299.690577 
z
" clip-path="url(#pdbdebf3724)" style="fill: #87ceeb; opacity: 0.657143"/>
   </g>
   <g id="patch_47">
    <path d="M 423.680623 318.306348 
L 427.695463 318.306348 
L 427.695463 296.243391 
L 423.680623 296.243391 
z
" clip-path="url(#pdbdebf3724)" style="fill: #87ceeb; opacity: 0.657143"/>
   </g>
   <g id="patch_48">
    <path d="M 481.03548 318.306348 
L 485.05032 318.306348 
L 485.05032 296.385407 
L 481.03548 296.385407 
z
" clip-path="url(#pdbdebf3724)" style="fill: #87ceeb; opacity: 0.657143"/>
   </g>
   <g id="patch_49">
    <path d="M 538.390337 318.306348 
L 542.405177 318.306348 
L 542.405177 296.542021 
L 538.390337 296.542021 
z
" clip-path="url(#pdbdebf3724)" style="fill: #87ceeb; opacity: 0.657143"/>
   </g>
   <g id="patch_50">
    <path d="M 595.745194 318.306348 
L 599.760034 318.306348 
L 599.760034 300.790686 
L 595.745194 300.790686 
z
" clip-path="url(#pdbdebf3724)" style="fill: #87ceeb; opacity: 0.657143"/>
   </g>
   <g id="patch_51">
    <path d="M 653.100051 318.306348 
L 657.114891 318.306348 
L 657.114891 294.713171 
L 653.100051 294.713171 
z
" clip-path="url(#pdbdebf3724)" style="fill: #87ceeb; opacity: 0.657143"/>
   </g>
   <g id="patch_52">
    <path d="M 710.454908 318.306348 
L 714.469748 318.306348 
L 714.469748 314.78003 
L 710.454908 314.78003 
z
" clip-path="url(#pdbdebf3724)" style="fill: #87ceeb; opacity: 0.657143"/>
   </g>
   <g id="patch_53">
    <path d="M 767.809765 318.306348 
L 771.824605 318.306348 
L 771.824605 316.529068 
L 767.809765 316.529068 
z
" clip-path="url(#pdbdebf3724)" style="fill: #87ceeb; opacity: 0.657143"/>
   </g>
   <g id="patch_54">
    <path d="M 825.164622 318.306348 
L 829.179462 318.306348 
L 829.179462 307.124755 
L 825.164622 307.124755 
z
" clip-path="url(#pdbdebf3724)" style="fill: #87ceeb; opacity: 0.657143"/>
   </g>
   <g id="patch_55">
    <path d="M 140.921178 318.306348 
L 144.936018 318.306348 
L 144.936018 316.358774 
L 140.921178 316.358774 
z
" clip-path="url(#pdbdebf3724)" style="fill: #87ceeb; opacity: 0.828571"/>
   </g>
   <g id="patch_56">
    <path d="M 198.276035 318.306348 
L 202.290875 318.306348 
L 202.290875 281.507203 
L 198.276035 281.507203 
z
" clip-path="url(#pdbdebf3724)" style="fill: #87ceeb; opacity: 0.828571"/>
   </g>
   <g id="patch_57">
    <path d="M 255.630892 318.306348 
L 259.645732 318.306348 
L 259.645732 316.759755 
L 255.630892 316.759755 
z
" clip-path="url(#pdbdebf3724)" style="fill: #87ceeb; opacity: 0.828571"/>
   </g>
   <g id="patch_58">
    <path d="M 312.985749 318.306348 
L 317.000589 318.306348 
L 317.000589 233.257967 
L 312.985749 233.257967 
z
" clip-path="url(#pdbdebf3724)" style="fill: #87ceeb; opacity: 0.828571"/>
   </g>
   <g id="patch_59">
    <path d="M 370.340606 318.306348 
L 374.355446 318.306348 
L 374.355446 250.252852 
L 370.340606 250.252852 
z
" clip-path="url(#pdbdebf3724)" style="fill: #87ceeb; opacity: 0.828571"/>
   </g>
   <g id="patch_60">
    <path d="M 427.695463 318.306348 
L 431.710303 318.306348 
L 431.710303 244.899999 
L 427.695463 244.899999 
z
" clip-path="url(#pdbdebf3724)" style="fill: #87ceeb; opacity: 0.828571"/>
   </g>
   <g id="patch_61">
    <path d="M 485.05032 318.306348 
L 489.06516 318.306348 
L 489.06516 245.359478 
L 485.05032 245.359478 
z
" clip-path="url(#pdbdebf3724)" style="fill: #87ceeb; opacity: 0.828571"/>
   </g>
   <g id="patch_62">
    <path d="M 542.405177 318.306348 
L 546.420017 318.306348 
L 546.420017 248.04718 
L 542.405177 248.04718 
z
" clip-path="url(#pdbdebf3724)" style="fill: #87ceeb; opacity: 0.828571"/>
   </g>
   <g id="patch_63">
    <path d="M 599.760034 318.306348 
L 603.774874 318.306348 
L 603.774874 262.481669 
L 599.760034 262.481669 
z
" clip-path="url(#pdbdebf3724)" style="fill: #87ceeb; opacity: 0.828571"/>
   </g>
   <g id="patch_64">
    <path d="M 657.114891 318.306348 
L 661.129731 318.306348 
L 661.129731 239.3172 
L 657.114891 239.3172 
z
" clip-path="url(#pdbdebf3724)" style="fill: #87ceeb; opacity: 0.828571"/>
   </g>
   <g id="patch_65">
    <path d="M 714.469748 318.306348 
L 718.484588 318.306348 
L 718.484588 307.116832 
L 714.469748 307.116832 
z
" clip-path="url(#pdbdebf3724)" style="fill: #87ceeb; opacity: 0.828571"/>
   </g>
   <g id="patch_66">
    <path d="M 771.824605 318.306348 
L 775.839445 318.306348 
L 775.839445 315.10102 
L 771.824605 315.10102 
z
" clip-path="url(#pdbdebf3724)" style="fill: #87ceeb; opacity: 0.828571"/>
   </g>
   <g id="patch_67">
    <path d="M 829.179462 318.306348 
L 833.194302 318.306348 
L 833.194302 295.419933 
L 829.179462 295.419933 
z
" clip-path="url(#pdbdebf3724)" style="fill: #87ceeb; opacity: 0.828571"/>
   </g>
   <g id="patch_68">
    <path d="M 144.936018 318.306348 
L 148.950858 318.306348 
L 148.950858 312.215157 
L 144.936018 312.215157 
z
" clip-path="url(#pdbdebf3724)" style="fill: #87ceeb"/>
   </g>
   <g id="patch_69">
    <path d="M 202.290875 318.306348 
L 206.305715 318.306348 
L 206.305715 183.144625 
L 202.290875 183.144625 
z
" clip-path="url(#pdbdebf3724)" style="fill: #87ceeb"/>
   </g>
   <g id="patch_70">
    <path d="M 259.645732 318.306348 
L 263.660572 318.306348 
L 263.660572 307.648579 
L 259.645732 307.648579 
z
" clip-path="url(#pdbdebf3724)" style="fill: #87ceeb"/>
   </g>
   <g id="patch_71">
    <path d="M 317.000589 318.306348 
L 321.015429 318.306348 
L 321.015429 31.614588 
L 317.000589 31.614588 
z
" clip-path="url(#pdbdebf3724)" style="fill: #87ceeb"/>
   </g>
   <g id="patch_72">
    <path d="M 374.355446 318.306348 
L 378.370286 318.306348 
L 378.370286 88.196063 
L 374.355446 88.196063 
z
" clip-path="url(#pdbdebf3724)" style="fill: #87ceeb"/>
   </g>
   <g id="patch_73">
    <path d="M 431.710303 318.306348 
L 435.725143 318.306348 
L 435.725143 95.953564 
L 431.710303 95.953564 
z
" clip-path="url(#pdbdebf3724)" style="fill: #87ceeb"/>
   </g>
   <g id="patch_74">
    <path d="M 489.06516 318.306348 
L 493.08 318.306348 
L 493.08 100.80959 
L 489.06516 100.80959 
z
" clip-path="url(#pdbdebf3724)" style="fill: #87ceeb"/>
   </g>
   <g id="patch_75">
    <path d="M 546.420017 318.306348 
L 550.434857 318.306348 
L 550.434857 101.734119 
L 546.420017 101.734119 
z
" clip-path="url(#pdbdebf3724)" style="fill: #87ceeb"/>
   </g>
   <g id="patch_76">
    <path d="M 603.774874 318.306348 
L 607.789714 318.306348 
L 607.789714 148.374041 
L 603.774874 148.374041 
z
" clip-path="url(#pdbdebf3724)" style="fill: #87ceeb"/>
   </g>
   <g id="patch_77">
    <path d="M 661.129731 318.306348 
L 665.144571 318.306348 
L 665.144571 76.771831 
L 661.129731 76.771831 
z
" clip-path="url(#pdbdebf3724)" style="fill: #87ceeb"/>
   </g>
   <g id="patch_78">
    <path d="M 718.484588 318.306348 
L 722.499428 318.306348 
L 722.499428 284.682975 
L 718.484588 284.682975 
z
" clip-path="url(#pdbdebf3724)" style="fill: #87ceeb"/>
   </g>
   <g id="patch_79">
    <path d="M 775.839445 318.306348 
L 779.854285 318.306348 
L 779.854285 313.949591 
L 775.839445 313.949591 
z
" clip-path="url(#pdbdebf3724)" style="fill: #87ceeb"/>
   </g>
   <g id="patch_80">
    <path d="M 833.194302 318.306348 
L 837.209142 318.306348 
L 837.209142 313.132196 
L 833.194302 313.132196 
z
" clip-path="url(#pdbdebf3724)" style="fill: #87ceeb"/>
   </g>
   <g id="patch_81">
    <path d="M 148.950858 318.306348 
L 152.965698 318.306348 
L 152.965698 318.26194 
L 148.950858 318.26194 
z
" clip-path="url(#pdbdebf3724)" style="fill: #fa8072; opacity: 0.4"/>
   </g>
   <g id="patch_82">
    <path d="M 206.305715 318.306348 
L 210.320555 318.306348 
L 210.320555 317.635209 
L 206.305715 317.635209 
z
" clip-path="url(#pdbdebf3724)" style="fill: #fa8072; opacity: 0.4"/>
   </g>
   <g id="patch_83">
    <path d="M 263.660572 318.306348 
L 267.675412 318.306348 
L 267.675412 318.272237 
L 263.660572 318.272237 
z
" clip-path="url(#pdbdebf3724)" style="fill: #fa8072; opacity: 0.4"/>
   </g>
   <g id="patch_84">
    <path d="M 321.015429 318.306348 
L 325.030269 318.306348 
L 325.030269 315.983836 
L 321.015429 315.983836 
z
" clip-path="url(#pdbdebf3724)" style="fill: #fa8072; opacity: 0.4"/>
   </g>
   <g id="patch_85">
    <path d="M 378.370286 318.306348 
L 382.385126 318.306348 
L 382.385126 316.44358 
L 378.370286 316.44358 
z
" clip-path="url(#pdbdebf3724)" style="fill: #fa8072; opacity: 0.4"/>
   </g>
   <g id="patch_86">
    <path d="M 435.725143 318.306348 
L 439.739983 318.306348 
L 439.739983 315.800278 
L 435.725143 315.800278 
z
" clip-path="url(#pdbdebf3724)" style="fill: #fa8072; opacity: 0.4"/>
   </g>
   <g id="patch_87">
    <path d="M 493.08 318.306348 
L 497.09484 318.306348 
L 497.09484 315.785364 
L 493.08 315.785364 
z
" clip-path="url(#pdbdebf3724)" style="fill: #fa8072; opacity: 0.4"/>
   </g>
   <g id="patch_88">
    <path d="M 550.434857 318.306348 
L 554.449697 318.306348 
L 554.449697 315.780311 
L 550.434857 315.780311 
z
" clip-path="url(#pdbdebf3724)" style="fill: #fa8072; opacity: 0.4"/>
   </g>
   <g id="patch_89">
    <path d="M 607.789714 318.306348 
L 611.804554 318.306348 
L 611.804554 316.294335 
L 607.789714 316.294335 
z
" clip-path="url(#pdbdebf3724)" style="fill: #fa8072; opacity: 0.4"/>
   </g>
   <g id="patch_90">
    <path d="M 665.144571 318.306348 
L 669.159411 318.306348 
L 669.159411 315.810624 
L 665.144571 315.810624 
z
" clip-path="url(#pdbdebf3724)" style="fill: #fa8072; opacity: 0.4"/>
   </g>
   <g id="patch_91">
    <path d="M 722.499428 318.306348 
L 726.514268 318.306348 
L 726.514268 317.847802 
L 722.499428 317.847802 
z
" clip-path="url(#pdbdebf3724)" style="fill: #fa8072; opacity: 0.4"/>
   </g>
   <g id="patch_92">
    <path d="M 779.854285 318.306348 
L 783.869125 318.306348 
L 783.869125 317.960573 
L 779.854285 317.960573 
z
" clip-path="url(#pdbdebf3724)" style="fill: #fa8072; opacity: 0.4"/>
   </g>
   <g id="patch_93">
    <path d="M 837.209142 318.306348 
L 841.223982 318.306348 
L 841.223982 317.356784 
L 837.209142 317.356784 
z
" clip-path="url(#pdbdebf3724)" style="fill: #fa8072; opacity: 0.4"/>
   </g>
   <g id="patch_94">
    <path d="M 152.965698 318.306348 
L 156.980538 318.306348 
L 156.980538 318.141406 
L 152.965698 318.141406 
z
" clip-path="url(#pdbdebf3724)" style="fill: #fa8072; opacity: 0.485714"/>
   </g>
   <g id="patch_95">
    <path d="M 210.320555 318.306348 
L 214.335395 318.306348 
L 214.335395 316.181699 
L 210.320555 316.181699 
z
" clip-path="url(#pdbdebf3724)" style="fill: #fa8072; opacity: 0.485714"/>
   </g>
   <g id="patch_96">
    <path d="M 267.675412 318.306348 
L 271.690252 318.306348 
L 271.690252 318.217079 
L 267.675412 318.217079 
z
" clip-path="url(#pdbdebf3724)" style="fill: #fa8072; opacity: 0.485714"/>
   </g>
   <g id="patch_97">
    <path d="M 325.030269 318.306348 
L 329.045109 318.306348 
L 329.045109 312.556897 
L 325.030269 312.556897 
z
" clip-path="url(#pdbdebf3724)" style="fill: #fa8072; opacity: 0.485714"/>
   </g>
   <g id="patch_98">
    <path d="M 382.385126 318.306348 
L 386.399966 318.306348 
L 386.399966 313.735724 
L 382.385126 313.735724 
z
" clip-path="url(#pdbdebf3724)" style="fill: #fa8072; opacity: 0.485714"/>
   </g>
   <g id="patch_99">
    <path d="M 439.739983 318.306348 
L 443.754823 318.306348 
L 443.754823 312.449306 
L 439.739983 312.449306 
z
" clip-path="url(#pdbdebf3724)" style="fill: #fa8072; opacity: 0.485714"/>
   </g>
   <g id="patch_100">
    <path d="M 497.09484 318.306348 
L 501.10968 318.306348 
L 501.10968 312.380267 
L 497.09484 312.380267 
z
" clip-path="url(#pdbdebf3724)" style="fill: #fa8072; opacity: 0.485714"/>
   </g>
   <g id="patch_101">
    <path d="M 554.449697 318.306348 
L 558.464537 318.306348 
L 558.464537 312.546985 
L 554.449697 312.546985 
z
" clip-path="url(#pdbdebf3724)" style="fill: #fa8072; opacity: 0.485714"/>
   </g>
   <g id="patch_102">
    <path d="M 611.804554 318.306348 
L 615.819394 318.306348 
L 615.819394 313.874535 
L 611.804554 313.874535 
z
" clip-path="url(#pdbdebf3724)" style="fill: #fa8072; opacity: 0.485714"/>
   </g>
   <g id="patch_103">
    <path d="M 669.159411 318.306348 
L 673.174251 318.306348 
L 673.174251 312.344902 
L 669.159411 312.344902 
z
" clip-path="url(#pdbdebf3724)" style="fill: #fa8072; opacity: 0.485714"/>
   </g>
   <g id="patch_104">
    <path d="M 726.514268 318.306348 
L 730.529108 318.306348 
L 730.529108 317.419161 
L 726.514268 317.419161 
z
" clip-path="url(#pdbdebf3724)" style="fill: #fa8072; opacity: 0.485714"/>
   </g>
   <g id="patch_105">
    <path d="M 783.869125 318.306348 
L 787.883965 318.306348 
L 787.883965 317.7047 
L 783.869125 317.7047 
z
" clip-path="url(#pdbdebf3724)" style="fill: #fa8072; opacity: 0.485714"/>
   </g>
   <g id="patch_106">
    <path d="M 841.223982 318.306348 
L 845.238822 318.306348 
L 845.238822 314.663125 
L 841.223982 314.663125 
z
" clip-path="url(#pdbdebf3724)" style="fill: #fa8072; opacity: 0.485714"/>
   </g>
   <g id="patch_107">
    <path d="M 156.980538 318.306348 
L 160.995378 318.306348 
L 160.995378 318.038847 
L 156.980538 318.038847 
z
" clip-path="url(#pdbdebf3724)" style="fill: #fa8072; opacity: 0.571429"/>
   </g>
   <g id="patch_108">
    <path d="M 214.335395 318.306348 
L 218.350235 318.306348 
L 218.350235 314.089472 
L 214.335395 314.089472 
z
" clip-path="url(#pdbdebf3724)" style="fill: #fa8072; opacity: 0.571429"/>
   </g>
   <g id="patch_109">
    <path d="M 271.690252 318.306348 
L 275.705092 318.306348 
L 275.705092 318.101684 
L 271.690252 318.101684 
z
" clip-path="url(#pdbdebf3724)" style="fill: #fa8072; opacity: 0.571429"/>
   </g>
   <g id="patch_110">
    <path d="M 329.045109 318.306348 
L 333.059949 318.306348 
L 333.059949 306.135401 
L 329.045109 306.135401 
z
" clip-path="url(#pdbdebf3724)" style="fill: #fa8072; opacity: 0.571429"/>
   </g>
   <g id="patch_111">
    <path d="M 386.399966 318.306348 
L 390.414806 318.306348 
L 390.414806 308.66122 
L 386.399966 308.66122 
z
" clip-path="url(#pdbdebf3724)" style="fill: #fa8072; opacity: 0.571429"/>
   </g>
   <g id="patch_112">
    <path d="M 443.754823 318.306348 
L 447.769663 318.306348 
L 447.769663 305.957393 
L 443.754823 305.957393 
z
" clip-path="url(#pdbdebf3724)" style="fill: #fa8072; opacity: 0.571429"/>
   </g>
   <g id="patch_113">
    <path d="M 501.10968 318.306348 
L 505.12452 318.306348 
L 505.12452 305.898458 
L 501.10968 305.898458 
z
" clip-path="url(#pdbdebf3724)" style="fill: #fa8072; opacity: 0.571429"/>
   </g>
   <g id="patch_114">
    <path d="M 558.464537 318.306348 
L 562.479377 318.306348 
L 562.479377 306.166218 
L 558.464537 306.166218 
z
" clip-path="url(#pdbdebf3724)" style="fill: #fa8072; opacity: 0.571429"/>
   </g>
   <g id="patch_115">
    <path d="M 615.819394 318.306348 
L 619.834234 318.306348 
L 619.834234 308.50404 
L 615.819394 308.50404 
z
" clip-path="url(#pdbdebf3724)" style="fill: #fa8072; opacity: 0.571429"/>
   </g>
   <g id="patch_116">
    <path d="M 673.174251 318.306348 
L 677.189091 318.306348 
L 677.189091 305.933823 
L 673.174251 305.933823 
z
" clip-path="url(#pdbdebf3724)" style="fill: #fa8072; opacity: 0.571429"/>
   </g>
   <g id="patch_117">
    <path d="M 730.529108 318.306348 
L 734.543948 318.306348 
L 734.543948 316.631658 
L 730.529108 316.631658 
z
" clip-path="url(#pdbdebf3724)" style="fill: #fa8072; opacity: 0.571429"/>
   </g>
   <g id="patch_118">
    <path d="M 787.883965 318.306348 
L 791.898805 318.306348 
L 791.898805 317.144546 
L 787.883965 317.144546 
z
" clip-path="url(#pdbdebf3724)" style="fill: #fa8072; opacity: 0.571429"/>
   </g>
   <g id="patch_119">
    <path d="M 845.238822 318.306348 
L 849.253662 318.306348 
L 849.253662 312.667104 
L 845.238822 312.667104 
z
" clip-path="url(#pdbdebf3724)" style="fill: #fa8072; opacity: 0.571429"/>
   </g>
   <g id="patch_120">
    <path d="M 160.995378 318.306348 
L 165.010218 318.306348 
L 165.010218 317.725882 
L 160.995378 317.725882 
z
" clip-path="url(#pdbdebf3724)" style="fill: #fa8072; opacity: 0.657143"/>
   </g>
   <g id="patch_121">
    <path d="M 218.350235 318.306348 
L 222.365075 318.306348 
L 222.365075 309.282265 
L 218.350235 309.282265 
z
" clip-path="url(#pdbdebf3724)" style="fill: #fa8072; opacity: 0.657143"/>
   </g>
   <g id="patch_122">
    <path d="M 275.705092 318.306348 
L 279.719932 318.306348 
L 279.719932 317.931856 
L 275.705092 317.931856 
z
" clip-path="url(#pdbdebf3724)" style="fill: #fa8072; opacity: 0.657143"/>
   </g>
   <g id="patch_123">
    <path d="M 333.059949 318.306348 
L 337.074789 318.306348 
L 337.074789 294.950286 
L 333.059949 294.950286 
z
" clip-path="url(#pdbdebf3724)" style="fill: #fa8072; opacity: 0.657143"/>
   </g>
   <g id="patch_124">
    <path d="M 390.414806 318.306348 
L 394.429646 318.306348 
L 394.429646 299.716366 
L 390.414806 299.716366 
z
" clip-path="url(#pdbdebf3724)" style="fill: #fa8072; opacity: 0.657143"/>
   </g>
   <g id="patch_125">
    <path d="M 447.769663 318.306348 
L 451.784503 318.306348 
L 451.784503 297.035786 
L 447.769663 297.035786 
z
" clip-path="url(#pdbdebf3724)" style="fill: #fa8072; opacity: 0.657143"/>
   </g>
   <g id="patch_126">
    <path d="M 505.12452 318.306348 
L 509.13936 318.306348 
L 509.13936 296.774416 
L 505.12452 296.774416 
z
" clip-path="url(#pdbdebf3724)" style="fill: #fa8072; opacity: 0.657143"/>
   </g>
   <g id="patch_127">
    <path d="M 562.479377 318.306348 
L 566.494217 318.306348 
L 566.494217 296.648114 
L 562.479377 296.648114 
z
" clip-path="url(#pdbdebf3724)" style="fill: #fa8072; opacity: 0.657143"/>
   </g>
   <g id="patch_128">
    <path d="M 619.834234 318.306348 
L 623.849074 318.306348 
L 623.849074 301.352357 
L 619.834234 301.352357 
z
" clip-path="url(#pdbdebf3724)" style="fill: #fa8072; opacity: 0.657143"/>
   </g>
   <g id="patch_129">
    <path d="M 677.189091 318.306348 
L 681.203931 318.306348 
L 681.203931 295.294159 
L 677.189091 295.294159 
z
" clip-path="url(#pdbdebf3724)" style="fill: #fa8072; opacity: 0.657143"/>
   </g>
   <g id="patch_130">
    <path d="M 734.543948 318.306348 
L 738.558788 318.306348 
L 738.558788 314.851055 
L 734.543948 314.851055 
z
" clip-path="url(#pdbdebf3724)" style="fill: #fa8072; opacity: 0.657143"/>
   </g>
   <g id="patch_131">
    <path d="M 791.898805 318.306348 
L 795.913645 318.306348 
L 795.913645 316.639715 
L 791.898805 316.639715 
z
" clip-path="url(#pdbdebf3724)" style="fill: #fa8072; opacity: 0.657143"/>
   </g>
   <g id="patch_132">
    <path d="M 849.253662 318.306348 
L 853.268502 318.306348 
L 853.268502 309.3727 
L 849.253662 309.3727 
z
" clip-path="url(#pdbdebf3724)" style="fill: #fa8072; opacity: 0.657143"/>
   </g>
   <g id="patch_133">
    <path d="M 165.010218 318.306348 
L 169.025058 318.306348 
L 169.025058 316.383092 
L 165.010218 316.383092 
z
" clip-path="url(#pdbdebf3724)" style="fill: #fa8072; opacity: 0.828571"/>
   </g>
   <g id="patch_134">
    <path d="M 222.365075 318.306348 
L 226.379915 318.306348 
L 226.379915 281.823694 
L 222.365075 281.823694 
z
" clip-path="url(#pdbdebf3724)" style="fill: #fa8072; opacity: 0.828571"/>
   </g>
   <g id="patch_135">
    <path d="M 279.719932 318.306348 
L 283.734772 318.306348 
L 283.734772 316.792415 
L 279.719932 316.792415 
z
" clip-path="url(#pdbdebf3724)" style="fill: #fa8072; opacity: 0.828571"/>
   </g>
   <g id="patch_136">
    <path d="M 337.074789 318.306348 
L 341.089629 318.306348 
L 341.089629 233.865773 
L 337.074789 233.865773 
z
" clip-path="url(#pdbdebf3724)" style="fill: #fa8072; opacity: 0.828571"/>
   </g>
   <g id="patch_137">
    <path d="M 394.429646 318.306348 
L 398.444486 318.306348 
L 398.444486 251.076119 
L 394.429646 251.076119 
z
" clip-path="url(#pdbdebf3724)" style="fill: #fa8072; opacity: 0.828571"/>
   </g>
   <g id="patch_138">
    <path d="M 451.784503 318.306348 
L 455.799343 318.306348 
L 455.799343 246.427508 
L 451.784503 246.427508 
z
" clip-path="url(#pdbdebf3724)" style="fill: #fa8072; opacity: 0.828571"/>
   </g>
   <g id="patch_139">
    <path d="M 509.13936 318.306348 
L 513.1542 318.306348 
L 513.1542 246.430517 
L 509.13936 246.430517 
z
" clip-path="url(#pdbdebf3724)" style="fill: #fa8072; opacity: 0.828571"/>
   </g>
   <g id="patch_140">
    <path d="M 566.494217 318.306348 
L 570.509057 318.306348 
L 570.509057 249.396084 
L 566.494217 249.396084 
z
" clip-path="url(#pdbdebf3724)" style="fill: #fa8072; opacity: 0.828571"/>
   </g>
   <g id="patch_141">
    <path d="M 623.849074 318.306348 
L 627.863914 318.306348 
L 627.863914 263.508834 
L 623.849074 263.508834 
z
" clip-path="url(#pdbdebf3724)" style="fill: #fa8072; opacity: 0.828571"/>
   </g>
   <g id="patch_142">
    <path d="M 681.203931 318.306348 
L 685.218771 318.306348 
L 685.218771 240.701467 
L 681.203931 240.701467 
z
" clip-path="url(#pdbdebf3724)" style="fill: #fa8072; opacity: 0.828571"/>
   </g>
   <g id="patch_143">
    <path d="M 738.558788 318.306348 
L 742.573628 318.306348 
L 742.573628 307.528028 
L 738.558788 307.528028 
z
" clip-path="url(#pdbdebf3724)" style="fill: #fa8072; opacity: 0.828571"/>
   </g>
   <g id="patch_144">
    <path d="M 795.913645 318.306348 
L 799.928485 318.306348 
L 799.928485 315.190921 
L 795.913645 315.190921 
z
" clip-path="url(#pdbdebf3724)" style="fill: #fa8072; opacity: 0.828571"/>
   </g>
   <g id="patch_145">
    <path d="M 853.268502 318.306348 
L 857.283342 318.306348 
L 857.283342 292.571243 
L 853.268502 292.571243 
z
" clip-path="url(#pdbdebf3724)" style="fill: #fa8072; opacity: 0.828571"/>
   </g>
   <g id="patch_146">
    <path d="M 169.025058 318.306348 
L 173.039898 318.306348 
L 173.039898 312.259564 
L 169.025058 312.259564 
z
" clip-path="url(#pdbdebf3724)" style="fill: #fa8072"/>
   </g>
   <g id="patch_147">
    <path d="M 226.379915 318.306348 
L 230.394755 318.306348 
L 230.394755 184.42131 
L 226.379915 184.42131 
z
" clip-path="url(#pdbdebf3724)" style="fill: #fa8072"/>
   </g>
   <g id="patch_148">
    <path d="M 283.734772 318.306348 
L 287.749612 318.306348 
L 287.749612 307.690673 
L 283.734772 307.690673 
z
" clip-path="url(#pdbdebf3724)" style="fill: #fa8072"/>
   </g>
   <g id="patch_149">
    <path d="M 341.089629 318.306348 
L 345.104469 318.306348 
L 345.104469 32.751136 
L 341.089629 32.751136 
z
" clip-path="url(#pdbdebf3724)" style="fill: #fa8072"/>
   </g>
   <g id="patch_150">
    <path d="M 398.444486 318.306348 
L 402.459326 318.306348 
L 402.459326 90.864244 
L 398.444486 90.864244 
z
" clip-path="url(#pdbdebf3724)" style="fill: #fa8072"/>
   </g>
   <g id="patch_151">
    <path d="M 455.799343 318.306348 
L 459.814183 318.306348 
L 459.814183 99.581398 
L 455.799343 99.581398 
z
" clip-path="url(#pdbdebf3724)" style="fill: #fa8072"/>
   </g>
   <g id="patch_152">
    <path d="M 513.1542 318.306348 
L 517.16904 318.306348 
L 517.16904 103.982291 
L 513.1542 103.982291 
z
" clip-path="url(#pdbdebf3724)" style="fill: #fa8072"/>
   </g>
   <g id="patch_153">
    <path d="M 570.509057 318.306348 
L 574.523897 318.306348 
L 574.523897 105.225101 
L 570.509057 105.225101 
z
" clip-path="url(#pdbdebf3724)" style="fill: #fa8072"/>
   </g>
   <g id="patch_154">
    <path d="M 627.863914 318.306348 
L 631.878754 318.306348 
L 631.878754 150.878476 
L 627.863914 150.878476 
z
" clip-path="url(#pdbdebf3724)" style="fill: #fa8072"/>
   </g>
   <g id="patch_155">
    <path d="M 685.218771 318.306348 
L 689.233611 318.306348 
L 689.233611 80.757916 
L 685.218771 80.757916 
z
" clip-path="url(#pdbdebf3724)" style="fill: #fa8072"/>
   </g>
   <g id="patch_156">
    <path d="M 742.573628 318.306348 
L 746.588468 318.306348 
L 746.588468 285.201331 
L 742.573628 285.201331 
z
" clip-path="url(#pdbdebf3724)" style="fill: #fa8072"/>
   </g>
   <g id="patch_157">
    <path d="M 799.928485 318.306348 
L 803.943325 318.306348 
L 803.943325 313.39981 
L 799.928485 313.39981 
z
" clip-path="url(#pdbdebf3724)" style="fill: #fa8072"/>
   </g>
   <g id="patch_158">
    <path d="M 857.283342 318.306348 
L 861.298182 318.306348 
L 861.298182 313.325985 
L 857.283342 313.325985 
z
" clip-path="url(#pdbdebf3724)" style="fill: #fa8072"/>
   </g>
   <g id="matplotlib.axis_1">
    <g id="xtick_1">
     <g id="line2d_1">
      <defs>
       <path id="m4721ced799" d="M 0 0 
L 0 3.5 
" style="stroke: #000000; stroke-width: 0.8"/>
      </defs>
      <g>
       <use xlink:href="#m4721ced799" x="148.950858" y="318.306348" style="stroke: #000000; stroke-width: 0.8"/>
      </g>
     </g>
     <g id="text_1">
      <!-- DTree -->
      <g transform="translate(114.325607 366.175352) rotate(-45) scale(0.16 -0.16)">
       <defs>
        <path id="DejaVuSans-44" d="M 1259 4147 
L 1259 519 
L 2022 519 
Q 2988 519 3436 956 
Q 3884 1394 3884 2338 
Q 3884 3275 3436 3711 
Q 2988 4147 2022 4147 
L 1259 4147 
z
M 628 4666 
L 1925 4666 
Q 3281 4666 3915 4102 
Q 4550 3538 4550 2338 
Q 4550 1131 3912 565 
Q 3275 0 1925 0 
L 628 0 
L 628 4666 
z
" transform="scale(0.015625)"/>
        <path id="DejaVuSans-54" d="M -19 4666 
L 3928 4666 
L 3928 4134 
L 2272 4134 
L 2272 0 
L 1638 0 
L 1638 4134 
L -19 4134 
L -19 4666 
z
" transform="scale(0.015625)"/>
        <path id="DejaVuSans-72" d="M 2631 2963 
Q 2534 3019 2420 3045 
Q 2306 3072 2169 3072 
Q 1681 3072 1420 2755 
Q 1159 2438 1159 1844 
L 1159 0 
L 581 0 
L 581 3500 
L 1159 3500 
L 1159 2956 
Q 1341 3275 1631 3429 
Q 1922 3584 2338 3584 
Q 2397 3584 2469 3576 
Q 2541 3569 2628 3553 
L 2631 2963 
z
" transform="scale(0.015625)"/>
        <path id="DejaVuSans-65" d="M 3597 1894 
L 3597 1613 
L 953 1613 
Q 991 1019 1311 708 
Q 1631 397 2203 397 
Q 2534 397 2845 478 
Q 3156 559 3463 722 
L 3463 178 
Q 3153 47 2828 -22 
Q 2503 -91 2169 -91 
Q 1331 -91 842 396 
Q 353 884 353 1716 
Q 353 2575 817 3079 
Q 1281 3584 2069 3584 
Q 2775 3584 3186 3129 
Q 3597 2675 3597 1894 
z
M 3022 2063 
Q 3016 2534 2758 2815 
Q 2500 3097 2075 3097 
Q 1594 3097 1305 2825 
Q 1016 2553 972 2059 
L 3022 2063 
z
" transform="scale(0.015625)"/>
       </defs>
       <use xlink:href="#DejaVuSans-44"/>
       <use xlink:href="#DejaVuSans-54" transform="translate(77.001953 0)"/>
       <use xlink:href="#DejaVuSans-72" transform="translate(123.335938 0)"/>
       <use xlink:href="#DejaVuSans-65" transform="translate(162.199219 0)"/>
       <use xlink:href="#DejaVuSans-65" transform="translate(223.722656 0)"/>
      </g>
     </g>
    </g>
    <g id="xtick_2">
     <g id="line2d_2">
      <g>
       <use xlink:href="#m4721ced799" x="206.305715" y="318.306348" style="stroke: #000000; stroke-width: 0.8"/>
      </g>
     </g>
     <g id="text_2">
      <!-- barshift_128b -->
      <g transform="translate(126.010205 411.530948) rotate(-45) scale(0.16 -0.16)">
       <defs>
        <path id="DejaVuSans-62" d="M 3116 1747 
Q 3116 2381 2855 2742 
Q 2594 3103 2138 3103 
Q 1681 3103 1420 2742 
Q 1159 2381 1159 1747 
Q 1159 1113 1420 752 
Q 1681 391 2138 391 
Q 2594 391 2855 752 
Q 3116 1113 3116 1747 
z
M 1159 2969 
Q 1341 3281 1617 3432 
Q 1894 3584 2278 3584 
Q 2916 3584 3314 3078 
Q 3713 2572 3713 1747 
Q 3713 922 3314 415 
Q 2916 -91 2278 -91 
Q 1894 -91 1617 61 
Q 1341 213 1159 525 
L 1159 0 
L 581 0 
L 581 4863 
L 1159 4863 
L 1159 2969 
z
" transform="scale(0.015625)"/>
        <path id="DejaVuSans-61" d="M 2194 1759 
Q 1497 1759 1228 1600 
Q 959 1441 959 1056 
Q 959 750 1161 570 
Q 1363 391 1709 391 
Q 2188 391 2477 730 
Q 2766 1069 2766 1631 
L 2766 1759 
L 2194 1759 
z
M 3341 1997 
L 3341 0 
L 2766 0 
L 2766 531 
Q 2569 213 2275 61 
Q 1981 -91 1556 -91 
Q 1019 -91 701 211 
Q 384 513 384 1019 
Q 384 1609 779 1909 
Q 1175 2209 1959 2209 
L 2766 2209 
L 2766 2266 
Q 2766 2663 2505 2880 
Q 2244 3097 1772 3097 
Q 1472 3097 1187 3025 
Q 903 2953 641 2809 
L 641 3341 
Q 956 3463 1253 3523 
Q 1550 3584 1831 3584 
Q 2591 3584 2966 3190 
Q 3341 2797 3341 1997 
z
" transform="scale(0.015625)"/>
        <path id="DejaVuSans-73" d="M 2834 3397 
L 2834 2853 
Q 2591 2978 2328 3040 
Q 2066 3103 1784 3103 
Q 1356 3103 1142 2972 
Q 928 2841 928 2578 
Q 928 2378 1081 2264 
Q 1234 2150 1697 2047 
L 1894 2003 
Q 2506 1872 2764 1633 
Q 3022 1394 3022 966 
Q 3022 478 2636 193 
Q 2250 -91 1575 -91 
Q 1294 -91 989 -36 
Q 684 19 347 128 
L 347 722 
Q 666 556 975 473 
Q 1284 391 1588 391 
Q 1994 391 2212 530 
Q 2431 669 2431 922 
Q 2431 1156 2273 1281 
Q 2116 1406 1581 1522 
L 1381 1569 
Q 847 1681 609 1914 
Q 372 2147 372 2553 
Q 372 3047 722 3315 
Q 1072 3584 1716 3584 
Q 2034 3584 2315 3537 
Q 2597 3491 2834 3397 
z
" transform="scale(0.015625)"/>
        <path id="DejaVuSans-68" d="M 3513 2113 
L 3513 0 
L 2938 0 
L 2938 2094 
Q 2938 2591 2744 2837 
Q 2550 3084 2163 3084 
Q 1697 3084 1428 2787 
Q 1159 2491 1159 1978 
L 1159 0 
L 581 0 
L 581 4863 
L 1159 4863 
L 1159 2956 
Q 1366 3272 1645 3428 
Q 1925 3584 2291 3584 
Q 2894 3584 3203 3211 
Q 3513 2838 3513 2113 
z
" transform="scale(0.015625)"/>
        <path id="DejaVuSans-69" d="M 603 3500 
L 1178 3500 
L 1178 0 
L 603 0 
L 603 3500 
z
M 603 4863 
L 1178 4863 
L 1178 4134 
L 603 4134 
L 603 4863 
z
" transform="scale(0.015625)"/>
        <path id="DejaVuSans-66" d="M 2375 4863 
L 2375 4384 
L 1825 4384 
Q 1516 4384 1395 4259 
Q 1275 4134 1275 3809 
L 1275 3500 
L 2222 3500 
L 2222 3053 
L 1275 3053 
L 1275 0 
L 697 0 
L 697 3053 
L 147 3053 
L 147 3500 
L 697 3500 
L 697 3744 
Q 697 4328 969 4595 
Q 1241 4863 1831 4863 
L 2375 4863 
z
" transform="scale(0.015625)"/>
        <path id="DejaVuSans-74" d="M 1172 4494 
L 1172 3500 
L 2356 3500 
L 2356 3053 
L 1172 3053 
L 1172 1153 
Q 1172 725 1289 603 
Q 1406 481 1766 481 
L 2356 481 
L 2356 0 
L 1766 0 
Q 1100 0 847 248 
Q 594 497 594 1153 
L 594 3053 
L 172 3053 
L 172 3500 
L 594 3500 
L 594 4494 
L 1172 4494 
z
" transform="scale(0.015625)"/>
        <path id="DejaVuSans-5f" d="M 3263 -1063 
L 3263 -1509 
L -63 -1509 
L -63 -1063 
L 3263 -1063 
z
" transform="scale(0.015625)"/>
        <path id="DejaVuSans-31" d="M 794 531 
L 1825 531 
L 1825 4091 
L 703 3866 
L 703 4441 
L 1819 4666 
L 2450 4666 
L 2450 531 
L 3481 531 
L 3481 0 
L 794 0 
L 794 531 
z
" transform="scale(0.015625)"/>
        <path id="DejaVuSans-32" d="M 1228 531 
L 3431 531 
L 3431 0 
L 469 0 
L 469 531 
Q 828 903 1448 1529 
Q 2069 2156 2228 2338 
Q 2531 2678 2651 2914 
Q 2772 3150 2772 3378 
Q 2772 3750 2511 3984 
Q 2250 4219 1831 4219 
Q 1534 4219 1204 4116 
Q 875 4013 500 3803 
L 500 4441 
Q 881 4594 1212 4672 
Q 1544 4750 1819 4750 
Q 2544 4750 2975 4387 
Q 3406 4025 3406 3419 
Q 3406 3131 3298 2873 
Q 3191 2616 2906 2266 
Q 2828 2175 2409 1742 
Q 1991 1309 1228 531 
z
" transform="scale(0.015625)"/>
        <path id="DejaVuSans-38" d="M 2034 2216 
Q 1584 2216 1326 1975 
Q 1069 1734 1069 1313 
Q 1069 891 1326 650 
Q 1584 409 2034 409 
Q 2484 409 2743 651 
Q 3003 894 3003 1313 
Q 3003 1734 2745 1975 
Q 2488 2216 2034 2216 
z
M 1403 2484 
Q 997 2584 770 2862 
Q 544 3141 544 3541 
Q 544 4100 942 4425 
Q 1341 4750 2034 4750 
Q 2731 4750 3128 4425 
Q 3525 4100 3525 3541 
Q 3525 3141 3298 2862 
Q 3072 2584 2669 2484 
Q 3125 2378 3379 2068 
Q 3634 1759 3634 1313 
Q 3634 634 3220 271 
Q 2806 -91 2034 -91 
Q 1263 -91 848 271 
Q 434 634 434 1313 
Q 434 1759 690 2068 
Q 947 2378 1403 2484 
z
M 1172 3481 
Q 1172 3119 1398 2916 
Q 1625 2713 2034 2713 
Q 2441 2713 2670 2916 
Q 2900 3119 2900 3481 
Q 2900 3844 2670 4047 
Q 2441 4250 2034 4250 
Q 1625 4250 1398 4047 
Q 1172 3844 1172 3481 
z
" transform="scale(0.015625)"/>
       </defs>
       <use xlink:href="#DejaVuSans-62"/>
       <use xlink:href="#DejaVuSans-61" transform="translate(63.476562 0)"/>
       <use xlink:href="#DejaVuSans-72" transform="translate(124.755859 0)"/>
       <use xlink:href="#DejaVuSans-73" transform="translate(165.869141 0)"/>
       <use xlink:href="#DejaVuSans-68" transform="translate(217.96875 0)"/>
       <use xlink:href="#DejaVuSans-69" transform="translate(281.347656 0)"/>
       <use xlink:href="#DejaVuSans-66" transform="translate(309.130859 0)"/>
       <use xlink:href="#DejaVuSans-74" transform="translate(342.585938 0)"/>
       <use xlink:href="#DejaVuSans-5f" transform="translate(381.794922 0)"/>
       <use xlink:href="#DejaVuSans-31" transform="translate(431.794922 0)"/>
       <use xlink:href="#DejaVuSans-32" transform="translate(495.417969 0)"/>
       <use xlink:href="#DejaVuSans-38" transform="translate(559.041016 0)"/>
       <use xlink:href="#DejaVuSans-62" transform="translate(622.664062 0)"/>
      </g>
     </g>
    </g>
    <g id="xtick_3">
     <g id="line2d_3">
      <g>
       <use xlink:href="#m4721ced799" x="263.660572" y="318.306348" style="stroke: #000000; stroke-width: 0.8"/>
      </g>
     </g>
     <g id="text_3">
      <!-- sobel -->
      <g transform="translate(231.204371 364.006302) rotate(-45) scale(0.16 -0.16)">
       <defs>
        <path id="DejaVuSans-6f" d="M 1959 3097 
Q 1497 3097 1228 2736 
Q 959 2375 959 1747 
Q 959 1119 1226 758 
Q 1494 397 1959 397 
Q 2419 397 2687 759 
Q 2956 1122 2956 1747 
Q 2956 2369 2687 2733 
Q 2419 3097 1959 3097 
z
M 1959 3584 
Q 2709 3584 3137 3096 
Q 3566 2609 3566 1747 
Q 3566 888 3137 398 
Q 2709 -91 1959 -91 
Q 1206 -91 779 398 
Q 353 888 353 1747 
Q 353 2609 779 3096 
Q 1206 3584 1959 3584 
z
" transform="scale(0.015625)"/>
        <path id="DejaVuSans-6c" d="M 603 4863 
L 1178 4863 
L 1178 0 
L 603 0 
L 603 4863 
z
" transform="scale(0.015625)"/>
       </defs>
       <use xlink:href="#DejaVuSans-73"/>
       <use xlink:href="#DejaVuSans-6f" transform="translate(52.099609 0)"/>
       <use xlink:href="#DejaVuSans-62" transform="translate(113.28125 0)"/>
       <use xlink:href="#DejaVuSans-65" transform="translate(176.757812 0)"/>
       <use xlink:href="#DejaVuSans-6c" transform="translate(238.28125 0)"/>
      </g>
     </g>
    </g>
    <g id="xtick_4">
     <g id="line2d_4">
      <g>
       <use xlink:href="#m4721ced799" x="321.015429" y="318.306348" style="stroke: #000000; stroke-width: 0.8"/>
      </g>
     </g>
     <g id="text_4">
      <!-- BK_32b -->
      <g transform="translate(275.930301 376.320566) rotate(-45) scale(0.16 -0.16)">
       <defs>
        <path id="DejaVuSans-42" d="M 1259 2228 
L 1259 519 
L 2272 519 
Q 2781 519 3026 730 
Q 3272 941 3272 1375 
Q 3272 1813 3026 2020 
Q 2781 2228 2272 2228 
L 1259 2228 
z
M 1259 4147 
L 1259 2741 
L 2194 2741 
Q 2656 2741 2882 2914 
Q 3109 3088 3109 3444 
Q 3109 3797 2882 3972 
Q 2656 4147 2194 4147 
L 1259 4147 
z
M 628 4666 
L 2241 4666 
Q 2963 4666 3353 4366 
Q 3744 4066 3744 3513 
Q 3744 3084 3544 2831 
Q 3344 2578 2956 2516 
Q 3422 2416 3680 2098 
Q 3938 1781 3938 1306 
Q 3938 681 3513 340 
Q 3088 0 2303 0 
L 628 0 
L 628 4666 
z
" transform="scale(0.015625)"/>
        <path id="DejaVuSans-4b" d="M 628 4666 
L 1259 4666 
L 1259 2694 
L 3353 4666 
L 4166 4666 
L 1850 2491 
L 4331 0 
L 3500 0 
L 1259 2247 
L 1259 0 
L 628 0 
L 628 4666 
z
" transform="scale(0.015625)"/>
        <path id="DejaVuSans-33" d="M 2597 2516 
Q 3050 2419 3304 2112 
Q 3559 1806 3559 1356 
Q 3559 666 3084 287 
Q 2609 -91 1734 -91 
Q 1441 -91 1130 -33 
Q 819 25 488 141 
L 488 750 
Q 750 597 1062 519 
Q 1375 441 1716 441 
Q 2309 441 2620 675 
Q 2931 909 2931 1356 
Q 2931 1769 2642 2001 
Q 2353 2234 1838 2234 
L 1294 2234 
L 1294 2753 
L 1863 2753 
Q 2328 2753 2575 2939 
Q 2822 3125 2822 3475 
Q 2822 3834 2567 4026 
Q 2313 4219 1838 4219 
Q 1578 4219 1281 4162 
Q 984 4106 628 3988 
L 628 4550 
Q 988 4650 1302 4700 
Q 1616 4750 1894 4750 
Q 2613 4750 3031 4423 
Q 3450 4097 3450 3541 
Q 3450 3153 3228 2886 
Q 3006 2619 2597 2516 
z
" transform="scale(0.015625)"/>
       </defs>
       <use xlink:href="#DejaVuSans-42"/>
       <use xlink:href="#DejaVuSans-4b" transform="translate(68.603516 0)"/>
       <use xlink:href="#DejaVuSans-5f" transform="translate(134.179688 0)"/>
       <use xlink:href="#DejaVuSans-33" transform="translate(184.179688 0)"/>
       <use xlink:href="#DejaVuSans-32" transform="translate(247.802734 0)"/>
       <use xlink:href="#DejaVuSans-62" transform="translate(311.425781 0)"/>
      </g>
     </g>
    </g>
    <g id="xtick_5">
     <g id="line2d_5">
      <g>
       <use xlink:href="#m4721ced799" x="378.370286" y="318.306348" style="stroke: #000000; stroke-width: 0.8"/>
      </g>
     </g>
     <g id="text_5">
      <!-- KS_32b -->
      <g transform="translate(333.864985 375.740739) rotate(-45) scale(0.16 -0.16)">
       <defs>
        <path id="DejaVuSans-53" d="M 3425 4513 
L 3425 3897 
Q 3066 4069 2747 4153 
Q 2428 4238 2131 4238 
Q 1616 4238 1336 4038 
Q 1056 3838 1056 3469 
Q 1056 3159 1242 3001 
Q 1428 2844 1947 2747 
L 2328 2669 
Q 3034 2534 3370 2195 
Q 3706 1856 3706 1288 
Q 3706 609 3251 259 
Q 2797 -91 1919 -91 
Q 1588 -91 1214 -16 
Q 841 59 441 206 
L 441 856 
Q 825 641 1194 531 
Q 1563 422 1919 422 
Q 2459 422 2753 634 
Q 3047 847 3047 1241 
Q 3047 1584 2836 1778 
Q 2625 1972 2144 2069 
L 1759 2144 
Q 1053 2284 737 2584 
Q 422 2884 422 3419 
Q 422 4038 858 4394 
Q 1294 4750 2059 4750 
Q 2388 4750 2728 4690 
Q 3069 4631 3425 4513 
z
" transform="scale(0.015625)"/>
       </defs>
       <use xlink:href="#DejaVuSans-4b"/>
       <use xlink:href="#DejaVuSans-53" transform="translate(65.576172 0)"/>
       <use xlink:href="#DejaVuSans-5f" transform="translate(129.052734 0)"/>
       <use xlink:href="#DejaVuSans-33" transform="translate(179.052734 0)"/>
       <use xlink:href="#DejaVuSans-32" transform="translate(242.675781 0)"/>
       <use xlink:href="#DejaVuSans-62" transform="translate(306.298828 0)"/>
      </g>
     </g>
    </g>
    <g id="xtick_6">
     <g id="line2d_6">
      <g>
       <use xlink:href="#m4721ced799" x="435.725143" y="318.306348" style="stroke: #000000; stroke-width: 0.8"/>
      </g>
     </g>
     <g id="text_6">
      <!-- CLA_16b -->
      <g transform="translate(383.623748 383.336833) rotate(-45) scale(0.16 -0.16)">
       <defs>
        <path id="DejaVuSans-43" d="M 4122 4306 
L 4122 3641 
Q 3803 3938 3442 4084 
Q 3081 4231 2675 4231 
Q 1875 4231 1450 3742 
Q 1025 3253 1025 2328 
Q 1025 1406 1450 917 
Q 1875 428 2675 428 
Q 3081 428 3442 575 
Q 3803 722 4122 1019 
L 4122 359 
Q 3791 134 3420 21 
Q 3050 -91 2638 -91 
Q 1578 -91 968 557 
Q 359 1206 359 2328 
Q 359 3453 968 4101 
Q 1578 4750 2638 4750 
Q 3056 4750 3426 4639 
Q 3797 4528 4122 4306 
z
" transform="scale(0.015625)"/>
        <path id="DejaVuSans-4c" d="M 628 4666 
L 1259 4666 
L 1259 531 
L 3531 531 
L 3531 0 
L 628 0 
L 628 4666 
z
" transform="scale(0.015625)"/>
        <path id="DejaVuSans-41" d="M 2188 4044 
L 1331 1722 
L 3047 1722 
L 2188 4044 
z
M 1831 4666 
L 2547 4666 
L 4325 0 
L 3669 0 
L 3244 1197 
L 1141 1197 
L 716 0 
L 50 0 
L 1831 4666 
z
" transform="scale(0.015625)"/>
        <path id="DejaVuSans-36" d="M 2113 2584 
Q 1688 2584 1439 2293 
Q 1191 2003 1191 1497 
Q 1191 994 1439 701 
Q 1688 409 2113 409 
Q 2538 409 2786 701 
Q 3034 994 3034 1497 
Q 3034 2003 2786 2293 
Q 2538 2584 2113 2584 
z
M 3366 4563 
L 3366 3988 
Q 3128 4100 2886 4159 
Q 2644 4219 2406 4219 
Q 1781 4219 1451 3797 
Q 1122 3375 1075 2522 
Q 1259 2794 1537 2939 
Q 1816 3084 2150 3084 
Q 2853 3084 3261 2657 
Q 3669 2231 3669 1497 
Q 3669 778 3244 343 
Q 2819 -91 2113 -91 
Q 1303 -91 875 529 
Q 447 1150 447 2328 
Q 447 3434 972 4092 
Q 1497 4750 2381 4750 
Q 2619 4750 2861 4703 
Q 3103 4656 3366 4563 
z
" transform="scale(0.015625)"/>
       </defs>
       <use xlink:href="#DejaVuSans-43"/>
       <use xlink:href="#DejaVuSans-4c" transform="translate(69.824219 0)"/>
       <use xlink:href="#DejaVuSans-41" transform="translate(127.787109 0)"/>
       <use xlink:href="#DejaVuSans-5f" transform="translate(196.195312 0)"/>
       <use xlink:href="#DejaVuSans-31" transform="translate(246.195312 0)"/>
       <use xlink:href="#DejaVuSans-36" transform="translate(309.818359 0)"/>
       <use xlink:href="#DejaVuSans-62" transform="translate(373.441406 0)"/>
      </g>
     </g>
    </g>
    <g id="xtick_7">
     <g id="line2d_7">
      <g>
       <use xlink:href="#m4721ced799" x="493.08" y="318.306348" style="stroke: #000000; stroke-width: 0.8"/>
      </g>
     </g>
     <g id="text_7">
      <!-- BK_16b -->
      <g transform="translate(447.994872 376.320566) rotate(-45) scale(0.16 -0.16)">
       <use xlink:href="#DejaVuSans-42"/>
       <use xlink:href="#DejaVuSans-4b" transform="translate(68.603516 0)"/>
       <use xlink:href="#DejaVuSans-5f" transform="translate(134.179688 0)"/>
       <use xlink:href="#DejaVuSans-31" transform="translate(184.179688 0)"/>
       <use xlink:href="#DejaVuSans-36" transform="translate(247.802734 0)"/>
       <use xlink:href="#DejaVuSans-62" transform="translate(311.425781 0)"/>
      </g>
     </g>
    </g>
    <g id="xtick_8">
     <g id="line2d_8">
      <g>
       <use xlink:href="#m4721ced799" x="550.434857" y="318.306348" style="stroke: #000000; stroke-width: 0.8"/>
      </g>
     </g>
     <g id="text_8">
      <!-- CSkipA_16b -->
      <g transform="translate(480.832569 400.837726) rotate(-45) scale(0.16 -0.16)">
       <defs>
        <path id="DejaVuSans-6b" d="M 581 4863 
L 1159 4863 
L 1159 1991 
L 2875 3500 
L 3609 3500 
L 1753 1863 
L 3688 0 
L 2938 0 
L 1159 1709 
L 1159 0 
L 581 0 
L 581 4863 
z
" transform="scale(0.015625)"/>
        <path id="DejaVuSans-70" d="M 1159 525 
L 1159 -1331 
L 581 -1331 
L 581 3500 
L 1159 3500 
L 1159 2969 
Q 1341 3281 1617 3432 
Q 1894 3584 2278 3584 
Q 2916 3584 3314 3078 
Q 3713 2572 3713 1747 
Q 3713 922 3314 415 
Q 2916 -91 2278 -91 
Q 1894 -91 1617 61 
Q 1341 213 1159 525 
z
M 3116 1747 
Q 3116 2381 2855 2742 
Q 2594 3103 2138 3103 
Q 1681 3103 1420 2742 
Q 1159 2381 1159 1747 
Q 1159 1113 1420 752 
Q 1681 391 2138 391 
Q 2594 391 2855 752 
Q 3116 1113 3116 1747 
z
" transform="scale(0.015625)"/>
       </defs>
       <use xlink:href="#DejaVuSans-43"/>
       <use xlink:href="#DejaVuSans-53" transform="translate(69.824219 0)"/>
       <use xlink:href="#DejaVuSans-6b" transform="translate(133.300781 0)"/>
       <use xlink:href="#DejaVuSans-69" transform="translate(191.210938 0)"/>
       <use xlink:href="#DejaVuSans-70" transform="translate(218.994141 0)"/>
       <use xlink:href="#DejaVuSans-41" transform="translate(282.470703 0)"/>
       <use xlink:href="#DejaVuSans-5f" transform="translate(350.878906 0)"/>
       <use xlink:href="#DejaVuSans-31" transform="translate(400.878906 0)"/>
       <use xlink:href="#DejaVuSans-36" transform="translate(464.501953 0)"/>
       <use xlink:href="#DejaVuSans-62" transform="translate(528.125 0)"/>
      </g>
     </g>
    </g>
    <g id="xtick_9">
     <g id="line2d_9">
      <g>
       <use xlink:href="#m4721ced799" x="607.789714" y="318.306348" style="stroke: #000000; stroke-width: 0.8"/>
      </g>
     </g>
     <g id="text_9">
      <!-- KS_16b -->
      <g transform="translate(563.284413 375.740739) rotate(-45) scale(0.16 -0.16)">
       <use xlink:href="#DejaVuSans-4b"/>
       <use xlink:href="#DejaVuSans-53" transform="translate(65.576172 0)"/>
       <use xlink:href="#DejaVuSans-5f" transform="translate(129.052734 0)"/>
       <use xlink:href="#DejaVuSans-31" transform="translate(179.052734 0)"/>
       <use xlink:href="#DejaVuSans-36" transform="translate(242.675781 0)"/>
       <use xlink:href="#DejaVuSans-62" transform="translate(306.298828 0)"/>
      </g>
     </g>
    </g>
    <g id="xtick_10">
     <g id="line2d_10">
      <g>
       <use xlink:href="#m4721ced799" x="665.144571" y="318.306348" style="stroke: #000000; stroke-width: 0.8"/>
      </g>
     </g>
     <g id="text_10">
      <!-- LFA_16b -->
      <g transform="translate(615.72311 380.656899) rotate(-45) scale(0.16 -0.16)">
       <defs>
        <path id="DejaVuSans-46" d="M 628 4666 
L 3309 4666 
L 3309 4134 
L 1259 4134 
L 1259 2759 
L 3109 2759 
L 3109 2228 
L 1259 2228 
L 1259 0 
L 628 0 
L 628 4666 
z
" transform="scale(0.015625)"/>
       </defs>
       <use xlink:href="#DejaVuSans-4c"/>
       <use xlink:href="#DejaVuSans-46" transform="translate(55.712891 0)"/>
       <use xlink:href="#DejaVuSans-41" transform="translate(104.107422 0)"/>
       <use xlink:href="#DejaVuSans-5f" transform="translate(172.515625 0)"/>
       <use xlink:href="#DejaVuSans-31" transform="translate(222.515625 0)"/>
       <use xlink:href="#DejaVuSans-36" transform="translate(286.138672 0)"/>
       <use xlink:href="#DejaVuSans-62" transform="translate(349.761719 0)"/>
      </g>
     </g>
    </g>
    <g id="xtick_11">
     <g id="line2d_11">
      <g>
       <use xlink:href="#m4721ced799" x="722.499428" y="318.306348" style="stroke: #000000; stroke-width: 0.8"/>
      </g>
     </g>
     <g id="text_11">
      <!-- WT_8b -->
      <g transform="translate(681.697599 372.037267) rotate(-45) scale(0.16 -0.16)">
       <defs>
        <path id="DejaVuSans-57" d="M 213 4666 
L 850 4666 
L 1831 722 
L 2809 4666 
L 3519 4666 
L 4500 722 
L 5478 4666 
L 6119 4666 
L 4947 0 
L 4153 0 
L 3169 4050 
L 2175 0 
L 1381 0 
L 213 4666 
z
" transform="scale(0.015625)"/>
       </defs>
       <use xlink:href="#DejaVuSans-57"/>
       <use xlink:href="#DejaVuSans-54" transform="translate(98.876953 0)"/>
       <use xlink:href="#DejaVuSans-5f" transform="translate(159.960938 0)"/>
       <use xlink:href="#DejaVuSans-38" transform="translate(209.960938 0)"/>
       <use xlink:href="#DejaVuSans-62" transform="translate(273.583984 0)"/>
      </g>
     </g>
    </g>
    <g id="xtick_12">
     <g id="line2d_12">
      <g>
       <use xlink:href="#m4721ced799" x="779.854285" y="318.306348" style="stroke: #000000; stroke-width: 0.8"/>
      </g>
     </g>
     <g id="text_12">
      <!-- int2float -->
      <g transform="translate(730.137607 381.266778) rotate(-45) scale(0.16 -0.16)">
       <defs>
        <path id="DejaVuSans-6e" d="M 3513 2113 
L 3513 0 
L 2938 0 
L 2938 2094 
Q 2938 2591 2744 2837 
Q 2550 3084 2163 3084 
Q 1697 3084 1428 2787 
Q 1159 2491 1159 1978 
L 1159 0 
L 581 0 
L 581 3500 
L 1159 3500 
L 1159 2956 
Q 1366 3272 1645 3428 
Q 1925 3584 2291 3584 
Q 2894 3584 3203 3211 
Q 3513 2838 3513 2113 
z
" transform="scale(0.015625)"/>
       </defs>
       <use xlink:href="#DejaVuSans-69"/>
       <use xlink:href="#DejaVuSans-6e" transform="translate(27.783203 0)"/>
       <use xlink:href="#DejaVuSans-74" transform="translate(91.162109 0)"/>
       <use xlink:href="#DejaVuSans-32" transform="translate(130.371094 0)"/>
       <use xlink:href="#DejaVuSans-66" transform="translate(193.994141 0)"/>
       <use xlink:href="#DejaVuSans-6c" transform="translate(229.199219 0)"/>
       <use xlink:href="#DejaVuSans-6f" transform="translate(256.982422 0)"/>
       <use xlink:href="#DejaVuSans-61" transform="translate(318.164062 0)"/>
       <use xlink:href="#DejaVuSans-74" transform="translate(379.443359 0)"/>
      </g>
     </g>
    </g>
    <g id="xtick_13">
     <g id="line2d_13">
      <g>
       <use xlink:href="#m4721ced799" x="837.209142" y="318.306348" style="stroke: #000000; stroke-width: 0.8"/>
      </g>
     </g>
     <g id="text_13">
      <!-- RCA_4b -->
      <g transform="translate(791.568935 376.875645) rotate(-45) scale(0.16 -0.16)">
       <defs>
        <path id="DejaVuSans-52" d="M 2841 2188 
Q 3044 2119 3236 1894 
Q 3428 1669 3622 1275 
L 4263 0 
L 3584 0 
L 2988 1197 
Q 2756 1666 2539 1819 
Q 2322 1972 1947 1972 
L 1259 1972 
L 1259 0 
L 628 0 
L 628 4666 
L 2053 4666 
Q 2853 4666 3247 4331 
Q 3641 3997 3641 3322 
Q 3641 2881 3436 2590 
Q 3231 2300 2841 2188 
z
M 1259 4147 
L 1259 2491 
L 2053 2491 
Q 2509 2491 2742 2702 
Q 2975 2913 2975 3322 
Q 2975 3731 2742 3939 
Q 2509 4147 2053 4147 
L 1259 4147 
z
" transform="scale(0.015625)"/>
        <path id="DejaVuSans-34" d="M 2419 4116 
L 825 1625 
L 2419 1625 
L 2419 4116 
z
M 2253 4666 
L 3047 4666 
L 3047 1625 
L 3713 1625 
L 3713 1100 
L 3047 1100 
L 3047 0 
L 2419 0 
L 2419 1100 
L 313 1100 
L 313 1709 
L 2253 4666 
z
" transform="scale(0.015625)"/>
       </defs>
       <use xlink:href="#DejaVuSans-52"/>
       <use xlink:href="#DejaVuSans-43" transform="translate(64.482422 0)"/>
       <use xlink:href="#DejaVuSans-41" transform="translate(134.306641 0)"/>
       <use xlink:href="#DejaVuSans-5f" transform="translate(202.714844 0)"/>
       <use xlink:href="#DejaVuSans-34" transform="translate(252.714844 0)"/>
       <use xlink:href="#DejaVuSans-62" transform="translate(316.337891 0)"/>
      </g>
     </g>
    </g>
   </g>
   <g id="matplotlib.axis_2">
    <g id="ytick_1">
     <g id="line2d_14">
      <path d="M 88.04 318.306348 
L 898.12 318.306348 
" clip-path="url(#pdbdebf3724)" style="fill: none; stroke-dasharray: 2.96,1.28; stroke-dashoffset: 0; stroke: #b0b0b0; stroke-opacity: 0.5; stroke-width: 0.8"/>
     </g>
     <g id="line2d_15">
      <defs>
       <path id="m80a928da68" d="M 0 0 
L -3.5 0 
" style="stroke: #000000; stroke-width: 0.8"/>
      </defs>
      <g>
       <use xlink:href="#m80a928da68" x="88.04" y="318.306348" style="stroke: #000000; stroke-width: 0.8"/>
      </g>
     </g>
     <g id="text_14">
      <!-- 0 -->
      <g transform="translate(70.86 324.385098) scale(0.16 -0.16)">
       <defs>
        <path id="DejaVuSans-30" d="M 2034 4250 
Q 1547 4250 1301 3770 
Q 1056 3291 1056 2328 
Q 1056 1369 1301 889 
Q 1547 409 2034 409 
Q 2525 409 2770 889 
Q 3016 1369 3016 2328 
Q 3016 3291 2770 3770 
Q 2525 4250 2034 4250 
z
M 2034 4750 
Q 2819 4750 3233 4129 
Q 3647 3509 3647 2328 
Q 3647 1150 3233 529 
Q 2819 -91 2034 -91 
Q 1250 -91 836 529 
Q 422 1150 422 2328 
Q 422 3509 836 4129 
Q 1250 4750 2034 4750 
z
" transform="scale(0.015625)"/>
       </defs>
       <use xlink:href="#DejaVuSans-30"/>
      </g>
     </g>
    </g>
    <g id="ytick_2">
     <g id="line2d_16">
      <path d="M 88.04 266.371046 
L 898.12 266.371046 
" clip-path="url(#pdbdebf3724)" style="fill: none; stroke-dasharray: 2.96,1.28; stroke-dashoffset: 0; stroke: #b0b0b0; stroke-opacity: 0.5; stroke-width: 0.8"/>
     </g>
     <g id="line2d_17">
      <g>
       <use xlink:href="#m80a928da68" x="88.04" y="266.371046" style="stroke: #000000; stroke-width: 0.8"/>
      </g>
     </g>
     <g id="text_15">
      <!-- 1000 -->
      <g transform="translate(40.32 272.449796) scale(0.16 -0.16)">
       <use xlink:href="#DejaVuSans-31"/>
       <use xlink:href="#DejaVuSans-30" transform="translate(63.623047 0)"/>
       <use xlink:href="#DejaVuSans-30" transform="translate(127.246094 0)"/>
       <use xlink:href="#DejaVuSans-30" transform="translate(190.869141 0)"/>
      </g>
     </g>
    </g>
    <g id="ytick_3">
     <g id="line2d_18">
      <path d="M 88.04 214.435744 
L 898.12 214.435744 
" clip-path="url(#pdbdebf3724)" style="fill: none; stroke-dasharray: 2.96,1.28; stroke-dashoffset: 0; stroke: #b0b0b0; stroke-opacity: 0.5; stroke-width: 0.8"/>
     </g>
     <g id="line2d_19">
      <g>
       <use xlink:href="#m80a928da68" x="88.04" y="214.435744" style="stroke: #000000; stroke-width: 0.8"/>
      </g>
     </g>
     <g id="text_16">
      <!-- 2000 -->
      <g transform="translate(40.32 220.514494) scale(0.16 -0.16)">
       <use xlink:href="#DejaVuSans-32"/>
       <use xlink:href="#DejaVuSans-30" transform="translate(63.623047 0)"/>
       <use xlink:href="#DejaVuSans-30" transform="translate(127.246094 0)"/>
       <use xlink:href="#DejaVuSans-30" transform="translate(190.869141 0)"/>
      </g>
     </g>
    </g>
    <g id="ytick_4">
     <g id="line2d_20">
      <path d="M 88.04 162.500443 
L 898.12 162.500443 
" clip-path="url(#pdbdebf3724)" style="fill: none; stroke-dasharray: 2.96,1.28; stroke-dashoffset: 0; stroke: #b0b0b0; stroke-opacity: 0.5; stroke-width: 0.8"/>
     </g>
     <g id="line2d_21">
      <g>
       <use xlink:href="#m80a928da68" x="88.04" y="162.500443" style="stroke: #000000; stroke-width: 0.8"/>
      </g>
     </g>
     <g id="text_17">
      <!-- 3000 -->
      <g transform="translate(40.32 168.579193) scale(0.16 -0.16)">
       <use xlink:href="#DejaVuSans-33"/>
       <use xlink:href="#DejaVuSans-30" transform="translate(63.623047 0)"/>
       <use xlink:href="#DejaVuSans-30" transform="translate(127.246094 0)"/>
       <use xlink:href="#DejaVuSans-30" transform="translate(190.869141 0)"/>
      </g>
     </g>
    </g>
    <g id="ytick_5">
     <g id="line2d_22">
      <path d="M 88.04 110.565141 
L 898.12 110.565141 
" clip-path="url(#pdbdebf3724)" style="fill: none; stroke-dasharray: 2.96,1.28; stroke-dashoffset: 0; stroke: #b0b0b0; stroke-opacity: 0.5; stroke-width: 0.8"/>
     </g>
     <g id="line2d_23">
      <g>
       <use xlink:href="#m80a928da68" x="88.04" y="110.565141" style="stroke: #000000; stroke-width: 0.8"/>
      </g>
     </g>
     <g id="text_18">
      <!-- 4000 -->
      <g transform="translate(40.32 116.643891) scale(0.16 -0.16)">
       <use xlink:href="#DejaVuSans-34"/>
       <use xlink:href="#DejaVuSans-30" transform="translate(63.623047 0)"/>
       <use xlink:href="#DejaVuSans-30" transform="translate(127.246094 0)"/>
       <use xlink:href="#DejaVuSans-30" transform="translate(190.869141 0)"/>
      </g>
     </g>
    </g>
    <g id="ytick_6">
     <g id="line2d_24">
      <path d="M 88.04 58.62984 
L 898.12 58.62984 
" clip-path="url(#pdbdebf3724)" style="fill: none; stroke-dasharray: 2.96,1.28; stroke-dashoffset: 0; stroke: #b0b0b0; stroke-opacity: 0.5; stroke-width: 0.8"/>
     </g>
     <g id="line2d_25">
      <g>
       <use xlink:href="#m80a928da68" x="88.04" y="58.62984" style="stroke: #000000; stroke-width: 0.8"/>
      </g>
     </g>
     <g id="text_19">
      <!-- 5000 -->
      <g transform="translate(40.32 64.70859) scale(0.16 -0.16)">
       <defs>
        <path id="DejaVuSans-35" d="M 691 4666 
L 3169 4666 
L 3169 4134 
L 1269 4134 
L 1269 2991 
Q 1406 3038 1543 3061 
Q 1681 3084 1819 3084 
Q 2600 3084 3056 2656 
Q 3513 2228 3513 1497 
Q 3513 744 3044 326 
Q 2575 -91 1722 -91 
Q 1428 -91 1123 -41 
Q 819 9 494 109 
L 494 744 
Q 775 591 1075 516 
Q 1375 441 1709 441 
Q 2250 441 2565 725 
Q 2881 1009 2881 1497 
Q 2881 1984 2565 2268 
Q 2250 2553 1709 2553 
Q 1456 2553 1204 2497 
Q 953 2441 691 2322 
L 691 4666 
z
" transform="scale(0.015625)"/>
       </defs>
       <use xlink:href="#DejaVuSans-35"/>
       <use xlink:href="#DejaVuSans-30" transform="translate(63.623047 0)"/>
       <use xlink:href="#DejaVuSans-30" transform="translate(127.246094 0)"/>
       <use xlink:href="#DejaVuSans-30" transform="translate(190.869141 0)"/>
      </g>
     </g>
    </g>
    <g id="text_20">
     <!-- rea (% de original) -->
     <g transform="translate(32.9925 247.574424) rotate(-90) scale(0.16 -0.16)">
      <defs>
       <path id="DejaVuSans-c1" d="M 2188 4044 
L 1331 1722 
L 3047 1722 
L 2188 4044 
z
M 1831 4666 
L 2547 4666 
L 4325 0 
L 3669 0 
L 3244 1197 
L 1141 1197 
L 716 0 
L 50 0 
L 1831 4666 
z
M 2359 5935 
L 2938 5935 
L 2225 5110 
L 1747 5110 
L 2359 5935 
z
" transform="scale(0.015625)"/>
       <path id="DejaVuSans-20" transform="scale(0.015625)"/>
       <path id="DejaVuSans-28" d="M 1984 4856 
Q 1566 4138 1362 3434 
Q 1159 2731 1159 2009 
Q 1159 1288 1364 580 
Q 1569 -128 1984 -844 
L 1484 -844 
Q 1016 -109 783 600 
Q 550 1309 550 2009 
Q 550 2706 781 3412 
Q 1013 4119 1484 4856 
L 1984 4856 
z
" transform="scale(0.015625)"/>
       <path id="DejaVuSans-25" d="M 4653 2053 
Q 4381 2053 4226 1822 
Q 4072 1591 4072 1178 
Q 4072 772 4226 539 
Q 4381 306 4653 306 
Q 4919 306 5073 539 
Q 5228 772 5228 1178 
Q 5228 1588 5073 1820 
Q 4919 2053 4653 2053 
z
M 4653 2450 
Q 5147 2450 5437 2106 
Q 5728 1763 5728 1178 
Q 5728 594 5436 251 
Q 5144 -91 4653 -91 
Q 4153 -91 3862 251 
Q 3572 594 3572 1178 
Q 3572 1766 3864 2108 
Q 4156 2450 4653 2450 
z
M 1428 4353 
Q 1159 4353 1004 4120 
Q 850 3888 850 3481 
Q 850 3069 1003 2837 
Q 1156 2606 1428 2606 
Q 1700 2606 1854 2837 
Q 2009 3069 2009 3481 
Q 2009 3884 1853 4118 
Q 1697 4353 1428 4353 
z
M 4250 4750 
L 4750 4750 
L 1831 -91 
L 1331 -91 
L 4250 4750 
z
M 1428 4750 
Q 1922 4750 2215 4408 
Q 2509 4066 2509 3481 
Q 2509 2891 2217 2550 
Q 1925 2209 1428 2209 
Q 931 2209 642 2551 
Q 353 2894 353 3481 
Q 353 4063 643 4406 
Q 934 4750 1428 4750 
z
" transform="scale(0.015625)"/>
       <path id="DejaVuSans-64" d="M 2906 2969 
L 2906 4863 
L 3481 4863 
L 3481 0 
L 2906 0 
L 2906 525 
Q 2725 213 2448 61 
Q 2172 -91 1784 -91 
Q 1150 -91 751 415 
Q 353 922 353 1747 
Q 353 2572 751 3078 
Q 1150 3584 1784 3584 
Q 2172 3584 2448 3432 
Q 2725 3281 2906 2969 
z
M 947 1747 
Q 947 1113 1208 752 
Q 1469 391 1925 391 
Q 2381 391 2643 752 
Q 2906 1113 2906 1747 
Q 2906 2381 2643 2742 
Q 2381 3103 1925 3103 
Q 1469 3103 1208 2742 
Q 947 2381 947 1747 
z
" transform="scale(0.015625)"/>
       <path id="DejaVuSans-67" d="M 2906 1791 
Q 2906 2416 2648 2759 
Q 2391 3103 1925 3103 
Q 1463 3103 1205 2759 
Q 947 2416 947 1791 
Q 947 1169 1205 825 
Q 1463 481 1925 481 
Q 2391 481 2648 825 
Q 2906 1169 2906 1791 
z
M 3481 434 
Q 3481 -459 3084 -895 
Q 2688 -1331 1869 -1331 
Q 1566 -1331 1297 -1286 
Q 1028 -1241 775 -1147 
L 775 -588 
Q 1028 -725 1275 -790 
Q 1522 -856 1778 -856 
Q 2344 -856 2625 -561 
Q 2906 -266 2906 331 
L 2906 616 
Q 2728 306 2450 153 
Q 2172 0 1784 0 
Q 1141 0 747 490 
Q 353 981 353 1791 
Q 353 2603 747 3093 
Q 1141 3584 1784 3584 
Q 2172 3584 2450 3431 
Q 2728 3278 2906 2969 
L 2906 3500 
L 3481 3500 
L 3481 434 
z
" transform="scale(0.015625)"/>
       <path id="DejaVuSans-29" d="M 513 4856 
L 1013 4856 
Q 1481 4119 1714 3412 
Q 1947 2706 1947 2009 
Q 1947 1309 1714 600 
Q 1481 -109 1013 -844 
L 513 -844 
Q 928 -128 1133 580 
Q 1338 1288 1338 2009 
Q 1338 2731 1133 3434 
Q 928 4138 513 4856 
z
" transform="scale(0.015625)"/>
      </defs>
      <use xlink:href="#DejaVuSans-c1"/>
      <use xlink:href="#DejaVuSans-72" transform="translate(68.408203 0)"/>
      <use xlink:href="#DejaVuSans-65" transform="translate(107.271484 0)"/>
      <use xlink:href="#DejaVuSans-61" transform="translate(168.794922 0)"/>
      <use xlink:href="#DejaVuSans-20" transform="translate(230.074219 0)"/>
      <use xlink:href="#DejaVuSans-28" transform="translate(261.861328 0)"/>
      <use xlink:href="#DejaVuSans-25" transform="translate(300.875 0)"/>
      <use xlink:href="#DejaVuSans-20" transform="translate(395.894531 0)"/>
      <use xlink:href="#DejaVuSans-64" transform="translate(427.681641 0)"/>
      <use xlink:href="#DejaVuSans-65" transform="translate(491.158203 0)"/>
      <use xlink:href="#DejaVuSans-20" transform="translate(552.681641 0)"/>
      <use xlink:href="#DejaVuSans-6f" transform="translate(584.46875 0)"/>
      <use xlink:href="#DejaVuSans-72" transform="translate(645.650391 0)"/>
      <use xlink:href="#DejaVuSans-69" transform="translate(686.763672 0)"/>
      <use xlink:href="#DejaVuSans-67" transform="translate(714.546875 0)"/>
      <use xlink:href="#DejaVuSans-69" transform="translate(778.023438 0)"/>
      <use xlink:href="#DejaVuSans-6e" transform="translate(805.806641 0)"/>
      <use xlink:href="#DejaVuSans-61" transform="translate(869.185547 0)"/>
      <use xlink:href="#DejaVuSans-6c" transform="translate(930.464844 0)"/>
      <use xlink:href="#DejaVuSans-29" transform="translate(958.248047 0)"/>
     </g>
    </g>
   </g>
   <g id="patch_159">
    <path d="M 88.04 318.306348 
L 88.04 17.28 
" style="fill: none; stroke: #000000; stroke-width: 0.8; stroke-linejoin: miter; stroke-linecap: square"/>
   </g>
   <g id="patch_160">
    <path d="M 898.12 318.306348 
L 898.12 17.28 
" style="fill: none; stroke: #000000; stroke-width: 0.8; stroke-linejoin: miter; stroke-linecap: square"/>
   </g>
   <g id="patch_161">
    <path d="M 88.04 318.306348 
L 898.12 318.306348 
" style="fill: none; stroke: #000000; stroke-width: 0.8; stroke-linejoin: miter; stroke-linecap: square"/>
   </g>
   <g id="patch_162">
    <path d="M 88.04 17.28 
L 898.12 17.28 
" style="fill: none; stroke: #000000; stroke-width: 0.8; stroke-linejoin: miter; stroke-linecap: square"/>
   </g>
   <g id="legend_1">
    <g id="patch_163">
     <path d="M 909.32 311.9 
L 1131.5475 311.9 
Q 1134.7475 311.9 1134.7475 308.7 
L 1134.7475 28.48 
Q 1134.7475 25.28 1131.5475 25.28 
L 909.32 25.28 
Q 906.12 25.28 906.12 28.48 
L 906.12 308.7 
Q 906.12 311.9 909.32 311.9 
z
" style="fill: #ffffff; opacity: 0.8; stroke: #cccccc; stroke-linejoin: miter"/>
    </g>
    <g id="patch_164">
     <path d="M 912.52 43.8375 
L 944.52 43.8375 
L 944.52 32.6375 
L 912.52 32.6375 
z
" style="fill: #87ceeb; opacity: 0.4"/>
    </g>
    <g id="text_21">
     <!-- No Resynthesis - D3 -->
     <g transform="translate(957.32 43.8375) scale(0.16 -0.16)">
      <defs>
       <path id="DejaVuSans-4e" d="M 628 4666 
L 1478 4666 
L 3547 763 
L 3547 4666 
L 4159 4666 
L 4159 0 
L 3309 0 
L 1241 3903 
L 1241 0 
L 628 0 
L 628 4666 
z
" transform="scale(0.015625)"/>
       <path id="DejaVuSans-79" d="M 2059 -325 
Q 1816 -950 1584 -1140 
Q 1353 -1331 966 -1331 
L 506 -1331 
L 506 -850 
L 844 -850 
Q 1081 -850 1212 -737 
Q 1344 -625 1503 -206 
L 1606 56 
L 191 3500 
L 800 3500 
L 1894 763 
L 2988 3500 
L 3597 3500 
L 2059 -325 
z
" transform="scale(0.015625)"/>
       <path id="DejaVuSans-2d" d="M 313 2009 
L 1997 2009 
L 1997 1497 
L 313 1497 
L 313 2009 
z
" transform="scale(0.015625)"/>
      </defs>
      <use xlink:href="#DejaVuSans-4e"/>
      <use xlink:href="#DejaVuSans-6f" transform="translate(74.804688 0)"/>
      <use xlink:href="#DejaVuSans-20" transform="translate(135.986328 0)"/>
      <use xlink:href="#DejaVuSans-52" transform="translate(167.773438 0)"/>
      <use xlink:href="#DejaVuSans-65" transform="translate(232.755859 0)"/>
      <use xlink:href="#DejaVuSans-73" transform="translate(294.279297 0)"/>
      <use xlink:href="#DejaVuSans-79" transform="translate(346.378906 0)"/>
      <use xlink:href="#DejaVuSans-6e" transform="translate(405.558594 0)"/>
      <use xlink:href="#DejaVuSans-74" transform="translate(468.9375 0)"/>
      <use xlink:href="#DejaVuSans-68" transform="translate(508.146484 0)"/>
      <use xlink:href="#DejaVuSans-65" transform="translate(571.525391 0)"/>
      <use xlink:href="#DejaVuSans-73" transform="translate(633.048828 0)"/>
      <use xlink:href="#DejaVuSans-69" transform="translate(685.148438 0)"/>
      <use xlink:href="#DejaVuSans-73" transform="translate(712.931641 0)"/>
      <use xlink:href="#DejaVuSans-20" transform="translate(765.03125 0)"/>
      <use xlink:href="#DejaVuSans-2d" transform="translate(796.818359 0)"/>
      <use xlink:href="#DejaVuSans-20" transform="translate(832.902344 0)"/>
      <use xlink:href="#DejaVuSans-44" transform="translate(864.689453 0)"/>
      <use xlink:href="#DejaVuSans-33" transform="translate(941.691406 0)"/>
     </g>
    </g>
    <g id="patch_165">
     <path d="M 912.52 67.3225 
L 944.52 67.3225 
L 944.52 56.1225 
L 912.52 56.1225 
z
" style="fill: #87ceeb; opacity: 0.485714"/>
    </g>
    <g id="text_22">
     <!-- No Resynthesis - D4 -->
     <g transform="translate(957.32 67.3225) scale(0.16 -0.16)">
      <use xlink:href="#DejaVuSans-4e"/>
      <use xlink:href="#DejaVuSans-6f" transform="translate(74.804688 0)"/>
      <use xlink:href="#DejaVuSans-20" transform="translate(135.986328 0)"/>
      <use xlink:href="#DejaVuSans-52" transform="translate(167.773438 0)"/>
      <use xlink:href="#DejaVuSans-65" transform="translate(232.755859 0)"/>
      <use xlink:href="#DejaVuSans-73" transform="translate(294.279297 0)"/>
      <use xlink:href="#DejaVuSans-79" transform="translate(346.378906 0)"/>
      <use xlink:href="#DejaVuSans-6e" transform="translate(405.558594 0)"/>
      <use xlink:href="#DejaVuSans-74" transform="translate(468.9375 0)"/>
      <use xlink:href="#DejaVuSans-68" transform="translate(508.146484 0)"/>
      <use xlink:href="#DejaVuSans-65" transform="translate(571.525391 0)"/>
      <use xlink:href="#DejaVuSans-73" transform="translate(633.048828 0)"/>
      <use xlink:href="#DejaVuSans-69" transform="translate(685.148438 0)"/>
      <use xlink:href="#DejaVuSans-73" transform="translate(712.931641 0)"/>
      <use xlink:href="#DejaVuSans-20" transform="translate(765.03125 0)"/>
      <use xlink:href="#DejaVuSans-2d" transform="translate(796.818359 0)"/>
      <use xlink:href="#DejaVuSans-20" transform="translate(832.902344 0)"/>
      <use xlink:href="#DejaVuSans-44" transform="translate(864.689453 0)"/>
      <use xlink:href="#DejaVuSans-34" transform="translate(941.691406 0)"/>
     </g>
    </g>
    <g id="patch_166">
     <path d="M 912.52 90.8075 
L 944.52 90.8075 
L 944.52 79.6075 
L 912.52 79.6075 
z
" style="fill: #87ceeb; opacity: 0.571429"/>
    </g>
    <g id="text_23">
     <!-- No Resynthesis - D5 -->
     <g transform="translate(957.32 90.8075) scale(0.16 -0.16)">
      <use xlink:href="#DejaVuSans-4e"/>
      <use xlink:href="#DejaVuSans-6f" transform="translate(74.804688 0)"/>
      <use xlink:href="#DejaVuSans-20" transform="translate(135.986328 0)"/>
      <use xlink:href="#DejaVuSans-52" transform="translate(167.773438 0)"/>
      <use xlink:href="#DejaVuSans-65" transform="translate(232.755859 0)"/>
      <use xlink:href="#DejaVuSans-73" transform="translate(294.279297 0)"/>
      <use xlink:href="#DejaVuSans-79" transform="translate(346.378906 0)"/>
      <use xlink:href="#DejaVuSans-6e" transform="translate(405.558594 0)"/>
      <use xlink:href="#DejaVuSans-74" transform="translate(468.9375 0)"/>
      <use xlink:href="#DejaVuSans-68" transform="translate(508.146484 0)"/>
      <use xlink:href="#DejaVuSans-65" transform="translate(571.525391 0)"/>
      <use xlink:href="#DejaVuSans-73" transform="translate(633.048828 0)"/>
      <use xlink:href="#DejaVuSans-69" transform="translate(685.148438 0)"/>
      <use xlink:href="#DejaVuSans-73" transform="translate(712.931641 0)"/>
      <use xlink:href="#DejaVuSans-20" transform="translate(765.03125 0)"/>
      <use xlink:href="#DejaVuSans-2d" transform="translate(796.818359 0)"/>
      <use xlink:href="#DejaVuSans-20" transform="translate(832.902344 0)"/>
      <use xlink:href="#DejaVuSans-44" transform="translate(864.689453 0)"/>
      <use xlink:href="#DejaVuSans-35" transform="translate(941.691406 0)"/>
     </g>
    </g>
    <g id="patch_167">
     <path d="M 912.52 114.2925 
L 944.52 114.2925 
L 944.52 103.0925 
L 912.52 103.0925 
z
" style="fill: #87ceeb; opacity: 0.657143"/>
    </g>
    <g id="text_24">
     <!-- No Resynthesis - D6 -->
     <g transform="translate(957.32 114.2925) scale(0.16 -0.16)">
      <use xlink:href="#DejaVuSans-4e"/>
      <use xlink:href="#DejaVuSans-6f" transform="translate(74.804688 0)"/>
      <use xlink:href="#DejaVuSans-20" transform="translate(135.986328 0)"/>
      <use xlink:href="#DejaVuSans-52" transform="translate(167.773438 0)"/>
      <use xlink:href="#DejaVuSans-65" transform="translate(232.755859 0)"/>
      <use xlink:href="#DejaVuSans-73" transform="translate(294.279297 0)"/>
      <use xlink:href="#DejaVuSans-79" transform="translate(346.378906 0)"/>
      <use xlink:href="#DejaVuSans-6e" transform="translate(405.558594 0)"/>
      <use xlink:href="#DejaVuSans-74" transform="translate(468.9375 0)"/>
      <use xlink:href="#DejaVuSans-68" transform="translate(508.146484 0)"/>
      <use xlink:href="#DejaVuSans-65" transform="translate(571.525391 0)"/>
      <use xlink:href="#DejaVuSans-73" transform="translate(633.048828 0)"/>
      <use xlink:href="#DejaVuSans-69" transform="translate(685.148438 0)"/>
      <use xlink:href="#DejaVuSans-73" transform="translate(712.931641 0)"/>
      <use xlink:href="#DejaVuSans-20" transform="translate(765.03125 0)"/>
      <use xlink:href="#DejaVuSans-2d" transform="translate(796.818359 0)"/>
      <use xlink:href="#DejaVuSans-20" transform="translate(832.902344 0)"/>
      <use xlink:href="#DejaVuSans-44" transform="translate(864.689453 0)"/>
      <use xlink:href="#DejaVuSans-36" transform="translate(941.691406 0)"/>
     </g>
    </g>
    <g id="patch_168">
     <path d="M 912.52 137.7775 
L 944.52 137.7775 
L 944.52 126.5775 
L 912.52 126.5775 
z
" style="fill: #87ceeb; opacity: 0.828571"/>
    </g>
    <g id="text_25">
     <!-- No Resynthesis - D8 -->
     <g transform="translate(957.32 137.7775) scale(0.16 -0.16)">
      <use xlink:href="#DejaVuSans-4e"/>
      <use xlink:href="#DejaVuSans-6f" transform="translate(74.804688 0)"/>
      <use xlink:href="#DejaVuSans-20" transform="translate(135.986328 0)"/>
      <use xlink:href="#DejaVuSans-52" transform="translate(167.773438 0)"/>
      <use xlink:href="#DejaVuSans-65" transform="translate(232.755859 0)"/>
      <use xlink:href="#DejaVuSans-73" transform="translate(294.279297 0)"/>
      <use xlink:href="#DejaVuSans-79" transform="translate(346.378906 0)"/>
      <use xlink:href="#DejaVuSans-6e" transform="translate(405.558594 0)"/>
      <use xlink:href="#DejaVuSans-74" transform="translate(468.9375 0)"/>
      <use xlink:href="#DejaVuSans-68" transform="translate(508.146484 0)"/>
      <use xlink:href="#DejaVuSans-65" transform="translate(571.525391 0)"/>
      <use xlink:href="#DejaVuSans-73" transform="translate(633.048828 0)"/>
      <use xlink:href="#DejaVuSans-69" transform="translate(685.148438 0)"/>
      <use xlink:href="#DejaVuSans-73" transform="translate(712.931641 0)"/>
      <use xlink:href="#DejaVuSans-20" transform="translate(765.03125 0)"/>
      <use xlink:href="#DejaVuSans-2d" transform="translate(796.818359 0)"/>
      <use xlink:href="#DejaVuSans-20" transform="translate(832.902344 0)"/>
      <use xlink:href="#DejaVuSans-44" transform="translate(864.689453 0)"/>
      <use xlink:href="#DejaVuSans-38" transform="translate(941.691406 0)"/>
     </g>
    </g>
    <g id="patch_169">
     <path d="M 912.52 161.2625 
L 944.52 161.2625 
L 944.52 150.0625 
L 912.52 150.0625 
z
" style="fill: #87ceeb"/>
    </g>
    <g id="text_26">
     <!-- No Resynthesis - D10 -->
     <g transform="translate(957.32 161.2625) scale(0.16 -0.16)">
      <use xlink:href="#DejaVuSans-4e"/>
      <use xlink:href="#DejaVuSans-6f" transform="translate(74.804688 0)"/>
      <use xlink:href="#DejaVuSans-20" transform="translate(135.986328 0)"/>
      <use xlink:href="#DejaVuSans-52" transform="translate(167.773438 0)"/>
      <use xlink:href="#DejaVuSans-65" transform="translate(232.755859 0)"/>
      <use xlink:href="#DejaVuSans-73" transform="translate(294.279297 0)"/>
      <use xlink:href="#DejaVuSans-79" transform="translate(346.378906 0)"/>
      <use xlink:href="#DejaVuSans-6e" transform="translate(405.558594 0)"/>
      <use xlink:href="#DejaVuSans-74" transform="translate(468.9375 0)"/>
      <use xlink:href="#DejaVuSans-68" transform="translate(508.146484 0)"/>
      <use xlink:href="#DejaVuSans-65" transform="translate(571.525391 0)"/>
      <use xlink:href="#DejaVuSans-73" transform="translate(633.048828 0)"/>
      <use xlink:href="#DejaVuSans-69" transform="translate(685.148438 0)"/>
      <use xlink:href="#DejaVuSans-73" transform="translate(712.931641 0)"/>
      <use xlink:href="#DejaVuSans-20" transform="translate(765.03125 0)"/>
      <use xlink:href="#DejaVuSans-2d" transform="translate(796.818359 0)"/>
      <use xlink:href="#DejaVuSans-20" transform="translate(832.902344 0)"/>
      <use xlink:href="#DejaVuSans-44" transform="translate(864.689453 0)"/>
      <use xlink:href="#DejaVuSans-31" transform="translate(941.691406 0)"/>
      <use xlink:href="#DejaVuSans-30" transform="translate(1005.314453 0)"/>
     </g>
    </g>
    <g id="patch_170">
     <path d="M 912.52 184.7475 
L 944.52 184.7475 
L 944.52 173.5475 
L 912.52 173.5475 
z
" style="fill: #fa8072; opacity: 0.4"/>
    </g>
    <g id="text_27">
     <!-- Resynthesis - D3 -->
     <g transform="translate(957.32 184.7475) scale(0.16 -0.16)">
      <use xlink:href="#DejaVuSans-52"/>
      <use xlink:href="#DejaVuSans-65" transform="translate(64.982422 0)"/>
      <use xlink:href="#DejaVuSans-73" transform="translate(126.505859 0)"/>
      <use xlink:href="#DejaVuSans-79" transform="translate(178.605469 0)"/>
      <use xlink:href="#DejaVuSans-6e" transform="translate(237.785156 0)"/>
      <use xlink:href="#DejaVuSans-74" transform="translate(301.164062 0)"/>
      <use xlink:href="#DejaVuSans-68" transform="translate(340.373047 0)"/>
      <use xlink:href="#DejaVuSans-65" transform="translate(403.751953 0)"/>
      <use xlink:href="#DejaVuSans-73" transform="translate(465.275391 0)"/>
      <use xlink:href="#DejaVuSans-69" transform="translate(517.375 0)"/>
      <use xlink:href="#DejaVuSans-73" transform="translate(545.158203 0)"/>
      <use xlink:href="#DejaVuSans-20" transform="translate(597.257812 0)"/>
      <use xlink:href="#DejaVuSans-2d" transform="translate(629.044922 0)"/>
      <use xlink:href="#DejaVuSans-20" transform="translate(665.128906 0)"/>
      <use xlink:href="#DejaVuSans-44" transform="translate(696.916016 0)"/>
      <use xlink:href="#DejaVuSans-33" transform="translate(773.917969 0)"/>
     </g>
    </g>
    <g id="patch_171">
     <path d="M 912.52 208.2325 
L 944.52 208.2325 
L 944.52 197.0325 
L 912.52 197.0325 
z
" style="fill: #fa8072; opacity: 0.485714"/>
    </g>
    <g id="text_28">
     <!-- Resynthesis - D4 -->
     <g transform="translate(957.32 208.2325) scale(0.16 -0.16)">
      <use xlink:href="#DejaVuSans-52"/>
      <use xlink:href="#DejaVuSans-65" transform="translate(64.982422 0)"/>
      <use xlink:href="#DejaVuSans-73" transform="translate(126.505859 0)"/>
      <use xlink:href="#DejaVuSans-79" transform="translate(178.605469 0)"/>
      <use xlink:href="#DejaVuSans-6e" transform="translate(237.785156 0)"/>
      <use xlink:href="#DejaVuSans-74" transform="translate(301.164062 0)"/>
      <use xlink:href="#DejaVuSans-68" transform="translate(340.373047 0)"/>
      <use xlink:href="#DejaVuSans-65" transform="translate(403.751953 0)"/>
      <use xlink:href="#DejaVuSans-73" transform="translate(465.275391 0)"/>
      <use xlink:href="#DejaVuSans-69" transform="translate(517.375 0)"/>
      <use xlink:href="#DejaVuSans-73" transform="translate(545.158203 0)"/>
      <use xlink:href="#DejaVuSans-20" transform="translate(597.257812 0)"/>
      <use xlink:href="#DejaVuSans-2d" transform="translate(629.044922 0)"/>
      <use xlink:href="#DejaVuSans-20" transform="translate(665.128906 0)"/>
      <use xlink:href="#DejaVuSans-44" transform="translate(696.916016 0)"/>
      <use xlink:href="#DejaVuSans-34" transform="translate(773.917969 0)"/>
     </g>
    </g>
    <g id="patch_172">
     <path d="M 912.52 231.7175 
L 944.52 231.7175 
L 944.52 220.5175 
L 912.52 220.5175 
z
" style="fill: #fa8072; opacity: 0.571429"/>
    </g>
    <g id="text_29">
     <!-- Resynthesis - D5 -->
     <g transform="translate(957.32 231.7175) scale(0.16 -0.16)">
      <use xlink:href="#DejaVuSans-52"/>
      <use xlink:href="#DejaVuSans-65" transform="translate(64.982422 0)"/>
      <use xlink:href="#DejaVuSans-73" transform="translate(126.505859 0)"/>
      <use xlink:href="#DejaVuSans-79" transform="translate(178.605469 0)"/>
      <use xlink:href="#DejaVuSans-6e" transform="translate(237.785156 0)"/>
      <use xlink:href="#DejaVuSans-74" transform="translate(301.164062 0)"/>
      <use xlink:href="#DejaVuSans-68" transform="translate(340.373047 0)"/>
      <use xlink:href="#DejaVuSans-65" transform="translate(403.751953 0)"/>
      <use xlink:href="#DejaVuSans-73" transform="translate(465.275391 0)"/>
      <use xlink:href="#DejaVuSans-69" transform="translate(517.375 0)"/>
      <use xlink:href="#DejaVuSans-73" transform="translate(545.158203 0)"/>
      <use xlink:href="#DejaVuSans-20" transform="translate(597.257812 0)"/>
      <use xlink:href="#DejaVuSans-2d" transform="translate(629.044922 0)"/>
      <use xlink:href="#DejaVuSans-20" transform="translate(665.128906 0)"/>
      <use xlink:href="#DejaVuSans-44" transform="translate(696.916016 0)"/>
      <use xlink:href="#DejaVuSans-35" transform="translate(773.917969 0)"/>
     </g>
    </g>
    <g id="patch_173">
     <path d="M 912.52 255.2025 
L 944.52 255.2025 
L 944.52 244.0025 
L 912.52 244.0025 
z
" style="fill: #fa8072; opacity: 0.657143"/>
    </g>
    <g id="text_30">
     <!-- Resynthesis - D6 -->
     <g transform="translate(957.32 255.2025) scale(0.16 -0.16)">
      <use xlink:href="#DejaVuSans-52"/>
      <use xlink:href="#DejaVuSans-65" transform="translate(64.982422 0)"/>
      <use xlink:href="#DejaVuSans-73" transform="translate(126.505859 0)"/>
      <use xlink:href="#DejaVuSans-79" transform="translate(178.605469 0)"/>
      <use xlink:href="#DejaVuSans-6e" transform="translate(237.785156 0)"/>
      <use xlink:href="#DejaVuSans-74" transform="translate(301.164062 0)"/>
      <use xlink:href="#DejaVuSans-68" transform="translate(340.373047 0)"/>
      <use xlink:href="#DejaVuSans-65" transform="translate(403.751953 0)"/>
      <use xlink:href="#DejaVuSans-73" transform="translate(465.275391 0)"/>
      <use xlink:href="#DejaVuSans-69" transform="translate(517.375 0)"/>
      <use xlink:href="#DejaVuSans-73" transform="translate(545.158203 0)"/>
      <use xlink:href="#DejaVuSans-20" transform="translate(597.257812 0)"/>
      <use xlink:href="#DejaVuSans-2d" transform="translate(629.044922 0)"/>
      <use xlink:href="#DejaVuSans-20" transform="translate(665.128906 0)"/>
      <use xlink:href="#DejaVuSans-44" transform="translate(696.916016 0)"/>
      <use xlink:href="#DejaVuSans-36" transform="translate(773.917969 0)"/>
     </g>
    </g>
    <g id="patch_174">
     <path d="M 912.52 278.6875 
L 944.52 278.6875 
L 944.52 267.4875 
L 912.52 267.4875 
z
" style="fill: #fa8072; opacity: 0.828571"/>
    </g>
    <g id="text_31">
     <!-- Resynthesis - D8 -->
     <g transform="translate(957.32 278.6875) scale(0.16 -0.16)">
      <use xlink:href="#DejaVuSans-52"/>
      <use xlink:href="#DejaVuSans-65" transform="translate(64.982422 0)"/>
      <use xlink:href="#DejaVuSans-73" transform="translate(126.505859 0)"/>
      <use xlink:href="#DejaVuSans-79" transform="translate(178.605469 0)"/>
      <use xlink:href="#DejaVuSans-6e" transform="translate(237.785156 0)"/>
      <use xlink:href="#DejaVuSans-74" transform="translate(301.164062 0)"/>
      <use xlink:href="#DejaVuSans-68" transform="translate(340.373047 0)"/>
      <use xlink:href="#DejaVuSans-65" transform="translate(403.751953 0)"/>
      <use xlink:href="#DejaVuSans-73" transform="translate(465.275391 0)"/>
      <use xlink:href="#DejaVuSans-69" transform="translate(517.375 0)"/>
      <use xlink:href="#DejaVuSans-73" transform="translate(545.158203 0)"/>
      <use xlink:href="#DejaVuSans-20" transform="translate(597.257812 0)"/>
      <use xlink:href="#DejaVuSans-2d" transform="translate(629.044922 0)"/>
      <use xlink:href="#DejaVuSans-20" transform="translate(665.128906 0)"/>
      <use xlink:href="#DejaVuSans-44" transform="translate(696.916016 0)"/>
      <use xlink:href="#DejaVuSans-38" transform="translate(773.917969 0)"/>
     </g>
    </g>
    <g id="patch_175">
     <path d="M 912.52 302.1725 
L 944.52 302.1725 
L 944.52 290.9725 
L 912.52 290.9725 
z
" style="fill: #fa8072"/>
    </g>
    <g id="text_32">
     <!-- Resynthesis - D10 -->
     <g transform="translate(957.32 302.1725) scale(0.16 -0.16)">
      <use xlink:href="#DejaVuSans-52"/>
      <use xlink:href="#DejaVuSans-65" transform="translate(64.982422 0)"/>
      <use xlink:href="#DejaVuSans-73" transform="translate(126.505859 0)"/>
      <use xlink:href="#DejaVuSans-79" transform="translate(178.605469 0)"/>
      <use xlink:href="#DejaVuSans-6e" transform="translate(237.785156 0)"/>
      <use xlink:href="#DejaVuSans-74" transform="translate(301.164062 0)"/>
      <use xlink:href="#DejaVuSans-68" transform="translate(340.373047 0)"/>
      <use xlink:href="#DejaVuSans-65" transform="translate(403.751953 0)"/>
      <use xlink:href="#DejaVuSans-73" transform="translate(465.275391 0)"/>
      <use xlink:href="#DejaVuSans-69" transform="translate(517.375 0)"/>
      <use xlink:href="#DejaVuSans-73" transform="translate(545.158203 0)"/>
      <use xlink:href="#DejaVuSans-20" transform="translate(597.257812 0)"/>
      <use xlink:href="#DejaVuSans-2d" transform="translate(629.044922 0)"/>
      <use xlink:href="#DejaVuSans-20" transform="translate(665.128906 0)"/>
      <use xlink:href="#DejaVuSans-44" transform="translate(696.916016 0)"/>
      <use xlink:href="#DejaVuSans-31" transform="translate(773.917969 0)"/>
      <use xlink:href="#DejaVuSans-30" transform="translate(837.541016 0)"/>
     </g>
    </g>
   </g>
  </g>
 </g>
 <defs>
  <clipPath id="pdbdebf3724">
   <rect x="88.04" y="17.28" width="810.08" height="301.026348"/>
  </clipPath>
 </defs>
</svg>
