<?xml version="1.0" encoding="utf-8" standalone="no"?>
<!DOCTYPE svg PUBLIC "-//W3C//DTD SVG 1.1//EN"
  "http://www.w3.org/Graphics/SVG/1.1/DTD/svg11.dtd">
<svg xmlns:xlink="http://www.w3.org/1999/xlink" width="864pt" height="576pt" viewBox="0 0 864 576" xmlns="http://www.w3.org/2000/svg" version="1.1">
 <metadata>
  <rdf:RDF xmlns:dc="http://purl.org/dc/elements/1.1/" xmlns:cc="http://creativecommons.org/ns#" xmlns:rdf="http://www.w3.org/1999/02/22-rdf-syntax-ns#">
   <cc:Work>
    <dc:type rdf:resource="http://purl.org/dc/dcmitype/StillImage"/>
    <dc:date>2025-06-05T14:15:43.504107</dc:date>
    <dc:format>image/svg+xml</dc:format>
    <dc:creator>
     <cc:Agent>
      <dc:title>Matplotlib v3.10.3, https://matplotlib.org/</dc:title>
     </cc:Agent>
    </dc:creator>
   </cc:Work>
  </rdf:RDF>
 </metadata>
 <defs>
  <style type="text/css">*{stroke-linejoin: round; stroke-linecap: butt}</style>
 </defs>
 <g id="figure_1">
  <g id="patch_1">
   <path d="M 0 576 
L 864 576 
L 864 0 
L 0 0 
z
" style="fill: #ffffff"/>
  </g>
  <g id="axes_1">
   <g id="line2d_1">
    <path d="M 116.1 343.44 
L 63.45 454.32 
" clip-path="url(#pe7adef04eb)" style="fill: none; stroke: #000000; stroke-linecap: square"/>
   </g>
   <g id="line2d_2">
    <path d="M 116.1 343.44 
L 168.75 454.32 
" clip-path="url(#pe7adef04eb)" style="fill: none; stroke: #000000; stroke-linecap: square"/>
   </g>
   <g id="line2d_3">
    <path d="M 221.4 232.56 
L 116.1 343.44 
" clip-path="url(#pe7adef04eb)" style="fill: none; stroke: #000000; stroke-linecap: square"/>
   </g>
   <g id="line2d_4">
    <path d="M 221.4 232.56 
L 326.7 343.44 
" clip-path="url(#pe7adef04eb)" style="fill: none; stroke: #000000; stroke-linecap: square"/>
   </g>
   <g id="line2d_5">
    <path d="M 326.7 343.44 
L 274.05 454.32 
" clip-path="url(#pe7adef04eb)" style="fill: none; stroke: #000000; stroke-linecap: square"/>
   </g>
   <g id="line2d_6">
    <path d="M 326.7 343.44 
L 379.35 454.32 
" clip-path="url(#pe7adef04eb)" style="fill: none; stroke: #000000; stroke-linecap: square"/>
   </g>
   <g id="line2d_7">
    <path d="M 432 121.68 
L 221.4 232.56 
" clip-path="url(#pe7adef04eb)" style="fill: none; stroke: #000000; stroke-linecap: square"/>
   </g>
   <g id="line2d_8">
    <path d="M 432 121.68 
L 642.6 232.56 
" clip-path="url(#pe7adef04eb)" style="fill: none; stroke: #000000; stroke-linecap: square"/>
   </g>
   <g id="line2d_9">
    <path d="M 537.3 343.44 
L 484.65 454.32 
" clip-path="url(#pe7adef04eb)" style="fill: none; stroke: #000000; stroke-linecap: square"/>
   </g>
   <g id="line2d_10">
    <path d="M 537.3 343.44 
L 589.95 454.32 
" clip-path="url(#pe7adef04eb)" style="fill: none; stroke: #000000; stroke-linecap: square"/>
   </g>
   <g id="line2d_11">
    <path d="M 642.6 232.56 
L 537.3 343.44 
" clip-path="url(#pe7adef04eb)" style="fill: none; stroke: #000000; stroke-linecap: square"/>
   </g>
   <g id="line2d_12">
    <path d="M 642.6 232.56 
L 747.9 343.44 
" clip-path="url(#pe7adef04eb)" style="fill: none; stroke: #000000; stroke-linecap: square"/>
   </g>
   <g id="line2d_13">
    <path d="M 747.9 343.44 
L 695.25 454.32 
" clip-path="url(#pe7adef04eb)" style="fill: none; stroke: #000000; stroke-linecap: square"/>
   </g>
   <g id="line2d_14">
    <path d="M 747.9 343.44 
L 800.55 454.32 
" clip-path="url(#pe7adef04eb)" style="fill: none; stroke: #000000; stroke-linecap: square"/>
   </g>
   <g id="text_1">
    <g id="patch_2">
     <path d="M 70.384375 404.35125 
L 109.165625 404.35125 
Q 110.765625 404.35125 110.765625 402.75125 
L 110.765625 395.00875 
Q 110.765625 393.40875 109.165625 393.40875 
L 70.384375 393.40875 
Q 68.784375 393.40875 68.784375 395.00875 
L 68.784375 402.75125 
Q 68.784375 404.35125 70.384375 404.35125 
z
" style="fill: #ffffff; stroke: #808080; stroke-width: 0.5; stroke-linejoin: miter"/>
    </g>
    <!-- X[14] = 0 -->
    <g transform="translate(70.384375 401.0875) scale(0.08 -0.08)">
     <defs>
      <path id="DejaVuSans-58" d="M 403 4666 
L 1081 4666 
L 2241 2931 
L 3406 4666 
L 4084 4666 
L 2584 2425 
L 4184 0 
L 3506 0 
L 2194 1984 
L 872 0 
L 191 0 
L 1856 2491 
L 403 4666 
z
" transform="scale(0.015625)"/>
      <path id="DejaVuSans-5b" d="M 550 4863 
L 1875 4863 
L 1875 4416 
L 1125 4416 
L 1125 -397 
L 1875 -397 
L 1875 -844 
L 550 -844 
L 550 4863 
z
" transform="scale(0.015625)"/>
      <path id="DejaVuSans-31" d="M 794 531 
L 1825 531 
L 1825 4091 
L 703 3866 
L 703 4441 
L 1819 4666 
L 2450 4666 
L 2450 531 
L 3481 531 
L 3481 0 
L 794 0 
L 794 531 
z
" transform="scale(0.015625)"/>
      <path id="DejaVuSans-34" d="M 2419 4116 
L 825 1625 
L 2419 1625 
L 2419 4116 
z
M 2253 4666 
L 3047 4666 
L 3047 1625 
L 3713 1625 
L 3713 1100 
L 3047 1100 
L 3047 0 
L 2419 0 
L 2419 1100 
L 313 1100 
L 313 1709 
L 2253 4666 
z
" transform="scale(0.015625)"/>
      <path id="DejaVuSans-5d" d="M 1947 4863 
L 1947 -844 
L 622 -844 
L 622 -397 
L 1369 -397 
L 1369 4416 
L 622 4416 
L 622 4863 
L 1947 4863 
z
" transform="scale(0.015625)"/>
      <path id="DejaVuSans-20" transform="scale(0.015625)"/>
      <path id="DejaVuSans-3d" d="M 678 2906 
L 4684 2906 
L 4684 2381 
L 678 2381 
L 678 2906 
z
M 678 1631 
L 4684 1631 
L 4684 1100 
L 678 1100 
L 678 1631 
z
" transform="scale(0.015625)"/>
      <path id="DejaVuSans-30" d="M 2034 4250 
Q 1547 4250 1301 3770 
Q 1056 3291 1056 2328 
Q 1056 1369 1301 889 
Q 1547 409 2034 409 
Q 2525 409 2770 889 
Q 3016 1369 3016 2328 
Q 3016 3291 2770 3770 
Q 2525 4250 2034 4250 
z
M 2034 4750 
Q 2819 4750 3233 4129 
Q 3647 3509 3647 2328 
Q 3647 1150 3233 529 
Q 2819 -91 2034 -91 
Q 1250 -91 836 529 
Q 422 1150 422 2328 
Q 422 3509 836 4129 
Q 1250 4750 2034 4750 
z
" transform="scale(0.015625)"/>
     </defs>
     <use xlink:href="#DejaVuSans-58"/>
     <use xlink:href="#DejaVuSans-5b" transform="translate(68.505859 0)"/>
     <use xlink:href="#DejaVuSans-31" transform="translate(107.519531 0)"/>
     <use xlink:href="#DejaVuSans-34" transform="translate(171.142578 0)"/>
     <use xlink:href="#DejaVuSans-5d" transform="translate(234.765625 0)"/>
     <use xlink:href="#DejaVuSans-20" transform="translate(273.779297 0)"/>
     <use xlink:href="#DejaVuSans-3d" transform="translate(305.566406 0)"/>
     <use xlink:href="#DejaVuSans-20" transform="translate(389.355469 0)"/>
     <use xlink:href="#DejaVuSans-30" transform="translate(421.142578 0)"/>
    </g>
   </g>
   <g id="text_2">
    <g id="patch_3">
     <path d="M 123.034375 404.35125 
L 161.815625 404.35125 
Q 163.415625 404.35125 163.415625 402.75125 
L 163.415625 395.00875 
Q 163.415625 393.40875 161.815625 393.40875 
L 123.034375 393.40875 
Q 121.434375 393.40875 121.434375 395.00875 
L 121.434375 402.75125 
Q 121.434375 404.35125 123.034375 404.35125 
z
" style="fill: #ffffff; stroke: #808080; stroke-width: 0.5; stroke-linejoin: miter"/>
    </g>
    <!-- X[14] = 1 -->
    <g transform="translate(123.034375 401.0875) scale(0.08 -0.08)">
     <use xlink:href="#DejaVuSans-58"/>
     <use xlink:href="#DejaVuSans-5b" transform="translate(68.505859 0)"/>
     <use xlink:href="#DejaVuSans-31" transform="translate(107.519531 0)"/>
     <use xlink:href="#DejaVuSans-34" transform="translate(171.142578 0)"/>
     <use xlink:href="#DejaVuSans-5d" transform="translate(234.765625 0)"/>
     <use xlink:href="#DejaVuSans-20" transform="translate(273.779297 0)"/>
     <use xlink:href="#DejaVuSans-3d" transform="translate(305.566406 0)"/>
     <use xlink:href="#DejaVuSans-20" transform="translate(389.355469 0)"/>
     <use xlink:href="#DejaVuSans-31" transform="translate(421.142578 0)"/>
    </g>
   </g>
   <g id="text_3">
    <g id="patch_4">
     <path d="M 149.359375 293.47125 
L 188.140625 293.47125 
Q 189.740625 293.47125 189.740625 291.87125 
L 189.740625 284.12875 
Q 189.740625 282.52875 188.140625 282.52875 
L 149.359375 282.52875 
Q 147.759375 282.52875 147.759375 284.12875 
L 147.759375 291.87125 
Q 147.759375 293.47125 149.359375 293.47125 
z
" style="fill: #ffffff; stroke: #808080; stroke-width: 0.5; stroke-linejoin: miter"/>
    </g>
    <!-- X[15] = 0 -->
    <g transform="translate(149.359375 290.2075) scale(0.08 -0.08)">
     <defs>
      <path id="DejaVuSans-35" d="M 691 4666 
L 3169 4666 
L 3169 4134 
L 1269 4134 
L 1269 2991 
Q 1406 3038 1543 3061 
Q 1681 3084 1819 3084 
Q 2600 3084 3056 2656 
Q 3513 2228 3513 1497 
Q 3513 744 3044 326 
Q 2575 -91 1722 -91 
Q 1428 -91 1123 -41 
Q 819 9 494 109 
L 494 744 
Q 775 591 1075 516 
Q 1375 441 1709 441 
Q 2250 441 2565 725 
Q 2881 1009 2881 1497 
Q 2881 1984 2565 2268 
Q 2250 2553 1709 2553 
Q 1456 2553 1204 2497 
Q 953 2441 691 2322 
L 691 4666 
z
" transform="scale(0.015625)"/>
     </defs>
     <use xlink:href="#DejaVuSans-58"/>
     <use xlink:href="#DejaVuSans-5b" transform="translate(68.505859 0)"/>
     <use xlink:href="#DejaVuSans-31" transform="translate(107.519531 0)"/>
     <use xlink:href="#DejaVuSans-35" transform="translate(171.142578 0)"/>
     <use xlink:href="#DejaVuSans-5d" transform="translate(234.765625 0)"/>
     <use xlink:href="#DejaVuSans-20" transform="translate(273.779297 0)"/>
     <use xlink:href="#DejaVuSans-3d" transform="translate(305.566406 0)"/>
     <use xlink:href="#DejaVuSans-20" transform="translate(389.355469 0)"/>
     <use xlink:href="#DejaVuSans-30" transform="translate(421.142578 0)"/>
    </g>
   </g>
   <g id="text_4">
    <g id="patch_5">
     <path d="M 254.659375 293.47125 
L 293.440625 293.47125 
Q 295.040625 293.47125 295.040625 291.87125 
L 295.040625 284.12875 
Q 295.040625 282.52875 293.440625 282.52875 
L 254.659375 282.52875 
Q 253.059375 282.52875 253.059375 284.12875 
L 253.059375 291.87125 
Q 253.059375 293.47125 254.659375 293.47125 
z
" style="fill: #ffffff; stroke: #808080; stroke-width: 0.5; stroke-linejoin: miter"/>
    </g>
    <!-- X[15] = 1 -->
    <g transform="translate(254.659375 290.2075) scale(0.08 -0.08)">
     <use xlink:href="#DejaVuSans-58"/>
     <use xlink:href="#DejaVuSans-5b" transform="translate(68.505859 0)"/>
     <use xlink:href="#DejaVuSans-31" transform="translate(107.519531 0)"/>
     <use xlink:href="#DejaVuSans-35" transform="translate(171.142578 0)"/>
     <use xlink:href="#DejaVuSans-5d" transform="translate(234.765625 0)"/>
     <use xlink:href="#DejaVuSans-20" transform="translate(273.779297 0)"/>
     <use xlink:href="#DejaVuSans-3d" transform="translate(305.566406 0)"/>
     <use xlink:href="#DejaVuSans-20" transform="translate(389.355469 0)"/>
     <use xlink:href="#DejaVuSans-31" transform="translate(421.142578 0)"/>
    </g>
   </g>
   <g id="text_5">
    <g id="patch_6">
     <path d="M 281.28125 404.35125 
L 319.46875 404.35125 
Q 321.06875 404.35125 321.06875 402.75125 
L 321.06875 395.00875 
Q 321.06875 393.40875 319.46875 393.40875 
L 281.28125 393.40875 
Q 279.68125 393.40875 279.68125 395.00875 
L 279.68125 402.75125 
Q 279.68125 404.35125 281.28125 404.35125 
z
" style="fill: #ffffff; stroke: #808080; stroke-width: 0.5; stroke-linejoin: miter"/>
    </g>
    <!-- Y[14] = 0 -->
    <g transform="translate(281.28125 401.0875) scale(0.08 -0.08)">
     <defs>
      <path id="DejaVuSans-59" d="M -13 4666 
L 666 4666 
L 1959 2747 
L 3244 4666 
L 3922 4666 
L 2272 2222 
L 2272 0 
L 1638 0 
L 1638 2222 
L -13 4666 
z
" transform="scale(0.015625)"/>
     </defs>
     <use xlink:href="#DejaVuSans-59"/>
     <use xlink:href="#DejaVuSans-5b" transform="translate(61.083984 0)"/>
     <use xlink:href="#DejaVuSans-31" transform="translate(100.097656 0)"/>
     <use xlink:href="#DejaVuSans-34" transform="translate(163.720703 0)"/>
     <use xlink:href="#DejaVuSans-5d" transform="translate(227.34375 0)"/>
     <use xlink:href="#DejaVuSans-20" transform="translate(266.357422 0)"/>
     <use xlink:href="#DejaVuSans-3d" transform="translate(298.144531 0)"/>
     <use xlink:href="#DejaVuSans-20" transform="translate(381.933594 0)"/>
     <use xlink:href="#DejaVuSans-30" transform="translate(413.720703 0)"/>
    </g>
   </g>
   <g id="text_6">
    <g id="patch_7">
     <path d="M 333.93125 404.35125 
L 372.11875 404.35125 
Q 373.71875 404.35125 373.71875 402.75125 
L 373.71875 395.00875 
Q 373.71875 393.40875 372.11875 393.40875 
L 333.93125 393.40875 
Q 332.33125 393.40875 332.33125 395.00875 
L 332.33125 402.75125 
Q 332.33125 404.35125 333.93125 404.35125 
z
" style="fill: #ffffff; stroke: #808080; stroke-width: 0.5; stroke-linejoin: miter"/>
    </g>
    <!-- Y[14] = 1 -->
    <g transform="translate(333.93125 401.0875) scale(0.08 -0.08)">
     <use xlink:href="#DejaVuSans-59"/>
     <use xlink:href="#DejaVuSans-5b" transform="translate(61.083984 0)"/>
     <use xlink:href="#DejaVuSans-31" transform="translate(100.097656 0)"/>
     <use xlink:href="#DejaVuSans-34" transform="translate(163.720703 0)"/>
     <use xlink:href="#DejaVuSans-5d" transform="translate(227.34375 0)"/>
     <use xlink:href="#DejaVuSans-20" transform="translate(266.357422 0)"/>
     <use xlink:href="#DejaVuSans-3d" transform="translate(298.144531 0)"/>
     <use xlink:href="#DejaVuSans-20" transform="translate(381.933594 0)"/>
     <use xlink:href="#DejaVuSans-31" transform="translate(413.720703 0)"/>
    </g>
   </g>
   <g id="text_7">
    <g id="patch_8">
     <path d="M 307.60625 182.59125 
L 345.79375 182.59125 
Q 347.39375 182.59125 347.39375 180.99125 
L 347.39375 173.24875 
Q 347.39375 171.64875 345.79375 171.64875 
L 307.60625 171.64875 
Q 306.00625 171.64875 306.00625 173.24875 
L 306.00625 180.99125 
Q 306.00625 182.59125 307.60625 182.59125 
z
" style="fill: #ffffff; stroke: #808080; stroke-width: 0.5; stroke-linejoin: miter"/>
    </g>
    <!-- Y[15] = 0 -->
    <g transform="translate(307.60625 179.3275) scale(0.08 -0.08)">
     <use xlink:href="#DejaVuSans-59"/>
     <use xlink:href="#DejaVuSans-5b" transform="translate(61.083984 0)"/>
     <use xlink:href="#DejaVuSans-31" transform="translate(100.097656 0)"/>
     <use xlink:href="#DejaVuSans-35" transform="translate(163.720703 0)"/>
     <use xlink:href="#DejaVuSans-5d" transform="translate(227.34375 0)"/>
     <use xlink:href="#DejaVuSans-20" transform="translate(266.357422 0)"/>
     <use xlink:href="#DejaVuSans-3d" transform="translate(298.144531 0)"/>
     <use xlink:href="#DejaVuSans-20" transform="translate(381.933594 0)"/>
     <use xlink:href="#DejaVuSans-30" transform="translate(413.720703 0)"/>
    </g>
   </g>
   <g id="text_8">
    <g id="patch_9">
     <path d="M 518.20625 182.59125 
L 556.39375 182.59125 
Q 557.99375 182.59125 557.99375 180.99125 
L 557.99375 173.24875 
Q 557.99375 171.64875 556.39375 171.64875 
L 518.20625 171.64875 
Q 516.60625 171.64875 516.60625 173.24875 
L 516.60625 180.99125 
Q 516.60625 182.59125 518.20625 182.59125 
z
" style="fill: #ffffff; stroke: #808080; stroke-width: 0.5; stroke-linejoin: miter"/>
    </g>
    <!-- Y[15] = 1 -->
    <g transform="translate(518.20625 179.3275) scale(0.08 -0.08)">
     <use xlink:href="#DejaVuSans-59"/>
     <use xlink:href="#DejaVuSans-5b" transform="translate(61.083984 0)"/>
     <use xlink:href="#DejaVuSans-31" transform="translate(100.097656 0)"/>
     <use xlink:href="#DejaVuSans-35" transform="translate(163.720703 0)"/>
     <use xlink:href="#DejaVuSans-5d" transform="translate(227.34375 0)"/>
     <use xlink:href="#DejaVuSans-20" transform="translate(266.357422 0)"/>
     <use xlink:href="#DejaVuSans-3d" transform="translate(298.144531 0)"/>
     <use xlink:href="#DejaVuSans-20" transform="translate(381.933594 0)"/>
     <use xlink:href="#DejaVuSans-31" transform="translate(413.720703 0)"/>
    </g>
   </g>
   <g id="text_9">
    <g id="patch_10">
     <path d="M 491.584375 404.35125 
L 530.365625 404.35125 
Q 531.965625 404.35125 531.965625 402.75125 
L 531.965625 395.00875 
Q 531.965625 393.40875 530.365625 393.40875 
L 491.584375 393.40875 
Q 489.984375 393.40875 489.984375 395.00875 
L 489.984375 402.75125 
Q 489.984375 404.35125 491.584375 404.35125 
z
" style="fill: #ffffff; stroke: #808080; stroke-width: 0.5; stroke-linejoin: miter"/>
    </g>
    <!-- X[14] = 0 -->
    <g transform="translate(491.584375 401.0875) scale(0.08 -0.08)">
     <use xlink:href="#DejaVuSans-58"/>
     <use xlink:href="#DejaVuSans-5b" transform="translate(68.505859 0)"/>
     <use xlink:href="#DejaVuSans-31" transform="translate(107.519531 0)"/>
     <use xlink:href="#DejaVuSans-34" transform="translate(171.142578 0)"/>
     <use xlink:href="#DejaVuSans-5d" transform="translate(234.765625 0)"/>
     <use xlink:href="#DejaVuSans-20" transform="translate(273.779297 0)"/>
     <use xlink:href="#DejaVuSans-3d" transform="translate(305.566406 0)"/>
     <use xlink:href="#DejaVuSans-20" transform="translate(389.355469 0)"/>
     <use xlink:href="#DejaVuSans-30" transform="translate(421.142578 0)"/>
    </g>
   </g>
   <g id="text_10">
    <g id="patch_11">
     <path d="M 544.234375 404.35125 
L 583.015625 404.35125 
Q 584.615625 404.35125 584.615625 402.75125 
L 584.615625 395.00875 
Q 584.615625 393.40875 583.015625 393.40875 
L 544.234375 393.40875 
Q 542.634375 393.40875 542.634375 395.00875 
L 542.634375 402.75125 
Q 542.634375 404.35125 544.234375 404.35125 
z
" style="fill: #ffffff; stroke: #808080; stroke-width: 0.5; stroke-linejoin: miter"/>
    </g>
    <!-- X[14] = 1 -->
    <g transform="translate(544.234375 401.0875) scale(0.08 -0.08)">
     <use xlink:href="#DejaVuSans-58"/>
     <use xlink:href="#DejaVuSans-5b" transform="translate(68.505859 0)"/>
     <use xlink:href="#DejaVuSans-31" transform="translate(107.519531 0)"/>
     <use xlink:href="#DejaVuSans-34" transform="translate(171.142578 0)"/>
     <use xlink:href="#DejaVuSans-5d" transform="translate(234.765625 0)"/>
     <use xlink:href="#DejaVuSans-20" transform="translate(273.779297 0)"/>
     <use xlink:href="#DejaVuSans-3d" transform="translate(305.566406 0)"/>
     <use xlink:href="#DejaVuSans-20" transform="translate(389.355469 0)"/>
     <use xlink:href="#DejaVuSans-31" transform="translate(421.142578 0)"/>
    </g>
   </g>
   <g id="text_11">
    <g id="patch_12">
     <path d="M 570.559375 293.47125 
L 609.340625 293.47125 
Q 610.940625 293.47125 610.940625 291.87125 
L 610.940625 284.12875 
Q 610.940625 282.52875 609.340625 282.52875 
L 570.559375 282.52875 
Q 568.959375 282.52875 568.959375 284.12875 
L 568.959375 291.87125 
Q 568.959375 293.47125 570.559375 293.47125 
z
" style="fill: #ffffff; stroke: #808080; stroke-width: 0.5; stroke-linejoin: miter"/>
    </g>
    <!-- X[15] = 0 -->
    <g transform="translate(570.559375 290.2075) scale(0.08 -0.08)">
     <use xlink:href="#DejaVuSans-58"/>
     <use xlink:href="#DejaVuSans-5b" transform="translate(68.505859 0)"/>
     <use xlink:href="#DejaVuSans-31" transform="translate(107.519531 0)"/>
     <use xlink:href="#DejaVuSans-35" transform="translate(171.142578 0)"/>
     <use xlink:href="#DejaVuSans-5d" transform="translate(234.765625 0)"/>
     <use xlink:href="#DejaVuSans-20" transform="translate(273.779297 0)"/>
     <use xlink:href="#DejaVuSans-3d" transform="translate(305.566406 0)"/>
     <use xlink:href="#DejaVuSans-20" transform="translate(389.355469 0)"/>
     <use xlink:href="#DejaVuSans-30" transform="translate(421.142578 0)"/>
    </g>
   </g>
   <g id="text_12">
    <g id="patch_13">
     <path d="M 675.859375 293.47125 
L 714.640625 293.47125 
Q 716.240625 293.47125 716.240625 291.87125 
L 716.240625 284.12875 
Q 716.240625 282.52875 714.640625 282.52875 
L 675.859375 282.52875 
Q 674.259375 282.52875 674.259375 284.12875 
L 674.259375 291.87125 
Q 674.259375 293.47125 675.859375 293.47125 
z
" style="fill: #ffffff; stroke: #808080; stroke-width: 0.5; stroke-linejoin: miter"/>
    </g>
    <!-- X[15] = 1 -->
    <g transform="translate(675.859375 290.2075) scale(0.08 -0.08)">
     <use xlink:href="#DejaVuSans-58"/>
     <use xlink:href="#DejaVuSans-5b" transform="translate(68.505859 0)"/>
     <use xlink:href="#DejaVuSans-31" transform="translate(107.519531 0)"/>
     <use xlink:href="#DejaVuSans-35" transform="translate(171.142578 0)"/>
     <use xlink:href="#DejaVuSans-5d" transform="translate(234.765625 0)"/>
     <use xlink:href="#DejaVuSans-20" transform="translate(273.779297 0)"/>
     <use xlink:href="#DejaVuSans-3d" transform="translate(305.566406 0)"/>
     <use xlink:href="#DejaVuSans-20" transform="translate(389.355469 0)"/>
     <use xlink:href="#DejaVuSans-31" transform="translate(421.142578 0)"/>
    </g>
   </g>
   <g id="text_13">
    <g id="patch_14">
     <path d="M 702.48125 404.35125 
L 740.66875 404.35125 
Q 742.26875 404.35125 742.26875 402.75125 
L 742.26875 395.00875 
Q 742.26875 393.40875 740.66875 393.40875 
L 702.48125 393.40875 
Q 700.88125 393.40875 700.88125 395.00875 
L 700.88125 402.75125 
Q 700.88125 404.35125 702.48125 404.35125 
z
" style="fill: #ffffff; stroke: #808080; stroke-width: 0.5; stroke-linejoin: miter"/>
    </g>
    <!-- Y[14] = 0 -->
    <g transform="translate(702.48125 401.0875) scale(0.08 -0.08)">
     <use xlink:href="#DejaVuSans-59"/>
     <use xlink:href="#DejaVuSans-5b" transform="translate(61.083984 0)"/>
     <use xlink:href="#DejaVuSans-31" transform="translate(100.097656 0)"/>
     <use xlink:href="#DejaVuSans-34" transform="translate(163.720703 0)"/>
     <use xlink:href="#DejaVuSans-5d" transform="translate(227.34375 0)"/>
     <use xlink:href="#DejaVuSans-20" transform="translate(266.357422 0)"/>
     <use xlink:href="#DejaVuSans-3d" transform="translate(298.144531 0)"/>
     <use xlink:href="#DejaVuSans-20" transform="translate(381.933594 0)"/>
     <use xlink:href="#DejaVuSans-30" transform="translate(413.720703 0)"/>
    </g>
   </g>
   <g id="text_14">
    <g id="patch_15">
     <path d="M 755.13125 404.35125 
L 793.31875 404.35125 
Q 794.91875 404.35125 794.91875 402.75125 
L 794.91875 395.00875 
Q 794.91875 393.40875 793.31875 393.40875 
L 755.13125 393.40875 
Q 753.53125 393.40875 753.53125 395.00875 
L 753.53125 402.75125 
Q 753.53125 404.35125 755.13125 404.35125 
z
" style="fill: #ffffff; stroke: #808080; stroke-width: 0.5; stroke-linejoin: miter"/>
    </g>
    <!-- Y[14] = 1 -->
    <g transform="translate(755.13125 401.0875) scale(0.08 -0.08)">
     <use xlink:href="#DejaVuSans-59"/>
     <use xlink:href="#DejaVuSans-5b" transform="translate(61.083984 0)"/>
     <use xlink:href="#DejaVuSans-31" transform="translate(100.097656 0)"/>
     <use xlink:href="#DejaVuSans-34" transform="translate(163.720703 0)"/>
     <use xlink:href="#DejaVuSans-5d" transform="translate(227.34375 0)"/>
     <use xlink:href="#DejaVuSans-20" transform="translate(266.357422 0)"/>
     <use xlink:href="#DejaVuSans-3d" transform="translate(298.144531 0)"/>
     <use xlink:href="#DejaVuSans-20" transform="translate(381.933594 0)"/>
     <use xlink:href="#DejaVuSans-31" transform="translate(413.720703 0)"/>
    </g>
   </g>
   <g id="text_15">
    <g id="patch_16">
     <path d="M 26.660391 471.453187 
L 100.239609 471.453187 
Q 102.939609 471.453187 102.939609 468.753187 
L 102.939609 439.886812 
Q 102.939609 437.186812 100.239609 437.186812 
L 26.660391 437.186812 
Q 23.960391 437.186812 23.960391 439.886812 
L 23.960391 468.753187 
Q 23.960391 471.453187 26.660391 471.453187 
z
" style="fill: #add8e6; stroke: #000000; stroke-linejoin: miter"/>
    </g>
    <!-- Hoja -->
    <g transform="translate(53.304609 446.725406) scale(0.09 -0.09)">
     <defs>
      <path id="DejaVuSans-48" d="M 628 4666 
L 1259 4666 
L 1259 2753 
L 3553 2753 
L 3553 4666 
L 4184 4666 
L 4184 0 
L 3553 0 
L 3553 2222 
L 1259 2222 
L 1259 0 
L 628 0 
L 628 4666 
z
" transform="scale(0.015625)"/>
      <path id="DejaVuSans-6f" d="M 1959 3097 
Q 1497 3097 1228 2736 
Q 959 2375 959 1747 
Q 959 1119 1226 758 
Q 1494 397 1959 397 
Q 2419 397 2687 759 
Q 2956 1122 2956 1747 
Q 2956 2369 2687 2733 
Q 2419 3097 1959 3097 
z
M 1959 3584 
Q 2709 3584 3137 3096 
Q 3566 2609 3566 1747 
Q 3566 888 3137 398 
Q 2709 -91 1959 -91 
Q 1206 -91 779 398 
Q 353 888 353 1747 
Q 353 2609 779 3096 
Q 1206 3584 1959 3584 
z
" transform="scale(0.015625)"/>
      <path id="DejaVuSans-6a" d="M 603 3500 
L 1178 3500 
L 1178 -63 
Q 1178 -731 923 -1031 
Q 669 -1331 103 -1331 
L -116 -1331 
L -116 -844 
L 38 -844 
Q 366 -844 484 -692 
Q 603 -541 603 -63 
L 603 3500 
z
M 603 4863 
L 1178 4863 
L 1178 4134 
L 603 4134 
L 603 4863 
z
" transform="scale(0.015625)"/>
      <path id="DejaVuSans-61" d="M 2194 1759 
Q 1497 1759 1228 1600 
Q 959 1441 959 1056 
Q 959 750 1161 570 
Q 1363 391 1709 391 
Q 2188 391 2477 730 
Q 2766 1069 2766 1631 
L 2766 1759 
L 2194 1759 
z
M 3341 1997 
L 3341 0 
L 2766 0 
L 2766 531 
Q 2569 213 2275 61 
Q 1981 -91 1556 -91 
Q 1019 -91 701 211 
Q 384 513 384 1019 
Q 384 1609 779 1909 
Q 1175 2209 1959 2209 
L 2766 2209 
L 2766 2266 
Q 2766 2663 2505 2880 
Q 2244 3097 1772 3097 
Q 1472 3097 1187 3025 
Q 903 2953 641 2809 
L 641 3341 
Q 956 3463 1253 3523 
Q 1550 3584 1831 3584 
Q 2591 3584 2966 3190 
Q 3341 2797 3341 1997 
z
" transform="scale(0.015625)"/>
     </defs>
     <use xlink:href="#DejaVuSans-48"/>
     <use xlink:href="#DejaVuSans-6f" transform="translate(75.195312 0)"/>
     <use xlink:href="#DejaVuSans-6a" transform="translate(136.376953 0)"/>
     <use xlink:href="#DejaVuSans-61" transform="translate(164.160156 0)"/>
    </g>
    <!-- 12.5% muestras -->
    <g transform="translate(26.660391 456.803437) scale(0.09 -0.09)">
     <defs>
      <path id="DejaVuSans-32" d="M 1228 531 
L 3431 531 
L 3431 0 
L 469 0 
L 469 531 
Q 828 903 1448 1529 
Q 2069 2156 2228 2338 
Q 2531 2678 2651 2914 
Q 2772 3150 2772 3378 
Q 2772 3750 2511 3984 
Q 2250 4219 1831 4219 
Q 1534 4219 1204 4116 
Q 875 4013 500 3803 
L 500 4441 
Q 881 4594 1212 4672 
Q 1544 4750 1819 4750 
Q 2544 4750 2975 4387 
Q 3406 4025 3406 3419 
Q 3406 3131 3298 2873 
Q 3191 2616 2906 2266 
Q 2828 2175 2409 1742 
Q 1991 1309 1228 531 
z
" transform="scale(0.015625)"/>
      <path id="DejaVuSans-2e" d="M 684 794 
L 1344 794 
L 1344 0 
L 684 0 
L 684 794 
z
" transform="scale(0.015625)"/>
      <path id="DejaVuSans-25" d="M 4653 2053 
Q 4381 2053 4226 1822 
Q 4072 1591 4072 1178 
Q 4072 772 4226 539 
Q 4381 306 4653 306 
Q 4919 306 5073 539 
Q 5228 772 5228 1178 
Q 5228 1588 5073 1820 
Q 4919 2053 4653 2053 
z
M 4653 2450 
Q 5147 2450 5437 2106 
Q 5728 1763 5728 1178 
Q 5728 594 5436 251 
Q 5144 -91 4653 -91 
Q 4153 -91 3862 251 
Q 3572 594 3572 1178 
Q 3572 1766 3864 2108 
Q 4156 2450 4653 2450 
z
M 1428 4353 
Q 1159 4353 1004 4120 
Q 850 3888 850 3481 
Q 850 3069 1003 2837 
Q 1156 2606 1428 2606 
Q 1700 2606 1854 2837 
Q 2009 3069 2009 3481 
Q 2009 3884 1853 4118 
Q 1697 4353 1428 4353 
z
M 4250 4750 
L 4750 4750 
L 1831 -91 
L 1331 -91 
L 4250 4750 
z
M 1428 4750 
Q 1922 4750 2215 4408 
Q 2509 4066 2509 3481 
Q 2509 2891 2217 2550 
Q 1925 2209 1428 2209 
Q 931 2209 642 2551 
Q 353 2894 353 3481 
Q 353 4063 643 4406 
Q 934 4750 1428 4750 
z
" transform="scale(0.015625)"/>
      <path id="DejaVuSans-6d" d="M 3328 2828 
Q 3544 3216 3844 3400 
Q 4144 3584 4550 3584 
Q 5097 3584 5394 3201 
Q 5691 2819 5691 2113 
L 5691 0 
L 5113 0 
L 5113 2094 
Q 5113 2597 4934 2840 
Q 4756 3084 4391 3084 
Q 3944 3084 3684 2787 
Q 3425 2491 3425 1978 
L 3425 0 
L 2847 0 
L 2847 2094 
Q 2847 2600 2669 2842 
Q 2491 3084 2119 3084 
Q 1678 3084 1418 2786 
Q 1159 2488 1159 1978 
L 1159 0 
L 581 0 
L 581 3500 
L 1159 3500 
L 1159 2956 
Q 1356 3278 1631 3431 
Q 1906 3584 2284 3584 
Q 2666 3584 2933 3390 
Q 3200 3197 3328 2828 
z
" transform="scale(0.015625)"/>
      <path id="DejaVuSans-75" d="M 544 1381 
L 544 3500 
L 1119 3500 
L 1119 1403 
Q 1119 906 1312 657 
Q 1506 409 1894 409 
Q 2359 409 2629 706 
Q 2900 1003 2900 1516 
L 2900 3500 
L 3475 3500 
L 3475 0 
L 2900 0 
L 2900 538 
Q 2691 219 2414 64 
Q 2138 -91 1772 -91 
Q 1169 -91 856 284 
Q 544 659 544 1381 
z
M 1991 3584 
L 1991 3584 
z
" transform="scale(0.015625)"/>
      <path id="DejaVuSans-65" d="M 3597 1894 
L 3597 1613 
L 953 1613 
Q 991 1019 1311 708 
Q 1631 397 2203 397 
Q 2534 397 2845 478 
Q 3156 559 3463 722 
L 3463 178 
Q 3153 47 2828 -22 
Q 2503 -91 2169 -91 
Q 1331 -91 842 396 
Q 353 884 353 1716 
Q 353 2575 817 3079 
Q 1281 3584 2069 3584 
Q 2775 3584 3186 3129 
Q 3597 2675 3597 1894 
z
M 3022 2063 
Q 3016 2534 2758 2815 
Q 2500 3097 2075 3097 
Q 1594 3097 1305 2825 
Q 1016 2553 972 2059 
L 3022 2063 
z
" transform="scale(0.015625)"/>
      <path id="DejaVuSans-73" d="M 2834 3397 
L 2834 2853 
Q 2591 2978 2328 3040 
Q 2066 3103 1784 3103 
Q 1356 3103 1142 2972 
Q 928 2841 928 2578 
Q 928 2378 1081 2264 
Q 1234 2150 1697 2047 
L 1894 2003 
Q 2506 1872 2764 1633 
Q 3022 1394 3022 966 
Q 3022 478 2636 193 
Q 2250 -91 1575 -91 
Q 1294 -91 989 -36 
Q 684 19 347 128 
L 347 722 
Q 666 556 975 473 
Q 1284 391 1588 391 
Q 1994 391 2212 530 
Q 2431 669 2431 922 
Q 2431 1156 2273 1281 
Q 2116 1406 1581 1522 
L 1381 1569 
Q 847 1681 609 1914 
Q 372 2147 372 2553 
Q 372 3047 722 3315 
Q 1072 3584 1716 3584 
Q 2034 3584 2315 3537 
Q 2597 3491 2834 3397 
z
" transform="scale(0.015625)"/>
      <path id="DejaVuSans-74" d="M 1172 4494 
L 1172 3500 
L 2356 3500 
L 2356 3053 
L 1172 3053 
L 1172 1153 
Q 1172 725 1289 603 
Q 1406 481 1766 481 
L 2356 481 
L 2356 0 
L 1766 0 
Q 1100 0 847 248 
Q 594 497 594 1153 
L 594 3053 
L 172 3053 
L 172 3500 
L 594 3500 
L 594 4494 
L 1172 4494 
z
" transform="scale(0.015625)"/>
      <path id="DejaVuSans-72" d="M 2631 2963 
Q 2534 3019 2420 3045 
Q 2306 3072 2169 3072 
Q 1681 3072 1420 2755 
Q 1159 2438 1159 1844 
L 1159 0 
L 581 0 
L 581 3500 
L 1159 3500 
L 1159 2956 
Q 1341 3275 1631 3429 
Q 1922 3584 2338 3584 
Q 2397 3584 2469 3576 
Q 2541 3569 2628 3553 
L 2631 2963 
z
" transform="scale(0.015625)"/>
     </defs>
     <use xlink:href="#DejaVuSans-31"/>
     <use xlink:href="#DejaVuSans-32" transform="translate(63.623047 0)"/>
     <use xlink:href="#DejaVuSans-2e" transform="translate(127.246094 0)"/>
     <use xlink:href="#DejaVuSans-35" transform="translate(159.033203 0)"/>
     <use xlink:href="#DejaVuSans-25" transform="translate(222.65625 0)"/>
     <use xlink:href="#DejaVuSans-20" transform="translate(317.675781 0)"/>
     <use xlink:href="#DejaVuSans-6d" transform="translate(349.462891 0)"/>
     <use xlink:href="#DejaVuSans-75" transform="translate(446.875 0)"/>
     <use xlink:href="#DejaVuSans-65" transform="translate(510.253906 0)"/>
     <use xlink:href="#DejaVuSans-73" transform="translate(571.777344 0)"/>
     <use xlink:href="#DejaVuSans-74" transform="translate(623.876953 0)"/>
     <use xlink:href="#DejaVuSans-72" transform="translate(663.085938 0)"/>
     <use xlink:href="#DejaVuSans-61" transform="translate(704.199219 0)"/>
     <use xlink:href="#DejaVuSans-73" transform="translate(765.478516 0)"/>
    </g>
    <!-- Valor: 26115 -->
    <g transform="translate(34.926328 466.881469) scale(0.09 -0.09)">
     <defs>
      <path id="DejaVuSans-56" d="M 1831 0 
L 50 4666 
L 709 4666 
L 2188 738 
L 3669 4666 
L 4325 4666 
L 2547 0 
L 1831 0 
z
" transform="scale(0.015625)"/>
      <path id="DejaVuSans-6c" d="M 603 4863 
L 1178 4863 
L 1178 0 
L 603 0 
L 603 4863 
z
" transform="scale(0.015625)"/>
      <path id="DejaVuSans-3a" d="M 750 794 
L 1409 794 
L 1409 0 
L 750 0 
L 750 794 
z
M 750 3309 
L 1409 3309 
L 1409 2516 
L 750 2516 
L 750 3309 
z
" transform="scale(0.015625)"/>
      <path id="DejaVuSans-36" d="M 2113 2584 
Q 1688 2584 1439 2293 
Q 1191 2003 1191 1497 
Q 1191 994 1439 701 
Q 1688 409 2113 409 
Q 2538 409 2786 701 
Q 3034 994 3034 1497 
Q 3034 2003 2786 2293 
Q 2538 2584 2113 2584 
z
M 3366 4563 
L 3366 3988 
Q 3128 4100 2886 4159 
Q 2644 4219 2406 4219 
Q 1781 4219 1451 3797 
Q 1122 3375 1075 2522 
Q 1259 2794 1537 2939 
Q 1816 3084 2150 3084 
Q 2853 3084 3261 2657 
Q 3669 2231 3669 1497 
Q 3669 778 3244 343 
Q 2819 -91 2113 -91 
Q 1303 -91 875 529 
Q 447 1150 447 2328 
Q 447 3434 972 4092 
Q 1497 4750 2381 4750 
Q 2619 4750 2861 4703 
Q 3103 4656 3366 4563 
z
" transform="scale(0.015625)"/>
     </defs>
     <use xlink:href="#DejaVuSans-56"/>
     <use xlink:href="#DejaVuSans-61" transform="translate(60.658203 0)"/>
     <use xlink:href="#DejaVuSans-6c" transform="translate(121.9375 0)"/>
     <use xlink:href="#DejaVuSans-6f" transform="translate(149.720703 0)"/>
     <use xlink:href="#DejaVuSans-72" transform="translate(210.902344 0)"/>
     <use xlink:href="#DejaVuSans-3a" transform="translate(250.265625 0)"/>
     <use xlink:href="#DejaVuSans-20" transform="translate(283.957031 0)"/>
     <use xlink:href="#DejaVuSans-32" transform="translate(315.744141 0)"/>
     <use xlink:href="#DejaVuSans-36" transform="translate(379.367188 0)"/>
     <use xlink:href="#DejaVuSans-31" transform="translate(442.990234 0)"/>
     <use xlink:href="#DejaVuSans-31" transform="translate(506.613281 0)"/>
     <use xlink:href="#DejaVuSans-35" transform="translate(570.236328 0)"/>
    </g>
   </g>
   <g id="text_16">
    <g id="patch_17">
     <path d="M 79.310391 355.534172 
L 152.889609 355.534172 
Q 155.589609 355.534172 155.589609 352.834172 
L 155.589609 334.045828 
Q 155.589609 331.345828 152.889609 331.345828 
L 79.310391 331.345828 
Q 76.610391 331.345828 76.610391 334.045828 
L 76.610391 352.834172 
Q 76.610391 355.534172 79.310391 355.534172 
z
" style="fill: #add8e6; stroke: #000000; stroke-linejoin: miter"/>
    </g>
    <!-- X[14] -->
    <g transform="translate(103.779844 340.884422) scale(0.09 -0.09)">
     <use xlink:href="#DejaVuSans-58"/>
     <use xlink:href="#DejaVuSans-5b" transform="translate(68.505859 0)"/>
     <use xlink:href="#DejaVuSans-31" transform="translate(107.519531 0)"/>
     <use xlink:href="#DejaVuSans-34" transform="translate(171.142578 0)"/>
     <use xlink:href="#DejaVuSans-5d" transform="translate(234.765625 0)"/>
    </g>
    <!-- 25.1% muestras -->
    <g transform="translate(79.310391 350.962453) scale(0.09 -0.09)">
     <use xlink:href="#DejaVuSans-32"/>
     <use xlink:href="#DejaVuSans-35" transform="translate(63.623047 0)"/>
     <use xlink:href="#DejaVuSans-2e" transform="translate(127.246094 0)"/>
     <use xlink:href="#DejaVuSans-31" transform="translate(159.033203 0)"/>
     <use xlink:href="#DejaVuSans-25" transform="translate(222.65625 0)"/>
     <use xlink:href="#DejaVuSans-20" transform="translate(317.675781 0)"/>
     <use xlink:href="#DejaVuSans-6d" transform="translate(349.462891 0)"/>
     <use xlink:href="#DejaVuSans-75" transform="translate(446.875 0)"/>
     <use xlink:href="#DejaVuSans-65" transform="translate(510.253906 0)"/>
     <use xlink:href="#DejaVuSans-73" transform="translate(571.777344 0)"/>
     <use xlink:href="#DejaVuSans-74" transform="translate(623.876953 0)"/>
     <use xlink:href="#DejaVuSans-72" transform="translate(663.085938 0)"/>
     <use xlink:href="#DejaVuSans-61" transform="translate(704.199219 0)"/>
     <use xlink:href="#DejaVuSans-73" transform="translate(765.478516 0)"/>
    </g>
   </g>
   <g id="text_17">
    <g id="patch_18">
     <path d="M 131.960391 471.453187 
L 205.539609 471.453187 
Q 208.239609 471.453187 208.239609 468.753187 
L 208.239609 439.886812 
Q 208.239609 437.186812 205.539609 437.186812 
L 131.960391 437.186812 
Q 129.260391 437.186812 129.260391 439.886812 
L 129.260391 468.753187 
Q 129.260391 471.453187 131.960391 471.453187 
z
" style="fill: #add8e6; stroke: #000000; stroke-linejoin: miter"/>
    </g>
    <!-- Hoja -->
    <g transform="translate(158.604609 446.725406) scale(0.09 -0.09)">
     <use xlink:href="#DejaVuSans-48"/>
     <use xlink:href="#DejaVuSans-6f" transform="translate(75.195312 0)"/>
     <use xlink:href="#DejaVuSans-6a" transform="translate(136.376953 0)"/>
     <use xlink:href="#DejaVuSans-61" transform="translate(164.160156 0)"/>
    </g>
    <!-- 12.6% muestras -->
    <g transform="translate(131.960391 456.803437) scale(0.09 -0.09)">
     <use xlink:href="#DejaVuSans-31"/>
     <use xlink:href="#DejaVuSans-32" transform="translate(63.623047 0)"/>
     <use xlink:href="#DejaVuSans-2e" transform="translate(127.246094 0)"/>
     <use xlink:href="#DejaVuSans-36" transform="translate(159.033203 0)"/>
     <use xlink:href="#DejaVuSans-25" transform="translate(222.65625 0)"/>
     <use xlink:href="#DejaVuSans-20" transform="translate(317.675781 0)"/>
     <use xlink:href="#DejaVuSans-6d" transform="translate(349.462891 0)"/>
     <use xlink:href="#DejaVuSans-75" transform="translate(446.875 0)"/>
     <use xlink:href="#DejaVuSans-65" transform="translate(510.253906 0)"/>
     <use xlink:href="#DejaVuSans-73" transform="translate(571.777344 0)"/>
     <use xlink:href="#DejaVuSans-74" transform="translate(623.876953 0)"/>
     <use xlink:href="#DejaVuSans-72" transform="translate(663.085938 0)"/>
     <use xlink:href="#DejaVuSans-61" transform="translate(704.199219 0)"/>
     <use xlink:href="#DejaVuSans-73" transform="translate(765.478516 0)"/>
    </g>
    <!-- Valor: 52489 -->
    <g transform="translate(140.226328 466.881469) scale(0.09 -0.09)">
     <defs>
      <path id="DejaVuSans-38" d="M 2034 2216 
Q 1584 2216 1326 1975 
Q 1069 1734 1069 1313 
Q 1069 891 1326 650 
Q 1584 409 2034 409 
Q 2484 409 2743 651 
Q 3003 894 3003 1313 
Q 3003 1734 2745 1975 
Q 2488 2216 2034 2216 
z
M 1403 2484 
Q 997 2584 770 2862 
Q 544 3141 544 3541 
Q 544 4100 942 4425 
Q 1341 4750 2034 4750 
Q 2731 4750 3128 4425 
Q 3525 4100 3525 3541 
Q 3525 3141 3298 2862 
Q 3072 2584 2669 2484 
Q 3125 2378 3379 2068 
Q 3634 1759 3634 1313 
Q 3634 634 3220 271 
Q 2806 -91 2034 -91 
Q 1263 -91 848 271 
Q 434 634 434 1313 
Q 434 1759 690 2068 
Q 947 2378 1403 2484 
z
M 1172 3481 
Q 1172 3119 1398 2916 
Q 1625 2713 2034 2713 
Q 2441 2713 2670 2916 
Q 2900 3119 2900 3481 
Q 2900 3844 2670 4047 
Q 2441 4250 2034 4250 
Q 1625 4250 1398 4047 
Q 1172 3844 1172 3481 
z
" transform="scale(0.015625)"/>
      <path id="DejaVuSans-39" d="M 703 97 
L 703 672 
Q 941 559 1184 500 
Q 1428 441 1663 441 
Q 2288 441 2617 861 
Q 2947 1281 2994 2138 
Q 2813 1869 2534 1725 
Q 2256 1581 1919 1581 
Q 1219 1581 811 2004 
Q 403 2428 403 3163 
Q 403 3881 828 4315 
Q 1253 4750 1959 4750 
Q 2769 4750 3195 4129 
Q 3622 3509 3622 2328 
Q 3622 1225 3098 567 
Q 2575 -91 1691 -91 
Q 1453 -91 1209 -44 
Q 966 3 703 97 
z
M 1959 2075 
Q 2384 2075 2632 2365 
Q 2881 2656 2881 3163 
Q 2881 3666 2632 3958 
Q 2384 4250 1959 4250 
Q 1534 4250 1286 3958 
Q 1038 3666 1038 3163 
Q 1038 2656 1286 2365 
Q 1534 2075 1959 2075 
z
" transform="scale(0.015625)"/>
     </defs>
     <use xlink:href="#DejaVuSans-56"/>
     <use xlink:href="#DejaVuSans-61" transform="translate(60.658203 0)"/>
     <use xlink:href="#DejaVuSans-6c" transform="translate(121.9375 0)"/>
     <use xlink:href="#DejaVuSans-6f" transform="translate(149.720703 0)"/>
     <use xlink:href="#DejaVuSans-72" transform="translate(210.902344 0)"/>
     <use xlink:href="#DejaVuSans-3a" transform="translate(250.265625 0)"/>
     <use xlink:href="#DejaVuSans-20" transform="translate(283.957031 0)"/>
     <use xlink:href="#DejaVuSans-35" transform="translate(315.744141 0)"/>
     <use xlink:href="#DejaVuSans-32" transform="translate(379.367188 0)"/>
     <use xlink:href="#DejaVuSans-34" transform="translate(442.990234 0)"/>
     <use xlink:href="#DejaVuSans-38" transform="translate(506.613281 0)"/>
     <use xlink:href="#DejaVuSans-39" transform="translate(570.236328 0)"/>
    </g>
   </g>
   <g id="text_18">
    <g id="patch_19">
     <path d="M 184.610391 244.654172 
L 258.189609 244.654172 
Q 260.889609 244.654172 260.889609 241.954172 
L 260.889609 223.165828 
Q 260.889609 220.465828 258.189609 220.465828 
L 184.610391 220.465828 
Q 181.910391 220.465828 181.910391 223.165828 
L 181.910391 241.954172 
Q 181.910391 244.654172 184.610391 244.654172 
z
" style="fill: #add8e6; stroke: #000000; stroke-linejoin: miter"/>
    </g>
    <!-- X[15] -->
    <g transform="translate(209.079844 230.004422) scale(0.09 -0.09)">
     <use xlink:href="#DejaVuSans-58"/>
     <use xlink:href="#DejaVuSans-5b" transform="translate(68.505859 0)"/>
     <use xlink:href="#DejaVuSans-31" transform="translate(107.519531 0)"/>
     <use xlink:href="#DejaVuSans-35" transform="translate(171.142578 0)"/>
     <use xlink:href="#DejaVuSans-5d" transform="translate(234.765625 0)"/>
    </g>
    <!-- 49.9% muestras -->
    <g transform="translate(184.610391 240.082453) scale(0.09 -0.09)">
     <use xlink:href="#DejaVuSans-34"/>
     <use xlink:href="#DejaVuSans-39" transform="translate(63.623047 0)"/>
     <use xlink:href="#DejaVuSans-2e" transform="translate(127.246094 0)"/>
     <use xlink:href="#DejaVuSans-39" transform="translate(159.033203 0)"/>
     <use xlink:href="#DejaVuSans-25" transform="translate(222.65625 0)"/>
     <use xlink:href="#DejaVuSans-20" transform="translate(317.675781 0)"/>
     <use xlink:href="#DejaVuSans-6d" transform="translate(349.462891 0)"/>
     <use xlink:href="#DejaVuSans-75" transform="translate(446.875 0)"/>
     <use xlink:href="#DejaVuSans-65" transform="translate(510.253906 0)"/>
     <use xlink:href="#DejaVuSans-73" transform="translate(571.777344 0)"/>
     <use xlink:href="#DejaVuSans-74" transform="translate(623.876953 0)"/>
     <use xlink:href="#DejaVuSans-72" transform="translate(663.085938 0)"/>
     <use xlink:href="#DejaVuSans-61" transform="translate(704.199219 0)"/>
     <use xlink:href="#DejaVuSans-73" transform="translate(765.478516 0)"/>
    </g>
   </g>
   <g id="text_19">
    <g id="patch_20">
     <path d="M 237.260391 471.453187 
L 310.839609 471.453187 
Q 313.539609 471.453187 313.539609 468.753187 
L 313.539609 439.886812 
Q 313.539609 437.186812 310.839609 437.186812 
L 237.260391 437.186812 
Q 234.560391 437.186812 234.560391 439.886812 
L 234.560391 468.753187 
Q 234.560391 471.453187 237.260391 471.453187 
z
" style="fill: #add8e6; stroke: #000000; stroke-linejoin: miter"/>
    </g>
    <!-- Hoja -->
    <g transform="translate(263.904609 446.725406) scale(0.09 -0.09)">
     <use xlink:href="#DejaVuSans-48"/>
     <use xlink:href="#DejaVuSans-6f" transform="translate(75.195312 0)"/>
     <use xlink:href="#DejaVuSans-6a" transform="translate(136.376953 0)"/>
     <use xlink:href="#DejaVuSans-61" transform="translate(164.160156 0)"/>
    </g>
    <!-- 12.4% muestras -->
    <g transform="translate(237.260391 456.803437) scale(0.09 -0.09)">
     <use xlink:href="#DejaVuSans-31"/>
     <use xlink:href="#DejaVuSans-32" transform="translate(63.623047 0)"/>
     <use xlink:href="#DejaVuSans-2e" transform="translate(127.246094 0)"/>
     <use xlink:href="#DejaVuSans-34" transform="translate(159.033203 0)"/>
     <use xlink:href="#DejaVuSans-25" transform="translate(222.65625 0)"/>
     <use xlink:href="#DejaVuSans-20" transform="translate(317.675781 0)"/>
     <use xlink:href="#DejaVuSans-6d" transform="translate(349.462891 0)"/>
     <use xlink:href="#DejaVuSans-75" transform="translate(446.875 0)"/>
     <use xlink:href="#DejaVuSans-65" transform="translate(510.253906 0)"/>
     <use xlink:href="#DejaVuSans-73" transform="translate(571.777344 0)"/>
     <use xlink:href="#DejaVuSans-74" transform="translate(623.876953 0)"/>
     <use xlink:href="#DejaVuSans-72" transform="translate(663.085938 0)"/>
     <use xlink:href="#DejaVuSans-61" transform="translate(704.199219 0)"/>
     <use xlink:href="#DejaVuSans-73" transform="translate(765.478516 0)"/>
    </g>
    <!-- Valor: 61450 -->
    <g transform="translate(245.526328 466.881469) scale(0.09 -0.09)">
     <use xlink:href="#DejaVuSans-56"/>
     <use xlink:href="#DejaVuSans-61" transform="translate(60.658203 0)"/>
     <use xlink:href="#DejaVuSans-6c" transform="translate(121.9375 0)"/>
     <use xlink:href="#DejaVuSans-6f" transform="translate(149.720703 0)"/>
     <use xlink:href="#DejaVuSans-72" transform="translate(210.902344 0)"/>
     <use xlink:href="#DejaVuSans-3a" transform="translate(250.265625 0)"/>
     <use xlink:href="#DejaVuSans-20" transform="translate(283.957031 0)"/>
     <use xlink:href="#DejaVuSans-36" transform="translate(315.744141 0)"/>
     <use xlink:href="#DejaVuSans-31" transform="translate(379.367188 0)"/>
     <use xlink:href="#DejaVuSans-34" transform="translate(442.990234 0)"/>
     <use xlink:href="#DejaVuSans-35" transform="translate(506.613281 0)"/>
     <use xlink:href="#DejaVuSans-30" transform="translate(570.236328 0)"/>
    </g>
   </g>
   <g id="text_20">
    <g id="patch_21">
     <path d="M 289.910391 355.534172 
L 363.489609 355.534172 
Q 366.189609 355.534172 366.189609 352.834172 
L 366.189609 334.045828 
Q 366.189609 331.345828 363.489609 331.345828 
L 289.910391 331.345828 
Q 287.210391 331.345828 287.210391 334.045828 
L 287.210391 352.834172 
Q 287.210391 355.534172 289.910391 355.534172 
z
" style="fill: #add8e6; stroke: #000000; stroke-linejoin: miter"/>
    </g>
    <!-- Y[14] -->
    <g transform="translate(314.713828 340.884422) scale(0.09 -0.09)">
     <use xlink:href="#DejaVuSans-59"/>
     <use xlink:href="#DejaVuSans-5b" transform="translate(61.083984 0)"/>
     <use xlink:href="#DejaVuSans-31" transform="translate(100.097656 0)"/>
     <use xlink:href="#DejaVuSans-34" transform="translate(163.720703 0)"/>
     <use xlink:href="#DejaVuSans-5d" transform="translate(227.34375 0)"/>
    </g>
    <!-- 24.8% muestras -->
    <g transform="translate(289.910391 350.962453) scale(0.09 -0.09)">
     <use xlink:href="#DejaVuSans-32"/>
     <use xlink:href="#DejaVuSans-34" transform="translate(63.623047 0)"/>
     <use xlink:href="#DejaVuSans-2e" transform="translate(127.246094 0)"/>
     <use xlink:href="#DejaVuSans-38" transform="translate(159.033203 0)"/>
     <use xlink:href="#DejaVuSans-25" transform="translate(222.65625 0)"/>
     <use xlink:href="#DejaVuSans-20" transform="translate(317.675781 0)"/>
     <use xlink:href="#DejaVuSans-6d" transform="translate(349.462891 0)"/>
     <use xlink:href="#DejaVuSans-75" transform="translate(446.875 0)"/>
     <use xlink:href="#DejaVuSans-65" transform="translate(510.253906 0)"/>
     <use xlink:href="#DejaVuSans-73" transform="translate(571.777344 0)"/>
     <use xlink:href="#DejaVuSans-74" transform="translate(623.876953 0)"/>
     <use xlink:href="#DejaVuSans-72" transform="translate(663.085938 0)"/>
     <use xlink:href="#DejaVuSans-61" transform="translate(704.199219 0)"/>
     <use xlink:href="#DejaVuSans-73" transform="translate(765.478516 0)"/>
    </g>
   </g>
   <g id="text_21">
    <g id="patch_22">
     <path d="M 342.560391 471.453187 
L 416.139609 471.453187 
Q 418.839609 471.453187 418.839609 468.753187 
L 418.839609 439.886812 
Q 418.839609 437.186812 416.139609 437.186812 
L 342.560391 437.186812 
Q 339.860391 437.186812 339.860391 439.886812 
L 339.860391 468.753187 
Q 339.860391 471.453187 342.560391 471.453187 
z
" style="fill: #add8e6; stroke: #000000; stroke-linejoin: miter"/>
    </g>
    <!-- Hoja -->
    <g transform="translate(369.204609 446.725406) scale(0.09 -0.09)">
     <use xlink:href="#DejaVuSans-48"/>
     <use xlink:href="#DejaVuSans-6f" transform="translate(75.195312 0)"/>
     <use xlink:href="#DejaVuSans-6a" transform="translate(136.376953 0)"/>
     <use xlink:href="#DejaVuSans-61" transform="translate(164.160156 0)"/>
    </g>
    <!-- 12.4% muestras -->
    <g transform="translate(342.560391 456.803437) scale(0.09 -0.09)">
     <use xlink:href="#DejaVuSans-31"/>
     <use xlink:href="#DejaVuSans-32" transform="translate(63.623047 0)"/>
     <use xlink:href="#DejaVuSans-2e" transform="translate(127.246094 0)"/>
     <use xlink:href="#DejaVuSans-34" transform="translate(159.033203 0)"/>
     <use xlink:href="#DejaVuSans-25" transform="translate(222.65625 0)"/>
     <use xlink:href="#DejaVuSans-20" transform="translate(317.675781 0)"/>
     <use xlink:href="#DejaVuSans-6d" transform="translate(349.462891 0)"/>
     <use xlink:href="#DejaVuSans-75" transform="translate(446.875 0)"/>
     <use xlink:href="#DejaVuSans-65" transform="translate(510.253906 0)"/>
     <use xlink:href="#DejaVuSans-73" transform="translate(571.777344 0)"/>
     <use xlink:href="#DejaVuSans-74" transform="translate(623.876953 0)"/>
     <use xlink:href="#DejaVuSans-72" transform="translate(663.085938 0)"/>
     <use xlink:href="#DejaVuSans-61" transform="translate(704.199219 0)"/>
     <use xlink:href="#DejaVuSans-73" transform="translate(765.478516 0)"/>
    </g>
    <!-- Valor: 76172 -->
    <g transform="translate(350.826328 466.881469) scale(0.09 -0.09)">
     <defs>
      <path id="DejaVuSans-37" d="M 525 4666 
L 3525 4666 
L 3525 4397 
L 1831 0 
L 1172 0 
L 2766 4134 
L 525 4134 
L 525 4666 
z
" transform="scale(0.015625)"/>
     </defs>
     <use xlink:href="#DejaVuSans-56"/>
     <use xlink:href="#DejaVuSans-61" transform="translate(60.658203 0)"/>
     <use xlink:href="#DejaVuSans-6c" transform="translate(121.9375 0)"/>
     <use xlink:href="#DejaVuSans-6f" transform="translate(149.720703 0)"/>
     <use xlink:href="#DejaVuSans-72" transform="translate(210.902344 0)"/>
     <use xlink:href="#DejaVuSans-3a" transform="translate(250.265625 0)"/>
     <use xlink:href="#DejaVuSans-20" transform="translate(283.957031 0)"/>
     <use xlink:href="#DejaVuSans-37" transform="translate(315.744141 0)"/>
     <use xlink:href="#DejaVuSans-36" transform="translate(379.367188 0)"/>
     <use xlink:href="#DejaVuSans-31" transform="translate(442.990234 0)"/>
     <use xlink:href="#DejaVuSans-37" transform="translate(506.613281 0)"/>
     <use xlink:href="#DejaVuSans-32" transform="translate(570.236328 0)"/>
    </g>
   </g>
   <g id="text_22">
    <g id="patch_23">
     <path d="M 392.347266 133.774172 
L 471.652734 133.774172 
Q 474.352734 133.774172 474.352734 131.074172 
L 474.352734 112.285828 
Q 474.352734 109.585828 471.652734 109.585828 
L 392.347266 109.585828 
Q 389.647266 109.585828 389.647266 112.285828 
L 389.647266 131.074172 
Q 389.647266 133.774172 392.347266 133.774172 
z
" style="fill: #add8e6; stroke: #000000; stroke-linejoin: miter"/>
    </g>
    <!-- Y[15] -->
    <g transform="translate(420.013828 119.124422) scale(0.09 -0.09)">
     <use xlink:href="#DejaVuSans-59"/>
     <use xlink:href="#DejaVuSans-5b" transform="translate(61.083984 0)"/>
     <use xlink:href="#DejaVuSans-31" transform="translate(100.097656 0)"/>
     <use xlink:href="#DejaVuSans-35" transform="translate(163.720703 0)"/>
     <use xlink:href="#DejaVuSans-5d" transform="translate(227.34375 0)"/>
    </g>
    <!-- 100.0% muestras -->
    <g transform="translate(392.347266 129.202453) scale(0.09 -0.09)">
     <use xlink:href="#DejaVuSans-31"/>
     <use xlink:href="#DejaVuSans-30" transform="translate(63.623047 0)"/>
     <use xlink:href="#DejaVuSans-30" transform="translate(127.246094 0)"/>
     <use xlink:href="#DejaVuSans-2e" transform="translate(190.869141 0)"/>
     <use xlink:href="#DejaVuSans-30" transform="translate(222.65625 0)"/>
     <use xlink:href="#DejaVuSans-25" transform="translate(286.279297 0)"/>
     <use xlink:href="#DejaVuSans-20" transform="translate(381.298828 0)"/>
     <use xlink:href="#DejaVuSans-6d" transform="translate(413.085938 0)"/>
     <use xlink:href="#DejaVuSans-75" transform="translate(510.498047 0)"/>
     <use xlink:href="#DejaVuSans-65" transform="translate(573.876953 0)"/>
     <use xlink:href="#DejaVuSans-73" transform="translate(635.400391 0)"/>
     <use xlink:href="#DejaVuSans-74" transform="translate(687.5 0)"/>
     <use xlink:href="#DejaVuSans-72" transform="translate(726.708984 0)"/>
     <use xlink:href="#DejaVuSans-61" transform="translate(767.822266 0)"/>
     <use xlink:href="#DejaVuSans-73" transform="translate(829.101562 0)"/>
    </g>
   </g>
   <g id="text_23">
    <g id="patch_24">
     <path d="M 447.860391 471.453187 
L 521.439609 471.453187 
Q 524.139609 471.453187 524.139609 468.753187 
L 524.139609 439.886812 
Q 524.139609 437.186812 521.439609 437.186812 
L 447.860391 437.186812 
Q 445.160391 437.186812 445.160391 439.886812 
L 445.160391 468.753187 
Q 445.160391 471.453187 447.860391 471.453187 
z
" style="fill: #add8e6; stroke: #000000; stroke-linejoin: miter"/>
    </g>
    <!-- Hoja -->
    <g transform="translate(474.504609 446.725406) scale(0.09 -0.09)">
     <use xlink:href="#DejaVuSans-48"/>
     <use xlink:href="#DejaVuSans-6f" transform="translate(75.195312 0)"/>
     <use xlink:href="#DejaVuSans-6a" transform="translate(136.376953 0)"/>
     <use xlink:href="#DejaVuSans-61" transform="translate(164.160156 0)"/>
    </g>
    <!-- 12.5% muestras -->
    <g transform="translate(447.860391 456.803437) scale(0.09 -0.09)">
     <use xlink:href="#DejaVuSans-31"/>
     <use xlink:href="#DejaVuSans-32" transform="translate(63.623047 0)"/>
     <use xlink:href="#DejaVuSans-2e" transform="translate(127.246094 0)"/>
     <use xlink:href="#DejaVuSans-35" transform="translate(159.033203 0)"/>
     <use xlink:href="#DejaVuSans-25" transform="translate(222.65625 0)"/>
     <use xlink:href="#DejaVuSans-20" transform="translate(317.675781 0)"/>
     <use xlink:href="#DejaVuSans-6d" transform="translate(349.462891 0)"/>
     <use xlink:href="#DejaVuSans-75" transform="translate(446.875 0)"/>
     <use xlink:href="#DejaVuSans-65" transform="translate(510.253906 0)"/>
     <use xlink:href="#DejaVuSans-73" transform="translate(571.777344 0)"/>
     <use xlink:href="#DejaVuSans-74" transform="translate(623.876953 0)"/>
     <use xlink:href="#DejaVuSans-72" transform="translate(663.085938 0)"/>
     <use xlink:href="#DejaVuSans-61" transform="translate(704.199219 0)"/>
     <use xlink:href="#DejaVuSans-73" transform="translate(765.478516 0)"/>
    </g>
    <!-- Valor: 51953 -->
    <g transform="translate(456.126328 466.881469) scale(0.09 -0.09)">
     <defs>
      <path id="DejaVuSans-33" d="M 2597 2516 
Q 3050 2419 3304 2112 
Q 3559 1806 3559 1356 
Q 3559 666 3084 287 
Q 2609 -91 1734 -91 
Q 1441 -91 1130 -33 
Q 819 25 488 141 
L 488 750 
Q 750 597 1062 519 
Q 1375 441 1716 441 
Q 2309 441 2620 675 
Q 2931 909 2931 1356 
Q 2931 1769 2642 2001 
Q 2353 2234 1838 2234 
L 1294 2234 
L 1294 2753 
L 1863 2753 
Q 2328 2753 2575 2939 
Q 2822 3125 2822 3475 
Q 2822 3834 2567 4026 
Q 2313 4219 1838 4219 
Q 1578 4219 1281 4162 
Q 984 4106 628 3988 
L 628 4550 
Q 988 4650 1302 4700 
Q 1616 4750 1894 4750 
Q 2613 4750 3031 4423 
Q 3450 4097 3450 3541 
Q 3450 3153 3228 2886 
Q 3006 2619 2597 2516 
z
" transform="scale(0.015625)"/>
     </defs>
     <use xlink:href="#DejaVuSans-56"/>
     <use xlink:href="#DejaVuSans-61" transform="translate(60.658203 0)"/>
     <use xlink:href="#DejaVuSans-6c" transform="translate(121.9375 0)"/>
     <use xlink:href="#DejaVuSans-6f" transform="translate(149.720703 0)"/>
     <use xlink:href="#DejaVuSans-72" transform="translate(210.902344 0)"/>
     <use xlink:href="#DejaVuSans-3a" transform="translate(250.265625 0)"/>
     <use xlink:href="#DejaVuSans-20" transform="translate(283.957031 0)"/>
     <use xlink:href="#DejaVuSans-35" transform="translate(315.744141 0)"/>
     <use xlink:href="#DejaVuSans-31" transform="translate(379.367188 0)"/>
     <use xlink:href="#DejaVuSans-39" transform="translate(442.990234 0)"/>
     <use xlink:href="#DejaVuSans-35" transform="translate(506.613281 0)"/>
     <use xlink:href="#DejaVuSans-33" transform="translate(570.236328 0)"/>
    </g>
   </g>
   <g id="text_24">
    <g id="patch_25">
     <path d="M 500.510391 355.534172 
L 574.089609 355.534172 
Q 576.789609 355.534172 576.789609 352.834172 
L 576.789609 334.045828 
Q 576.789609 331.345828 574.089609 331.345828 
L 500.510391 331.345828 
Q 497.810391 331.345828 497.810391 334.045828 
L 497.810391 352.834172 
Q 497.810391 355.534172 500.510391 355.534172 
z
" style="fill: #add8e6; stroke: #000000; stroke-linejoin: miter"/>
    </g>
    <!-- X[14] -->
    <g transform="translate(524.979844 340.884422) scale(0.09 -0.09)">
     <use xlink:href="#DejaVuSans-58"/>
     <use xlink:href="#DejaVuSans-5b" transform="translate(68.505859 0)"/>
     <use xlink:href="#DejaVuSans-31" transform="translate(107.519531 0)"/>
     <use xlink:href="#DejaVuSans-34" transform="translate(171.142578 0)"/>
     <use xlink:href="#DejaVuSans-5d" transform="translate(234.765625 0)"/>
    </g>
    <!-- 25.1% muestras -->
    <g transform="translate(500.510391 350.962453) scale(0.09 -0.09)">
     <use xlink:href="#DejaVuSans-32"/>
     <use xlink:href="#DejaVuSans-35" transform="translate(63.623047 0)"/>
     <use xlink:href="#DejaVuSans-2e" transform="translate(127.246094 0)"/>
     <use xlink:href="#DejaVuSans-31" transform="translate(159.033203 0)"/>
     <use xlink:href="#DejaVuSans-25" transform="translate(222.65625 0)"/>
     <use xlink:href="#DejaVuSans-20" transform="translate(317.675781 0)"/>
     <use xlink:href="#DejaVuSans-6d" transform="translate(349.462891 0)"/>
     <use xlink:href="#DejaVuSans-75" transform="translate(446.875 0)"/>
     <use xlink:href="#DejaVuSans-65" transform="translate(510.253906 0)"/>
     <use xlink:href="#DejaVuSans-73" transform="translate(571.777344 0)"/>
     <use xlink:href="#DejaVuSans-74" transform="translate(623.876953 0)"/>
     <use xlink:href="#DejaVuSans-72" transform="translate(663.085938 0)"/>
     <use xlink:href="#DejaVuSans-61" transform="translate(704.199219 0)"/>
     <use xlink:href="#DejaVuSans-73" transform="translate(765.478516 0)"/>
    </g>
   </g>
   <g id="text_25">
    <g id="patch_26">
     <path d="M 553.160391 471.453187 
L 626.739609 471.453187 
Q 629.439609 471.453187 629.439609 468.753187 
L 629.439609 439.886812 
Q 629.439609 437.186812 626.739609 437.186812 
L 553.160391 437.186812 
Q 550.460391 437.186812 550.460391 439.886812 
L 550.460391 468.753187 
Q 550.460391 471.453187 553.160391 471.453187 
z
" style="fill: #add8e6; stroke: #000000; stroke-linejoin: miter"/>
    </g>
    <!-- Hoja -->
    <g transform="translate(579.804609 446.725406) scale(0.09 -0.09)">
     <use xlink:href="#DejaVuSans-48"/>
     <use xlink:href="#DejaVuSans-6f" transform="translate(75.195312 0)"/>
     <use xlink:href="#DejaVuSans-6a" transform="translate(136.376953 0)"/>
     <use xlink:href="#DejaVuSans-61" transform="translate(164.160156 0)"/>
    </g>
    <!-- 12.6% muestras -->
    <g transform="translate(553.160391 456.803437) scale(0.09 -0.09)">
     <use xlink:href="#DejaVuSans-31"/>
     <use xlink:href="#DejaVuSans-32" transform="translate(63.623047 0)"/>
     <use xlink:href="#DejaVuSans-2e" transform="translate(127.246094 0)"/>
     <use xlink:href="#DejaVuSans-36" transform="translate(159.033203 0)"/>
     <use xlink:href="#DejaVuSans-25" transform="translate(222.65625 0)"/>
     <use xlink:href="#DejaVuSans-20" transform="translate(317.675781 0)"/>
     <use xlink:href="#DejaVuSans-6d" transform="translate(349.462891 0)"/>
     <use xlink:href="#DejaVuSans-75" transform="translate(446.875 0)"/>
     <use xlink:href="#DejaVuSans-65" transform="translate(510.253906 0)"/>
     <use xlink:href="#DejaVuSans-73" transform="translate(571.777344 0)"/>
     <use xlink:href="#DejaVuSans-74" transform="translate(623.876953 0)"/>
     <use xlink:href="#DejaVuSans-72" transform="translate(663.085938 0)"/>
     <use xlink:href="#DejaVuSans-61" transform="translate(704.199219 0)"/>
     <use xlink:href="#DejaVuSans-73" transform="translate(765.478516 0)"/>
    </g>
    <!-- Valor: 76105 -->
    <g transform="translate(561.426328 466.881469) scale(0.09 -0.09)">
     <use xlink:href="#DejaVuSans-56"/>
     <use xlink:href="#DejaVuSans-61" transform="translate(60.658203 0)"/>
     <use xlink:href="#DejaVuSans-6c" transform="translate(121.9375 0)"/>
     <use xlink:href="#DejaVuSans-6f" transform="translate(149.720703 0)"/>
     <use xlink:href="#DejaVuSans-72" transform="translate(210.902344 0)"/>
     <use xlink:href="#DejaVuSans-3a" transform="translate(250.265625 0)"/>
     <use xlink:href="#DejaVuSans-20" transform="translate(283.957031 0)"/>
     <use xlink:href="#DejaVuSans-37" transform="translate(315.744141 0)"/>
     <use xlink:href="#DejaVuSans-36" transform="translate(379.367188 0)"/>
     <use xlink:href="#DejaVuSans-31" transform="translate(442.990234 0)"/>
     <use xlink:href="#DejaVuSans-30" transform="translate(506.613281 0)"/>
     <use xlink:href="#DejaVuSans-35" transform="translate(570.236328 0)"/>
    </g>
   </g>
   <g id="text_26">
    <g id="patch_27">
     <path d="M 605.810391 244.654172 
L 679.389609 244.654172 
Q 682.089609 244.654172 682.089609 241.954172 
L 682.089609 223.165828 
Q 682.089609 220.465828 679.389609 220.465828 
L 605.810391 220.465828 
Q 603.110391 220.465828 603.110391 223.165828 
L 603.110391 241.954172 
Q 603.110391 244.654172 605.810391 244.654172 
z
" style="fill: #add8e6; stroke: #000000; stroke-linejoin: miter"/>
    </g>
    <!-- X[15] -->
    <g transform="translate(630.279844 230.004422) scale(0.09 -0.09)">
     <use xlink:href="#DejaVuSans-58"/>
     <use xlink:href="#DejaVuSans-5b" transform="translate(68.505859 0)"/>
     <use xlink:href="#DejaVuSans-31" transform="translate(107.519531 0)"/>
     <use xlink:href="#DejaVuSans-35" transform="translate(171.142578 0)"/>
     <use xlink:href="#DejaVuSans-5d" transform="translate(234.765625 0)"/>
    </g>
    <!-- 50.1% muestras -->
    <g transform="translate(605.810391 240.082453) scale(0.09 -0.09)">
     <use xlink:href="#DejaVuSans-35"/>
     <use xlink:href="#DejaVuSans-30" transform="translate(63.623047 0)"/>
     <use xlink:href="#DejaVuSans-2e" transform="translate(127.246094 0)"/>
     <use xlink:href="#DejaVuSans-31" transform="translate(159.033203 0)"/>
     <use xlink:href="#DejaVuSans-25" transform="translate(222.65625 0)"/>
     <use xlink:href="#DejaVuSans-20" transform="translate(317.675781 0)"/>
     <use xlink:href="#DejaVuSans-6d" transform="translate(349.462891 0)"/>
     <use xlink:href="#DejaVuSans-75" transform="translate(446.875 0)"/>
     <use xlink:href="#DejaVuSans-65" transform="translate(510.253906 0)"/>
     <use xlink:href="#DejaVuSans-73" transform="translate(571.777344 0)"/>
     <use xlink:href="#DejaVuSans-74" transform="translate(623.876953 0)"/>
     <use xlink:href="#DejaVuSans-72" transform="translate(663.085938 0)"/>
     <use xlink:href="#DejaVuSans-61" transform="translate(704.199219 0)"/>
     <use xlink:href="#DejaVuSans-73" transform="translate(765.478516 0)"/>
    </g>
   </g>
   <g id="text_27">
    <g id="patch_28">
     <path d="M 658.460391 471.453187 
L 732.039609 471.453187 
Q 734.739609 471.453187 734.739609 468.753187 
L 734.739609 439.886812 
Q 734.739609 437.186812 732.039609 437.186812 
L 658.460391 437.186812 
Q 655.760391 437.186812 655.760391 439.886812 
L 655.760391 468.753187 
Q 655.760391 471.453187 658.460391 471.453187 
z
" style="fill: #add8e6; stroke: #000000; stroke-linejoin: miter"/>
    </g>
    <!-- Hoja -->
    <g transform="translate(685.104609 446.725406) scale(0.09 -0.09)">
     <use xlink:href="#DejaVuSans-48"/>
     <use xlink:href="#DejaVuSans-6f" transform="translate(75.195312 0)"/>
     <use xlink:href="#DejaVuSans-6a" transform="translate(136.376953 0)"/>
     <use xlink:href="#DejaVuSans-61" transform="translate(164.160156 0)"/>
    </g>
    <!-- 12.5% muestras -->
    <g transform="translate(658.460391 456.803437) scale(0.09 -0.09)">
     <use xlink:href="#DejaVuSans-31"/>
     <use xlink:href="#DejaVuSans-32" transform="translate(63.623047 0)"/>
     <use xlink:href="#DejaVuSans-2e" transform="translate(127.246094 0)"/>
     <use xlink:href="#DejaVuSans-35" transform="translate(159.033203 0)"/>
     <use xlink:href="#DejaVuSans-25" transform="translate(222.65625 0)"/>
     <use xlink:href="#DejaVuSans-20" transform="translate(317.675781 0)"/>
     <use xlink:href="#DejaVuSans-6d" transform="translate(349.462891 0)"/>
     <use xlink:href="#DejaVuSans-75" transform="translate(446.875 0)"/>
     <use xlink:href="#DejaVuSans-65" transform="translate(510.253906 0)"/>
     <use xlink:href="#DejaVuSans-73" transform="translate(571.777344 0)"/>
     <use xlink:href="#DejaVuSans-74" transform="translate(623.876953 0)"/>
     <use xlink:href="#DejaVuSans-72" transform="translate(663.085938 0)"/>
     <use xlink:href="#DejaVuSans-61" transform="translate(704.199219 0)"/>
     <use xlink:href="#DejaVuSans-73" transform="translate(765.478516 0)"/>
    </g>
    <!-- Valor: 70456 -->
    <g transform="translate(666.726328 466.881469) scale(0.09 -0.09)">
     <use xlink:href="#DejaVuSans-56"/>
     <use xlink:href="#DejaVuSans-61" transform="translate(60.658203 0)"/>
     <use xlink:href="#DejaVuSans-6c" transform="translate(121.9375 0)"/>
     <use xlink:href="#DejaVuSans-6f" transform="translate(149.720703 0)"/>
     <use xlink:href="#DejaVuSans-72" transform="translate(210.902344 0)"/>
     <use xlink:href="#DejaVuSans-3a" transform="translate(250.265625 0)"/>
     <use xlink:href="#DejaVuSans-20" transform="translate(283.957031 0)"/>
     <use xlink:href="#DejaVuSans-37" transform="translate(315.744141 0)"/>
     <use xlink:href="#DejaVuSans-30" transform="translate(379.367188 0)"/>
     <use xlink:href="#DejaVuSans-34" transform="translate(442.990234 0)"/>
     <use xlink:href="#DejaVuSans-35" transform="translate(506.613281 0)"/>
     <use xlink:href="#DejaVuSans-36" transform="translate(570.236328 0)"/>
    </g>
   </g>
   <g id="text_28">
    <g id="patch_29">
     <path d="M 711.110391 355.534172 
L 784.689609 355.534172 
Q 787.389609 355.534172 787.389609 352.834172 
L 787.389609 334.045828 
Q 787.389609 331.345828 784.689609 331.345828 
L 711.110391 331.345828 
Q 708.410391 331.345828 708.410391 334.045828 
L 708.410391 352.834172 
Q 708.410391 355.534172 711.110391 355.534172 
z
" style="fill: #add8e6; stroke: #000000; stroke-linejoin: miter"/>
    </g>
    <!-- Y[14] -->
    <g transform="translate(735.913828 340.884422) scale(0.09 -0.09)">
     <use xlink:href="#DejaVuSans-59"/>
     <use xlink:href="#DejaVuSans-5b" transform="translate(61.083984 0)"/>
     <use xlink:href="#DejaVuSans-31" transform="translate(100.097656 0)"/>
     <use xlink:href="#DejaVuSans-34" transform="translate(163.720703 0)"/>
     <use xlink:href="#DejaVuSans-5d" transform="translate(227.34375 0)"/>
    </g>
    <!-- 25.0% muestras -->
    <g transform="translate(711.110391 350.962453) scale(0.09 -0.09)">
     <use xlink:href="#DejaVuSans-32"/>
     <use xlink:href="#DejaVuSans-35" transform="translate(63.623047 0)"/>
     <use xlink:href="#DejaVuSans-2e" transform="translate(127.246094 0)"/>
     <use xlink:href="#DejaVuSans-30" transform="translate(159.033203 0)"/>
     <use xlink:href="#DejaVuSans-25" transform="translate(222.65625 0)"/>
     <use xlink:href="#DejaVuSans-20" transform="translate(317.675781 0)"/>
     <use xlink:href="#DejaVuSans-6d" transform="translate(349.462891 0)"/>
     <use xlink:href="#DejaVuSans-75" transform="translate(446.875 0)"/>
     <use xlink:href="#DejaVuSans-65" transform="translate(510.253906 0)"/>
     <use xlink:href="#DejaVuSans-73" transform="translate(571.777344 0)"/>
     <use xlink:href="#DejaVuSans-74" transform="translate(623.876953 0)"/>
     <use xlink:href="#DejaVuSans-72" transform="translate(663.085938 0)"/>
     <use xlink:href="#DejaVuSans-61" transform="translate(704.199219 0)"/>
     <use xlink:href="#DejaVuSans-73" transform="translate(765.478516 0)"/>
    </g>
   </g>
   <g id="text_29">
    <g id="patch_30">
     <path d="M 763.760391 471.453187 
L 837.339609 471.453187 
Q 840.039609 471.453187 840.039609 468.753187 
L 840.039609 439.886812 
Q 840.039609 437.186812 837.339609 437.186812 
L 763.760391 437.186812 
Q 761.060391 437.186812 761.060391 439.886812 
L 761.060391 468.753187 
Q 761.060391 471.453187 763.760391 471.453187 
z
" style="fill: #add8e6; stroke: #000000; stroke-linejoin: miter"/>
    </g>
    <!-- Hoja -->
    <g transform="translate(790.404609 446.725406) scale(0.09 -0.09)">
     <use xlink:href="#DejaVuSans-48"/>
     <use xlink:href="#DejaVuSans-6f" transform="translate(75.195312 0)"/>
     <use xlink:href="#DejaVuSans-6a" transform="translate(136.376953 0)"/>
     <use xlink:href="#DejaVuSans-61" transform="translate(164.160156 0)"/>
    </g>
    <!-- 12.5% muestras -->
    <g transform="translate(763.760391 456.803437) scale(0.09 -0.09)">
     <use xlink:href="#DejaVuSans-31"/>
     <use xlink:href="#DejaVuSans-32" transform="translate(63.623047 0)"/>
     <use xlink:href="#DejaVuSans-2e" transform="translate(127.246094 0)"/>
     <use xlink:href="#DejaVuSans-35" transform="translate(159.033203 0)"/>
     <use xlink:href="#DejaVuSans-25" transform="translate(222.65625 0)"/>
     <use xlink:href="#DejaVuSans-20" transform="translate(317.675781 0)"/>
     <use xlink:href="#DejaVuSans-6d" transform="translate(349.462891 0)"/>
     <use xlink:href="#DejaVuSans-75" transform="translate(446.875 0)"/>
     <use xlink:href="#DejaVuSans-65" transform="translate(510.253906 0)"/>
     <use xlink:href="#DejaVuSans-73" transform="translate(571.777344 0)"/>
     <use xlink:href="#DejaVuSans-74" transform="translate(623.876953 0)"/>
     <use xlink:href="#DejaVuSans-72" transform="translate(663.085938 0)"/>
     <use xlink:href="#DejaVuSans-61" transform="translate(704.199219 0)"/>
     <use xlink:href="#DejaVuSans-73" transform="translate(765.478516 0)"/>
    </g>
    <!-- Valor: 111395 -->
    <g transform="translate(769.163203 466.881469) scale(0.09 -0.09)">
     <use xlink:href="#DejaVuSans-56"/>
     <use xlink:href="#DejaVuSans-61" transform="translate(60.658203 0)"/>
     <use xlink:href="#DejaVuSans-6c" transform="translate(121.9375 0)"/>
     <use xlink:href="#DejaVuSans-6f" transform="translate(149.720703 0)"/>
     <use xlink:href="#DejaVuSans-72" transform="translate(210.902344 0)"/>
     <use xlink:href="#DejaVuSans-3a" transform="translate(250.265625 0)"/>
     <use xlink:href="#DejaVuSans-20" transform="translate(283.957031 0)"/>
     <use xlink:href="#DejaVuSans-31" transform="translate(315.744141 0)"/>
     <use xlink:href="#DejaVuSans-31" transform="translate(379.367188 0)"/>
     <use xlink:href="#DejaVuSans-31" transform="translate(442.990234 0)"/>
     <use xlink:href="#DejaVuSans-33" transform="translate(506.613281 0)"/>
     <use xlink:href="#DejaVuSans-39" transform="translate(570.236328 0)"/>
     <use xlink:href="#DejaVuSans-35" transform="translate(633.859375 0)"/>
    </g>
   </g>
  </g>
 </g>
 <defs>
  <clipPath id="pe7adef04eb">
   <rect x="10.8" y="10.8" width="842.4" height="554.4"/>
  </clipPath>
 </defs>
</svg>
