<?xml version="1.0" encoding="utf-8" standalone="no"?>
<!DOCTYPE svg PUBLIC "-//W3C//DTD SVG 1.1//EN"
  "http://www.w3.org/Graphics/SVG/1.1/DTD/svg11.dtd">
<svg xmlns:xlink="http://www.w3.org/1999/xlink" width="1152pt" height="432pt" viewBox="0 0 1152 432" xmlns="http://www.w3.org/2000/svg" version="1.1">
 <metadata>
  <rdf:RDF xmlns:dc="http://purl.org/dc/elements/1.1/" xmlns:cc="http://creativecommons.org/ns#" xmlns:rdf="http://www.w3.org/1999/02/22-rdf-syntax-ns#">
   <cc:Work>
    <dc:type rdf:resource="http://purl.org/dc/dcmitype/StillImage"/>
    <dc:date>2025-05-28T15:56:23.113523</dc:date>
    <dc:format>image/svg+xml</dc:format>
    <dc:creator>
     <cc:Agent>
      <dc:title>Matplotlib v3.10.3, https://matplotlib.org/</dc:title>
     </cc:Agent>
    </dc:creator>
   </cc:Work>
  </rdf:RDF>
 </metadata>
 <defs>
  <style type="text/css">*{stroke-linejoin: round; stroke-linecap: butt}</style>
 </defs>
 <g id="figure_1">
  <g id="patch_1">
   <path d="M 0 432 
L 1152 432 
L 1152 0 
L 0 0 
z
" style="fill: #ffffff"/>
  </g>
  <g id="axes_1">
   <g id="patch_2">
    <path d="M 75.35 318.306348 
L 868.51 318.306348 
L 868.51 17.28 
L 75.35 17.28 
z
" style="fill: #ffffff"/>
   </g>
   <g id="patch_3">
    <path d="M 111.402727 318.306348 
L 115.33371 318.306348 
L 115.33371 270.408693 
L 111.402727 270.408693 
z
" clip-path="url(#p27cfdc4d0e)" style="fill: #87ceeb; opacity: 0.4"/>
   </g>
   <g id="patch_4">
    <path d="M 167.559623 318.306348 
L 171.490606 318.306348 
L 171.490606 130.880742 
L 167.559623 130.880742 
z
" clip-path="url(#p27cfdc4d0e)" style="fill: #87ceeb; opacity: 0.4"/>
   </g>
   <g id="patch_5">
    <path d="M 223.716519 318.306348 
L 227.647502 318.306348 
L 227.647502 286.122153 
L 223.716519 286.122153 
z
" clip-path="url(#p27cfdc4d0e)" style="fill: #87ceeb; opacity: 0.4"/>
   </g>
   <g id="patch_6">
    <path d="M 279.873415 318.306348 
L 283.804398 318.306348 
L 283.804398 304.549182 
L 279.873415 304.549182 
z
" clip-path="url(#p27cfdc4d0e)" style="fill: #87ceeb; opacity: 0.4"/>
   </g>
   <g id="patch_7">
    <path d="M 336.030312 318.306348 
L 339.961294 318.306348 
L 339.961294 300.889019 
L 336.030312 300.889019 
z
" clip-path="url(#p27cfdc4d0e)" style="fill: #87ceeb; opacity: 0.4"/>
   </g>
   <g id="patch_8">
    <path d="M 392.187208 318.306348 
L 396.11819 318.306348 
L 396.11819 303.097738 
L 392.187208 303.097738 
z
" clip-path="url(#p27cfdc4d0e)" style="fill: #87ceeb; opacity: 0.4"/>
   </g>
   <g id="patch_9">
    <path d="M 448.344104 318.306348 
L 452.275086 318.306348 
L 452.275086 303.097738 
L 448.344104 303.097738 
z
" clip-path="url(#p27cfdc4d0e)" style="fill: #87ceeb; opacity: 0.4"/>
   </g>
   <g id="patch_10">
    <path d="M 504.501 318.306348 
L 508.431982 318.306348 
L 508.431982 303.160844 
L 504.501 303.160844 
z
" clip-path="url(#p27cfdc4d0e)" style="fill: #87ceeb; opacity: 0.4"/>
   </g>
   <g id="patch_11">
    <path d="M 560.657896 318.306348 
L 564.588879 318.306348 
L 564.588879 302.403569 
L 560.657896 302.403569 
z
" clip-path="url(#p27cfdc4d0e)" style="fill: #87ceeb; opacity: 0.4"/>
   </g>
   <g id="patch_12">
    <path d="M 616.814792 318.306348 
L 620.745775 318.306348 
L 620.745775 300.573487 
L 616.814792 300.573487 
z
" clip-path="url(#p27cfdc4d0e)" style="fill: #87ceeb; opacity: 0.4"/>
   </g>
   <g id="patch_13">
    <path d="M 672.971688 318.306348 
L 676.902671 318.306348 
L 676.902671 256.083571 
L 672.971688 256.083571 
z
" clip-path="url(#p27cfdc4d0e)" style="fill: #87ceeb; opacity: 0.4"/>
   </g>
   <g id="patch_14">
    <path d="M 729.128584 318.306348 
L 733.059567 318.306348 
L 733.059567 307.010326 
L 729.128584 307.010326 
z
" clip-path="url(#p27cfdc4d0e)" style="fill: #87ceeb; opacity: 0.4"/>
   </g>
   <g id="patch_15">
    <path d="M 785.28548 318.306348 
L 789.216463 318.306348 
L 789.216463 297.733705 
L 785.28548 297.733705 
z
" clip-path="url(#p27cfdc4d0e)" style="fill: #87ceeb; opacity: 0.4"/>
   </g>
   <g id="patch_16">
    <path d="M 115.33371 318.306348 
L 119.264693 318.306348 
L 119.264693 272.175668 
L 115.33371 272.175668 
z
" clip-path="url(#p27cfdc4d0e)" style="fill: #87ceeb; opacity: 0.485714"/>
   </g>
   <g id="patch_17">
    <path d="M 171.490606 318.306348 
L 175.421589 318.306348 
L 175.421589 90.303414 
L 171.490606 90.303414 
z
" clip-path="url(#p27cfdc4d0e)" style="fill: #87ceeb; opacity: 0.485714"/>
   </g>
   <g id="patch_18">
    <path d="M 227.647502 318.306348 
L 231.578485 318.306348 
L 231.578485 286.122153 
L 227.647502 286.122153 
z
" clip-path="url(#p27cfdc4d0e)" style="fill: #87ceeb; opacity: 0.485714"/>
   </g>
   <g id="patch_19">
    <path d="M 283.804398 318.306348 
L 287.735381 318.306348 
L 287.735381 307.641389 
L 283.804398 307.641389 
z
" clip-path="url(#p27cfdc4d0e)" style="fill: #87ceeb; opacity: 0.485714"/>
   </g>
   <g id="patch_20">
    <path d="M 339.961294 318.306348 
L 343.892277 318.306348 
L 343.892277 306.379264 
L 339.961294 306.379264 
z
" clip-path="url(#p27cfdc4d0e)" style="fill: #87ceeb; opacity: 0.485714"/>
   </g>
   <g id="patch_21">
    <path d="M 396.11819 318.306348 
L 400.049173 318.306348 
L 400.049173 306.94722 
L 396.11819 306.94722 
z
" clip-path="url(#p27cfdc4d0e)" style="fill: #87ceeb; opacity: 0.485714"/>
   </g>
   <g id="patch_22">
    <path d="M 452.275086 318.306348 
L 456.206069 318.306348 
L 456.206069 308.524877 
L 452.275086 308.524877 
z
" clip-path="url(#p27cfdc4d0e)" style="fill: #87ceeb; opacity: 0.485714"/>
   </g>
   <g id="patch_23">
    <path d="M 508.431982 318.306348 
L 512.362965 318.306348 
L 512.362965 304.359863 
L 508.431982 304.359863 
z
" clip-path="url(#p27cfdc4d0e)" style="fill: #87ceeb; opacity: 0.485714"/>
   </g>
   <g id="patch_24">
    <path d="M 564.588879 318.306348 
L 568.519861 318.306348 
L 568.519861 306.694795 
L 564.588879 306.694795 
z
" clip-path="url(#p27cfdc4d0e)" style="fill: #87ceeb; opacity: 0.485714"/>
   </g>
   <g id="patch_25">
    <path d="M 620.745775 318.306348 
L 624.676757 318.306348 
L 624.676757 303.7288 
L 620.745775 303.7288 
z
" clip-path="url(#p27cfdc4d0e)" style="fill: #87ceeb; opacity: 0.485714"/>
   </g>
   <g id="patch_26">
    <path d="M 676.902671 318.306348 
L 680.833653 318.306348 
L 680.833653 257.345696 
L 676.902671 257.345696 
z
" clip-path="url(#p27cfdc4d0e)" style="fill: #87ceeb; opacity: 0.485714"/>
   </g>
   <g id="patch_27">
    <path d="M 733.059567 318.306348 
L 736.990549 318.306348 
L 736.990549 307.073432 
L 733.059567 307.073432 
z
" clip-path="url(#p27cfdc4d0e)" style="fill: #87ceeb; opacity: 0.485714"/>
   </g>
   <g id="patch_28">
    <path d="M 789.216463 318.306348 
L 793.147445 318.306348 
L 793.147445 282.398883 
L 789.216463 282.398883 
z
" clip-path="url(#p27cfdc4d0e)" style="fill: #87ceeb; opacity: 0.485714"/>
   </g>
   <g id="patch_29">
    <path d="M 119.264693 318.306348 
L 123.195675 318.306348 
L 123.195675 278.73872 
L 119.264693 278.73872 
z
" clip-path="url(#p27cfdc4d0e)" style="fill: #87ceeb; opacity: 0.571429"/>
   </g>
   <g id="patch_30">
    <path d="M 175.421589 318.306348 
L 179.352572 318.306348 
L 179.352572 103.618836 
L 175.421589 103.618836 
z
" clip-path="url(#p27cfdc4d0e)" style="fill: #87ceeb; opacity: 0.571429"/>
   </g>
   <g id="patch_31">
    <path d="M 231.578485 318.306348 
L 235.509468 318.306348 
L 235.509468 286.122153 
L 231.578485 286.122153 
z
" clip-path="url(#p27cfdc4d0e)" style="fill: #87ceeb; opacity: 0.571429"/>
   </g>
   <g id="patch_32">
    <path d="M 287.735381 318.306348 
L 291.666364 318.306348 
L 291.666364 310.418064 
L 287.735381 310.418064 
z
" clip-path="url(#p27cfdc4d0e)" style="fill: #87ceeb; opacity: 0.571429"/>
   </g>
   <g id="patch_33">
    <path d="M 343.892277 318.306348 
L 347.82326 318.306348 
L 347.82326 310.102533 
L 343.892277 310.102533 
z
" clip-path="url(#p27cfdc4d0e)" style="fill: #87ceeb; opacity: 0.571429"/>
   </g>
   <g id="patch_34">
    <path d="M 400.049173 318.306348 
L 403.980156 318.306348 
L 403.980156 310.733596 
L 400.049173 310.733596 
z
" clip-path="url(#p27cfdc4d0e)" style="fill: #87ceeb; opacity: 0.571429"/>
   </g>
   <g id="patch_35">
    <path d="M 456.206069 318.306348 
L 460.137052 318.306348 
L 460.137052 309.597683 
L 456.206069 309.597683 
z
" clip-path="url(#p27cfdc4d0e)" style="fill: #87ceeb; opacity: 0.571429"/>
   </g>
   <g id="patch_36">
    <path d="M 512.362965 318.306348 
L 516.293948 318.306348 
L 516.293948 310.922915 
L 512.362965 310.922915 
z
" clip-path="url(#p27cfdc4d0e)" style="fill: #87ceeb; opacity: 0.571429"/>
   </g>
   <g id="patch_37">
    <path d="M 568.519861 318.306348 
L 572.450844 318.306348 
L 572.450844 310.354958 
L 568.519861 310.354958 
z
" clip-path="url(#p27cfdc4d0e)" style="fill: #87ceeb; opacity: 0.571429"/>
   </g>
   <g id="patch_38">
    <path d="M 624.676757 318.306348 
L 628.60774 318.306348 
L 628.60774 310.481171 
L 624.676757 310.481171 
z
" clip-path="url(#p27cfdc4d0e)" style="fill: #87ceeb; opacity: 0.571429"/>
   </g>
   <g id="patch_39">
    <path d="M 680.833653 318.306348 
L 684.764636 318.306348 
L 684.764636 262.267985 
L 680.833653 262.267985 
z
" clip-path="url(#p27cfdc4d0e)" style="fill: #87ceeb; opacity: 0.571429"/>
   </g>
   <g id="patch_40">
    <path d="M 736.990549 318.306348 
L 740.921532 318.306348 
L 740.921532 310.102533 
L 736.990549 310.102533 
z
" clip-path="url(#p27cfdc4d0e)" style="fill: #87ceeb; opacity: 0.571429"/>
   </g>
   <g id="patch_41">
    <path d="M 793.147445 318.306348 
L 797.078428 318.306348 
L 797.078428 308.398664 
L 793.147445 308.398664 
z
" clip-path="url(#p27cfdc4d0e)" style="fill: #87ceeb; opacity: 0.571429"/>
   </g>
   <g id="patch_42">
    <path d="M 123.195675 318.306348 
L 127.126658 318.306348 
L 127.126658 276.719319 
L 123.195675 276.719319 
z
" clip-path="url(#p27cfdc4d0e)" style="fill: #87ceeb; opacity: 0.657143"/>
   </g>
   <g id="patch_43">
    <path d="M 179.352572 318.306348 
L 183.283554 318.306348 
L 183.283554 107.973168 
L 179.352572 107.973168 
z
" clip-path="url(#p27cfdc4d0e)" style="fill: #87ceeb; opacity: 0.657143"/>
   </g>
   <g id="patch_44">
    <path d="M 235.509468 318.306348 
L 239.44045 318.306348 
L 239.44045 286.122153 
L 235.509468 286.122153 
z
" clip-path="url(#p27cfdc4d0e)" style="fill: #87ceeb; opacity: 0.657143"/>
   </g>
   <g id="patch_45">
    <path d="M 291.666364 318.306348 
L 295.597346 318.306348 
L 295.597346 313.131634 
L 291.666364 313.131634 
z
" clip-path="url(#p27cfdc4d0e)" style="fill: #87ceeb; opacity: 0.657143"/>
   </g>
   <g id="patch_46">
    <path d="M 347.82326 318.306348 
L 351.754242 318.306348 
L 351.754242 312.374359 
L 347.82326 312.374359 
z
" clip-path="url(#p27cfdc4d0e)" style="fill: #87ceeb; opacity: 0.657143"/>
   </g>
   <g id="patch_47">
    <path d="M 403.980156 318.306348 
L 407.911138 318.306348 
L 407.911138 313.005421 
L 403.980156 313.005421 
z
" clip-path="url(#p27cfdc4d0e)" style="fill: #87ceeb; opacity: 0.657143"/>
   </g>
   <g id="patch_48">
    <path d="M 460.137052 318.306348 
L 464.068035 318.306348 
L 464.068035 312.437465 
L 460.137052 312.437465 
z
" clip-path="url(#p27cfdc4d0e)" style="fill: #87ceeb; opacity: 0.657143"/>
   </g>
   <g id="patch_49">
    <path d="M 516.293948 318.306348 
L 520.224931 318.306348 
L 520.224931 312.18504 
L 516.293948 312.18504 
z
" clip-path="url(#p27cfdc4d0e)" style="fill: #87ceeb; opacity: 0.657143"/>
   </g>
   <g id="patch_50">
    <path d="M 572.450844 318.306348 
L 576.381827 318.306348 
L 576.381827 312.68989 
L 572.450844 312.68989 
z
" clip-path="url(#p27cfdc4d0e)" style="fill: #87ceeb; opacity: 0.657143"/>
   </g>
   <g id="patch_51">
    <path d="M 628.60774 318.306348 
L 632.538723 318.306348 
L 632.538723 312.942315 
L 628.60774 312.942315 
z
" clip-path="url(#p27cfdc4d0e)" style="fill: #87ceeb; opacity: 0.657143"/>
   </g>
   <g id="patch_52">
    <path d="M 684.764636 318.306348 
L 688.695619 318.306348 
L 688.695619 270.913543 
L 684.764636 270.913543 
z
" clip-path="url(#p27cfdc4d0e)" style="fill: #87ceeb; opacity: 0.657143"/>
   </g>
   <g id="patch_53">
    <path d="M 740.921532 318.306348 
L 744.852515 318.306348 
L 744.852515 313.69959 
L 740.921532 313.69959 
z
" clip-path="url(#p27cfdc4d0e)" style="fill: #87ceeb; opacity: 0.657143"/>
   </g>
   <g id="patch_54">
    <path d="M 797.078428 318.306348 
L 801.009411 318.306348 
L 801.009411 295.96673 
L 797.078428 295.96673 
z
" clip-path="url(#p27cfdc4d0e)" style="fill: #87ceeb; opacity: 0.657143"/>
   </g>
   <g id="patch_55">
    <path d="M 127.126658 318.306348 
L 131.057641 318.306348 
L 131.057641 283.661008 
L 127.126658 283.661008 
z
" clip-path="url(#p27cfdc4d0e)" style="fill: #87ceeb; opacity: 0.828571"/>
   </g>
   <g id="patch_56">
    <path d="M 183.283554 318.306348 
L 187.214537 318.306348 
L 187.214537 97.308209 
L 183.283554 97.308209 
z
" clip-path="url(#p27cfdc4d0e)" style="fill: #87ceeb; opacity: 0.828571"/>
   </g>
   <g id="patch_57">
    <path d="M 239.44045 318.306348 
L 243.371433 318.306348 
L 243.371433 286.122153 
L 239.44045 286.122153 
z
" clip-path="url(#p27cfdc4d0e)" style="fill: #87ceeb; opacity: 0.828571"/>
   </g>
   <g id="patch_58">
    <path d="M 295.597346 318.306348 
L 299.528329 318.306348 
L 299.528329 315.277247 
L 295.597346 315.277247 
z
" clip-path="url(#p27cfdc4d0e)" style="fill: #87ceeb; opacity: 0.828571"/>
   </g>
   <g id="patch_59">
    <path d="M 351.754242 318.306348 
L 355.685225 318.306348 
L 355.685225 315.151034 
L 351.754242 315.151034 
z
" clip-path="url(#p27cfdc4d0e)" style="fill: #87ceeb; opacity: 0.828571"/>
   </g>
   <g id="patch_60">
    <path d="M 407.911138 318.306348 
L 411.842121 318.306348 
L 411.842121 315.592778 
L 407.911138 315.592778 
z
" clip-path="url(#p27cfdc4d0e)" style="fill: #87ceeb; opacity: 0.828571"/>
   </g>
   <g id="patch_61">
    <path d="M 464.068035 318.306348 
L 467.999017 318.306348 
L 467.999017 315.214141 
L 464.068035 315.214141 
z
" clip-path="url(#p27cfdc4d0e)" style="fill: #87ceeb; opacity: 0.828571"/>
   </g>
   <g id="patch_62">
    <path d="M 520.224931 318.306348 
L 524.155913 318.306348 
L 524.155913 315.592778 
L 520.224931 315.592778 
z
" clip-path="url(#p27cfdc4d0e)" style="fill: #87ceeb; opacity: 0.828571"/>
   </g>
   <g id="patch_63">
    <path d="M 576.381827 318.306348 
L 580.312809 318.306348 
L 580.312809 315.592778 
L 576.381827 315.592778 
z
" clip-path="url(#p27cfdc4d0e)" style="fill: #87ceeb; opacity: 0.828571"/>
   </g>
   <g id="patch_64">
    <path d="M 632.538723 318.306348 
L 636.469705 318.306348 
L 636.469705 315.403459 
L 632.538723 315.403459 
z
" clip-path="url(#p27cfdc4d0e)" style="fill: #87ceeb; opacity: 0.828571"/>
   </g>
   <g id="patch_65">
    <path d="M 688.695619 318.306348 
L 692.626602 318.306348 
L 692.626602 286.879428 
L 688.695619 286.879428 
z
" clip-path="url(#p27cfdc4d0e)" style="fill: #87ceeb; opacity: 0.828571"/>
   </g>
   <g id="patch_66">
    <path d="M 744.852515 318.306348 
L 748.783498 318.306348 
L 748.783498 317.3282 
L 744.852515 317.3282 
z
" clip-path="url(#p27cfdc4d0e)" style="fill: #87ceeb; opacity: 0.828571"/>
   </g>
   <g id="patch_67">
    <path d="M 801.009411 318.306348 
L 804.940394 318.306348 
L 804.940394 305.621988 
L 801.009411 305.621988 
z
" clip-path="url(#p27cfdc4d0e)" style="fill: #87ceeb; opacity: 0.828571"/>
   </g>
   <g id="patch_68">
    <path d="M 131.057641 318.306348 
L 134.988624 318.306348 
L 134.988624 289.529891 
L 131.057641 289.529891 
z
" clip-path="url(#p27cfdc4d0e)" style="fill: #87ceeb"/>
   </g>
   <g id="patch_69">
    <path d="M 187.214537 318.306348 
L 191.14552 318.306348 
L 191.14552 109.677037 
L 187.214537 109.677037 
z
" clip-path="url(#p27cfdc4d0e)" style="fill: #87ceeb"/>
   </g>
   <g id="patch_70">
    <path d="M 243.371433 318.306348 
L 247.302416 318.306348 
L 247.302416 286.185259 
L 243.371433 286.185259 
z
" clip-path="url(#p27cfdc4d0e)" style="fill: #87ceeb"/>
   </g>
   <g id="patch_71">
    <path d="M 299.528329 318.306348 
L 303.459312 318.306348 
L 303.459312 316.665585 
L 299.528329 316.665585 
z
" clip-path="url(#p27cfdc4d0e)" style="fill: #87ceeb"/>
   </g>
   <g id="patch_72">
    <path d="M 355.685225 318.306348 
L 359.616208 318.306348 
L 359.616208 316.728691 
L 355.685225 316.728691 
z
" clip-path="url(#p27cfdc4d0e)" style="fill: #87ceeb"/>
   </g>
   <g id="patch_73">
    <path d="M 411.842121 318.306348 
L 415.773104 318.306348 
L 415.773104 316.854903 
L 411.842121 316.854903 
z
" clip-path="url(#p27cfdc4d0e)" style="fill: #87ceeb"/>
   </g>
   <g id="patch_74">
    <path d="M 467.999017 318.306348 
L 471.93 318.306348 
L 471.93 316.728691 
L 467.999017 316.728691 
z
" clip-path="url(#p27cfdc4d0e)" style="fill: #87ceeb"/>
   </g>
   <g id="patch_75">
    <path d="M 524.155913 318.306348 
L 528.086896 318.306348 
L 528.086896 316.854903 
L 524.155913 316.854903 
z
" clip-path="url(#p27cfdc4d0e)" style="fill: #87ceeb"/>
   </g>
   <g id="patch_76">
    <path d="M 580.312809 318.306348 
L 584.243792 318.306348 
L 584.243792 316.791797 
L 580.312809 316.791797 
z
" clip-path="url(#p27cfdc4d0e)" style="fill: #87ceeb"/>
   </g>
   <g id="patch_77">
    <path d="M 636.469705 318.306348 
L 640.400688 318.306348 
L 640.400688 316.791797 
L 636.469705 316.791797 
z
" clip-path="url(#p27cfdc4d0e)" style="fill: #87ceeb"/>
   </g>
   <g id="patch_78">
    <path d="M 692.626602 318.306348 
L 696.557584 318.306348 
L 696.557584 301.046784 
L 692.626602 301.046784 
z
" clip-path="url(#p27cfdc4d0e)" style="fill: #87ceeb"/>
   </g>
   <g id="patch_79">
    <path d="M 748.783498 318.306348 
L 752.71448 318.306348 
L 752.71448 318.117029 
L 748.783498 318.117029 
z
" clip-path="url(#p27cfdc4d0e)" style="fill: #87ceeb"/>
   </g>
   <g id="patch_80">
    <path d="M 804.940394 318.306348 
L 808.871376 318.306348 
L 808.871376 318.306348 
L 804.940394 318.306348 
z
" clip-path="url(#p27cfdc4d0e)" style="fill: #87ceeb"/>
   </g>
   <g id="patch_81">
    <path d="M 134.988624 318.306348 
L 138.919606 318.306348 
L 138.919606 270.408693 
L 134.988624 270.408693 
z
" clip-path="url(#p27cfdc4d0e)" style="fill: #fa8072; opacity: 0.4"/>
   </g>
   <g id="patch_82">
    <path d="M 191.14552 318.306348 
L 195.076502 318.306348 
L 195.076502 71.939491 
L 191.14552 71.939491 
z
" clip-path="url(#p27cfdc4d0e)" style="fill: #fa8072; opacity: 0.4"/>
   </g>
   <g id="patch_83">
    <path d="M 247.302416 318.306348 
L 251.233398 318.306348 
L 251.233398 286.122153 
L 247.302416 286.122153 
z
" clip-path="url(#p27cfdc4d0e)" style="fill: #fa8072; opacity: 0.4"/>
   </g>
   <g id="patch_84">
    <path d="M 303.459312 318.306348 
L 307.390295 318.306348 
L 307.390295 288.267766 
L 303.459312 288.267766 
z
" clip-path="url(#p27cfdc4d0e)" style="fill: #fa8072; opacity: 0.4"/>
   </g>
   <g id="patch_85">
    <path d="M 359.616208 318.306348 
L 363.547191 318.306348 
L 363.547191 287.194959 
L 359.616208 287.194959 
z
" clip-path="url(#p27cfdc4d0e)" style="fill: #fa8072; opacity: 0.4"/>
   </g>
   <g id="patch_86">
    <path d="M 415.773104 318.306348 
L 419.704087 318.306348 
L 419.704087 289.340572 
L 415.773104 289.340572 
z
" clip-path="url(#p27cfdc4d0e)" style="fill: #fa8072; opacity: 0.4"/>
   </g>
   <g id="patch_87">
    <path d="M 471.93 318.306348 
L 475.860983 318.306348 
L 475.860983 290.72891 
L 471.93 290.72891 
z
" clip-path="url(#p27cfdc4d0e)" style="fill: #fa8072; opacity: 0.4"/>
   </g>
   <g id="patch_88">
    <path d="M 528.086896 318.306348 
L 532.017879 318.306348 
L 532.017879 289.277466 
L 528.086896 289.277466 
z
" clip-path="url(#p27cfdc4d0e)" style="fill: #fa8072; opacity: 0.4"/>
   </g>
   <g id="patch_89">
    <path d="M 584.243792 318.306348 
L 588.174775 318.306348 
L 588.174775 287.826022 
L 584.243792 287.826022 
z
" clip-path="url(#p27cfdc4d0e)" style="fill: #fa8072; opacity: 0.4"/>
   </g>
   <g id="patch_90">
    <path d="M 640.400688 318.306348 
L 644.331671 318.306348 
L 644.331671 286.122153 
L 640.400688 286.122153 
z
" clip-path="url(#p27cfdc4d0e)" style="fill: #fa8072; opacity: 0.4"/>
   </g>
   <g id="patch_91">
    <path d="M 696.557584 318.306348 
L 700.488567 318.306348 
L 700.488567 286.279918 
L 696.557584 286.279918 
z
" clip-path="url(#p27cfdc4d0e)" style="fill: #fa8072; opacity: 0.4"/>
   </g>
   <g id="patch_92">
    <path d="M 752.71448 318.306348 
L 756.645463 318.306348 
L 756.645463 308.619536 
L 752.71448 308.619536 
z
" clip-path="url(#p27cfdc4d0e)" style="fill: #fa8072; opacity: 0.4"/>
   </g>
   <g id="patch_93">
    <path d="M 808.871376 318.306348 
L 812.802359 318.306348 
L 812.802359 280.568801 
L 808.871376 280.568801 
z
" clip-path="url(#p27cfdc4d0e)" style="fill: #fa8072; opacity: 0.4"/>
   </g>
   <g id="patch_94">
    <path d="M 138.919606 318.306348 
L 142.850589 318.306348 
L 142.850589 254.821445 
L 138.919606 254.821445 
z
" clip-path="url(#p27cfdc4d0e)" style="fill: #fa8072; opacity: 0.485714"/>
   </g>
   <g id="patch_95">
    <path d="M 195.076502 318.306348 
L 199.007485 318.306348 
L 199.007485 31.614588 
L 195.076502 31.614588 
z
" clip-path="url(#p27cfdc4d0e)" style="fill: #fa8072; opacity: 0.485714"/>
   </g>
   <g id="patch_96">
    <path d="M 251.233398 318.306348 
L 255.164381 318.306348 
L 255.164381 286.122153 
L 251.233398 286.122153 
z
" clip-path="url(#p27cfdc4d0e)" style="fill: #fa8072; opacity: 0.485714"/>
   </g>
   <g id="patch_97">
    <path d="M 307.390295 318.306348 
L 311.321277 318.306348 
L 311.321277 288.898828 
L 307.390295 288.898828 
z
" clip-path="url(#p27cfdc4d0e)" style="fill: #fa8072; opacity: 0.485714"/>
   </g>
   <g id="patch_98">
    <path d="M 363.547191 318.306348 
L 367.478173 318.306348 
L 367.478173 288.141553 
L 363.547191 288.141553 
z
" clip-path="url(#p27cfdc4d0e)" style="fill: #fa8072; opacity: 0.485714"/>
   </g>
   <g id="patch_99">
    <path d="M 419.704087 318.306348 
L 423.635069 318.306348 
L 423.635069 291.801716 
L 419.704087 291.801716 
z
" clip-path="url(#p27cfdc4d0e)" style="fill: #fa8072; opacity: 0.485714"/>
   </g>
   <g id="patch_100">
    <path d="M 475.860983 318.306348 
L 479.791965 318.306348 
L 479.791965 294.893923 
L 475.860983 294.893923 
z
" clip-path="url(#p27cfdc4d0e)" style="fill: #fa8072; opacity: 0.485714"/>
   </g>
   <g id="patch_101">
    <path d="M 532.017879 318.306348 
L 535.948862 318.306348 
L 535.948862 287.258065 
L 532.017879 287.258065 
z
" clip-path="url(#p27cfdc4d0e)" style="fill: #fa8072; opacity: 0.485714"/>
   </g>
   <g id="patch_102">
    <path d="M 588.174775 318.306348 
L 592.105758 318.306348 
L 592.105758 290.476485 
L 588.174775 290.476485 
z
" clip-path="url(#p27cfdc4d0e)" style="fill: #fa8072; opacity: 0.485714"/>
   </g>
   <g id="patch_103">
    <path d="M 644.331671 318.306348 
L 648.262654 318.306348 
L 648.262654 287.068747 
L 644.331671 287.068747 
z
" clip-path="url(#p27cfdc4d0e)" style="fill: #fa8072; opacity: 0.485714"/>
   </g>
   <g id="patch_104">
    <path d="M 700.488567 318.306348 
L 704.41955 318.306348 
L 704.41955 295.020136 
L 700.488567 295.020136 
z
" clip-path="url(#p27cfdc4d0e)" style="fill: #fa8072; opacity: 0.485714"/>
   </g>
   <g id="patch_105">
    <path d="M 756.645463 318.306348 
L 760.576446 318.306348 
L 760.576446 309.439917 
L 756.645463 309.439917 
z
" clip-path="url(#p27cfdc4d0e)" style="fill: #fa8072; opacity: 0.485714"/>
   </g>
   <g id="patch_106">
    <path d="M 812.802359 318.306348 
L 816.733342 318.306348 
L 816.733342 289.309019 
L 812.802359 289.309019 
z
" clip-path="url(#p27cfdc4d0e)" style="fill: #fa8072; opacity: 0.485714"/>
   </g>
   <g id="patch_107">
    <path d="M 142.850589 318.306348 
L 146.781572 318.306348 
L 146.781572 272.4912 
L 142.850589 272.4912 
z
" clip-path="url(#p27cfdc4d0e)" style="fill: #fa8072; opacity: 0.571429"/>
   </g>
   <g id="patch_108">
    <path d="M 199.007485 318.306348 
L 202.938468 318.306348 
L 202.938468 101.978073 
L 199.007485 101.978073 
z
" clip-path="url(#p27cfdc4d0e)" style="fill: #fa8072; opacity: 0.571429"/>
   </g>
   <g id="patch_109">
    <path d="M 255.164381 318.306348 
L 259.095364 318.306348 
L 259.095364 286.122153 
L 255.164381 286.122153 
z
" clip-path="url(#p27cfdc4d0e)" style="fill: #fa8072; opacity: 0.571429"/>
   </g>
   <g id="patch_110">
    <path d="M 311.321277 318.306348 
L 315.25226 318.306348 
L 315.25226 289.71921 
L 311.321277 289.71921 
z
" clip-path="url(#p27cfdc4d0e)" style="fill: #fa8072; opacity: 0.571429"/>
   </g>
   <g id="patch_111">
    <path d="M 367.478173 318.306348 
L 371.409156 318.306348 
L 371.409156 288.393978 
L 367.478173 288.393978 
z
" clip-path="url(#p27cfdc4d0e)" style="fill: #fa8072; opacity: 0.571429"/>
   </g>
   <g id="patch_112">
    <path d="M 423.635069 318.306348 
L 427.566052 318.306348 
L 427.566052 292.054141 
L 423.635069 292.054141 
z
" clip-path="url(#p27cfdc4d0e)" style="fill: #fa8072; opacity: 0.571429"/>
   </g>
   <g id="patch_113">
    <path d="M 479.791965 318.306348 
L 483.722948 318.306348 
L 483.722948 296.913324 
L 479.791965 296.913324 
z
" clip-path="url(#p27cfdc4d0e)" style="fill: #fa8072; opacity: 0.571429"/>
   </g>
   <g id="patch_114">
    <path d="M 535.948862 318.306348 
L 539.879844 318.306348 
L 539.879844 292.369673 
L 535.948862 292.369673 
z
" clip-path="url(#p27cfdc4d0e)" style="fill: #fa8072; opacity: 0.571429"/>
   </g>
   <g id="patch_115">
    <path d="M 592.105758 318.306348 
L 596.03674 318.306348 
L 596.03674 291.23376 
L 592.105758 291.23376 
z
" clip-path="url(#p27cfdc4d0e)" style="fill: #fa8072; opacity: 0.571429"/>
   </g>
   <g id="patch_116">
    <path d="M 648.262654 318.306348 
L 652.193636 318.306348 
L 652.193636 288.393978 
L 648.262654 288.393978 
z
" clip-path="url(#p27cfdc4d0e)" style="fill: #fa8072; opacity: 0.571429"/>
   </g>
   <g id="patch_117">
    <path d="M 704.41955 318.306348 
L 708.350532 318.306348 
L 708.350532 298.995831 
L 704.41955 298.995831 
z
" clip-path="url(#p27cfdc4d0e)" style="fill: #fa8072; opacity: 0.571429"/>
   </g>
   <g id="patch_118">
    <path d="M 760.576446 318.306348 
L 764.507428 318.306348 
L 764.507428 311.553977 
L 760.576446 311.553977 
z
" clip-path="url(#p27cfdc4d0e)" style="fill: #fa8072; opacity: 0.571429"/>
   </g>
   <g id="patch_119">
    <path d="M 816.733342 318.306348 
L 820.664325 318.306348 
L 820.664325 297.134196 
L 816.733342 297.134196 
z
" clip-path="url(#p27cfdc4d0e)" style="fill: #fa8072; opacity: 0.571429"/>
   </g>
   <g id="patch_120">
    <path d="M 146.781572 318.306348 
L 150.712555 318.306348 
L 150.712555 266.117467 
L 146.781572 266.117467 
z
" clip-path="url(#p27cfdc4d0e)" style="fill: #fa8072; opacity: 0.657143"/>
   </g>
   <g id="patch_121">
    <path d="M 202.938468 318.306348 
L 206.869451 318.306348 
L 206.869451 64.145867 
L 202.938468 64.145867 
z
" clip-path="url(#p27cfdc4d0e)" style="fill: #fa8072; opacity: 0.657143"/>
   </g>
   <g id="patch_122">
    <path d="M 259.095364 318.306348 
L 263.026347 318.306348 
L 263.026347 286.122153 
L 259.095364 286.122153 
z
" clip-path="url(#p27cfdc4d0e)" style="fill: #fa8072; opacity: 0.657143"/>
   </g>
   <g id="patch_123">
    <path d="M 315.25226 318.306348 
L 319.183243 318.306348 
L 319.183243 289.529891 
L 315.25226 289.529891 
z
" clip-path="url(#p27cfdc4d0e)" style="fill: #fa8072; opacity: 0.657143"/>
   </g>
   <g id="patch_124">
    <path d="M 371.409156 318.306348 
L 375.340139 318.306348 
L 375.340139 288.898828 
L 371.409156 288.898828 
z
" clip-path="url(#p27cfdc4d0e)" style="fill: #fa8072; opacity: 0.657143"/>
   </g>
   <g id="patch_125">
    <path d="M 427.566052 318.306348 
L 431.497035 318.306348 
L 431.497035 293.631798 
L 427.566052 293.631798 
z
" clip-path="url(#p27cfdc4d0e)" style="fill: #fa8072; opacity: 0.657143"/>
   </g>
   <g id="patch_126">
    <path d="M 483.722948 318.306348 
L 487.653931 318.306348 
L 487.653931 299.058937 
L 483.722948 299.058937 
z
" clip-path="url(#p27cfdc4d0e)" style="fill: #fa8072; opacity: 0.657143"/>
   </g>
   <g id="patch_127">
    <path d="M 539.879844 318.306348 
L 543.810827 318.306348 
L 543.810827 291.864823 
L 539.879844 291.864823 
z
" clip-path="url(#p27cfdc4d0e)" style="fill: #fa8072; opacity: 0.657143"/>
   </g>
   <g id="patch_128">
    <path d="M 596.03674 318.306348 
L 599.967723 318.306348 
L 599.967723 294.641498 
L 596.03674 294.641498 
z
" clip-path="url(#p27cfdc4d0e)" style="fill: #fa8072; opacity: 0.657143"/>
   </g>
   <g id="patch_129">
    <path d="M 652.193636 318.306348 
L 656.124619 318.306348 
L 656.124619 288.646403 
L 652.193636 288.646403 
z
" clip-path="url(#p27cfdc4d0e)" style="fill: #fa8072; opacity: 0.657143"/>
   </g>
   <g id="patch_130">
    <path d="M 708.350532 318.306348 
L 712.281515 318.306348 
L 712.281515 302.024931 
L 708.350532 302.024931 
z
" clip-path="url(#p27cfdc4d0e)" style="fill: #fa8072; opacity: 0.657143"/>
   </g>
   <g id="patch_131">
    <path d="M 764.507428 318.306348 
L 768.438411 318.306348 
L 768.438411 314.2991 
L 764.507428 314.2991 
z
" clip-path="url(#p27cfdc4d0e)" style="fill: #fa8072; opacity: 0.657143"/>
   </g>
   <g id="patch_132">
    <path d="M 820.664325 318.306348 
L 824.595307 318.306348 
L 824.595307 302.81376 
L 820.664325 302.81376 
z
" clip-path="url(#p27cfdc4d0e)" style="fill: #fa8072; opacity: 0.657143"/>
   </g>
   <g id="patch_133">
    <path d="M 150.712555 318.306348 
L 154.643537 318.306348 
L 154.643537 277.224169 
L 150.712555 277.224169 
z
" clip-path="url(#p27cfdc4d0e)" style="fill: #fa8072; opacity: 0.828571"/>
   </g>
   <g id="patch_134">
    <path d="M 206.869451 318.306348 
L 210.800433 318.306348 
L 210.800433 55.153225 
L 206.869451 55.153225 
z
" clip-path="url(#p27cfdc4d0e)" style="fill: #fa8072; opacity: 0.828571"/>
   </g>
   <g id="patch_135">
    <path d="M 263.026347 318.306348 
L 266.957329 318.306348 
L 266.957329 286.122153 
L 263.026347 286.122153 
z
" clip-path="url(#p27cfdc4d0e)" style="fill: #fa8072; opacity: 0.828571"/>
   </g>
   <g id="patch_136">
    <path d="M 319.183243 318.306348 
L 323.114225 318.306348 
L 323.114225 290.22406 
L 319.183243 290.22406 
z
" clip-path="url(#p27cfdc4d0e)" style="fill: #fa8072; opacity: 0.828571"/>
   </g>
   <g id="patch_137">
    <path d="M 375.340139 318.306348 
L 379.271121 318.306348 
L 379.271121 289.529891 
L 375.340139 289.529891 
z
" clip-path="url(#p27cfdc4d0e)" style="fill: #fa8072; opacity: 0.828571"/>
   </g>
   <g id="patch_138">
    <path d="M 431.497035 318.306348 
L 435.428018 318.306348 
L 435.428018 295.840517 
L 431.497035 295.840517 
z
" clip-path="url(#p27cfdc4d0e)" style="fill: #fa8072; opacity: 0.828571"/>
   </g>
   <g id="patch_139">
    <path d="M 487.653931 318.306348 
L 491.584914 318.306348 
L 491.584914 300.573487 
L 487.653931 300.573487 
z
" clip-path="url(#p27cfdc4d0e)" style="fill: #fa8072; opacity: 0.828571"/>
   </g>
   <g id="patch_140">
    <path d="M 543.810827 318.306348 
L 547.74181 318.306348 
L 547.74181 293.758011 
L 543.810827 293.758011 
z
" clip-path="url(#p27cfdc4d0e)" style="fill: #fa8072; opacity: 0.828571"/>
   </g>
   <g id="patch_141">
    <path d="M 599.967723 318.306348 
L 603.898706 318.306348 
L 603.898706 299.058937 
L 599.967723 299.058937 
z
" clip-path="url(#p27cfdc4d0e)" style="fill: #fa8072; opacity: 0.828571"/>
   </g>
   <g id="patch_142">
    <path d="M 656.124619 318.306348 
L 660.055602 318.306348 
L 660.055602 291.296866 
L 656.124619 291.296866 
z
" clip-path="url(#p27cfdc4d0e)" style="fill: #fa8072; opacity: 0.828571"/>
   </g>
   <g id="patch_143">
    <path d="M 712.281515 318.306348 
L 716.212498 318.306348 
L 716.212498 307.672942 
L 712.281515 307.672942 
z
" clip-path="url(#p27cfdc4d0e)" style="fill: #fa8072; opacity: 0.828571"/>
   </g>
   <g id="patch_144">
    <path d="M 768.438411 318.306348 
L 772.369394 318.306348 
L 772.369394 317.675285 
L 768.438411 317.675285 
z
" clip-path="url(#p27cfdc4d0e)" style="fill: #fa8072; opacity: 0.828571"/>
   </g>
   <g id="patch_145">
    <path d="M 824.595307 318.306348 
L 828.52629 318.306348 
L 828.52629 312.752996 
L 824.595307 312.752996 
z
" clip-path="url(#p27cfdc4d0e)" style="fill: #fa8072; opacity: 0.828571"/>
   </g>
   <g id="patch_146">
    <path d="M 154.643537 318.306348 
L 158.57452 318.306348 
L 158.57452 289.309019 
L 154.643537 289.309019 
z
" clip-path="url(#p27cfdc4d0e)" style="fill: #fa8072"/>
   </g>
   <g id="patch_147">
    <path d="M 210.800433 318.306348 
L 214.731416 318.306348 
L 214.731416 33.192245 
L 210.800433 33.192245 
z
" clip-path="url(#p27cfdc4d0e)" style="fill: #fa8072"/>
   </g>
   <g id="patch_148">
    <path d="M 266.957329 318.306348 
L 270.888312 318.306348 
L 270.888312 286.437684 
L 266.957329 286.437684 
z
" clip-path="url(#p27cfdc4d0e)" style="fill: #fa8072"/>
   </g>
   <g id="patch_149">
    <path d="M 323.114225 318.306348 
L 327.045208 318.306348 
L 327.045208 290.855122 
L 323.114225 290.855122 
z
" clip-path="url(#p27cfdc4d0e)" style="fill: #fa8072"/>
   </g>
   <g id="patch_150">
    <path d="M 379.271121 318.306348 
L 383.202104 318.306348 
L 383.202104 290.539591 
L 379.271121 290.539591 
z
" clip-path="url(#p27cfdc4d0e)" style="fill: #fa8072"/>
   </g>
   <g id="patch_151">
    <path d="M 435.428018 318.306348 
L 439.359 318.306348 
L 439.359 298.806512 
L 435.428018 298.806512 
z
" clip-path="url(#p27cfdc4d0e)" style="fill: #fa8072"/>
   </g>
   <g id="patch_152">
    <path d="M 491.584914 318.306348 
L 495.515896 318.306348 
L 495.515896 302.435122 
L 491.584914 302.435122 
z
" clip-path="url(#p27cfdc4d0e)" style="fill: #fa8072"/>
   </g>
   <g id="patch_153">
    <path d="M 547.74181 318.306348 
L 551.672792 318.306348 
L 551.672792 295.903624 
L 547.74181 295.903624 
z
" clip-path="url(#p27cfdc4d0e)" style="fill: #fa8072"/>
   </g>
   <g id="patch_154">
    <path d="M 603.898706 318.306348 
L 607.829688 318.306348 
L 607.829688 302.024931 
L 603.898706 302.024931 
z
" clip-path="url(#p27cfdc4d0e)" style="fill: #fa8072"/>
   </g>
   <g id="patch_155">
    <path d="M 660.055602 318.306348 
L 663.986585 318.306348 
L 663.986585 293.821117 
L 660.055602 293.821117 
z
" clip-path="url(#p27cfdc4d0e)" style="fill: #fa8072"/>
   </g>
   <g id="patch_156">
    <path d="M 716.212498 318.306348 
L 720.143481 318.306348 
L 720.143481 311.648637 
L 716.212498 311.648637 
z
" clip-path="url(#p27cfdc4d0e)" style="fill: #fa8072"/>
   </g>
   <g id="patch_157">
    <path d="M 772.369394 318.306348 
L 776.300377 318.306348 
L 776.300377 318.180135 
L 772.369394 318.180135 
z
" clip-path="url(#p27cfdc4d0e)" style="fill: #fa8072"/>
   </g>
   <g id="patch_158">
    <path d="M 828.52629 318.306348 
L 832.457273 318.306348 
L 832.457273 318.306348 
L 828.52629 318.306348 
z
" clip-path="url(#p27cfdc4d0e)" style="fill: #fa8072"/>
   </g>
   <g id="matplotlib.axis_1">
    <g id="xtick_1">
     <g id="line2d_1">
      <defs>
       <path id="m5d76d4e555" d="M 0 0 
L 0 3.5 
" style="stroke: #000000; stroke-width: 0.8"/>
      </defs>
      <g>
       <use xlink:href="#m5d76d4e555" x="134.988624" y="318.306348" style="stroke: #000000; stroke-width: 0.8"/>
      </g>
     </g>
     <g id="text_1">
      <!-- DTree -->
      <g transform="translate(100.363372 366.175352) rotate(-45) scale(0.16 -0.16)">
       <defs>
        <path id="DejaVuSans-44" d="M 1259 4147 
L 1259 519 
L 2022 519 
Q 2988 519 3436 956 
Q 3884 1394 3884 2338 
Q 3884 3275 3436 3711 
Q 2988 4147 2022 4147 
L 1259 4147 
z
M 628 4666 
L 1925 4666 
Q 3281 4666 3915 4102 
Q 4550 3538 4550 2338 
Q 4550 1131 3912 565 
Q 3275 0 1925 0 
L 628 0 
L 628 4666 
z
" transform="scale(0.015625)"/>
        <path id="DejaVuSans-54" d="M -19 4666 
L 3928 4666 
L 3928 4134 
L 2272 4134 
L 2272 0 
L 1638 0 
L 1638 4134 
L -19 4134 
L -19 4666 
z
" transform="scale(0.015625)"/>
        <path id="DejaVuSans-72" d="M 2631 2963 
Q 2534 3019 2420 3045 
Q 2306 3072 2169 3072 
Q 1681 3072 1420 2755 
Q 1159 2438 1159 1844 
L 1159 0 
L 581 0 
L 581 3500 
L 1159 3500 
L 1159 2956 
Q 1341 3275 1631 3429 
Q 1922 3584 2338 3584 
Q 2397 3584 2469 3576 
Q 2541 3569 2628 3553 
L 2631 2963 
z
" transform="scale(0.015625)"/>
        <path id="DejaVuSans-65" d="M 3597 1894 
L 3597 1613 
L 953 1613 
Q 991 1019 1311 708 
Q 1631 397 2203 397 
Q 2534 397 2845 478 
Q 3156 559 3463 722 
L 3463 178 
Q 3153 47 2828 -22 
Q 2503 -91 2169 -91 
Q 1331 -91 842 396 
Q 353 884 353 1716 
Q 353 2575 817 3079 
Q 1281 3584 2069 3584 
Q 2775 3584 3186 3129 
Q 3597 2675 3597 1894 
z
M 3022 2063 
Q 3016 2534 2758 2815 
Q 2500 3097 2075 3097 
Q 1594 3097 1305 2825 
Q 1016 2553 972 2059 
L 3022 2063 
z
" transform="scale(0.015625)"/>
       </defs>
       <use xlink:href="#DejaVuSans-44"/>
       <use xlink:href="#DejaVuSans-54" transform="translate(77.001953 0)"/>
       <use xlink:href="#DejaVuSans-72" transform="translate(123.335938 0)"/>
       <use xlink:href="#DejaVuSans-65" transform="translate(162.199219 0)"/>
       <use xlink:href="#DejaVuSans-65" transform="translate(223.722656 0)"/>
      </g>
     </g>
    </g>
    <g id="xtick_2">
     <g id="line2d_2">
      <g>
       <use xlink:href="#m5d76d4e555" x="191.14552" y="318.306348" style="stroke: #000000; stroke-width: 0.8"/>
      </g>
     </g>
     <g id="text_2">
      <!-- barshift_128b -->
      <g transform="translate(110.850009 411.530948) rotate(-45) scale(0.16 -0.16)">
       <defs>
        <path id="DejaVuSans-62" d="M 3116 1747 
Q 3116 2381 2855 2742 
Q 2594 3103 2138 3103 
Q 1681 3103 1420 2742 
Q 1159 2381 1159 1747 
Q 1159 1113 1420 752 
Q 1681 391 2138 391 
Q 2594 391 2855 752 
Q 3116 1113 3116 1747 
z
M 1159 2969 
Q 1341 3281 1617 3432 
Q 1894 3584 2278 3584 
Q 2916 3584 3314 3078 
Q 3713 2572 3713 1747 
Q 3713 922 3314 415 
Q 2916 -91 2278 -91 
Q 1894 -91 1617 61 
Q 1341 213 1159 525 
L 1159 0 
L 581 0 
L 581 4863 
L 1159 4863 
L 1159 2969 
z
" transform="scale(0.015625)"/>
        <path id="DejaVuSans-61" d="M 2194 1759 
Q 1497 1759 1228 1600 
Q 959 1441 959 1056 
Q 959 750 1161 570 
Q 1363 391 1709 391 
Q 2188 391 2477 730 
Q 2766 1069 2766 1631 
L 2766 1759 
L 2194 1759 
z
M 3341 1997 
L 3341 0 
L 2766 0 
L 2766 531 
Q 2569 213 2275 61 
Q 1981 -91 1556 -91 
Q 1019 -91 701 211 
Q 384 513 384 1019 
Q 384 1609 779 1909 
Q 1175 2209 1959 2209 
L 2766 2209 
L 2766 2266 
Q 2766 2663 2505 2880 
Q 2244 3097 1772 3097 
Q 1472 3097 1187 3025 
Q 903 2953 641 2809 
L 641 3341 
Q 956 3463 1253 3523 
Q 1550 3584 1831 3584 
Q 2591 3584 2966 3190 
Q 3341 2797 3341 1997 
z
" transform="scale(0.015625)"/>
        <path id="DejaVuSans-73" d="M 2834 3397 
L 2834 2853 
Q 2591 2978 2328 3040 
Q 2066 3103 1784 3103 
Q 1356 3103 1142 2972 
Q 928 2841 928 2578 
Q 928 2378 1081 2264 
Q 1234 2150 1697 2047 
L 1894 2003 
Q 2506 1872 2764 1633 
Q 3022 1394 3022 966 
Q 3022 478 2636 193 
Q 2250 -91 1575 -91 
Q 1294 -91 989 -36 
Q 684 19 347 128 
L 347 722 
Q 666 556 975 473 
Q 1284 391 1588 391 
Q 1994 391 2212 530 
Q 2431 669 2431 922 
Q 2431 1156 2273 1281 
Q 2116 1406 1581 1522 
L 1381 1569 
Q 847 1681 609 1914 
Q 372 2147 372 2553 
Q 372 3047 722 3315 
Q 1072 3584 1716 3584 
Q 2034 3584 2315 3537 
Q 2597 3491 2834 3397 
z
" transform="scale(0.015625)"/>
        <path id="DejaVuSans-68" d="M 3513 2113 
L 3513 0 
L 2938 0 
L 2938 2094 
Q 2938 2591 2744 2837 
Q 2550 3084 2163 3084 
Q 1697 3084 1428 2787 
Q 1159 2491 1159 1978 
L 1159 0 
L 581 0 
L 581 4863 
L 1159 4863 
L 1159 2956 
Q 1366 3272 1645 3428 
Q 1925 3584 2291 3584 
Q 2894 3584 3203 3211 
Q 3513 2838 3513 2113 
z
" transform="scale(0.015625)"/>
        <path id="DejaVuSans-69" d="M 603 3500 
L 1178 3500 
L 1178 0 
L 603 0 
L 603 3500 
z
M 603 4863 
L 1178 4863 
L 1178 4134 
L 603 4134 
L 603 4863 
z
" transform="scale(0.015625)"/>
        <path id="DejaVuSans-66" d="M 2375 4863 
L 2375 4384 
L 1825 4384 
Q 1516 4384 1395 4259 
Q 1275 4134 1275 3809 
L 1275 3500 
L 2222 3500 
L 2222 3053 
L 1275 3053 
L 1275 0 
L 697 0 
L 697 3053 
L 147 3053 
L 147 3500 
L 697 3500 
L 697 3744 
Q 697 4328 969 4595 
Q 1241 4863 1831 4863 
L 2375 4863 
z
" transform="scale(0.015625)"/>
        <path id="DejaVuSans-74" d="M 1172 4494 
L 1172 3500 
L 2356 3500 
L 2356 3053 
L 1172 3053 
L 1172 1153 
Q 1172 725 1289 603 
Q 1406 481 1766 481 
L 2356 481 
L 2356 0 
L 1766 0 
Q 1100 0 847 248 
Q 594 497 594 1153 
L 594 3053 
L 172 3053 
L 172 3500 
L 594 3500 
L 594 4494 
L 1172 4494 
z
" transform="scale(0.015625)"/>
        <path id="DejaVuSans-5f" d="M 3263 -1063 
L 3263 -1509 
L -63 -1509 
L -63 -1063 
L 3263 -1063 
z
" transform="scale(0.015625)"/>
        <path id="DejaVuSans-31" d="M 794 531 
L 1825 531 
L 1825 4091 
L 703 3866 
L 703 4441 
L 1819 4666 
L 2450 4666 
L 2450 531 
L 3481 531 
L 3481 0 
L 794 0 
L 794 531 
z
" transform="scale(0.015625)"/>
        <path id="DejaVuSans-32" d="M 1228 531 
L 3431 531 
L 3431 0 
L 469 0 
L 469 531 
Q 828 903 1448 1529 
Q 2069 2156 2228 2338 
Q 2531 2678 2651 2914 
Q 2772 3150 2772 3378 
Q 2772 3750 2511 3984 
Q 2250 4219 1831 4219 
Q 1534 4219 1204 4116 
Q 875 4013 500 3803 
L 500 4441 
Q 881 4594 1212 4672 
Q 1544 4750 1819 4750 
Q 2544 4750 2975 4387 
Q 3406 4025 3406 3419 
Q 3406 3131 3298 2873 
Q 3191 2616 2906 2266 
Q 2828 2175 2409 1742 
Q 1991 1309 1228 531 
z
" transform="scale(0.015625)"/>
        <path id="DejaVuSans-38" d="M 2034 2216 
Q 1584 2216 1326 1975 
Q 1069 1734 1069 1313 
Q 1069 891 1326 650 
Q 1584 409 2034 409 
Q 2484 409 2743 651 
Q 3003 894 3003 1313 
Q 3003 1734 2745 1975 
Q 2488 2216 2034 2216 
z
M 1403 2484 
Q 997 2584 770 2862 
Q 544 3141 544 3541 
Q 544 4100 942 4425 
Q 1341 4750 2034 4750 
Q 2731 4750 3128 4425 
Q 3525 4100 3525 3541 
Q 3525 3141 3298 2862 
Q 3072 2584 2669 2484 
Q 3125 2378 3379 2068 
Q 3634 1759 3634 1313 
Q 3634 634 3220 271 
Q 2806 -91 2034 -91 
Q 1263 -91 848 271 
Q 434 634 434 1313 
Q 434 1759 690 2068 
Q 947 2378 1403 2484 
z
M 1172 3481 
Q 1172 3119 1398 2916 
Q 1625 2713 2034 2713 
Q 2441 2713 2670 2916 
Q 2900 3119 2900 3481 
Q 2900 3844 2670 4047 
Q 2441 4250 2034 4250 
Q 1625 4250 1398 4047 
Q 1172 3844 1172 3481 
z
" transform="scale(0.015625)"/>
       </defs>
       <use xlink:href="#DejaVuSans-62"/>
       <use xlink:href="#DejaVuSans-61" transform="translate(63.476562 0)"/>
       <use xlink:href="#DejaVuSans-72" transform="translate(124.755859 0)"/>
       <use xlink:href="#DejaVuSans-73" transform="translate(165.869141 0)"/>
       <use xlink:href="#DejaVuSans-68" transform="translate(217.96875 0)"/>
       <use xlink:href="#DejaVuSans-69" transform="translate(281.347656 0)"/>
       <use xlink:href="#DejaVuSans-66" transform="translate(309.130859 0)"/>
       <use xlink:href="#DejaVuSans-74" transform="translate(342.585938 0)"/>
       <use xlink:href="#DejaVuSans-5f" transform="translate(381.794922 0)"/>
       <use xlink:href="#DejaVuSans-31" transform="translate(431.794922 0)"/>
       <use xlink:href="#DejaVuSans-32" transform="translate(495.417969 0)"/>
       <use xlink:href="#DejaVuSans-38" transform="translate(559.041016 0)"/>
       <use xlink:href="#DejaVuSans-62" transform="translate(622.664062 0)"/>
      </g>
     </g>
    </g>
    <g id="xtick_3">
     <g id="line2d_3">
      <g>
       <use xlink:href="#m5d76d4e555" x="247.302416" y="318.306348" style="stroke: #000000; stroke-width: 0.8"/>
      </g>
     </g>
     <g id="text_3">
      <!-- sobel -->
      <g transform="translate(214.846214 364.006302) rotate(-45) scale(0.16 -0.16)">
       <defs>
        <path id="DejaVuSans-6f" d="M 1959 3097 
Q 1497 3097 1228 2736 
Q 959 2375 959 1747 
Q 959 1119 1226 758 
Q 1494 397 1959 397 
Q 2419 397 2687 759 
Q 2956 1122 2956 1747 
Q 2956 2369 2687 2733 
Q 2419 3097 1959 3097 
z
M 1959 3584 
Q 2709 3584 3137 3096 
Q 3566 2609 3566 1747 
Q 3566 888 3137 398 
Q 2709 -91 1959 -91 
Q 1206 -91 779 398 
Q 353 888 353 1747 
Q 353 2609 779 3096 
Q 1206 3584 1959 3584 
z
" transform="scale(0.015625)"/>
        <path id="DejaVuSans-6c" d="M 603 4863 
L 1178 4863 
L 1178 0 
L 603 0 
L 603 4863 
z
" transform="scale(0.015625)"/>
       </defs>
       <use xlink:href="#DejaVuSans-73"/>
       <use xlink:href="#DejaVuSans-6f" transform="translate(52.099609 0)"/>
       <use xlink:href="#DejaVuSans-62" transform="translate(113.28125 0)"/>
       <use xlink:href="#DejaVuSans-65" transform="translate(176.757812 0)"/>
       <use xlink:href="#DejaVuSans-6c" transform="translate(238.28125 0)"/>
      </g>
     </g>
    </g>
    <g id="xtick_4">
     <g id="line2d_4">
      <g>
       <use xlink:href="#m5d76d4e555" x="303.459312" y="318.306348" style="stroke: #000000; stroke-width: 0.8"/>
      </g>
     </g>
     <g id="text_4">
      <!-- BK_32b -->
      <g transform="translate(258.374183 376.320566) rotate(-45) scale(0.16 -0.16)">
       <defs>
        <path id="DejaVuSans-42" d="M 1259 2228 
L 1259 519 
L 2272 519 
Q 2781 519 3026 730 
Q 3272 941 3272 1375 
Q 3272 1813 3026 2020 
Q 2781 2228 2272 2228 
L 1259 2228 
z
M 1259 4147 
L 1259 2741 
L 2194 2741 
Q 2656 2741 2882 2914 
Q 3109 3088 3109 3444 
Q 3109 3797 2882 3972 
Q 2656 4147 2194 4147 
L 1259 4147 
z
M 628 4666 
L 2241 4666 
Q 2963 4666 3353 4366 
Q 3744 4066 3744 3513 
Q 3744 3084 3544 2831 
Q 3344 2578 2956 2516 
Q 3422 2416 3680 2098 
Q 3938 1781 3938 1306 
Q 3938 681 3513 340 
Q 3088 0 2303 0 
L 628 0 
L 628 4666 
z
" transform="scale(0.015625)"/>
        <path id="DejaVuSans-4b" d="M 628 4666 
L 1259 4666 
L 1259 2694 
L 3353 4666 
L 4166 4666 
L 1850 2491 
L 4331 0 
L 3500 0 
L 1259 2247 
L 1259 0 
L 628 0 
L 628 4666 
z
" transform="scale(0.015625)"/>
        <path id="DejaVuSans-33" d="M 2597 2516 
Q 3050 2419 3304 2112 
Q 3559 1806 3559 1356 
Q 3559 666 3084 287 
Q 2609 -91 1734 -91 
Q 1441 -91 1130 -33 
Q 819 25 488 141 
L 488 750 
Q 750 597 1062 519 
Q 1375 441 1716 441 
Q 2309 441 2620 675 
Q 2931 909 2931 1356 
Q 2931 1769 2642 2001 
Q 2353 2234 1838 2234 
L 1294 2234 
L 1294 2753 
L 1863 2753 
Q 2328 2753 2575 2939 
Q 2822 3125 2822 3475 
Q 2822 3834 2567 4026 
Q 2313 4219 1838 4219 
Q 1578 4219 1281 4162 
Q 984 4106 628 3988 
L 628 4550 
Q 988 4650 1302 4700 
Q 1616 4750 1894 4750 
Q 2613 4750 3031 4423 
Q 3450 4097 3450 3541 
Q 3450 3153 3228 2886 
Q 3006 2619 2597 2516 
z
" transform="scale(0.015625)"/>
       </defs>
       <use xlink:href="#DejaVuSans-42"/>
       <use xlink:href="#DejaVuSans-4b" transform="translate(68.603516 0)"/>
       <use xlink:href="#DejaVuSans-5f" transform="translate(134.179688 0)"/>
       <use xlink:href="#DejaVuSans-33" transform="translate(184.179688 0)"/>
       <use xlink:href="#DejaVuSans-32" transform="translate(247.802734 0)"/>
       <use xlink:href="#DejaVuSans-62" transform="translate(311.425781 0)"/>
      </g>
     </g>
    </g>
    <g id="xtick_5">
     <g id="line2d_5">
      <g>
       <use xlink:href="#m5d76d4e555" x="359.616208" y="318.306348" style="stroke: #000000; stroke-width: 0.8"/>
      </g>
     </g>
     <g id="text_5">
      <!-- KS_32b -->
      <g transform="translate(315.110907 375.740739) rotate(-45) scale(0.16 -0.16)">
       <defs>
        <path id="DejaVuSans-53" d="M 3425 4513 
L 3425 3897 
Q 3066 4069 2747 4153 
Q 2428 4238 2131 4238 
Q 1616 4238 1336 4038 
Q 1056 3838 1056 3469 
Q 1056 3159 1242 3001 
Q 1428 2844 1947 2747 
L 2328 2669 
Q 3034 2534 3370 2195 
Q 3706 1856 3706 1288 
Q 3706 609 3251 259 
Q 2797 -91 1919 -91 
Q 1588 -91 1214 -16 
Q 841 59 441 206 
L 441 856 
Q 825 641 1194 531 
Q 1563 422 1919 422 
Q 2459 422 2753 634 
Q 3047 847 3047 1241 
Q 3047 1584 2836 1778 
Q 2625 1972 2144 2069 
L 1759 2144 
Q 1053 2284 737 2584 
Q 422 2884 422 3419 
Q 422 4038 858 4394 
Q 1294 4750 2059 4750 
Q 2388 4750 2728 4690 
Q 3069 4631 3425 4513 
z
" transform="scale(0.015625)"/>
       </defs>
       <use xlink:href="#DejaVuSans-4b"/>
       <use xlink:href="#DejaVuSans-53" transform="translate(65.576172 0)"/>
       <use xlink:href="#DejaVuSans-5f" transform="translate(129.052734 0)"/>
       <use xlink:href="#DejaVuSans-33" transform="translate(179.052734 0)"/>
       <use xlink:href="#DejaVuSans-32" transform="translate(242.675781 0)"/>
       <use xlink:href="#DejaVuSans-62" transform="translate(306.298828 0)"/>
      </g>
     </g>
    </g>
    <g id="xtick_6">
     <g id="line2d_6">
      <g>
       <use xlink:href="#m5d76d4e555" x="415.773104" y="318.306348" style="stroke: #000000; stroke-width: 0.8"/>
      </g>
     </g>
     <g id="text_6">
      <!-- CLA_16b -->
      <g transform="translate(363.671709 383.336833) rotate(-45) scale(0.16 -0.16)">
       <defs>
        <path id="DejaVuSans-43" d="M 4122 4306 
L 4122 3641 
Q 3803 3938 3442 4084 
Q 3081 4231 2675 4231 
Q 1875 4231 1450 3742 
Q 1025 3253 1025 2328 
Q 1025 1406 1450 917 
Q 1875 428 2675 428 
Q 3081 428 3442 575 
Q 3803 722 4122 1019 
L 4122 359 
Q 3791 134 3420 21 
Q 3050 -91 2638 -91 
Q 1578 -91 968 557 
Q 359 1206 359 2328 
Q 359 3453 968 4101 
Q 1578 4750 2638 4750 
Q 3056 4750 3426 4639 
Q 3797 4528 4122 4306 
z
" transform="scale(0.015625)"/>
        <path id="DejaVuSans-4c" d="M 628 4666 
L 1259 4666 
L 1259 531 
L 3531 531 
L 3531 0 
L 628 0 
L 628 4666 
z
" transform="scale(0.015625)"/>
        <path id="DejaVuSans-41" d="M 2188 4044 
L 1331 1722 
L 3047 1722 
L 2188 4044 
z
M 1831 4666 
L 2547 4666 
L 4325 0 
L 3669 0 
L 3244 1197 
L 1141 1197 
L 716 0 
L 50 0 
L 1831 4666 
z
" transform="scale(0.015625)"/>
        <path id="DejaVuSans-36" d="M 2113 2584 
Q 1688 2584 1439 2293 
Q 1191 2003 1191 1497 
Q 1191 994 1439 701 
Q 1688 409 2113 409 
Q 2538 409 2786 701 
Q 3034 994 3034 1497 
Q 3034 2003 2786 2293 
Q 2538 2584 2113 2584 
z
M 3366 4563 
L 3366 3988 
Q 3128 4100 2886 4159 
Q 2644 4219 2406 4219 
Q 1781 4219 1451 3797 
Q 1122 3375 1075 2522 
Q 1259 2794 1537 2939 
Q 1816 3084 2150 3084 
Q 2853 3084 3261 2657 
Q 3669 2231 3669 1497 
Q 3669 778 3244 343 
Q 2819 -91 2113 -91 
Q 1303 -91 875 529 
Q 447 1150 447 2328 
Q 447 3434 972 4092 
Q 1497 4750 2381 4750 
Q 2619 4750 2861 4703 
Q 3103 4656 3366 4563 
z
" transform="scale(0.015625)"/>
       </defs>
       <use xlink:href="#DejaVuSans-43"/>
       <use xlink:href="#DejaVuSans-4c" transform="translate(69.824219 0)"/>
       <use xlink:href="#DejaVuSans-41" transform="translate(127.787109 0)"/>
       <use xlink:href="#DejaVuSans-5f" transform="translate(196.195312 0)"/>
       <use xlink:href="#DejaVuSans-31" transform="translate(246.195312 0)"/>
       <use xlink:href="#DejaVuSans-36" transform="translate(309.818359 0)"/>
       <use xlink:href="#DejaVuSans-62" transform="translate(373.441406 0)"/>
      </g>
     </g>
    </g>
    <g id="xtick_7">
     <g id="line2d_7">
      <g>
       <use xlink:href="#m5d76d4e555" x="471.93" y="318.306348" style="stroke: #000000; stroke-width: 0.8"/>
      </g>
     </g>
     <g id="text_7">
      <!-- BK_16b -->
      <g transform="translate(426.844872 376.320566) rotate(-45) scale(0.16 -0.16)">
       <use xlink:href="#DejaVuSans-42"/>
       <use xlink:href="#DejaVuSans-4b" transform="translate(68.603516 0)"/>
       <use xlink:href="#DejaVuSans-5f" transform="translate(134.179688 0)"/>
       <use xlink:href="#DejaVuSans-31" transform="translate(184.179688 0)"/>
       <use xlink:href="#DejaVuSans-36" transform="translate(247.802734 0)"/>
       <use xlink:href="#DejaVuSans-62" transform="translate(311.425781 0)"/>
      </g>
     </g>
    </g>
    <g id="xtick_8">
     <g id="line2d_8">
      <g>
       <use xlink:href="#m5d76d4e555" x="528.086896" y="318.306348" style="stroke: #000000; stroke-width: 0.8"/>
      </g>
     </g>
     <g id="text_8">
      <!-- CSkipA_16b -->
      <g transform="translate(458.484608 400.837726) rotate(-45) scale(0.16 -0.16)">
       <defs>
        <path id="DejaVuSans-6b" d="M 581 4863 
L 1159 4863 
L 1159 1991 
L 2875 3500 
L 3609 3500 
L 1753 1863 
L 3688 0 
L 2938 0 
L 1159 1709 
L 1159 0 
L 581 0 
L 581 4863 
z
" transform="scale(0.015625)"/>
        <path id="DejaVuSans-70" d="M 1159 525 
L 1159 -1331 
L 581 -1331 
L 581 3500 
L 1159 3500 
L 1159 2969 
Q 1341 3281 1617 3432 
Q 1894 3584 2278 3584 
Q 2916 3584 3314 3078 
Q 3713 2572 3713 1747 
Q 3713 922 3314 415 
Q 2916 -91 2278 -91 
Q 1894 -91 1617 61 
Q 1341 213 1159 525 
z
M 3116 1747 
Q 3116 2381 2855 2742 
Q 2594 3103 2138 3103 
Q 1681 3103 1420 2742 
Q 1159 2381 1159 1747 
Q 1159 1113 1420 752 
Q 1681 391 2138 391 
Q 2594 391 2855 752 
Q 3116 1113 3116 1747 
z
" transform="scale(0.015625)"/>
       </defs>
       <use xlink:href="#DejaVuSans-43"/>
       <use xlink:href="#DejaVuSans-53" transform="translate(69.824219 0)"/>
       <use xlink:href="#DejaVuSans-6b" transform="translate(133.300781 0)"/>
       <use xlink:href="#DejaVuSans-69" transform="translate(191.210938 0)"/>
       <use xlink:href="#DejaVuSans-70" transform="translate(218.994141 0)"/>
       <use xlink:href="#DejaVuSans-41" transform="translate(282.470703 0)"/>
       <use xlink:href="#DejaVuSans-5f" transform="translate(350.878906 0)"/>
       <use xlink:href="#DejaVuSans-31" transform="translate(400.878906 0)"/>
       <use xlink:href="#DejaVuSans-36" transform="translate(464.501953 0)"/>
       <use xlink:href="#DejaVuSans-62" transform="translate(528.125 0)"/>
      </g>
     </g>
    </g>
    <g id="xtick_9">
     <g id="line2d_9">
      <g>
       <use xlink:href="#m5d76d4e555" x="584.243792" y="318.306348" style="stroke: #000000; stroke-width: 0.8"/>
      </g>
     </g>
     <g id="text_9">
      <!-- KS_16b -->
      <g transform="translate(539.738491 375.740739) rotate(-45) scale(0.16 -0.16)">
       <use xlink:href="#DejaVuSans-4b"/>
       <use xlink:href="#DejaVuSans-53" transform="translate(65.576172 0)"/>
       <use xlink:href="#DejaVuSans-5f" transform="translate(129.052734 0)"/>
       <use xlink:href="#DejaVuSans-31" transform="translate(179.052734 0)"/>
       <use xlink:href="#DejaVuSans-36" transform="translate(242.675781 0)"/>
       <use xlink:href="#DejaVuSans-62" transform="translate(306.298828 0)"/>
      </g>
     </g>
    </g>
    <g id="xtick_10">
     <g id="line2d_10">
      <g>
       <use xlink:href="#m5d76d4e555" x="640.400688" y="318.306348" style="stroke: #000000; stroke-width: 0.8"/>
      </g>
     </g>
     <g id="text_10">
      <!-- LFA_16b -->
      <g transform="translate(590.979227 380.656899) rotate(-45) scale(0.16 -0.16)">
       <defs>
        <path id="DejaVuSans-46" d="M 628 4666 
L 3309 4666 
L 3309 4134 
L 1259 4134 
L 1259 2759 
L 3109 2759 
L 3109 2228 
L 1259 2228 
L 1259 0 
L 628 0 
L 628 4666 
z
" transform="scale(0.015625)"/>
       </defs>
       <use xlink:href="#DejaVuSans-4c"/>
       <use xlink:href="#DejaVuSans-46" transform="translate(55.712891 0)"/>
       <use xlink:href="#DejaVuSans-41" transform="translate(104.107422 0)"/>
       <use xlink:href="#DejaVuSans-5f" transform="translate(172.515625 0)"/>
       <use xlink:href="#DejaVuSans-31" transform="translate(222.515625 0)"/>
       <use xlink:href="#DejaVuSans-36" transform="translate(286.138672 0)"/>
       <use xlink:href="#DejaVuSans-62" transform="translate(349.761719 0)"/>
      </g>
     </g>
    </g>
    <g id="xtick_11">
     <g id="line2d_11">
      <g>
       <use xlink:href="#m5d76d4e555" x="696.557584" y="318.306348" style="stroke: #000000; stroke-width: 0.8"/>
      </g>
     </g>
     <g id="text_11">
      <!-- WT_8b -->
      <g transform="translate(655.755755 372.037267) rotate(-45) scale(0.16 -0.16)">
       <defs>
        <path id="DejaVuSans-57" d="M 213 4666 
L 850 4666 
L 1831 722 
L 2809 4666 
L 3519 4666 
L 4500 722 
L 5478 4666 
L 6119 4666 
L 4947 0 
L 4153 0 
L 3169 4050 
L 2175 0 
L 1381 0 
L 213 4666 
z
" transform="scale(0.015625)"/>
       </defs>
       <use xlink:href="#DejaVuSans-57"/>
       <use xlink:href="#DejaVuSans-54" transform="translate(98.876953 0)"/>
       <use xlink:href="#DejaVuSans-5f" transform="translate(159.960938 0)"/>
       <use xlink:href="#DejaVuSans-38" transform="translate(209.960938 0)"/>
       <use xlink:href="#DejaVuSans-62" transform="translate(273.583984 0)"/>
      </g>
     </g>
    </g>
    <g id="xtick_12">
     <g id="line2d_12">
      <g>
       <use xlink:href="#m5d76d4e555" x="752.71448" y="318.306348" style="stroke: #000000; stroke-width: 0.8"/>
      </g>
     </g>
     <g id="text_12">
      <!-- int2float -->
      <g transform="translate(702.997803 381.266778) rotate(-45) scale(0.16 -0.16)">
       <defs>
        <path id="DejaVuSans-6e" d="M 3513 2113 
L 3513 0 
L 2938 0 
L 2938 2094 
Q 2938 2591 2744 2837 
Q 2550 3084 2163 3084 
Q 1697 3084 1428 2787 
Q 1159 2491 1159 1978 
L 1159 0 
L 581 0 
L 581 3500 
L 1159 3500 
L 1159 2956 
Q 1366 3272 1645 3428 
Q 1925 3584 2291 3584 
Q 2894 3584 3203 3211 
Q 3513 2838 3513 2113 
z
" transform="scale(0.015625)"/>
       </defs>
       <use xlink:href="#DejaVuSans-69"/>
       <use xlink:href="#DejaVuSans-6e" transform="translate(27.783203 0)"/>
       <use xlink:href="#DejaVuSans-74" transform="translate(91.162109 0)"/>
       <use xlink:href="#DejaVuSans-32" transform="translate(130.371094 0)"/>
       <use xlink:href="#DejaVuSans-66" transform="translate(193.994141 0)"/>
       <use xlink:href="#DejaVuSans-6c" transform="translate(229.199219 0)"/>
       <use xlink:href="#DejaVuSans-6f" transform="translate(256.982422 0)"/>
       <use xlink:href="#DejaVuSans-61" transform="translate(318.164062 0)"/>
       <use xlink:href="#DejaVuSans-74" transform="translate(379.443359 0)"/>
      </g>
     </g>
    </g>
    <g id="xtick_13">
     <g id="line2d_13">
      <g>
       <use xlink:href="#m5d76d4e555" x="808.871376" y="318.306348" style="stroke: #000000; stroke-width: 0.8"/>
      </g>
     </g>
     <g id="text_13">
      <!-- RCA_4b -->
      <g transform="translate(763.231169 376.875645) rotate(-45) scale(0.16 -0.16)">
       <defs>
        <path id="DejaVuSans-52" d="M 2841 2188 
Q 3044 2119 3236 1894 
Q 3428 1669 3622 1275 
L 4263 0 
L 3584 0 
L 2988 1197 
Q 2756 1666 2539 1819 
Q 2322 1972 1947 1972 
L 1259 1972 
L 1259 0 
L 628 0 
L 628 4666 
L 2053 4666 
Q 2853 4666 3247 4331 
Q 3641 3997 3641 3322 
Q 3641 2881 3436 2590 
Q 3231 2300 2841 2188 
z
M 1259 4147 
L 1259 2491 
L 2053 2491 
Q 2509 2491 2742 2702 
Q 2975 2913 2975 3322 
Q 2975 3731 2742 3939 
Q 2509 4147 2053 4147 
L 1259 4147 
z
" transform="scale(0.015625)"/>
        <path id="DejaVuSans-34" d="M 2419 4116 
L 825 1625 
L 2419 1625 
L 2419 4116 
z
M 2253 4666 
L 3047 4666 
L 3047 1625 
L 3713 1625 
L 3713 1100 
L 3047 1100 
L 3047 0 
L 2419 0 
L 2419 1100 
L 313 1100 
L 313 1709 
L 2253 4666 
z
" transform="scale(0.015625)"/>
       </defs>
       <use xlink:href="#DejaVuSans-52"/>
       <use xlink:href="#DejaVuSans-43" transform="translate(64.482422 0)"/>
       <use xlink:href="#DejaVuSans-41" transform="translate(134.306641 0)"/>
       <use xlink:href="#DejaVuSans-5f" transform="translate(202.714844 0)"/>
       <use xlink:href="#DejaVuSans-34" transform="translate(252.714844 0)"/>
       <use xlink:href="#DejaVuSans-62" transform="translate(316.337891 0)"/>
      </g>
     </g>
    </g>
   </g>
   <g id="matplotlib.axis_2">
    <g id="ytick_1">
     <g id="line2d_14">
      <path d="M 75.35 318.306348 
L 868.51 318.306348 
" clip-path="url(#p27cfdc4d0e)" style="fill: none; stroke-dasharray: 2.96,1.28; stroke-dashoffset: 0; stroke: #b0b0b0; stroke-opacity: 0.5; stroke-width: 0.8"/>
     </g>
     <g id="line2d_15">
      <defs>
       <path id="m19353b125b" d="M 0 0 
L -3.5 0 
" style="stroke: #000000; stroke-width: 0.8"/>
      </defs>
      <g>
       <use xlink:href="#m19353b125b" x="75.35" y="318.306348" style="stroke: #000000; stroke-width: 0.8"/>
      </g>
     </g>
     <g id="text_14">
      <!-- 0 -->
      <g transform="translate(58.17 324.385098) scale(0.16 -0.16)">
       <defs>
        <path id="DejaVuSans-30" d="M 2034 4250 
Q 1547 4250 1301 3770 
Q 1056 3291 1056 2328 
Q 1056 1369 1301 889 
Q 1547 409 2034 409 
Q 2525 409 2770 889 
Q 3016 1369 3016 2328 
Q 3016 3291 2770 3770 
Q 2525 4250 2034 4250 
z
M 2034 4750 
Q 2819 4750 3233 4129 
Q 3647 3509 3647 2328 
Q 3647 1150 3233 529 
Q 2819 -91 2034 -91 
Q 1250 -91 836 529 
Q 422 1150 422 2328 
Q 422 3509 836 4129 
Q 1250 4750 2034 4750 
z
" transform="scale(0.015625)"/>
       </defs>
       <use xlink:href="#DejaVuSans-30"/>
      </g>
     </g>
    </g>
    <g id="ytick_2">
     <g id="line2d_16">
      <path d="M 75.35 255.200083 
L 868.51 255.200083 
" clip-path="url(#p27cfdc4d0e)" style="fill: none; stroke-dasharray: 2.96,1.28; stroke-dashoffset: 0; stroke: #b0b0b0; stroke-opacity: 0.5; stroke-width: 0.8"/>
     </g>
     <g id="line2d_17">
      <g>
       <use xlink:href="#m19353b125b" x="75.35" y="255.200083" style="stroke: #000000; stroke-width: 0.8"/>
      </g>
     </g>
     <g id="text_15">
      <!-- 100 -->
      <g transform="translate(37.81 261.278833) scale(0.16 -0.16)">
       <use xlink:href="#DejaVuSans-31"/>
       <use xlink:href="#DejaVuSans-30" transform="translate(63.623047 0)"/>
       <use xlink:href="#DejaVuSans-30" transform="translate(127.246094 0)"/>
      </g>
     </g>
    </g>
    <g id="ytick_3">
     <g id="line2d_18">
      <path d="M 75.35 192.093819 
L 868.51 192.093819 
" clip-path="url(#p27cfdc4d0e)" style="fill: none; stroke-dasharray: 2.96,1.28; stroke-dashoffset: 0; stroke: #b0b0b0; stroke-opacity: 0.5; stroke-width: 0.8"/>
     </g>
     <g id="line2d_19">
      <g>
       <use xlink:href="#m19353b125b" x="75.35" y="192.093819" style="stroke: #000000; stroke-width: 0.8"/>
      </g>
     </g>
     <g id="text_16">
      <!-- 200 -->
      <g transform="translate(37.81 198.172569) scale(0.16 -0.16)">
       <use xlink:href="#DejaVuSans-32"/>
       <use xlink:href="#DejaVuSans-30" transform="translate(63.623047 0)"/>
       <use xlink:href="#DejaVuSans-30" transform="translate(127.246094 0)"/>
      </g>
     </g>
    </g>
    <g id="ytick_4">
     <g id="line2d_20">
      <path d="M 75.35 128.987554 
L 868.51 128.987554 
" clip-path="url(#p27cfdc4d0e)" style="fill: none; stroke-dasharray: 2.96,1.28; stroke-dashoffset: 0; stroke: #b0b0b0; stroke-opacity: 0.5; stroke-width: 0.8"/>
     </g>
     <g id="line2d_21">
      <g>
       <use xlink:href="#m19353b125b" x="75.35" y="128.987554" style="stroke: #000000; stroke-width: 0.8"/>
      </g>
     </g>
     <g id="text_17">
      <!-- 300 -->
      <g transform="translate(37.81 135.066304) scale(0.16 -0.16)">
       <use xlink:href="#DejaVuSans-33"/>
       <use xlink:href="#DejaVuSans-30" transform="translate(63.623047 0)"/>
       <use xlink:href="#DejaVuSans-30" transform="translate(127.246094 0)"/>
      </g>
     </g>
    </g>
    <g id="ytick_5">
     <g id="line2d_22">
      <path d="M 75.35 65.88129 
L 868.51 65.88129 
" clip-path="url(#p27cfdc4d0e)" style="fill: none; stroke-dasharray: 2.96,1.28; stroke-dashoffset: 0; stroke: #b0b0b0; stroke-opacity: 0.5; stroke-width: 0.8"/>
     </g>
     <g id="line2d_23">
      <g>
       <use xlink:href="#m19353b125b" x="75.35" y="65.88129" style="stroke: #000000; stroke-width: 0.8"/>
      </g>
     </g>
     <g id="text_18">
      <!-- 400 -->
      <g transform="translate(37.81 71.96004) scale(0.16 -0.16)">
       <use xlink:href="#DejaVuSans-34"/>
       <use xlink:href="#DejaVuSans-30" transform="translate(63.623047 0)"/>
       <use xlink:href="#DejaVuSans-30" transform="translate(127.246094 0)"/>
      </g>
     </g>
    </g>
    <g id="text_19">
     <!-- MRED (%) -->
     <g transform="translate(30.4825 207.855674) rotate(-90) scale(0.16 -0.16)">
      <defs>
       <path id="DejaVuSans-4d" d="M 628 4666 
L 1569 4666 
L 2759 1491 
L 3956 4666 
L 4897 4666 
L 4897 0 
L 4281 0 
L 4281 4097 
L 3078 897 
L 2444 897 
L 1241 4097 
L 1241 0 
L 628 0 
L 628 4666 
z
" transform="scale(0.015625)"/>
       <path id="DejaVuSans-45" d="M 628 4666 
L 3578 4666 
L 3578 4134 
L 1259 4134 
L 1259 2753 
L 3481 2753 
L 3481 2222 
L 1259 2222 
L 1259 531 
L 3634 531 
L 3634 0 
L 628 0 
L 628 4666 
z
" transform="scale(0.015625)"/>
       <path id="DejaVuSans-20" transform="scale(0.015625)"/>
       <path id="DejaVuSans-28" d="M 1984 4856 
Q 1566 4138 1362 3434 
Q 1159 2731 1159 2009 
Q 1159 1288 1364 580 
Q 1569 -128 1984 -844 
L 1484 -844 
Q 1016 -109 783 600 
Q 550 1309 550 2009 
Q 550 2706 781 3412 
Q 1013 4119 1484 4856 
L 1984 4856 
z
" transform="scale(0.015625)"/>
       <path id="DejaVuSans-25" d="M 4653 2053 
Q 4381 2053 4226 1822 
Q 4072 1591 4072 1178 
Q 4072 772 4226 539 
Q 4381 306 4653 306 
Q 4919 306 5073 539 
Q 5228 772 5228 1178 
Q 5228 1588 5073 1820 
Q 4919 2053 4653 2053 
z
M 4653 2450 
Q 5147 2450 5437 2106 
Q 5728 1763 5728 1178 
Q 5728 594 5436 251 
Q 5144 -91 4653 -91 
Q 4153 -91 3862 251 
Q 3572 594 3572 1178 
Q 3572 1766 3864 2108 
Q 4156 2450 4653 2450 
z
M 1428 4353 
Q 1159 4353 1004 4120 
Q 850 3888 850 3481 
Q 850 3069 1003 2837 
Q 1156 2606 1428 2606 
Q 1700 2606 1854 2837 
Q 2009 3069 2009 3481 
Q 2009 3884 1853 4118 
Q 1697 4353 1428 4353 
z
M 4250 4750 
L 4750 4750 
L 1831 -91 
L 1331 -91 
L 4250 4750 
z
M 1428 4750 
Q 1922 4750 2215 4408 
Q 2509 4066 2509 3481 
Q 2509 2891 2217 2550 
Q 1925 2209 1428 2209 
Q 931 2209 642 2551 
Q 353 2894 353 3481 
Q 353 4063 643 4406 
Q 934 4750 1428 4750 
z
" transform="scale(0.015625)"/>
       <path id="DejaVuSans-29" d="M 513 4856 
L 1013 4856 
Q 1481 4119 1714 3412 
Q 1947 2706 1947 2009 
Q 1947 1309 1714 600 
Q 1481 -109 1013 -844 
L 513 -844 
Q 928 -128 1133 580 
Q 1338 1288 1338 2009 
Q 1338 2731 1133 3434 
Q 928 4138 513 4856 
z
" transform="scale(0.015625)"/>
      </defs>
      <use xlink:href="#DejaVuSans-4d"/>
      <use xlink:href="#DejaVuSans-52" transform="translate(86.279297 0)"/>
      <use xlink:href="#DejaVuSans-45" transform="translate(155.761719 0)"/>
      <use xlink:href="#DejaVuSans-44" transform="translate(218.945312 0)"/>
      <use xlink:href="#DejaVuSans-20" transform="translate(295.947266 0)"/>
      <use xlink:href="#DejaVuSans-28" transform="translate(327.734375 0)"/>
      <use xlink:href="#DejaVuSans-25" transform="translate(366.748047 0)"/>
      <use xlink:href="#DejaVuSans-29" transform="translate(461.767578 0)"/>
     </g>
    </g>
   </g>
   <g id="patch_159">
    <path d="M 75.35 318.306348 
L 75.35 17.28 
" style="fill: none; stroke: #000000; stroke-width: 0.8; stroke-linejoin: miter; stroke-linecap: square"/>
   </g>
   <g id="patch_160">
    <path d="M 868.51 318.306348 
L 868.51 17.28 
" style="fill: none; stroke: #000000; stroke-width: 0.8; stroke-linejoin: miter; stroke-linecap: square"/>
   </g>
   <g id="patch_161">
    <path d="M 75.35 318.306348 
L 868.51 318.306348 
" style="fill: none; stroke: #000000; stroke-width: 0.8; stroke-linejoin: miter; stroke-linecap: square"/>
   </g>
   <g id="patch_162">
    <path d="M 75.35 17.28 
L 868.51 17.28 
" style="fill: none; stroke: #000000; stroke-width: 0.8; stroke-linejoin: miter; stroke-linecap: square"/>
   </g>
   <g id="legend_1">
    <g id="patch_163">
     <path d="M 879.71 315.74 
L 1130.93 315.74 
Q 1134.13 315.74 1134.13 312.54 
L 1134.13 28.48 
Q 1134.13 25.28 1130.93 25.28 
L 879.71 25.28 
Q 876.51 25.28 876.51 28.48 
L 876.51 312.54 
Q 876.51 315.74 879.71 315.74 
z
" style="fill: #ffffff; opacity: 0.8; stroke: #cccccc; stroke-linejoin: miter"/>
    </g>
    <g id="patch_164">
     <path d="M 882.91 43.8375 
L 914.91 43.8375 
L 914.91 32.6375 
L 882.91 32.6375 
z
" style="fill: #87ceeb; opacity: 0.4"/>
    </g>
    <g id="text_20">
     <!-- rbol multi-salida - D3 -->
     <g transform="translate(927.71 43.8375) scale(0.16 -0.16)">
      <defs>
       <path id="DejaVuSans-c1" d="M 2188 4044 
L 1331 1722 
L 3047 1722 
L 2188 4044 
z
M 1831 4666 
L 2547 4666 
L 4325 0 
L 3669 0 
L 3244 1197 
L 1141 1197 
L 716 0 
L 50 0 
L 1831 4666 
z
M 2359 5935 
L 2938 5935 
L 2225 5110 
L 1747 5110 
L 2359 5935 
z
" transform="scale(0.015625)"/>
       <path id="DejaVuSans-6d" d="M 3328 2828 
Q 3544 3216 3844 3400 
Q 4144 3584 4550 3584 
Q 5097 3584 5394 3201 
Q 5691 2819 5691 2113 
L 5691 0 
L 5113 0 
L 5113 2094 
Q 5113 2597 4934 2840 
Q 4756 3084 4391 3084 
Q 3944 3084 3684 2787 
Q 3425 2491 3425 1978 
L 3425 0 
L 2847 0 
L 2847 2094 
Q 2847 2600 2669 2842 
Q 2491 3084 2119 3084 
Q 1678 3084 1418 2786 
Q 1159 2488 1159 1978 
L 1159 0 
L 581 0 
L 581 3500 
L 1159 3500 
L 1159 2956 
Q 1356 3278 1631 3431 
Q 1906 3584 2284 3584 
Q 2666 3584 2933 3390 
Q 3200 3197 3328 2828 
z
" transform="scale(0.015625)"/>
       <path id="DejaVuSans-75" d="M 544 1381 
L 544 3500 
L 1119 3500 
L 1119 1403 
Q 1119 906 1312 657 
Q 1506 409 1894 409 
Q 2359 409 2629 706 
Q 2900 1003 2900 1516 
L 2900 3500 
L 3475 3500 
L 3475 0 
L 2900 0 
L 2900 538 
Q 2691 219 2414 64 
Q 2138 -91 1772 -91 
Q 1169 -91 856 284 
Q 544 659 544 1381 
z
M 1991 3584 
L 1991 3584 
z
" transform="scale(0.015625)"/>
       <path id="DejaVuSans-2d" d="M 313 2009 
L 1997 2009 
L 1997 1497 
L 313 1497 
L 313 2009 
z
" transform="scale(0.015625)"/>
       <path id="DejaVuSans-64" d="M 2906 2969 
L 2906 4863 
L 3481 4863 
L 3481 0 
L 2906 0 
L 2906 525 
Q 2725 213 2448 61 
Q 2172 -91 1784 -91 
Q 1150 -91 751 415 
Q 353 922 353 1747 
Q 353 2572 751 3078 
Q 1150 3584 1784 3584 
Q 2172 3584 2448 3432 
Q 2725 3281 2906 2969 
z
M 947 1747 
Q 947 1113 1208 752 
Q 1469 391 1925 391 
Q 2381 391 2643 752 
Q 2906 1113 2906 1747 
Q 2906 2381 2643 2742 
Q 2381 3103 1925 3103 
Q 1469 3103 1208 2742 
Q 947 2381 947 1747 
z
" transform="scale(0.015625)"/>
      </defs>
      <use xlink:href="#DejaVuSans-c1"/>
      <use xlink:href="#DejaVuSans-72" transform="translate(68.408203 0)"/>
      <use xlink:href="#DejaVuSans-62" transform="translate(109.521484 0)"/>
      <use xlink:href="#DejaVuSans-6f" transform="translate(172.998047 0)"/>
      <use xlink:href="#DejaVuSans-6c" transform="translate(234.179688 0)"/>
      <use xlink:href="#DejaVuSans-20" transform="translate(261.962891 0)"/>
      <use xlink:href="#DejaVuSans-6d" transform="translate(293.75 0)"/>
      <use xlink:href="#DejaVuSans-75" transform="translate(391.162109 0)"/>
      <use xlink:href="#DejaVuSans-6c" transform="translate(454.541016 0)"/>
      <use xlink:href="#DejaVuSans-74" transform="translate(482.324219 0)"/>
      <use xlink:href="#DejaVuSans-69" transform="translate(521.533203 0)"/>
      <use xlink:href="#DejaVuSans-2d" transform="translate(549.316406 0)"/>
      <use xlink:href="#DejaVuSans-73" transform="translate(585.400391 0)"/>
      <use xlink:href="#DejaVuSans-61" transform="translate(637.5 0)"/>
      <use xlink:href="#DejaVuSans-6c" transform="translate(698.779297 0)"/>
      <use xlink:href="#DejaVuSans-69" transform="translate(726.5625 0)"/>
      <use xlink:href="#DejaVuSans-64" transform="translate(754.345703 0)"/>
      <use xlink:href="#DejaVuSans-61" transform="translate(817.822266 0)"/>
      <use xlink:href="#DejaVuSans-20" transform="translate(879.101562 0)"/>
      <use xlink:href="#DejaVuSans-2d" transform="translate(910.888672 0)"/>
      <use xlink:href="#DejaVuSans-20" transform="translate(946.972656 0)"/>
      <use xlink:href="#DejaVuSans-44" transform="translate(978.759766 0)"/>
      <use xlink:href="#DejaVuSans-33" transform="translate(1055.761719 0)"/>
     </g>
    </g>
    <g id="patch_165">
     <path d="M 882.91 67.3225 
L 914.91 67.3225 
L 914.91 56.1225 
L 882.91 56.1225 
z
" style="fill: #87ceeb; opacity: 0.485714"/>
    </g>
    <g id="text_21">
     <!-- rbol multi-salida - D4 -->
     <g transform="translate(927.71 67.3225) scale(0.16 -0.16)">
      <use xlink:href="#DejaVuSans-c1"/>
      <use xlink:href="#DejaVuSans-72" transform="translate(68.408203 0)"/>
      <use xlink:href="#DejaVuSans-62" transform="translate(109.521484 0)"/>
      <use xlink:href="#DejaVuSans-6f" transform="translate(172.998047 0)"/>
      <use xlink:href="#DejaVuSans-6c" transform="translate(234.179688 0)"/>
      <use xlink:href="#DejaVuSans-20" transform="translate(261.962891 0)"/>
      <use xlink:href="#DejaVuSans-6d" transform="translate(293.75 0)"/>
      <use xlink:href="#DejaVuSans-75" transform="translate(391.162109 0)"/>
      <use xlink:href="#DejaVuSans-6c" transform="translate(454.541016 0)"/>
      <use xlink:href="#DejaVuSans-74" transform="translate(482.324219 0)"/>
      <use xlink:href="#DejaVuSans-69" transform="translate(521.533203 0)"/>
      <use xlink:href="#DejaVuSans-2d" transform="translate(549.316406 0)"/>
      <use xlink:href="#DejaVuSans-73" transform="translate(585.400391 0)"/>
      <use xlink:href="#DejaVuSans-61" transform="translate(637.5 0)"/>
      <use xlink:href="#DejaVuSans-6c" transform="translate(698.779297 0)"/>
      <use xlink:href="#DejaVuSans-69" transform="translate(726.5625 0)"/>
      <use xlink:href="#DejaVuSans-64" transform="translate(754.345703 0)"/>
      <use xlink:href="#DejaVuSans-61" transform="translate(817.822266 0)"/>
      <use xlink:href="#DejaVuSans-20" transform="translate(879.101562 0)"/>
      <use xlink:href="#DejaVuSans-2d" transform="translate(910.888672 0)"/>
      <use xlink:href="#DejaVuSans-20" transform="translate(946.972656 0)"/>
      <use xlink:href="#DejaVuSans-44" transform="translate(978.759766 0)"/>
      <use xlink:href="#DejaVuSans-34" transform="translate(1055.761719 0)"/>
     </g>
    </g>
    <g id="patch_166">
     <path d="M 882.91 90.8075 
L 914.91 90.8075 
L 914.91 79.6075 
L 882.91 79.6075 
z
" style="fill: #87ceeb; opacity: 0.571429"/>
    </g>
    <g id="text_22">
     <!-- rbol multi-salida - D5 -->
     <g transform="translate(927.71 90.8075) scale(0.16 -0.16)">
      <defs>
       <path id="DejaVuSans-35" d="M 691 4666 
L 3169 4666 
L 3169 4134 
L 1269 4134 
L 1269 2991 
Q 1406 3038 1543 3061 
Q 1681 3084 1819 3084 
Q 2600 3084 3056 2656 
Q 3513 2228 3513 1497 
Q 3513 744 3044 326 
Q 2575 -91 1722 -91 
Q 1428 -91 1123 -41 
Q 819 9 494 109 
L 494 744 
Q 775 591 1075 516 
Q 1375 441 1709 441 
Q 2250 441 2565 725 
Q 2881 1009 2881 1497 
Q 2881 1984 2565 2268 
Q 2250 2553 1709 2553 
Q 1456 2553 1204 2497 
Q 953 2441 691 2322 
L 691 4666 
z
" transform="scale(0.015625)"/>
      </defs>
      <use xlink:href="#DejaVuSans-c1"/>
      <use xlink:href="#DejaVuSans-72" transform="translate(68.408203 0)"/>
      <use xlink:href="#DejaVuSans-62" transform="translate(109.521484 0)"/>
      <use xlink:href="#DejaVuSans-6f" transform="translate(172.998047 0)"/>
      <use xlink:href="#DejaVuSans-6c" transform="translate(234.179688 0)"/>
      <use xlink:href="#DejaVuSans-20" transform="translate(261.962891 0)"/>
      <use xlink:href="#DejaVuSans-6d" transform="translate(293.75 0)"/>
      <use xlink:href="#DejaVuSans-75" transform="translate(391.162109 0)"/>
      <use xlink:href="#DejaVuSans-6c" transform="translate(454.541016 0)"/>
      <use xlink:href="#DejaVuSans-74" transform="translate(482.324219 0)"/>
      <use xlink:href="#DejaVuSans-69" transform="translate(521.533203 0)"/>
      <use xlink:href="#DejaVuSans-2d" transform="translate(549.316406 0)"/>
      <use xlink:href="#DejaVuSans-73" transform="translate(585.400391 0)"/>
      <use xlink:href="#DejaVuSans-61" transform="translate(637.5 0)"/>
      <use xlink:href="#DejaVuSans-6c" transform="translate(698.779297 0)"/>
      <use xlink:href="#DejaVuSans-69" transform="translate(726.5625 0)"/>
      <use xlink:href="#DejaVuSans-64" transform="translate(754.345703 0)"/>
      <use xlink:href="#DejaVuSans-61" transform="translate(817.822266 0)"/>
      <use xlink:href="#DejaVuSans-20" transform="translate(879.101562 0)"/>
      <use xlink:href="#DejaVuSans-2d" transform="translate(910.888672 0)"/>
      <use xlink:href="#DejaVuSans-20" transform="translate(946.972656 0)"/>
      <use xlink:href="#DejaVuSans-44" transform="translate(978.759766 0)"/>
      <use xlink:href="#DejaVuSans-35" transform="translate(1055.761719 0)"/>
     </g>
    </g>
    <g id="patch_167">
     <path d="M 882.91 114.2925 
L 914.91 114.2925 
L 914.91 103.0925 
L 882.91 103.0925 
z
" style="fill: #87ceeb; opacity: 0.657143"/>
    </g>
    <g id="text_23">
     <!-- rbol multi-salida - D6 -->
     <g transform="translate(927.71 114.2925) scale(0.16 -0.16)">
      <use xlink:href="#DejaVuSans-c1"/>
      <use xlink:href="#DejaVuSans-72" transform="translate(68.408203 0)"/>
      <use xlink:href="#DejaVuSans-62" transform="translate(109.521484 0)"/>
      <use xlink:href="#DejaVuSans-6f" transform="translate(172.998047 0)"/>
      <use xlink:href="#DejaVuSans-6c" transform="translate(234.179688 0)"/>
      <use xlink:href="#DejaVuSans-20" transform="translate(261.962891 0)"/>
      <use xlink:href="#DejaVuSans-6d" transform="translate(293.75 0)"/>
      <use xlink:href="#DejaVuSans-75" transform="translate(391.162109 0)"/>
      <use xlink:href="#DejaVuSans-6c" transform="translate(454.541016 0)"/>
      <use xlink:href="#DejaVuSans-74" transform="translate(482.324219 0)"/>
      <use xlink:href="#DejaVuSans-69" transform="translate(521.533203 0)"/>
      <use xlink:href="#DejaVuSans-2d" transform="translate(549.316406 0)"/>
      <use xlink:href="#DejaVuSans-73" transform="translate(585.400391 0)"/>
      <use xlink:href="#DejaVuSans-61" transform="translate(637.5 0)"/>
      <use xlink:href="#DejaVuSans-6c" transform="translate(698.779297 0)"/>
      <use xlink:href="#DejaVuSans-69" transform="translate(726.5625 0)"/>
      <use xlink:href="#DejaVuSans-64" transform="translate(754.345703 0)"/>
      <use xlink:href="#DejaVuSans-61" transform="translate(817.822266 0)"/>
      <use xlink:href="#DejaVuSans-20" transform="translate(879.101562 0)"/>
      <use xlink:href="#DejaVuSans-2d" transform="translate(910.888672 0)"/>
      <use xlink:href="#DejaVuSans-20" transform="translate(946.972656 0)"/>
      <use xlink:href="#DejaVuSans-44" transform="translate(978.759766 0)"/>
      <use xlink:href="#DejaVuSans-36" transform="translate(1055.761719 0)"/>
     </g>
    </g>
    <g id="patch_168">
     <path d="M 882.91 137.7775 
L 914.91 137.7775 
L 914.91 126.5775 
L 882.91 126.5775 
z
" style="fill: #87ceeb; opacity: 0.828571"/>
    </g>
    <g id="text_24">
     <!-- rbol multi-salida - D8 -->
     <g transform="translate(927.71 137.7775) scale(0.16 -0.16)">
      <use xlink:href="#DejaVuSans-c1"/>
      <use xlink:href="#DejaVuSans-72" transform="translate(68.408203 0)"/>
      <use xlink:href="#DejaVuSans-62" transform="translate(109.521484 0)"/>
      <use xlink:href="#DejaVuSans-6f" transform="translate(172.998047 0)"/>
      <use xlink:href="#DejaVuSans-6c" transform="translate(234.179688 0)"/>
      <use xlink:href="#DejaVuSans-20" transform="translate(261.962891 0)"/>
      <use xlink:href="#DejaVuSans-6d" transform="translate(293.75 0)"/>
      <use xlink:href="#DejaVuSans-75" transform="translate(391.162109 0)"/>
      <use xlink:href="#DejaVuSans-6c" transform="translate(454.541016 0)"/>
      <use xlink:href="#DejaVuSans-74" transform="translate(482.324219 0)"/>
      <use xlink:href="#DejaVuSans-69" transform="translate(521.533203 0)"/>
      <use xlink:href="#DejaVuSans-2d" transform="translate(549.316406 0)"/>
      <use xlink:href="#DejaVuSans-73" transform="translate(585.400391 0)"/>
      <use xlink:href="#DejaVuSans-61" transform="translate(637.5 0)"/>
      <use xlink:href="#DejaVuSans-6c" transform="translate(698.779297 0)"/>
      <use xlink:href="#DejaVuSans-69" transform="translate(726.5625 0)"/>
      <use xlink:href="#DejaVuSans-64" transform="translate(754.345703 0)"/>
      <use xlink:href="#DejaVuSans-61" transform="translate(817.822266 0)"/>
      <use xlink:href="#DejaVuSans-20" transform="translate(879.101562 0)"/>
      <use xlink:href="#DejaVuSans-2d" transform="translate(910.888672 0)"/>
      <use xlink:href="#DejaVuSans-20" transform="translate(946.972656 0)"/>
      <use xlink:href="#DejaVuSans-44" transform="translate(978.759766 0)"/>
      <use xlink:href="#DejaVuSans-38" transform="translate(1055.761719 0)"/>
     </g>
    </g>
    <g id="patch_169">
     <path d="M 882.91 161.2625 
L 914.91 161.2625 
L 914.91 150.0625 
L 882.91 150.0625 
z
" style="fill: #87ceeb"/>
    </g>
    <g id="text_25">
     <!-- rbol multi-salida - D10 -->
     <g transform="translate(927.71 161.2625) scale(0.16 -0.16)">
      <use xlink:href="#DejaVuSans-c1"/>
      <use xlink:href="#DejaVuSans-72" transform="translate(68.408203 0)"/>
      <use xlink:href="#DejaVuSans-62" transform="translate(109.521484 0)"/>
      <use xlink:href="#DejaVuSans-6f" transform="translate(172.998047 0)"/>
      <use xlink:href="#DejaVuSans-6c" transform="translate(234.179688 0)"/>
      <use xlink:href="#DejaVuSans-20" transform="translate(261.962891 0)"/>
      <use xlink:href="#DejaVuSans-6d" transform="translate(293.75 0)"/>
      <use xlink:href="#DejaVuSans-75" transform="translate(391.162109 0)"/>
      <use xlink:href="#DejaVuSans-6c" transform="translate(454.541016 0)"/>
      <use xlink:href="#DejaVuSans-74" transform="translate(482.324219 0)"/>
      <use xlink:href="#DejaVuSans-69" transform="translate(521.533203 0)"/>
      <use xlink:href="#DejaVuSans-2d" transform="translate(549.316406 0)"/>
      <use xlink:href="#DejaVuSans-73" transform="translate(585.400391 0)"/>
      <use xlink:href="#DejaVuSans-61" transform="translate(637.5 0)"/>
      <use xlink:href="#DejaVuSans-6c" transform="translate(698.779297 0)"/>
      <use xlink:href="#DejaVuSans-69" transform="translate(726.5625 0)"/>
      <use xlink:href="#DejaVuSans-64" transform="translate(754.345703 0)"/>
      <use xlink:href="#DejaVuSans-61" transform="translate(817.822266 0)"/>
      <use xlink:href="#DejaVuSans-20" transform="translate(879.101562 0)"/>
      <use xlink:href="#DejaVuSans-2d" transform="translate(910.888672 0)"/>
      <use xlink:href="#DejaVuSans-20" transform="translate(946.972656 0)"/>
      <use xlink:href="#DejaVuSans-44" transform="translate(978.759766 0)"/>
      <use xlink:href="#DejaVuSans-31" transform="translate(1055.761719 0)"/>
      <use xlink:href="#DejaVuSans-30" transform="translate(1119.384766 0)"/>
     </g>
    </g>
    <g id="patch_170">
     <path d="M 882.91 185.3875 
L 914.91 185.3875 
L 914.91 174.1875 
L 882.91 174.1875 
z
" style="fill: #fa8072; opacity: 0.4"/>
    </g>
    <g id="text_26">
     <!-- Un rbol por salida - D3 -->
     <g transform="translate(927.71 185.3875) scale(0.16 -0.16)">
      <defs>
       <path id="DejaVuSans-55" d="M 556 4666 
L 1191 4666 
L 1191 1831 
Q 1191 1081 1462 751 
Q 1734 422 2344 422 
Q 2950 422 3222 751 
Q 3494 1081 3494 1831 
L 3494 4666 
L 4128 4666 
L 4128 1753 
Q 4128 841 3676 375 
Q 3225 -91 2344 -91 
Q 1459 -91 1007 375 
Q 556 841 556 1753 
L 556 4666 
z
" transform="scale(0.015625)"/>
       <path id="DejaVuSans-e1" d="M 2194 1759 
Q 1497 1759 1228 1600 
Q 959 1441 959 1056 
Q 959 750 1161 570 
Q 1363 391 1709 391 
Q 2188 391 2477 730 
Q 2766 1069 2766 1631 
L 2766 1759 
L 2194 1759 
z
M 3341 1997 
L 3341 0 
L 2766 0 
L 2766 531 
Q 2569 213 2275 61 
Q 1981 -91 1556 -91 
Q 1019 -91 701 211 
Q 384 513 384 1019 
Q 384 1609 779 1909 
Q 1175 2209 1959 2209 
L 2766 2209 
L 2766 2266 
Q 2766 2663 2505 2880 
Q 2244 3097 1772 3097 
Q 1472 3097 1187 3025 
Q 903 2953 641 2809 
L 641 3341 
Q 956 3463 1253 3523 
Q 1550 3584 1831 3584 
Q 2591 3584 2966 3190 
Q 3341 2797 3341 1997 
z
M 2291 5119 
L 2913 5119 
L 1894 3944 
L 1416 3944 
L 2291 5119 
z
" transform="scale(0.015625)"/>
      </defs>
      <use xlink:href="#DejaVuSans-55"/>
      <use xlink:href="#DejaVuSans-6e" transform="translate(73.193359 0)"/>
      <use xlink:href="#DejaVuSans-20" transform="translate(136.572266 0)"/>
      <use xlink:href="#DejaVuSans-e1" transform="translate(168.359375 0)"/>
      <use xlink:href="#DejaVuSans-72" transform="translate(229.638672 0)"/>
      <use xlink:href="#DejaVuSans-62" transform="translate(270.751953 0)"/>
      <use xlink:href="#DejaVuSans-6f" transform="translate(334.228516 0)"/>
      <use xlink:href="#DejaVuSans-6c" transform="translate(395.410156 0)"/>
      <use xlink:href="#DejaVuSans-20" transform="translate(423.193359 0)"/>
      <use xlink:href="#DejaVuSans-70" transform="translate(454.980469 0)"/>
      <use xlink:href="#DejaVuSans-6f" transform="translate(518.457031 0)"/>
      <use xlink:href="#DejaVuSans-72" transform="translate(579.638672 0)"/>
      <use xlink:href="#DejaVuSans-20" transform="translate(620.751953 0)"/>
      <use xlink:href="#DejaVuSans-73" transform="translate(652.539062 0)"/>
      <use xlink:href="#DejaVuSans-61" transform="translate(704.638672 0)"/>
      <use xlink:href="#DejaVuSans-6c" transform="translate(765.917969 0)"/>
      <use xlink:href="#DejaVuSans-69" transform="translate(793.701172 0)"/>
      <use xlink:href="#DejaVuSans-64" transform="translate(821.484375 0)"/>
      <use xlink:href="#DejaVuSans-61" transform="translate(884.960938 0)"/>
      <use xlink:href="#DejaVuSans-20" transform="translate(946.240234 0)"/>
      <use xlink:href="#DejaVuSans-2d" transform="translate(978.027344 0)"/>
      <use xlink:href="#DejaVuSans-20" transform="translate(1014.111328 0)"/>
      <use xlink:href="#DejaVuSans-44" transform="translate(1045.898438 0)"/>
      <use xlink:href="#DejaVuSans-33" transform="translate(1122.900391 0)"/>
     </g>
    </g>
    <g id="patch_171">
     <path d="M 882.91 209.5125 
L 914.91 209.5125 
L 914.91 198.3125 
L 882.91 198.3125 
z
" style="fill: #fa8072; opacity: 0.485714"/>
    </g>
    <g id="text_27">
     <!-- Un rbol por salida - D4 -->
     <g transform="translate(927.71 209.5125) scale(0.16 -0.16)">
      <use xlink:href="#DejaVuSans-55"/>
      <use xlink:href="#DejaVuSans-6e" transform="translate(73.193359 0)"/>
      <use xlink:href="#DejaVuSans-20" transform="translate(136.572266 0)"/>
      <use xlink:href="#DejaVuSans-e1" transform="translate(168.359375 0)"/>
      <use xlink:href="#DejaVuSans-72" transform="translate(229.638672 0)"/>
      <use xlink:href="#DejaVuSans-62" transform="translate(270.751953 0)"/>
      <use xlink:href="#DejaVuSans-6f" transform="translate(334.228516 0)"/>
      <use xlink:href="#DejaVuSans-6c" transform="translate(395.410156 0)"/>
      <use xlink:href="#DejaVuSans-20" transform="translate(423.193359 0)"/>
      <use xlink:href="#DejaVuSans-70" transform="translate(454.980469 0)"/>
      <use xlink:href="#DejaVuSans-6f" transform="translate(518.457031 0)"/>
      <use xlink:href="#DejaVuSans-72" transform="translate(579.638672 0)"/>
      <use xlink:href="#DejaVuSans-20" transform="translate(620.751953 0)"/>
      <use xlink:href="#DejaVuSans-73" transform="translate(652.539062 0)"/>
      <use xlink:href="#DejaVuSans-61" transform="translate(704.638672 0)"/>
      <use xlink:href="#DejaVuSans-6c" transform="translate(765.917969 0)"/>
      <use xlink:href="#DejaVuSans-69" transform="translate(793.701172 0)"/>
      <use xlink:href="#DejaVuSans-64" transform="translate(821.484375 0)"/>
      <use xlink:href="#DejaVuSans-61" transform="translate(884.960938 0)"/>
      <use xlink:href="#DejaVuSans-20" transform="translate(946.240234 0)"/>
      <use xlink:href="#DejaVuSans-2d" transform="translate(978.027344 0)"/>
      <use xlink:href="#DejaVuSans-20" transform="translate(1014.111328 0)"/>
      <use xlink:href="#DejaVuSans-44" transform="translate(1045.898438 0)"/>
      <use xlink:href="#DejaVuSans-34" transform="translate(1122.900391 0)"/>
     </g>
    </g>
    <g id="patch_172">
     <path d="M 882.91 233.6375 
L 914.91 233.6375 
L 914.91 222.4375 
L 882.91 222.4375 
z
" style="fill: #fa8072; opacity: 0.571429"/>
    </g>
    <g id="text_28">
     <!-- Un rbol por salida - D5 -->
     <g transform="translate(927.71 233.6375) scale(0.16 -0.16)">
      <use xlink:href="#DejaVuSans-55"/>
      <use xlink:href="#DejaVuSans-6e" transform="translate(73.193359 0)"/>
      <use xlink:href="#DejaVuSans-20" transform="translate(136.572266 0)"/>
      <use xlink:href="#DejaVuSans-e1" transform="translate(168.359375 0)"/>
      <use xlink:href="#DejaVuSans-72" transform="translate(229.638672 0)"/>
      <use xlink:href="#DejaVuSans-62" transform="translate(270.751953 0)"/>
      <use xlink:href="#DejaVuSans-6f" transform="translate(334.228516 0)"/>
      <use xlink:href="#DejaVuSans-6c" transform="translate(395.410156 0)"/>
      <use xlink:href="#DejaVuSans-20" transform="translate(423.193359 0)"/>
      <use xlink:href="#DejaVuSans-70" transform="translate(454.980469 0)"/>
      <use xlink:href="#DejaVuSans-6f" transform="translate(518.457031 0)"/>
      <use xlink:href="#DejaVuSans-72" transform="translate(579.638672 0)"/>
      <use xlink:href="#DejaVuSans-20" transform="translate(620.751953 0)"/>
      <use xlink:href="#DejaVuSans-73" transform="translate(652.539062 0)"/>
      <use xlink:href="#DejaVuSans-61" transform="translate(704.638672 0)"/>
      <use xlink:href="#DejaVuSans-6c" transform="translate(765.917969 0)"/>
      <use xlink:href="#DejaVuSans-69" transform="translate(793.701172 0)"/>
      <use xlink:href="#DejaVuSans-64" transform="translate(821.484375 0)"/>
      <use xlink:href="#DejaVuSans-61" transform="translate(884.960938 0)"/>
      <use xlink:href="#DejaVuSans-20" transform="translate(946.240234 0)"/>
      <use xlink:href="#DejaVuSans-2d" transform="translate(978.027344 0)"/>
      <use xlink:href="#DejaVuSans-20" transform="translate(1014.111328 0)"/>
      <use xlink:href="#DejaVuSans-44" transform="translate(1045.898438 0)"/>
      <use xlink:href="#DejaVuSans-35" transform="translate(1122.900391 0)"/>
     </g>
    </g>
    <g id="patch_173">
     <path d="M 882.91 257.7625 
L 914.91 257.7625 
L 914.91 246.5625 
L 882.91 246.5625 
z
" style="fill: #fa8072; opacity: 0.657143"/>
    </g>
    <g id="text_29">
     <!-- Un rbol por salida - D6 -->
     <g transform="translate(927.71 257.7625) scale(0.16 -0.16)">
      <use xlink:href="#DejaVuSans-55"/>
      <use xlink:href="#DejaVuSans-6e" transform="translate(73.193359 0)"/>
      <use xlink:href="#DejaVuSans-20" transform="translate(136.572266 0)"/>
      <use xlink:href="#DejaVuSans-e1" transform="translate(168.359375 0)"/>
      <use xlink:href="#DejaVuSans-72" transform="translate(229.638672 0)"/>
      <use xlink:href="#DejaVuSans-62" transform="translate(270.751953 0)"/>
      <use xlink:href="#DejaVuSans-6f" transform="translate(334.228516 0)"/>
      <use xlink:href="#DejaVuSans-6c" transform="translate(395.410156 0)"/>
      <use xlink:href="#DejaVuSans-20" transform="translate(423.193359 0)"/>
      <use xlink:href="#DejaVuSans-70" transform="translate(454.980469 0)"/>
      <use xlink:href="#DejaVuSans-6f" transform="translate(518.457031 0)"/>
      <use xlink:href="#DejaVuSans-72" transform="translate(579.638672 0)"/>
      <use xlink:href="#DejaVuSans-20" transform="translate(620.751953 0)"/>
      <use xlink:href="#DejaVuSans-73" transform="translate(652.539062 0)"/>
      <use xlink:href="#DejaVuSans-61" transform="translate(704.638672 0)"/>
      <use xlink:href="#DejaVuSans-6c" transform="translate(765.917969 0)"/>
      <use xlink:href="#DejaVuSans-69" transform="translate(793.701172 0)"/>
      <use xlink:href="#DejaVuSans-64" transform="translate(821.484375 0)"/>
      <use xlink:href="#DejaVuSans-61" transform="translate(884.960938 0)"/>
      <use xlink:href="#DejaVuSans-20" transform="translate(946.240234 0)"/>
      <use xlink:href="#DejaVuSans-2d" transform="translate(978.027344 0)"/>
      <use xlink:href="#DejaVuSans-20" transform="translate(1014.111328 0)"/>
      <use xlink:href="#DejaVuSans-44" transform="translate(1045.898438 0)"/>
      <use xlink:href="#DejaVuSans-36" transform="translate(1122.900391 0)"/>
     </g>
    </g>
    <g id="patch_174">
     <path d="M 882.91 281.8875 
L 914.91 281.8875 
L 914.91 270.6875 
L 882.91 270.6875 
z
" style="fill: #fa8072; opacity: 0.828571"/>
    </g>
    <g id="text_30">
     <!-- Un rbol por salida - D8 -->
     <g transform="translate(927.71 281.8875) scale(0.16 -0.16)">
      <use xlink:href="#DejaVuSans-55"/>
      <use xlink:href="#DejaVuSans-6e" transform="translate(73.193359 0)"/>
      <use xlink:href="#DejaVuSans-20" transform="translate(136.572266 0)"/>
      <use xlink:href="#DejaVuSans-e1" transform="translate(168.359375 0)"/>
      <use xlink:href="#DejaVuSans-72" transform="translate(229.638672 0)"/>
      <use xlink:href="#DejaVuSans-62" transform="translate(270.751953 0)"/>
      <use xlink:href="#DejaVuSans-6f" transform="translate(334.228516 0)"/>
      <use xlink:href="#DejaVuSans-6c" transform="translate(395.410156 0)"/>
      <use xlink:href="#DejaVuSans-20" transform="translate(423.193359 0)"/>
      <use xlink:href="#DejaVuSans-70" transform="translate(454.980469 0)"/>
      <use xlink:href="#DejaVuSans-6f" transform="translate(518.457031 0)"/>
      <use xlink:href="#DejaVuSans-72" transform="translate(579.638672 0)"/>
      <use xlink:href="#DejaVuSans-20" transform="translate(620.751953 0)"/>
      <use xlink:href="#DejaVuSans-73" transform="translate(652.539062 0)"/>
      <use xlink:href="#DejaVuSans-61" transform="translate(704.638672 0)"/>
      <use xlink:href="#DejaVuSans-6c" transform="translate(765.917969 0)"/>
      <use xlink:href="#DejaVuSans-69" transform="translate(793.701172 0)"/>
      <use xlink:href="#DejaVuSans-64" transform="translate(821.484375 0)"/>
      <use xlink:href="#DejaVuSans-61" transform="translate(884.960938 0)"/>
      <use xlink:href="#DejaVuSans-20" transform="translate(946.240234 0)"/>
      <use xlink:href="#DejaVuSans-2d" transform="translate(978.027344 0)"/>
      <use xlink:href="#DejaVuSans-20" transform="translate(1014.111328 0)"/>
      <use xlink:href="#DejaVuSans-44" transform="translate(1045.898438 0)"/>
      <use xlink:href="#DejaVuSans-38" transform="translate(1122.900391 0)"/>
     </g>
    </g>
    <g id="patch_175">
     <path d="M 882.91 306.0125 
L 914.91 306.0125 
L 914.91 294.8125 
L 882.91 294.8125 
z
" style="fill: #fa8072"/>
    </g>
    <g id="text_31">
     <!-- Un rbol por salida - D10 -->
     <g transform="translate(927.71 306.0125) scale(0.16 -0.16)">
      <use xlink:href="#DejaVuSans-55"/>
      <use xlink:href="#DejaVuSans-6e" transform="translate(73.193359 0)"/>
      <use xlink:href="#DejaVuSans-20" transform="translate(136.572266 0)"/>
      <use xlink:href="#DejaVuSans-e1" transform="translate(168.359375 0)"/>
      <use xlink:href="#DejaVuSans-72" transform="translate(229.638672 0)"/>
      <use xlink:href="#DejaVuSans-62" transform="translate(270.751953 0)"/>
      <use xlink:href="#DejaVuSans-6f" transform="translate(334.228516 0)"/>
      <use xlink:href="#DejaVuSans-6c" transform="translate(395.410156 0)"/>
      <use xlink:href="#DejaVuSans-20" transform="translate(423.193359 0)"/>
      <use xlink:href="#DejaVuSans-70" transform="translate(454.980469 0)"/>
      <use xlink:href="#DejaVuSans-6f" transform="translate(518.457031 0)"/>
      <use xlink:href="#DejaVuSans-72" transform="translate(579.638672 0)"/>
      <use xlink:href="#DejaVuSans-20" transform="translate(620.751953 0)"/>
      <use xlink:href="#DejaVuSans-73" transform="translate(652.539062 0)"/>
      <use xlink:href="#DejaVuSans-61" transform="translate(704.638672 0)"/>
      <use xlink:href="#DejaVuSans-6c" transform="translate(765.917969 0)"/>
      <use xlink:href="#DejaVuSans-69" transform="translate(793.701172 0)"/>
      <use xlink:href="#DejaVuSans-64" transform="translate(821.484375 0)"/>
      <use xlink:href="#DejaVuSans-61" transform="translate(884.960938 0)"/>
      <use xlink:href="#DejaVuSans-20" transform="translate(946.240234 0)"/>
      <use xlink:href="#DejaVuSans-2d" transform="translate(978.027344 0)"/>
      <use xlink:href="#DejaVuSans-20" transform="translate(1014.111328 0)"/>
      <use xlink:href="#DejaVuSans-44" transform="translate(1045.898438 0)"/>
      <use xlink:href="#DejaVuSans-31" transform="translate(1122.900391 0)"/>
      <use xlink:href="#DejaVuSans-30" transform="translate(1186.523438 0)"/>
     </g>
    </g>
   </g>
  </g>
 </g>
 <defs>
  <clipPath id="p27cfdc4d0e">
   <rect x="75.35" y="17.28" width="793.16" height="301.026348"/>
  </clipPath>
 </defs>
</svg>
