<?xml version="1.0" encoding="utf-8" standalone="no"?>
<!DOCTYPE svg PUBLIC "-//W3C//DTD SVG 1.1//EN"
  "http://www.w3.org/Graphics/SVG/1.1/DTD/svg11.dtd">
<svg xmlns:xlink="http://www.w3.org/1999/xlink" width="1152pt" height="432pt" viewBox="0 0 1152 432" xmlns="http://www.w3.org/2000/svg" version="1.1">
 <metadata>
  <rdf:RDF xmlns:dc="http://purl.org/dc/elements/1.1/" xmlns:cc="http://creativecommons.org/ns#" xmlns:rdf="http://www.w3.org/1999/02/22-rdf-syntax-ns#">
   <cc:Work>
    <dc:type rdf:resource="http://purl.org/dc/dcmitype/StillImage"/>
    <dc:date>2025-05-27T17:47:43.647830</dc:date>
    <dc:format>image/svg+xml</dc:format>
    <dc:creator>
     <cc:Agent>
      <dc:title>Matplotlib v3.10.3, https://matplotlib.org/</dc:title>
     </cc:Agent>
    </dc:creator>
   </cc:Work>
  </rdf:RDF>
 </metadata>
 <defs>
  <style type="text/css">*{stroke-linejoin: round; stroke-linecap: butt}</style>
 </defs>
 <g id="figure_1">
  <g id="patch_1">
   <path d="M 0 432 
L 1152 432 
L 1152 0 
L 0 0 
z
" style="fill: #ffffff"/>
  </g>
  <g id="axes_1">
   <g id="patch_2">
    <path d="M 75.35 318.306348 
L 1134.72 318.306348 
L 1134.72 17.28 
L 75.35 17.28 
z
" style="fill: #ffffff"/>
   </g>
   <g id="patch_3">
    <path d="M 123.503182 318.306348 
L 130.481904 318.306348 
L 130.481904 264.947092 
L 123.503182 264.947092 
z
" clip-path="url(#p1724862ff2)" style="fill: #87ceeb; opacity: 0.4"/>
   </g>
   <g id="patch_4">
    <path d="M 193.290402 318.306348 
L 200.269124 318.306348 
L 200.269124 76.678202 
L 193.290402 76.678202 
z
" clip-path="url(#p1724862ff2)" style="fill: #87ceeb; opacity: 0.4"/>
   </g>
   <g id="patch_5">
    <path d="M 263.077622 318.306348 
L 270.056344 318.306348 
L 270.056344 282.452302 
L 263.077622 282.452302 
z
" clip-path="url(#p1724862ff2)" style="fill: #87ceeb; opacity: 0.4"/>
   </g>
   <g id="patch_6">
    <path d="M 332.864842 318.306348 
L 339.843564 318.306348 
L 339.843564 293.911536 
L 332.864842 293.911536 
z
" clip-path="url(#p1724862ff2)" style="fill: #87ceeb; opacity: 0.4"/>
   </g>
   <g id="patch_7">
    <path d="M 402.652062 318.306348 
L 409.630784 318.306348 
L 409.630784 291.275209 
L 402.652062 291.275209 
z
" clip-path="url(#p1724862ff2)" style="fill: #87ceeb; opacity: 0.4"/>
   </g>
   <g id="patch_8">
    <path d="M 472.439282 318.306348 
L 479.418004 318.306348 
L 479.418004 293.70063 
L 472.439282 293.70063 
z
" clip-path="url(#p1724862ff2)" style="fill: #87ceeb; opacity: 0.4"/>
   </g>
   <g id="patch_9">
    <path d="M 542.226502 318.306348 
L 549.205224 318.306348 
L 549.205224 294.473953 
L 542.226502 294.473953 
z
" clip-path="url(#p1724862ff2)" style="fill: #87ceeb; opacity: 0.4"/>
   </g>
   <g id="patch_10">
    <path d="M 612.013722 318.306348 
L 618.992444 318.306348 
L 618.992444 293.70063 
L 612.013722 293.70063 
z
" clip-path="url(#p1724862ff2)" style="fill: #87ceeb; opacity: 0.4"/>
   </g>
   <g id="patch_11">
    <path d="M 681.800942 318.306348 
L 688.779664 318.306348 
L 688.779664 292.470344 
L 681.800942 292.470344 
z
" clip-path="url(#p1724862ff2)" style="fill: #87ceeb; opacity: 0.4"/>
   </g>
   <g id="patch_12">
    <path d="M 751.588162 318.306348 
L 758.566884 318.306348 
L 758.566884 290.501887 
L 751.588162 290.501887 
z
" clip-path="url(#p1724862ff2)" style="fill: #87ceeb; opacity: 0.4"/>
   </g>
   <g id="patch_13">
    <path d="M 821.375382 318.306348 
L 828.354104 318.306348 
L 828.354104 266.634341 
L 821.375382 266.634341 
z
" clip-path="url(#p1724862ff2)" style="fill: #87ceeb; opacity: 0.4"/>
   </g>
   <g id="patch_14">
    <path d="M 891.162602 318.306348 
L 898.141324 318.306348 
L 898.141324 306.284697 
L 891.162602 306.284697 
z
" clip-path="url(#p1724862ff2)" style="fill: #87ceeb; opacity: 0.4"/>
   </g>
   <g id="patch_15">
    <path d="M 960.949822 318.306348 
L 967.928544 318.306348 
L 967.928544 286.178311 
L 960.949822 286.178311 
z
" clip-path="url(#p1724862ff2)" style="fill: #87ceeb; opacity: 0.4"/>
   </g>
   <g id="patch_16">
    <path d="M 1030.737042 318.306348 
L 1037.715764 318.306348 
L 1037.715764 248.004298 
L 1030.737042 248.004298 
z
" clip-path="url(#p1724862ff2)" style="fill: #87ceeb; opacity: 0.4"/>
   </g>
   <g id="patch_17">
    <path d="M 130.481904 318.306348 
L 137.460626 318.306348 
L 137.460626 260.471194 
L 130.481904 260.471194 
z
" clip-path="url(#p1724862ff2)" style="fill: #87ceeb; opacity: 0.6"/>
   </g>
   <g id="patch_18">
    <path d="M 200.269124 318.306348 
L 207.247846 318.306348 
L 207.247846 31.614588 
L 200.269124 31.614588 
z
" clip-path="url(#p1724862ff2)" style="fill: #87ceeb; opacity: 0.6"/>
   </g>
   <g id="patch_19">
    <path d="M 270.056344 318.306348 
L 277.035066 318.306348 
L 277.035066 282.452302 
L 270.056344 282.452302 
z
" clip-path="url(#p1724862ff2)" style="fill: #87ceeb; opacity: 0.6"/>
   </g>
   <g id="patch_20">
    <path d="M 339.843564 318.306348 
L 346.822286 318.306348 
L 346.822286 295.985447 
L 339.843564 295.985447 
z
" clip-path="url(#p1724862ff2)" style="fill: #87ceeb; opacity: 0.6"/>
   </g>
   <g id="patch_21">
    <path d="M 409.630784 318.306348 
L 416.609506 318.306348 
L 416.609506 294.860614 
L 409.630784 294.860614 
z
" clip-path="url(#p1724862ff2)" style="fill: #87ceeb; opacity: 0.6"/>
   </g>
   <g id="patch_22">
    <path d="M 479.418004 318.306348 
L 486.396726 318.306348 
L 486.396726 297.215733 
L 479.418004 297.215733 
z
" clip-path="url(#p1724862ff2)" style="fill: #87ceeb; opacity: 0.6"/>
   </g>
   <g id="patch_23">
    <path d="M 549.205224 318.306348 
L 556.183946 318.306348 
L 556.183946 299.816908 
L 549.205224 299.816908 
z
" clip-path="url(#p1724862ff2)" style="fill: #87ceeb; opacity: 0.6"/>
   </g>
   <g id="patch_24">
    <path d="M 618.992444 318.306348 
L 625.971166 318.306348 
L 625.971166 293.243667 
L 618.992444 293.243667 
z
" clip-path="url(#p1724862ff2)" style="fill: #87ceeb; opacity: 0.6"/>
   </g>
   <g id="patch_25">
    <path d="M 688.779664 318.306348 
L 695.758386 318.306348 
L 695.758386 296.336957 
L 688.779664 296.336957 
z
" clip-path="url(#p1724862ff2)" style="fill: #87ceeb; opacity: 0.6"/>
   </g>
   <g id="patch_26">
    <path d="M 758.566884 318.306348 
L 765.545606 318.306348 
L 765.545606 292.786703 
L 758.566884 292.786703 
z
" clip-path="url(#p1724862ff2)" style="fill: #87ceeb; opacity: 0.6"/>
   </g>
   <g id="patch_27">
    <path d="M 828.354104 318.306348 
L 835.332826 318.306348 
L 835.332826 271.344578 
L 828.354104 271.344578 
z
" clip-path="url(#p1724862ff2)" style="fill: #87ceeb; opacity: 0.6"/>
   </g>
   <g id="patch_28">
    <path d="M 898.141324 318.306348 
L 905.120046 318.306348 
L 905.120046 307.05802 
L 898.141324 307.05802 
z
" clip-path="url(#p1724862ff2)" style="fill: #87ceeb; opacity: 0.6"/>
   </g>
   <g id="patch_29">
    <path d="M 967.928544 318.306348 
L 974.907266 318.306348 
L 974.907266 279.042653 
L 967.928544 279.042653 
z
" clip-path="url(#p1724862ff2)" style="fill: #87ceeb; opacity: 0.6"/>
   </g>
   <g id="patch_30">
    <path d="M 1037.715764 318.306348 
L 1044.694486 318.306348 
L 1044.694486 248.004298 
L 1037.715764 248.004298 
z
" clip-path="url(#p1724862ff2)" style="fill: #87ceeb; opacity: 0.6"/>
   </g>
   <g id="patch_31">
    <path d="M 137.460626 318.306348 
L 144.439348 318.306348 
L 144.439348 270.747011 
L 137.460626 270.747011 
z
" clip-path="url(#p1724862ff2)" style="fill: #87ceeb; opacity: 0.8"/>
   </g>
   <g id="patch_32">
    <path d="M 207.247846 318.306348 
L 214.226568 318.306348 
L 214.226568 78.224847 
L 207.247846 78.224847 
z
" clip-path="url(#p1724862ff2)" style="fill: #87ceeb; opacity: 0.8"/>
   </g>
   <g id="patch_33">
    <path d="M 277.035066 318.306348 
L 284.013788 318.306348 
L 284.013788 282.452302 
L 277.035066 282.452302 
z
" clip-path="url(#p1724862ff2)" style="fill: #87ceeb; opacity: 0.8"/>
   </g>
   <g id="patch_34">
    <path d="M 346.822286 318.306348 
L 353.801008 318.306348 
L 353.801008 297.989055 
L 346.822286 297.989055 
z
" clip-path="url(#p1724862ff2)" style="fill: #87ceeb; opacity: 0.8"/>
   </g>
   <g id="patch_35">
    <path d="M 416.609506 318.306348 
L 423.588228 318.306348 
L 423.588228 297.075128 
L 416.609506 297.075128 
z
" clip-path="url(#p1724862ff2)" style="fill: #87ceeb; opacity: 0.8"/>
   </g>
   <g id="patch_36">
    <path d="M 486.396726 318.306348 
L 493.375448 318.306348 
L 493.375448 299.465398 
L 486.396726 299.465398 
z
" clip-path="url(#p1724862ff2)" style="fill: #87ceeb; opacity: 0.8"/>
   </g>
   <g id="patch_37">
    <path d="M 556.183946 318.306348 
L 563.162668 318.306348 
L 563.162668 301.539309 
L 556.183946 301.539309 
z
" clip-path="url(#p1724862ff2)" style="fill: #87ceeb; opacity: 0.8"/>
   </g>
   <g id="patch_38">
    <path d="M 625.971166 318.306348 
L 632.949888 318.306348 
L 632.949888 299.746606 
L 625.971166 299.746606 
z
" clip-path="url(#p1724862ff2)" style="fill: #87ceeb; opacity: 0.8"/>
   </g>
   <g id="patch_39">
    <path d="M 695.758386 318.306348 
L 702.737108 318.306348 
L 702.737108 298.797529 
L 695.758386 298.797529 
z
" clip-path="url(#p1724862ff2)" style="fill: #87ceeb; opacity: 0.8"/>
   </g>
   <g id="patch_40">
    <path d="M 765.545606 318.306348 
L 772.524328 318.306348 
L 772.524328 297.286035 
L 765.545606 297.286035 
z
" clip-path="url(#p1724862ff2)" style="fill: #87ceeb; opacity: 0.8"/>
   </g>
   <g id="patch_41">
    <path d="M 835.332826 318.306348 
L 842.311548 318.306348 
L 842.311548 276.19542 
L 835.332826 276.19542 
z
" clip-path="url(#p1724862ff2)" style="fill: #87ceeb; opacity: 0.8"/>
   </g>
   <g id="patch_42">
    <path d="M 905.120046 318.306348 
L 912.098768 318.306348 
L 912.098768 309.870102 
L 905.120046 309.870102 
z
" clip-path="url(#p1724862ff2)" style="fill: #87ceeb; opacity: 0.8"/>
   </g>
   <g id="patch_43">
    <path d="M 974.907266 318.306348 
L 981.885988 318.306348 
L 981.885988 301.117496 
L 974.907266 301.117496 
z
" clip-path="url(#p1724862ff2)" style="fill: #87ceeb; opacity: 0.8"/>
   </g>
   <g id="patch_44">
    <path d="M 1044.694486 318.306348 
L 1051.673208 318.306348 
L 1051.673208 248.004298 
L 1044.694486 248.004298 
z
" clip-path="url(#p1724862ff2)" style="fill: #87ceeb; opacity: 0.8"/>
   </g>
   <g id="patch_45">
    <path d="M 144.439348 318.306348 
L 151.41807 318.306348 
L 151.41807 266.071924 
L 144.439348 266.071924 
z
" clip-path="url(#p1724862ff2)" style="fill: #87ceeb"/>
   </g>
   <g id="patch_46">
    <path d="M 214.226568 318.306348 
L 221.20529 318.306348 
L 221.20529 57.7318 
L 214.226568 57.7318 
z
" clip-path="url(#p1724862ff2)" style="fill: #87ceeb"/>
   </g>
   <g id="patch_47">
    <path d="M 284.013788 318.306348 
L 290.99251 318.306348 
L 290.99251 282.452302 
L 284.013788 282.452302 
z
" clip-path="url(#p1724862ff2)" style="fill: #87ceeb"/>
   </g>
   <g id="patch_48">
    <path d="M 353.801008 318.306348 
L 360.77973 318.306348 
L 360.77973 299.395096 
L 353.801008 299.395096 
z
" clip-path="url(#p1724862ff2)" style="fill: #87ceeb"/>
   </g>
   <g id="patch_49">
    <path d="M 423.588228 318.306348 
L 430.56695 318.306348 
L 430.56695 298.621774 
L 423.588228 298.621774 
z
" clip-path="url(#p1724862ff2)" style="fill: #87ceeb"/>
   </g>
   <g id="patch_50">
    <path d="M 493.375448 318.306348 
L 500.35417 318.306348 
L 500.35417 301.609611 
L 493.375448 301.609611 
z
" clip-path="url(#p1724862ff2)" style="fill: #87ceeb"/>
   </g>
   <g id="patch_51">
    <path d="M 563.162668 318.306348 
L 570.14139 318.306348 
L 570.14139 304.31624 
L 563.162668 304.31624 
z
" clip-path="url(#p1724862ff2)" style="fill: #87ceeb"/>
   </g>
   <g id="patch_52">
    <path d="M 632.949888 318.306348 
L 639.92861 318.306348 
L 639.92861 300.168419 
L 632.949888 300.168419 
z
" clip-path="url(#p1724862ff2)" style="fill: #87ceeb"/>
   </g>
   <g id="patch_53">
    <path d="M 702.737108 318.306348 
L 709.71583 318.306348 
L 709.71583 301.996272 
L 702.737108 301.996272 
z
" clip-path="url(#p1724862ff2)" style="fill: #87ceeb"/>
   </g>
   <g id="patch_54">
    <path d="M 772.524328 318.306348 
L 779.50305 318.306348 
L 779.50305 298.797529 
L 772.524328 298.797529 
z
" clip-path="url(#p1724862ff2)" style="fill: #87ceeb"/>
   </g>
   <g id="patch_55">
    <path d="M 842.311548 318.306348 
L 849.29027 318.306348 
L 849.29027 282.663208 
L 842.311548 282.663208 
z
" clip-path="url(#p1724862ff2)" style="fill: #87ceeb"/>
   </g>
   <g id="patch_56">
    <path d="M 912.098768 318.306348 
L 919.07749 318.306348 
L 919.07749 313.490657 
L 912.098768 313.490657 
z
" clip-path="url(#p1724862ff2)" style="fill: #87ceeb"/>
   </g>
   <g id="patch_57">
    <path d="M 981.885988 318.306348 
L 988.86471 318.306348 
L 988.86471 296.934524 
L 981.885988 296.934524 
z
" clip-path="url(#p1724862ff2)" style="fill: #87ceeb"/>
   </g>
   <g id="patch_58">
    <path d="M 1051.673208 318.306348 
L 1058.65193 318.306348 
L 1058.65193 248.004298 
L 1051.673208 248.004298 
z
" clip-path="url(#p1724862ff2)" style="fill: #87ceeb"/>
   </g>
   <g id="patch_59">
    <path d="M 151.41807 318.306348 
L 158.396792 318.306348 
L 158.396792 264.947092 
L 151.41807 264.947092 
z
" clip-path="url(#p1724862ff2)" style="fill: #fa8072; opacity: 0.4"/>
   </g>
   <g id="patch_60">
    <path d="M 221.20529 318.306348 
L 228.184012 318.306348 
L 228.184012 76.678202 
L 221.20529 76.678202 
z
" clip-path="url(#p1724862ff2)" style="fill: #fa8072; opacity: 0.4"/>
   </g>
   <g id="patch_61">
    <path d="M 290.99251 318.306348 
L 297.971232 318.306348 
L 297.971232 282.452302 
L 290.99251 282.452302 
z
" clip-path="url(#p1724862ff2)" style="fill: #fa8072; opacity: 0.4"/>
   </g>
   <g id="patch_62">
    <path d="M 360.77973 318.306348 
L 367.758452 318.306348 
L 367.758452 293.911536 
L 360.77973 293.911536 
z
" clip-path="url(#p1724862ff2)" style="fill: #fa8072; opacity: 0.4"/>
   </g>
   <g id="patch_63">
    <path d="M 430.56695 318.306348 
L 437.545672 318.306348 
L 437.545672 291.275209 
L 430.56695 291.275209 
z
" clip-path="url(#p1724862ff2)" style="fill: #fa8072; opacity: 0.4"/>
   </g>
   <g id="patch_64">
    <path d="M 500.35417 318.306348 
L 507.332892 318.306348 
L 507.332892 293.70063 
L 500.35417 293.70063 
z
" clip-path="url(#p1724862ff2)" style="fill: #fa8072; opacity: 0.4"/>
   </g>
   <g id="patch_65">
    <path d="M 570.14139 318.306348 
L 577.120112 318.306348 
L 577.120112 294.473953 
L 570.14139 294.473953 
z
" clip-path="url(#p1724862ff2)" style="fill: #fa8072; opacity: 0.4"/>
   </g>
   <g id="patch_66">
    <path d="M 639.92861 318.306348 
L 646.907332 318.306348 
L 646.907332 293.70063 
L 639.92861 293.70063 
z
" clip-path="url(#p1724862ff2)" style="fill: #fa8072; opacity: 0.4"/>
   </g>
   <g id="patch_67">
    <path d="M 709.71583 318.306348 
L 716.694552 318.306348 
L 716.694552 292.470344 
L 709.71583 292.470344 
z
" clip-path="url(#p1724862ff2)" style="fill: #fa8072; opacity: 0.4"/>
   </g>
   <g id="patch_68">
    <path d="M 779.50305 318.306348 
L 786.481772 318.306348 
L 786.481772 290.501887 
L 779.50305 290.501887 
z
" clip-path="url(#p1724862ff2)" style="fill: #fa8072; opacity: 0.4"/>
   </g>
   <g id="patch_69">
    <path d="M 849.29027 318.306348 
L 856.268992 318.306348 
L 856.268992 264.982243 
L 849.29027 264.982243 
z
" clip-path="url(#p1724862ff2)" style="fill: #fa8072; opacity: 0.4"/>
   </g>
   <g id="patch_70">
    <path d="M 919.07749 318.306348 
L 926.056212 318.306348 
L 926.056212 306.952566 
L 919.07749 306.952566 
z
" clip-path="url(#p1724862ff2)" style="fill: #fa8072; opacity: 0.4"/>
   </g>
   <g id="patch_71">
    <path d="M 988.86471 318.306348 
L 995.843432 318.306348 
L 995.843432 285.47529 
L 988.86471 285.47529 
z
" clip-path="url(#p1724862ff2)" style="fill: #fa8072; opacity: 0.4"/>
   </g>
   <g id="patch_72">
    <path d="M 1058.65193 318.306348 
L 1065.630652 318.306348 
L 1065.630652 248.004298 
L 1058.65193 248.004298 
z
" clip-path="url(#p1724862ff2)" style="fill: #fa8072; opacity: 0.4"/>
   </g>
   <g id="patch_73">
    <path d="M 158.396792 318.306348 
L 165.375514 318.306348 
L 165.375514 257.249017 
L 158.396792 257.249017 
z
" clip-path="url(#p1724862ff2)" style="fill: #fa8072; opacity: 0.6"/>
   </g>
   <g id="patch_74">
    <path d="M 228.184012 318.306348 
L 235.162734 318.306348 
L 235.162734 31.614588 
L 228.184012 31.614588 
z
" clip-path="url(#p1724862ff2)" style="fill: #fa8072; opacity: 0.6"/>
   </g>
   <g id="patch_75">
    <path d="M 297.971232 318.306348 
L 304.949954 318.306348 
L 304.949954 282.452302 
L 297.971232 282.452302 
z
" clip-path="url(#p1724862ff2)" style="fill: #fa8072; opacity: 0.6"/>
   </g>
   <g id="patch_76">
    <path d="M 367.758452 318.306348 
L 374.737174 318.306348 
L 374.737174 295.985447 
L 367.758452 295.985447 
z
" clip-path="url(#p1724862ff2)" style="fill: #fa8072; opacity: 0.6"/>
   </g>
   <g id="patch_77">
    <path d="M 437.545672 318.306348 
L 444.524394 318.306348 
L 444.524394 294.860614 
L 437.545672 294.860614 
z
" clip-path="url(#p1724862ff2)" style="fill: #fa8072; opacity: 0.6"/>
   </g>
   <g id="patch_78">
    <path d="M 507.332892 318.306348 
L 514.311614 318.306348 
L 514.311614 297.215733 
L 507.332892 297.215733 
z
" clip-path="url(#p1724862ff2)" style="fill: #fa8072; opacity: 0.6"/>
   </g>
   <g id="patch_79">
    <path d="M 577.120112 318.306348 
L 584.098834 318.306348 
L 584.098834 299.816908 
L 577.120112 299.816908 
z
" clip-path="url(#p1724862ff2)" style="fill: #fa8072; opacity: 0.6"/>
   </g>
   <g id="patch_80">
    <path d="M 646.907332 318.306348 
L 653.886054 318.306348 
L 653.886054 293.243667 
L 646.907332 293.243667 
z
" clip-path="url(#p1724862ff2)" style="fill: #fa8072; opacity: 0.6"/>
   </g>
   <g id="patch_81">
    <path d="M 716.694552 318.306348 
L 723.673274 318.306348 
L 723.673274 296.336957 
L 716.694552 296.336957 
z
" clip-path="url(#p1724862ff2)" style="fill: #fa8072; opacity: 0.6"/>
   </g>
   <g id="patch_82">
    <path d="M 786.481772 318.306348 
L 793.460494 318.306348 
L 793.460494 292.786703 
L 786.481772 292.786703 
z
" clip-path="url(#p1724862ff2)" style="fill: #fa8072; opacity: 0.6"/>
   </g>
   <g id="patch_83">
    <path d="M 856.268992 318.306348 
L 863.247714 318.306348 
L 863.247714 271.41488 
L 856.268992 271.41488 
z
" clip-path="url(#p1724862ff2)" style="fill: #fa8072; opacity: 0.6"/>
   </g>
   <g id="patch_84">
    <path d="M 926.056212 318.306348 
L 933.034934 318.306348 
L 933.034934 307.163473 
L 926.056212 307.163473 
z
" clip-path="url(#p1724862ff2)" style="fill: #fa8072; opacity: 0.6"/>
   </g>
   <g id="patch_85">
    <path d="M 995.843432 318.306348 
L 1002.822154 318.306348 
L 1002.822154 285.264384 
L 995.843432 285.264384 
z
" clip-path="url(#p1724862ff2)" style="fill: #fa8072; opacity: 0.6"/>
   </g>
   <g id="patch_86">
    <path d="M 1065.630652 318.306348 
L 1072.609374 318.306348 
L 1072.609374 248.004298 
L 1065.630652 248.004298 
z
" clip-path="url(#p1724862ff2)" style="fill: #fa8072; opacity: 0.6"/>
   </g>
   <g id="patch_87">
    <path d="M 165.375514 318.306348 
L 172.354236 318.306348 
L 172.354236 270.747011 
L 165.375514 270.747011 
z
" clip-path="url(#p1724862ff2)" style="fill: #fa8072; opacity: 0.8"/>
   </g>
   <g id="patch_88">
    <path d="M 235.162734 318.306348 
L 242.141456 318.306348 
L 242.141456 78.224847 
L 235.162734 78.224847 
z
" clip-path="url(#p1724862ff2)" style="fill: #fa8072; opacity: 0.8"/>
   </g>
   <g id="patch_89">
    <path d="M 304.949954 318.306348 
L 311.928676 318.306348 
L 311.928676 282.452302 
L 304.949954 282.452302 
z
" clip-path="url(#p1724862ff2)" style="fill: #fa8072; opacity: 0.8"/>
   </g>
   <g id="patch_90">
    <path d="M 374.737174 318.306348 
L 381.715896 318.306348 
L 381.715896 297.989055 
L 374.737174 297.989055 
z
" clip-path="url(#p1724862ff2)" style="fill: #fa8072; opacity: 0.8"/>
   </g>
   <g id="patch_91">
    <path d="M 444.524394 318.306348 
L 451.503116 318.306348 
L 451.503116 297.075128 
L 444.524394 297.075128 
z
" clip-path="url(#p1724862ff2)" style="fill: #fa8072; opacity: 0.8"/>
   </g>
   <g id="patch_92">
    <path d="M 514.311614 318.306348 
L 521.290336 318.306348 
L 521.290336 299.465398 
L 514.311614 299.465398 
z
" clip-path="url(#p1724862ff2)" style="fill: #fa8072; opacity: 0.8"/>
   </g>
   <g id="patch_93">
    <path d="M 584.098834 318.306348 
L 591.077556 318.306348 
L 591.077556 301.539309 
L 584.098834 301.539309 
z
" clip-path="url(#p1724862ff2)" style="fill: #fa8072; opacity: 0.8"/>
   </g>
   <g id="patch_94">
    <path d="M 653.886054 318.306348 
L 660.864776 318.306348 
L 660.864776 299.746606 
L 653.886054 299.746606 
z
" clip-path="url(#p1724862ff2)" style="fill: #fa8072; opacity: 0.8"/>
   </g>
   <g id="patch_95">
    <path d="M 723.673274 318.306348 
L 730.651996 318.306348 
L 730.651996 298.797529 
L 723.673274 298.797529 
z
" clip-path="url(#p1724862ff2)" style="fill: #fa8072; opacity: 0.8"/>
   </g>
   <g id="patch_96">
    <path d="M 793.460494 318.306348 
L 800.439216 318.306348 
L 800.439216 297.286035 
L 793.460494 297.286035 
z
" clip-path="url(#p1724862ff2)" style="fill: #fa8072; opacity: 0.8"/>
   </g>
   <g id="patch_97">
    <path d="M 863.247714 318.306348 
L 870.226436 318.306348 
L 870.226436 276.476628 
L 863.247714 276.476628 
z
" clip-path="url(#p1724862ff2)" style="fill: #fa8072; opacity: 0.8"/>
   </g>
   <g id="patch_98">
    <path d="M 933.034934 318.306348 
L 940.013656 318.306348 
L 940.013656 310.081008 
L 933.034934 310.081008 
z
" clip-path="url(#p1724862ff2)" style="fill: #fa8072; opacity: 0.8"/>
   </g>
   <g id="patch_99">
    <path d="M 1002.822154 318.306348 
L 1009.800876 318.306348 
L 1009.800876 300.871439 
L 1002.822154 300.871439 
z
" clip-path="url(#p1724862ff2)" style="fill: #fa8072; opacity: 0.8"/>
   </g>
   <g id="patch_100">
    <path d="M 1072.609374 318.306348 
L 1079.588096 318.306348 
L 1079.588096 248.004298 
L 1072.609374 248.004298 
z
" clip-path="url(#p1724862ff2)" style="fill: #fa8072; opacity: 0.8"/>
   </g>
   <g id="patch_101">
    <path d="M 172.354236 318.306348 
L 179.332958 318.306348 
L 179.332958 266.071924 
L 172.354236 266.071924 
z
" clip-path="url(#p1724862ff2)" style="fill: #fa8072"/>
   </g>
   <g id="patch_102">
    <path d="M 242.141456 318.306348 
L 249.120178 318.306348 
L 249.120178 61.422657 
L 242.141456 61.422657 
z
" clip-path="url(#p1724862ff2)" style="fill: #fa8072"/>
   </g>
   <g id="patch_103">
    <path d="M 311.928676 318.306348 
L 318.907398 318.306348 
L 318.907398 282.452302 
L 311.928676 282.452302 
z
" clip-path="url(#p1724862ff2)" style="fill: #fa8072"/>
   </g>
   <g id="patch_104">
    <path d="M 381.715896 318.306348 
L 388.694618 318.306348 
L 388.694618 299.395096 
L 381.715896 299.395096 
z
" clip-path="url(#p1724862ff2)" style="fill: #fa8072"/>
   </g>
   <g id="patch_105">
    <path d="M 451.503116 318.306348 
L 458.481838 318.306348 
L 458.481838 298.621774 
L 451.503116 298.621774 
z
" clip-path="url(#p1724862ff2)" style="fill: #fa8072"/>
   </g>
   <g id="patch_106">
    <path d="M 521.290336 318.306348 
L 528.269058 318.306348 
L 528.269058 301.609611 
L 521.290336 301.609611 
z
" clip-path="url(#p1724862ff2)" style="fill: #fa8072"/>
   </g>
   <g id="patch_107">
    <path d="M 591.077556 318.306348 
L 598.056278 318.306348 
L 598.056278 304.31624 
L 591.077556 304.31624 
z
" clip-path="url(#p1724862ff2)" style="fill: #fa8072"/>
   </g>
   <g id="patch_108">
    <path d="M 660.864776 318.306348 
L 667.843498 318.306348 
L 667.843498 300.168419 
L 660.864776 300.168419 
z
" clip-path="url(#p1724862ff2)" style="fill: #fa8072"/>
   </g>
   <g id="patch_109">
    <path d="M 730.651996 318.306348 
L 737.630718 318.306348 
L 737.630718 301.996272 
L 730.651996 301.996272 
z
" clip-path="url(#p1724862ff2)" style="fill: #fa8072"/>
   </g>
   <g id="patch_110">
    <path d="M 800.439216 318.306348 
L 807.417938 318.306348 
L 807.417938 298.797529 
L 800.439216 298.797529 
z
" clip-path="url(#p1724862ff2)" style="fill: #fa8072"/>
   </g>
   <g id="patch_111">
    <path d="M 870.226436 318.306348 
L 877.205158 318.306348 
L 877.205158 283.014718 
L 870.226436 283.014718 
z
" clip-path="url(#p1724862ff2)" style="fill: #fa8072"/>
   </g>
   <g id="patch_112">
    <path d="M 940.013656 318.306348 
L 946.992378 318.306348 
L 946.992378 313.525808 
L 940.013656 313.525808 
z
" clip-path="url(#p1724862ff2)" style="fill: #fa8072"/>
   </g>
   <g id="patch_113">
    <path d="M 1009.800876 318.306348 
L 1016.779598 318.306348 
L 1016.779598 297.532092 
L 1009.800876 297.532092 
z
" clip-path="url(#p1724862ff2)" style="fill: #fa8072"/>
   </g>
   <g id="patch_114">
    <path d="M 1079.588096 318.306348 
L 1086.566818 318.306348 
L 1086.566818 248.004298 
L 1079.588096 248.004298 
z
" clip-path="url(#p1724862ff2)" style="fill: #fa8072"/>
   </g>
   <g id="matplotlib.axis_1">
    <g id="xtick_1">
     <g id="line2d_1">
      <defs>
       <path id="me9cb7e4240" d="M 0 0 
L 0 3.5 
" style="stroke: #000000; stroke-width: 0.8"/>
      </defs>
      <g>
       <use xlink:href="#me9cb7e4240" x="151.41807" y="318.306348" style="stroke: #000000; stroke-width: 0.8"/>
      </g>
     </g>
     <g id="text_1">
      <!-- DTree -->
      <g transform="translate(116.792819 366.175352) rotate(-45) scale(0.16 -0.16)">
       <defs>
        <path id="DejaVuSans-44" d="M 1259 4147 
L 1259 519 
L 2022 519 
Q 2988 519 3436 956 
Q 3884 1394 3884 2338 
Q 3884 3275 3436 3711 
Q 2988 4147 2022 4147 
L 1259 4147 
z
M 628 4666 
L 1925 4666 
Q 3281 4666 3915 4102 
Q 4550 3538 4550 2338 
Q 4550 1131 3912 565 
Q 3275 0 1925 0 
L 628 0 
L 628 4666 
z
" transform="scale(0.015625)"/>
        <path id="DejaVuSans-54" d="M -19 4666 
L 3928 4666 
L 3928 4134 
L 2272 4134 
L 2272 0 
L 1638 0 
L 1638 4134 
L -19 4134 
L -19 4666 
z
" transform="scale(0.015625)"/>
        <path id="DejaVuSans-72" d="M 2631 2963 
Q 2534 3019 2420 3045 
Q 2306 3072 2169 3072 
Q 1681 3072 1420 2755 
Q 1159 2438 1159 1844 
L 1159 0 
L 581 0 
L 581 3500 
L 1159 3500 
L 1159 2956 
Q 1341 3275 1631 3429 
Q 1922 3584 2338 3584 
Q 2397 3584 2469 3576 
Q 2541 3569 2628 3553 
L 2631 2963 
z
" transform="scale(0.015625)"/>
        <path id="DejaVuSans-65" d="M 3597 1894 
L 3597 1613 
L 953 1613 
Q 991 1019 1311 708 
Q 1631 397 2203 397 
Q 2534 397 2845 478 
Q 3156 559 3463 722 
L 3463 178 
Q 3153 47 2828 -22 
Q 2503 -91 2169 -91 
Q 1331 -91 842 396 
Q 353 884 353 1716 
Q 353 2575 817 3079 
Q 1281 3584 2069 3584 
Q 2775 3584 3186 3129 
Q 3597 2675 3597 1894 
z
M 3022 2063 
Q 3016 2534 2758 2815 
Q 2500 3097 2075 3097 
Q 1594 3097 1305 2825 
Q 1016 2553 972 2059 
L 3022 2063 
z
" transform="scale(0.015625)"/>
       </defs>
       <use xlink:href="#DejaVuSans-44"/>
       <use xlink:href="#DejaVuSans-54" transform="translate(77.001953 0)"/>
       <use xlink:href="#DejaVuSans-72" transform="translate(123.335938 0)"/>
       <use xlink:href="#DejaVuSans-65" transform="translate(162.199219 0)"/>
       <use xlink:href="#DejaVuSans-65" transform="translate(223.722656 0)"/>
      </g>
     </g>
    </g>
    <g id="xtick_2">
     <g id="line2d_2">
      <g>
       <use xlink:href="#me9cb7e4240" x="221.20529" y="318.306348" style="stroke: #000000; stroke-width: 0.8"/>
      </g>
     </g>
     <g id="text_2">
      <!-- barshift_128b -->
      <g transform="translate(140.909779 411.530948) rotate(-45) scale(0.16 -0.16)">
       <defs>
        <path id="DejaVuSans-62" d="M 3116 1747 
Q 3116 2381 2855 2742 
Q 2594 3103 2138 3103 
Q 1681 3103 1420 2742 
Q 1159 2381 1159 1747 
Q 1159 1113 1420 752 
Q 1681 391 2138 391 
Q 2594 391 2855 752 
Q 3116 1113 3116 1747 
z
M 1159 2969 
Q 1341 3281 1617 3432 
Q 1894 3584 2278 3584 
Q 2916 3584 3314 3078 
Q 3713 2572 3713 1747 
Q 3713 922 3314 415 
Q 2916 -91 2278 -91 
Q 1894 -91 1617 61 
Q 1341 213 1159 525 
L 1159 0 
L 581 0 
L 581 4863 
L 1159 4863 
L 1159 2969 
z
" transform="scale(0.015625)"/>
        <path id="DejaVuSans-61" d="M 2194 1759 
Q 1497 1759 1228 1600 
Q 959 1441 959 1056 
Q 959 750 1161 570 
Q 1363 391 1709 391 
Q 2188 391 2477 730 
Q 2766 1069 2766 1631 
L 2766 1759 
L 2194 1759 
z
M 3341 1997 
L 3341 0 
L 2766 0 
L 2766 531 
Q 2569 213 2275 61 
Q 1981 -91 1556 -91 
Q 1019 -91 701 211 
Q 384 513 384 1019 
Q 384 1609 779 1909 
Q 1175 2209 1959 2209 
L 2766 2209 
L 2766 2266 
Q 2766 2663 2505 2880 
Q 2244 3097 1772 3097 
Q 1472 3097 1187 3025 
Q 903 2953 641 2809 
L 641 3341 
Q 956 3463 1253 3523 
Q 1550 3584 1831 3584 
Q 2591 3584 2966 3190 
Q 3341 2797 3341 1997 
z
" transform="scale(0.015625)"/>
        <path id="DejaVuSans-73" d="M 2834 3397 
L 2834 2853 
Q 2591 2978 2328 3040 
Q 2066 3103 1784 3103 
Q 1356 3103 1142 2972 
Q 928 2841 928 2578 
Q 928 2378 1081 2264 
Q 1234 2150 1697 2047 
L 1894 2003 
Q 2506 1872 2764 1633 
Q 3022 1394 3022 966 
Q 3022 478 2636 193 
Q 2250 -91 1575 -91 
Q 1294 -91 989 -36 
Q 684 19 347 128 
L 347 722 
Q 666 556 975 473 
Q 1284 391 1588 391 
Q 1994 391 2212 530 
Q 2431 669 2431 922 
Q 2431 1156 2273 1281 
Q 2116 1406 1581 1522 
L 1381 1569 
Q 847 1681 609 1914 
Q 372 2147 372 2553 
Q 372 3047 722 3315 
Q 1072 3584 1716 3584 
Q 2034 3584 2315 3537 
Q 2597 3491 2834 3397 
z
" transform="scale(0.015625)"/>
        <path id="DejaVuSans-68" d="M 3513 2113 
L 3513 0 
L 2938 0 
L 2938 2094 
Q 2938 2591 2744 2837 
Q 2550 3084 2163 3084 
Q 1697 3084 1428 2787 
Q 1159 2491 1159 1978 
L 1159 0 
L 581 0 
L 581 4863 
L 1159 4863 
L 1159 2956 
Q 1366 3272 1645 3428 
Q 1925 3584 2291 3584 
Q 2894 3584 3203 3211 
Q 3513 2838 3513 2113 
z
" transform="scale(0.015625)"/>
        <path id="DejaVuSans-69" d="M 603 3500 
L 1178 3500 
L 1178 0 
L 603 0 
L 603 3500 
z
M 603 4863 
L 1178 4863 
L 1178 4134 
L 603 4134 
L 603 4863 
z
" transform="scale(0.015625)"/>
        <path id="DejaVuSans-66" d="M 2375 4863 
L 2375 4384 
L 1825 4384 
Q 1516 4384 1395 4259 
Q 1275 4134 1275 3809 
L 1275 3500 
L 2222 3500 
L 2222 3053 
L 1275 3053 
L 1275 0 
L 697 0 
L 697 3053 
L 147 3053 
L 147 3500 
L 697 3500 
L 697 3744 
Q 697 4328 969 4595 
Q 1241 4863 1831 4863 
L 2375 4863 
z
" transform="scale(0.015625)"/>
        <path id="DejaVuSans-74" d="M 1172 4494 
L 1172 3500 
L 2356 3500 
L 2356 3053 
L 1172 3053 
L 1172 1153 
Q 1172 725 1289 603 
Q 1406 481 1766 481 
L 2356 481 
L 2356 0 
L 1766 0 
Q 1100 0 847 248 
Q 594 497 594 1153 
L 594 3053 
L 172 3053 
L 172 3500 
L 594 3500 
L 594 4494 
L 1172 4494 
z
" transform="scale(0.015625)"/>
        <path id="DejaVuSans-5f" d="M 3263 -1063 
L 3263 -1509 
L -63 -1509 
L -63 -1063 
L 3263 -1063 
z
" transform="scale(0.015625)"/>
        <path id="DejaVuSans-31" d="M 794 531 
L 1825 531 
L 1825 4091 
L 703 3866 
L 703 4441 
L 1819 4666 
L 2450 4666 
L 2450 531 
L 3481 531 
L 3481 0 
L 794 0 
L 794 531 
z
" transform="scale(0.015625)"/>
        <path id="DejaVuSans-32" d="M 1228 531 
L 3431 531 
L 3431 0 
L 469 0 
L 469 531 
Q 828 903 1448 1529 
Q 2069 2156 2228 2338 
Q 2531 2678 2651 2914 
Q 2772 3150 2772 3378 
Q 2772 3750 2511 3984 
Q 2250 4219 1831 4219 
Q 1534 4219 1204 4116 
Q 875 4013 500 3803 
L 500 4441 
Q 881 4594 1212 4672 
Q 1544 4750 1819 4750 
Q 2544 4750 2975 4387 
Q 3406 4025 3406 3419 
Q 3406 3131 3298 2873 
Q 3191 2616 2906 2266 
Q 2828 2175 2409 1742 
Q 1991 1309 1228 531 
z
" transform="scale(0.015625)"/>
        <path id="DejaVuSans-38" d="M 2034 2216 
Q 1584 2216 1326 1975 
Q 1069 1734 1069 1313 
Q 1069 891 1326 650 
Q 1584 409 2034 409 
Q 2484 409 2743 651 
Q 3003 894 3003 1313 
Q 3003 1734 2745 1975 
Q 2488 2216 2034 2216 
z
M 1403 2484 
Q 997 2584 770 2862 
Q 544 3141 544 3541 
Q 544 4100 942 4425 
Q 1341 4750 2034 4750 
Q 2731 4750 3128 4425 
Q 3525 4100 3525 3541 
Q 3525 3141 3298 2862 
Q 3072 2584 2669 2484 
Q 3125 2378 3379 2068 
Q 3634 1759 3634 1313 
Q 3634 634 3220 271 
Q 2806 -91 2034 -91 
Q 1263 -91 848 271 
Q 434 634 434 1313 
Q 434 1759 690 2068 
Q 947 2378 1403 2484 
z
M 1172 3481 
Q 1172 3119 1398 2916 
Q 1625 2713 2034 2713 
Q 2441 2713 2670 2916 
Q 2900 3119 2900 3481 
Q 2900 3844 2670 4047 
Q 2441 4250 2034 4250 
Q 1625 4250 1398 4047 
Q 1172 3844 1172 3481 
z
" transform="scale(0.015625)"/>
       </defs>
       <use xlink:href="#DejaVuSans-62"/>
       <use xlink:href="#DejaVuSans-61" transform="translate(63.476562 0)"/>
       <use xlink:href="#DejaVuSans-72" transform="translate(124.755859 0)"/>
       <use xlink:href="#DejaVuSans-73" transform="translate(165.869141 0)"/>
       <use xlink:href="#DejaVuSans-68" transform="translate(217.96875 0)"/>
       <use xlink:href="#DejaVuSans-69" transform="translate(281.347656 0)"/>
       <use xlink:href="#DejaVuSans-66" transform="translate(309.130859 0)"/>
       <use xlink:href="#DejaVuSans-74" transform="translate(342.585938 0)"/>
       <use xlink:href="#DejaVuSans-5f" transform="translate(381.794922 0)"/>
       <use xlink:href="#DejaVuSans-31" transform="translate(431.794922 0)"/>
       <use xlink:href="#DejaVuSans-32" transform="translate(495.417969 0)"/>
       <use xlink:href="#DejaVuSans-38" transform="translate(559.041016 0)"/>
       <use xlink:href="#DejaVuSans-62" transform="translate(622.664062 0)"/>
      </g>
     </g>
    </g>
    <g id="xtick_3">
     <g id="line2d_3">
      <g>
       <use xlink:href="#me9cb7e4240" x="290.99251" y="318.306348" style="stroke: #000000; stroke-width: 0.8"/>
      </g>
     </g>
     <g id="text_3">
      <!-- sobel -->
      <g transform="translate(258.536309 364.006302) rotate(-45) scale(0.16 -0.16)">
       <defs>
        <path id="DejaVuSans-6f" d="M 1959 3097 
Q 1497 3097 1228 2736 
Q 959 2375 959 1747 
Q 959 1119 1226 758 
Q 1494 397 1959 397 
Q 2419 397 2687 759 
Q 2956 1122 2956 1747 
Q 2956 2369 2687 2733 
Q 2419 3097 1959 3097 
z
M 1959 3584 
Q 2709 3584 3137 3096 
Q 3566 2609 3566 1747 
Q 3566 888 3137 398 
Q 2709 -91 1959 -91 
Q 1206 -91 779 398 
Q 353 888 353 1747 
Q 353 2609 779 3096 
Q 1206 3584 1959 3584 
z
" transform="scale(0.015625)"/>
        <path id="DejaVuSans-6c" d="M 603 4863 
L 1178 4863 
L 1178 0 
L 603 0 
L 603 4863 
z
" transform="scale(0.015625)"/>
       </defs>
       <use xlink:href="#DejaVuSans-73"/>
       <use xlink:href="#DejaVuSans-6f" transform="translate(52.099609 0)"/>
       <use xlink:href="#DejaVuSans-62" transform="translate(113.28125 0)"/>
       <use xlink:href="#DejaVuSans-65" transform="translate(176.757812 0)"/>
       <use xlink:href="#DejaVuSans-6c" transform="translate(238.28125 0)"/>
      </g>
     </g>
    </g>
    <g id="xtick_4">
     <g id="line2d_4">
      <g>
       <use xlink:href="#me9cb7e4240" x="360.77973" y="318.306348" style="stroke: #000000; stroke-width: 0.8"/>
      </g>
     </g>
     <g id="text_4">
      <!-- BK_32b -->
      <g transform="translate(315.694602 376.320566) rotate(-45) scale(0.16 -0.16)">
       <defs>
        <path id="DejaVuSans-42" d="M 1259 2228 
L 1259 519 
L 2272 519 
Q 2781 519 3026 730 
Q 3272 941 3272 1375 
Q 3272 1813 3026 2020 
Q 2781 2228 2272 2228 
L 1259 2228 
z
M 1259 4147 
L 1259 2741 
L 2194 2741 
Q 2656 2741 2882 2914 
Q 3109 3088 3109 3444 
Q 3109 3797 2882 3972 
Q 2656 4147 2194 4147 
L 1259 4147 
z
M 628 4666 
L 2241 4666 
Q 2963 4666 3353 4366 
Q 3744 4066 3744 3513 
Q 3744 3084 3544 2831 
Q 3344 2578 2956 2516 
Q 3422 2416 3680 2098 
Q 3938 1781 3938 1306 
Q 3938 681 3513 340 
Q 3088 0 2303 0 
L 628 0 
L 628 4666 
z
" transform="scale(0.015625)"/>
        <path id="DejaVuSans-4b" d="M 628 4666 
L 1259 4666 
L 1259 2694 
L 3353 4666 
L 4166 4666 
L 1850 2491 
L 4331 0 
L 3500 0 
L 1259 2247 
L 1259 0 
L 628 0 
L 628 4666 
z
" transform="scale(0.015625)"/>
        <path id="DejaVuSans-33" d="M 2597 2516 
Q 3050 2419 3304 2112 
Q 3559 1806 3559 1356 
Q 3559 666 3084 287 
Q 2609 -91 1734 -91 
Q 1441 -91 1130 -33 
Q 819 25 488 141 
L 488 750 
Q 750 597 1062 519 
Q 1375 441 1716 441 
Q 2309 441 2620 675 
Q 2931 909 2931 1356 
Q 2931 1769 2642 2001 
Q 2353 2234 1838 2234 
L 1294 2234 
L 1294 2753 
L 1863 2753 
Q 2328 2753 2575 2939 
Q 2822 3125 2822 3475 
Q 2822 3834 2567 4026 
Q 2313 4219 1838 4219 
Q 1578 4219 1281 4162 
Q 984 4106 628 3988 
L 628 4550 
Q 988 4650 1302 4700 
Q 1616 4750 1894 4750 
Q 2613 4750 3031 4423 
Q 3450 4097 3450 3541 
Q 3450 3153 3228 2886 
Q 3006 2619 2597 2516 
z
" transform="scale(0.015625)"/>
       </defs>
       <use xlink:href="#DejaVuSans-42"/>
       <use xlink:href="#DejaVuSans-4b" transform="translate(68.603516 0)"/>
       <use xlink:href="#DejaVuSans-5f" transform="translate(134.179688 0)"/>
       <use xlink:href="#DejaVuSans-33" transform="translate(184.179688 0)"/>
       <use xlink:href="#DejaVuSans-32" transform="translate(247.802734 0)"/>
       <use xlink:href="#DejaVuSans-62" transform="translate(311.425781 0)"/>
      </g>
     </g>
    </g>
    <g id="xtick_5">
     <g id="line2d_5">
      <g>
       <use xlink:href="#me9cb7e4240" x="430.56695" y="318.306348" style="stroke: #000000; stroke-width: 0.8"/>
      </g>
     </g>
     <g id="text_5">
      <!-- KS_32b -->
      <g transform="translate(386.061649 375.740739) rotate(-45) scale(0.16 -0.16)">
       <defs>
        <path id="DejaVuSans-53" d="M 3425 4513 
L 3425 3897 
Q 3066 4069 2747 4153 
Q 2428 4238 2131 4238 
Q 1616 4238 1336 4038 
Q 1056 3838 1056 3469 
Q 1056 3159 1242 3001 
Q 1428 2844 1947 2747 
L 2328 2669 
Q 3034 2534 3370 2195 
Q 3706 1856 3706 1288 
Q 3706 609 3251 259 
Q 2797 -91 1919 -91 
Q 1588 -91 1214 -16 
Q 841 59 441 206 
L 441 856 
Q 825 641 1194 531 
Q 1563 422 1919 422 
Q 2459 422 2753 634 
Q 3047 847 3047 1241 
Q 3047 1584 2836 1778 
Q 2625 1972 2144 2069 
L 1759 2144 
Q 1053 2284 737 2584 
Q 422 2884 422 3419 
Q 422 4038 858 4394 
Q 1294 4750 2059 4750 
Q 2388 4750 2728 4690 
Q 3069 4631 3425 4513 
z
" transform="scale(0.015625)"/>
       </defs>
       <use xlink:href="#DejaVuSans-4b"/>
       <use xlink:href="#DejaVuSans-53" transform="translate(65.576172 0)"/>
       <use xlink:href="#DejaVuSans-5f" transform="translate(129.052734 0)"/>
       <use xlink:href="#DejaVuSans-33" transform="translate(179.052734 0)"/>
       <use xlink:href="#DejaVuSans-32" transform="translate(242.675781 0)"/>
       <use xlink:href="#DejaVuSans-62" transform="translate(306.298828 0)"/>
      </g>
     </g>
    </g>
    <g id="xtick_6">
     <g id="line2d_6">
      <g>
       <use xlink:href="#me9cb7e4240" x="500.35417" y="318.306348" style="stroke: #000000; stroke-width: 0.8"/>
      </g>
     </g>
     <g id="text_6">
      <!-- CLA_16b -->
      <g transform="translate(448.252775 383.336833) rotate(-45) scale(0.16 -0.16)">
       <defs>
        <path id="DejaVuSans-43" d="M 4122 4306 
L 4122 3641 
Q 3803 3938 3442 4084 
Q 3081 4231 2675 4231 
Q 1875 4231 1450 3742 
Q 1025 3253 1025 2328 
Q 1025 1406 1450 917 
Q 1875 428 2675 428 
Q 3081 428 3442 575 
Q 3803 722 4122 1019 
L 4122 359 
Q 3791 134 3420 21 
Q 3050 -91 2638 -91 
Q 1578 -91 968 557 
Q 359 1206 359 2328 
Q 359 3453 968 4101 
Q 1578 4750 2638 4750 
Q 3056 4750 3426 4639 
Q 3797 4528 4122 4306 
z
" transform="scale(0.015625)"/>
        <path id="DejaVuSans-4c" d="M 628 4666 
L 1259 4666 
L 1259 531 
L 3531 531 
L 3531 0 
L 628 0 
L 628 4666 
z
" transform="scale(0.015625)"/>
        <path id="DejaVuSans-41" d="M 2188 4044 
L 1331 1722 
L 3047 1722 
L 2188 4044 
z
M 1831 4666 
L 2547 4666 
L 4325 0 
L 3669 0 
L 3244 1197 
L 1141 1197 
L 716 0 
L 50 0 
L 1831 4666 
z
" transform="scale(0.015625)"/>
        <path id="DejaVuSans-36" d="M 2113 2584 
Q 1688 2584 1439 2293 
Q 1191 2003 1191 1497 
Q 1191 994 1439 701 
Q 1688 409 2113 409 
Q 2538 409 2786 701 
Q 3034 994 3034 1497 
Q 3034 2003 2786 2293 
Q 2538 2584 2113 2584 
z
M 3366 4563 
L 3366 3988 
Q 3128 4100 2886 4159 
Q 2644 4219 2406 4219 
Q 1781 4219 1451 3797 
Q 1122 3375 1075 2522 
Q 1259 2794 1537 2939 
Q 1816 3084 2150 3084 
Q 2853 3084 3261 2657 
Q 3669 2231 3669 1497 
Q 3669 778 3244 343 
Q 2819 -91 2113 -91 
Q 1303 -91 875 529 
Q 447 1150 447 2328 
Q 447 3434 972 4092 
Q 1497 4750 2381 4750 
Q 2619 4750 2861 4703 
Q 3103 4656 3366 4563 
z
" transform="scale(0.015625)"/>
       </defs>
       <use xlink:href="#DejaVuSans-43"/>
       <use xlink:href="#DejaVuSans-4c" transform="translate(69.824219 0)"/>
       <use xlink:href="#DejaVuSans-41" transform="translate(127.787109 0)"/>
       <use xlink:href="#DejaVuSans-5f" transform="translate(196.195312 0)"/>
       <use xlink:href="#DejaVuSans-31" transform="translate(246.195312 0)"/>
       <use xlink:href="#DejaVuSans-36" transform="translate(309.818359 0)"/>
       <use xlink:href="#DejaVuSans-62" transform="translate(373.441406 0)"/>
      </g>
     </g>
    </g>
    <g id="xtick_7">
     <g id="line2d_7">
      <g>
       <use xlink:href="#me9cb7e4240" x="570.14139" y="318.306348" style="stroke: #000000; stroke-width: 0.8"/>
      </g>
     </g>
     <g id="text_7">
      <!-- BK_16b -->
      <g transform="translate(525.056262 376.320566) rotate(-45) scale(0.16 -0.16)">
       <use xlink:href="#DejaVuSans-42"/>
       <use xlink:href="#DejaVuSans-4b" transform="translate(68.603516 0)"/>
       <use xlink:href="#DejaVuSans-5f" transform="translate(134.179688 0)"/>
       <use xlink:href="#DejaVuSans-31" transform="translate(184.179688 0)"/>
       <use xlink:href="#DejaVuSans-36" transform="translate(247.802734 0)"/>
       <use xlink:href="#DejaVuSans-62" transform="translate(311.425781 0)"/>
      </g>
     </g>
    </g>
    <g id="xtick_8">
     <g id="line2d_8">
      <g>
       <use xlink:href="#me9cb7e4240" x="639.92861" y="318.306348" style="stroke: #000000; stroke-width: 0.8"/>
      </g>
     </g>
     <g id="text_8">
      <!-- CSkipA_16b -->
      <g transform="translate(570.326322 400.837726) rotate(-45) scale(0.16 -0.16)">
       <defs>
        <path id="DejaVuSans-6b" d="M 581 4863 
L 1159 4863 
L 1159 1991 
L 2875 3500 
L 3609 3500 
L 1753 1863 
L 3688 0 
L 2938 0 
L 1159 1709 
L 1159 0 
L 581 0 
L 581 4863 
z
" transform="scale(0.015625)"/>
        <path id="DejaVuSans-70" d="M 1159 525 
L 1159 -1331 
L 581 -1331 
L 581 3500 
L 1159 3500 
L 1159 2969 
Q 1341 3281 1617 3432 
Q 1894 3584 2278 3584 
Q 2916 3584 3314 3078 
Q 3713 2572 3713 1747 
Q 3713 922 3314 415 
Q 2916 -91 2278 -91 
Q 1894 -91 1617 61 
Q 1341 213 1159 525 
z
M 3116 1747 
Q 3116 2381 2855 2742 
Q 2594 3103 2138 3103 
Q 1681 3103 1420 2742 
Q 1159 2381 1159 1747 
Q 1159 1113 1420 752 
Q 1681 391 2138 391 
Q 2594 391 2855 752 
Q 3116 1113 3116 1747 
z
" transform="scale(0.015625)"/>
       </defs>
       <use xlink:href="#DejaVuSans-43"/>
       <use xlink:href="#DejaVuSans-53" transform="translate(69.824219 0)"/>
       <use xlink:href="#DejaVuSans-6b" transform="translate(133.300781 0)"/>
       <use xlink:href="#DejaVuSans-69" transform="translate(191.210938 0)"/>
       <use xlink:href="#DejaVuSans-70" transform="translate(218.994141 0)"/>
       <use xlink:href="#DejaVuSans-41" transform="translate(282.470703 0)"/>
       <use xlink:href="#DejaVuSans-5f" transform="translate(350.878906 0)"/>
       <use xlink:href="#DejaVuSans-31" transform="translate(400.878906 0)"/>
       <use xlink:href="#DejaVuSans-36" transform="translate(464.501953 0)"/>
       <use xlink:href="#DejaVuSans-62" transform="translate(528.125 0)"/>
      </g>
     </g>
    </g>
    <g id="xtick_9">
     <g id="line2d_9">
      <g>
       <use xlink:href="#me9cb7e4240" x="709.71583" y="318.306348" style="stroke: #000000; stroke-width: 0.8"/>
      </g>
     </g>
     <g id="text_9">
      <!-- KS_16b -->
      <g transform="translate(665.210529 375.740739) rotate(-45) scale(0.16 -0.16)">
       <use xlink:href="#DejaVuSans-4b"/>
       <use xlink:href="#DejaVuSans-53" transform="translate(65.576172 0)"/>
       <use xlink:href="#DejaVuSans-5f" transform="translate(129.052734 0)"/>
       <use xlink:href="#DejaVuSans-31" transform="translate(179.052734 0)"/>
       <use xlink:href="#DejaVuSans-36" transform="translate(242.675781 0)"/>
       <use xlink:href="#DejaVuSans-62" transform="translate(306.298828 0)"/>
      </g>
     </g>
    </g>
    <g id="xtick_10">
     <g id="line2d_10">
      <g>
       <use xlink:href="#me9cb7e4240" x="779.50305" y="318.306348" style="stroke: #000000; stroke-width: 0.8"/>
      </g>
     </g>
     <g id="text_10">
      <!-- LFA_16b -->
      <g transform="translate(730.081589 380.656899) rotate(-45) scale(0.16 -0.16)">
       <defs>
        <path id="DejaVuSans-46" d="M 628 4666 
L 3309 4666 
L 3309 4134 
L 1259 4134 
L 1259 2759 
L 3109 2759 
L 3109 2228 
L 1259 2228 
L 1259 0 
L 628 0 
L 628 4666 
z
" transform="scale(0.015625)"/>
       </defs>
       <use xlink:href="#DejaVuSans-4c"/>
       <use xlink:href="#DejaVuSans-46" transform="translate(55.712891 0)"/>
       <use xlink:href="#DejaVuSans-41" transform="translate(104.107422 0)"/>
       <use xlink:href="#DejaVuSans-5f" transform="translate(172.515625 0)"/>
       <use xlink:href="#DejaVuSans-31" transform="translate(222.515625 0)"/>
       <use xlink:href="#DejaVuSans-36" transform="translate(286.138672 0)"/>
       <use xlink:href="#DejaVuSans-62" transform="translate(349.761719 0)"/>
      </g>
     </g>
    </g>
    <g id="xtick_11">
     <g id="line2d_11">
      <g>
       <use xlink:href="#me9cb7e4240" x="849.29027" y="318.306348" style="stroke: #000000; stroke-width: 0.8"/>
      </g>
     </g>
     <g id="text_11">
      <!-- WT_8b -->
      <g transform="translate(808.488441 372.037267) rotate(-45) scale(0.16 -0.16)">
       <defs>
        <path id="DejaVuSans-57" d="M 213 4666 
L 850 4666 
L 1831 722 
L 2809 4666 
L 3519 4666 
L 4500 722 
L 5478 4666 
L 6119 4666 
L 4947 0 
L 4153 0 
L 3169 4050 
L 2175 0 
L 1381 0 
L 213 4666 
z
" transform="scale(0.015625)"/>
       </defs>
       <use xlink:href="#DejaVuSans-57"/>
       <use xlink:href="#DejaVuSans-54" transform="translate(98.876953 0)"/>
       <use xlink:href="#DejaVuSans-5f" transform="translate(159.960938 0)"/>
       <use xlink:href="#DejaVuSans-38" transform="translate(209.960938 0)"/>
       <use xlink:href="#DejaVuSans-62" transform="translate(273.583984 0)"/>
      </g>
     </g>
    </g>
    <g id="xtick_12">
     <g id="line2d_12">
      <g>
       <use xlink:href="#me9cb7e4240" x="919.07749" y="318.306348" style="stroke: #000000; stroke-width: 0.8"/>
      </g>
     </g>
     <g id="text_12">
      <!-- int2float -->
      <g transform="translate(869.360812 381.266778) rotate(-45) scale(0.16 -0.16)">
       <defs>
        <path id="DejaVuSans-6e" d="M 3513 2113 
L 3513 0 
L 2938 0 
L 2938 2094 
Q 2938 2591 2744 2837 
Q 2550 3084 2163 3084 
Q 1697 3084 1428 2787 
Q 1159 2491 1159 1978 
L 1159 0 
L 581 0 
L 581 3500 
L 1159 3500 
L 1159 2956 
Q 1366 3272 1645 3428 
Q 1925 3584 2291 3584 
Q 2894 3584 3203 3211 
Q 3513 2838 3513 2113 
z
" transform="scale(0.015625)"/>
       </defs>
       <use xlink:href="#DejaVuSans-69"/>
       <use xlink:href="#DejaVuSans-6e" transform="translate(27.783203 0)"/>
       <use xlink:href="#DejaVuSans-74" transform="translate(91.162109 0)"/>
       <use xlink:href="#DejaVuSans-32" transform="translate(130.371094 0)"/>
       <use xlink:href="#DejaVuSans-66" transform="translate(193.994141 0)"/>
       <use xlink:href="#DejaVuSans-6c" transform="translate(229.199219 0)"/>
       <use xlink:href="#DejaVuSans-6f" transform="translate(256.982422 0)"/>
       <use xlink:href="#DejaVuSans-61" transform="translate(318.164062 0)"/>
       <use xlink:href="#DejaVuSans-74" transform="translate(379.443359 0)"/>
      </g>
     </g>
    </g>
    <g id="xtick_13">
     <g id="line2d_13">
      <g>
       <use xlink:href="#me9cb7e4240" x="988.86471" y="318.306348" style="stroke: #000000; stroke-width: 0.8"/>
      </g>
     </g>
     <g id="text_13">
      <!-- RCA_4b -->
      <g transform="translate(943.224503 376.875645) rotate(-45) scale(0.16 -0.16)">
       <defs>
        <path id="DejaVuSans-52" d="M 2841 2188 
Q 3044 2119 3236 1894 
Q 3428 1669 3622 1275 
L 4263 0 
L 3584 0 
L 2988 1197 
Q 2756 1666 2539 1819 
Q 2322 1972 1947 1972 
L 1259 1972 
L 1259 0 
L 628 0 
L 628 4666 
L 2053 4666 
Q 2853 4666 3247 4331 
Q 3641 3997 3641 3322 
Q 3641 2881 3436 2590 
Q 3231 2300 2841 2188 
z
M 1259 4147 
L 1259 2491 
L 2053 2491 
Q 2509 2491 2742 2702 
Q 2975 2913 2975 3322 
Q 2975 3731 2742 3939 
Q 2509 4147 2053 4147 
L 1259 4147 
z
" transform="scale(0.015625)"/>
        <path id="DejaVuSans-34" d="M 2419 4116 
L 825 1625 
L 2419 1625 
L 2419 4116 
z
M 2253 4666 
L 3047 4666 
L 3047 1625 
L 3713 1625 
L 3713 1100 
L 3047 1100 
L 3047 0 
L 2419 0 
L 2419 1100 
L 313 1100 
L 313 1709 
L 2253 4666 
z
" transform="scale(0.015625)"/>
       </defs>
       <use xlink:href="#DejaVuSans-52"/>
       <use xlink:href="#DejaVuSans-43" transform="translate(64.482422 0)"/>
       <use xlink:href="#DejaVuSans-41" transform="translate(134.306641 0)"/>
       <use xlink:href="#DejaVuSans-5f" transform="translate(202.714844 0)"/>
       <use xlink:href="#DejaVuSans-34" transform="translate(252.714844 0)"/>
       <use xlink:href="#DejaVuSans-62" transform="translate(316.337891 0)"/>
      </g>
     </g>
    </g>
    <g id="xtick_14">
     <g id="line2d_14">
      <g>
       <use xlink:href="#me9cb7e4240" x="1058.65193" y="318.306348" style="stroke: #000000; stroke-width: 0.8"/>
      </g>
     </g>
     <g id="text_14">
      <!-- dec -->
      <g transform="translate(1035.934357 354.267674) rotate(-45) scale(0.16 -0.16)">
       <defs>
        <path id="DejaVuSans-64" d="M 2906 2969 
L 2906 4863 
L 3481 4863 
L 3481 0 
L 2906 0 
L 2906 525 
Q 2725 213 2448 61 
Q 2172 -91 1784 -91 
Q 1150 -91 751 415 
Q 353 922 353 1747 
Q 353 2572 751 3078 
Q 1150 3584 1784 3584 
Q 2172 3584 2448 3432 
Q 2725 3281 2906 2969 
z
M 947 1747 
Q 947 1113 1208 752 
Q 1469 391 1925 391 
Q 2381 391 2643 752 
Q 2906 1113 2906 1747 
Q 2906 2381 2643 2742 
Q 2381 3103 1925 3103 
Q 1469 3103 1208 2742 
Q 947 2381 947 1747 
z
" transform="scale(0.015625)"/>
        <path id="DejaVuSans-63" d="M 3122 3366 
L 3122 2828 
Q 2878 2963 2633 3030 
Q 2388 3097 2138 3097 
Q 1578 3097 1268 2742 
Q 959 2388 959 1747 
Q 959 1106 1268 751 
Q 1578 397 2138 397 
Q 2388 397 2633 464 
Q 2878 531 3122 666 
L 3122 134 
Q 2881 22 2623 -34 
Q 2366 -91 2075 -91 
Q 1284 -91 818 406 
Q 353 903 353 1747 
Q 353 2603 823 3093 
Q 1294 3584 2113 3584 
Q 2378 3584 2631 3529 
Q 2884 3475 3122 3366 
z
" transform="scale(0.015625)"/>
       </defs>
       <use xlink:href="#DejaVuSans-64"/>
       <use xlink:href="#DejaVuSans-65" transform="translate(63.476562 0)"/>
       <use xlink:href="#DejaVuSans-63" transform="translate(125 0)"/>
      </g>
     </g>
    </g>
   </g>
   <g id="matplotlib.axis_2">
    <g id="ytick_1">
     <g id="line2d_15">
      <path d="M 75.35 318.306348 
L 1134.72 318.306348 
" clip-path="url(#p1724862ff2)" style="fill: none; stroke-dasharray: 2.96,1.28; stroke-dashoffset: 0; stroke: #b0b0b0; stroke-opacity: 0.5; stroke-width: 0.8"/>
     </g>
     <g id="line2d_16">
      <defs>
       <path id="mdbed1bd250" d="M 0 0 
L -3.5 0 
" style="stroke: #000000; stroke-width: 0.8"/>
      </defs>
      <g>
       <use xlink:href="#mdbed1bd250" x="75.35" y="318.306348" style="stroke: #000000; stroke-width: 0.8"/>
      </g>
     </g>
     <g id="text_15">
      <!-- 0 -->
      <g transform="translate(58.17 324.385098) scale(0.16 -0.16)">
       <defs>
        <path id="DejaVuSans-30" d="M 2034 4250 
Q 1547 4250 1301 3770 
Q 1056 3291 1056 2328 
Q 1056 1369 1301 889 
Q 1547 409 2034 409 
Q 2525 409 2770 889 
Q 3016 1369 3016 2328 
Q 3016 3291 2770 3770 
Q 2525 4250 2034 4250 
z
M 2034 4750 
Q 2819 4750 3233 4129 
Q 3647 3509 3647 2328 
Q 3647 1150 3233 529 
Q 2819 -91 2034 -91 
Q 1250 -91 836 529 
Q 422 1150 422 2328 
Q 422 3509 836 4129 
Q 1250 4750 2034 4750 
z
" transform="scale(0.015625)"/>
       </defs>
       <use xlink:href="#DejaVuSans-30"/>
      </g>
     </g>
    </g>
    <g id="ytick_2">
     <g id="line2d_17">
      <path d="M 75.35 283.155323 
L 1134.72 283.155323 
" clip-path="url(#p1724862ff2)" style="fill: none; stroke-dasharray: 2.96,1.28; stroke-dashoffset: 0; stroke: #b0b0b0; stroke-opacity: 0.5; stroke-width: 0.8"/>
     </g>
     <g id="line2d_18">
      <g>
       <use xlink:href="#mdbed1bd250" x="75.35" y="283.155323" style="stroke: #000000; stroke-width: 0.8"/>
      </g>
     </g>
     <g id="text_16">
      <!-- 50 -->
      <g transform="translate(47.99 289.234073) scale(0.16 -0.16)">
       <defs>
        <path id="DejaVuSans-35" d="M 691 4666 
L 3169 4666 
L 3169 4134 
L 1269 4134 
L 1269 2991 
Q 1406 3038 1543 3061 
Q 1681 3084 1819 3084 
Q 2600 3084 3056 2656 
Q 3513 2228 3513 1497 
Q 3513 744 3044 326 
Q 2575 -91 1722 -91 
Q 1428 -91 1123 -41 
Q 819 9 494 109 
L 494 744 
Q 775 591 1075 516 
Q 1375 441 1709 441 
Q 2250 441 2565 725 
Q 2881 1009 2881 1497 
Q 2881 1984 2565 2268 
Q 2250 2553 1709 2553 
Q 1456 2553 1204 2497 
Q 953 2441 691 2322 
L 691 4666 
z
" transform="scale(0.015625)"/>
       </defs>
       <use xlink:href="#DejaVuSans-35"/>
       <use xlink:href="#DejaVuSans-30" transform="translate(63.623047 0)"/>
      </g>
     </g>
    </g>
    <g id="ytick_3">
     <g id="line2d_19">
      <path d="M 75.35 248.004298 
L 1134.72 248.004298 
" clip-path="url(#p1724862ff2)" style="fill: none; stroke-dasharray: 2.96,1.28; stroke-dashoffset: 0; stroke: #b0b0b0; stroke-opacity: 0.5; stroke-width: 0.8"/>
     </g>
     <g id="line2d_20">
      <g>
       <use xlink:href="#mdbed1bd250" x="75.35" y="248.004298" style="stroke: #000000; stroke-width: 0.8"/>
      </g>
     </g>
     <g id="text_17">
      <!-- 100 -->
      <g transform="translate(37.81 254.083048) scale(0.16 -0.16)">
       <use xlink:href="#DejaVuSans-31"/>
       <use xlink:href="#DejaVuSans-30" transform="translate(63.623047 0)"/>
       <use xlink:href="#DejaVuSans-30" transform="translate(127.246094 0)"/>
      </g>
     </g>
    </g>
    <g id="ytick_4">
     <g id="line2d_21">
      <path d="M 75.35 212.853273 
L 1134.72 212.853273 
" clip-path="url(#p1724862ff2)" style="fill: none; stroke-dasharray: 2.96,1.28; stroke-dashoffset: 0; stroke: #b0b0b0; stroke-opacity: 0.5; stroke-width: 0.8"/>
     </g>
     <g id="line2d_22">
      <g>
       <use xlink:href="#mdbed1bd250" x="75.35" y="212.853273" style="stroke: #000000; stroke-width: 0.8"/>
      </g>
     </g>
     <g id="text_18">
      <!-- 150 -->
      <g transform="translate(37.81 218.932023) scale(0.16 -0.16)">
       <use xlink:href="#DejaVuSans-31"/>
       <use xlink:href="#DejaVuSans-35" transform="translate(63.623047 0)"/>
       <use xlink:href="#DejaVuSans-30" transform="translate(127.246094 0)"/>
      </g>
     </g>
    </g>
    <g id="ytick_5">
     <g id="line2d_23">
      <path d="M 75.35 177.702248 
L 1134.72 177.702248 
" clip-path="url(#p1724862ff2)" style="fill: none; stroke-dasharray: 2.96,1.28; stroke-dashoffset: 0; stroke: #b0b0b0; stroke-opacity: 0.5; stroke-width: 0.8"/>
     </g>
     <g id="line2d_24">
      <g>
       <use xlink:href="#mdbed1bd250" x="75.35" y="177.702248" style="stroke: #000000; stroke-width: 0.8"/>
      </g>
     </g>
     <g id="text_19">
      <!-- 200 -->
      <g transform="translate(37.81 183.780998) scale(0.16 -0.16)">
       <use xlink:href="#DejaVuSans-32"/>
       <use xlink:href="#DejaVuSans-30" transform="translate(63.623047 0)"/>
       <use xlink:href="#DejaVuSans-30" transform="translate(127.246094 0)"/>
      </g>
     </g>
    </g>
    <g id="ytick_6">
     <g id="line2d_25">
      <path d="M 75.35 142.551223 
L 1134.72 142.551223 
" clip-path="url(#p1724862ff2)" style="fill: none; stroke-dasharray: 2.96,1.28; stroke-dashoffset: 0; stroke: #b0b0b0; stroke-opacity: 0.5; stroke-width: 0.8"/>
     </g>
     <g id="line2d_26">
      <g>
       <use xlink:href="#mdbed1bd250" x="75.35" y="142.551223" style="stroke: #000000; stroke-width: 0.8"/>
      </g>
     </g>
     <g id="text_20">
      <!-- 250 -->
      <g transform="translate(37.81 148.629973) scale(0.16 -0.16)">
       <use xlink:href="#DejaVuSans-32"/>
       <use xlink:href="#DejaVuSans-35" transform="translate(63.623047 0)"/>
       <use xlink:href="#DejaVuSans-30" transform="translate(127.246094 0)"/>
      </g>
     </g>
    </g>
    <g id="ytick_7">
     <g id="line2d_27">
      <path d="M 75.35 107.400198 
L 1134.72 107.400198 
" clip-path="url(#p1724862ff2)" style="fill: none; stroke-dasharray: 2.96,1.28; stroke-dashoffset: 0; stroke: #b0b0b0; stroke-opacity: 0.5; stroke-width: 0.8"/>
     </g>
     <g id="line2d_28">
      <g>
       <use xlink:href="#mdbed1bd250" x="75.35" y="107.400198" style="stroke: #000000; stroke-width: 0.8"/>
      </g>
     </g>
     <g id="text_21">
      <!-- 300 -->
      <g transform="translate(37.81 113.478948) scale(0.16 -0.16)">
       <use xlink:href="#DejaVuSans-33"/>
       <use xlink:href="#DejaVuSans-30" transform="translate(63.623047 0)"/>
       <use xlink:href="#DejaVuSans-30" transform="translate(127.246094 0)"/>
      </g>
     </g>
    </g>
    <g id="ytick_8">
     <g id="line2d_29">
      <path d="M 75.35 72.249173 
L 1134.72 72.249173 
" clip-path="url(#p1724862ff2)" style="fill: none; stroke-dasharray: 2.96,1.28; stroke-dashoffset: 0; stroke: #b0b0b0; stroke-opacity: 0.5; stroke-width: 0.8"/>
     </g>
     <g id="line2d_30">
      <g>
       <use xlink:href="#mdbed1bd250" x="75.35" y="72.249173" style="stroke: #000000; stroke-width: 0.8"/>
      </g>
     </g>
     <g id="text_22">
      <!-- 350 -->
      <g transform="translate(37.81 78.327923) scale(0.16 -0.16)">
       <use xlink:href="#DejaVuSans-33"/>
       <use xlink:href="#DejaVuSans-35" transform="translate(63.623047 0)"/>
       <use xlink:href="#DejaVuSans-30" transform="translate(127.246094 0)"/>
      </g>
     </g>
    </g>
    <g id="ytick_9">
     <g id="line2d_31">
      <path d="M 75.35 37.098148 
L 1134.72 37.098148 
" clip-path="url(#p1724862ff2)" style="fill: none; stroke-dasharray: 2.96,1.28; stroke-dashoffset: 0; stroke: #b0b0b0; stroke-opacity: 0.5; stroke-width: 0.8"/>
     </g>
     <g id="line2d_32">
      <g>
       <use xlink:href="#mdbed1bd250" x="75.35" y="37.098148" style="stroke: #000000; stroke-width: 0.8"/>
      </g>
     </g>
     <g id="text_23">
      <!-- 400 -->
      <g transform="translate(37.81 43.176898) scale(0.16 -0.16)">
       <use xlink:href="#DejaVuSans-34"/>
       <use xlink:href="#DejaVuSans-30" transform="translate(63.623047 0)"/>
       <use xlink:href="#DejaVuSans-30" transform="translate(127.246094 0)"/>
      </g>
     </g>
    </g>
    <g id="text_24">
     <!-- MRED (%) -->
     <g transform="translate(30.4825 207.855674) rotate(-90) scale(0.16 -0.16)">
      <defs>
       <path id="DejaVuSans-4d" d="M 628 4666 
L 1569 4666 
L 2759 1491 
L 3956 4666 
L 4897 4666 
L 4897 0 
L 4281 0 
L 4281 4097 
L 3078 897 
L 2444 897 
L 1241 4097 
L 1241 0 
L 628 0 
L 628 4666 
z
" transform="scale(0.015625)"/>
       <path id="DejaVuSans-45" d="M 628 4666 
L 3578 4666 
L 3578 4134 
L 1259 4134 
L 1259 2753 
L 3481 2753 
L 3481 2222 
L 1259 2222 
L 1259 531 
L 3634 531 
L 3634 0 
L 628 0 
L 628 4666 
z
" transform="scale(0.015625)"/>
       <path id="DejaVuSans-20" transform="scale(0.015625)"/>
       <path id="DejaVuSans-28" d="M 1984 4856 
Q 1566 4138 1362 3434 
Q 1159 2731 1159 2009 
Q 1159 1288 1364 580 
Q 1569 -128 1984 -844 
L 1484 -844 
Q 1016 -109 783 600 
Q 550 1309 550 2009 
Q 550 2706 781 3412 
Q 1013 4119 1484 4856 
L 1984 4856 
z
" transform="scale(0.015625)"/>
       <path id="DejaVuSans-25" d="M 4653 2053 
Q 4381 2053 4226 1822 
Q 4072 1591 4072 1178 
Q 4072 772 4226 539 
Q 4381 306 4653 306 
Q 4919 306 5073 539 
Q 5228 772 5228 1178 
Q 5228 1588 5073 1820 
Q 4919 2053 4653 2053 
z
M 4653 2450 
Q 5147 2450 5437 2106 
Q 5728 1763 5728 1178 
Q 5728 594 5436 251 
Q 5144 -91 4653 -91 
Q 4153 -91 3862 251 
Q 3572 594 3572 1178 
Q 3572 1766 3864 2108 
Q 4156 2450 4653 2450 
z
M 1428 4353 
Q 1159 4353 1004 4120 
Q 850 3888 850 3481 
Q 850 3069 1003 2837 
Q 1156 2606 1428 2606 
Q 1700 2606 1854 2837 
Q 2009 3069 2009 3481 
Q 2009 3884 1853 4118 
Q 1697 4353 1428 4353 
z
M 4250 4750 
L 4750 4750 
L 1831 -91 
L 1331 -91 
L 4250 4750 
z
M 1428 4750 
Q 1922 4750 2215 4408 
Q 2509 4066 2509 3481 
Q 2509 2891 2217 2550 
Q 1925 2209 1428 2209 
Q 931 2209 642 2551 
Q 353 2894 353 3481 
Q 353 4063 643 4406 
Q 934 4750 1428 4750 
z
" transform="scale(0.015625)"/>
       <path id="DejaVuSans-29" d="M 513 4856 
L 1013 4856 
Q 1481 4119 1714 3412 
Q 1947 2706 1947 2009 
Q 1947 1309 1714 600 
Q 1481 -109 1013 -844 
L 513 -844 
Q 928 -128 1133 580 
Q 1338 1288 1338 2009 
Q 1338 2731 1133 3434 
Q 928 4138 513 4856 
z
" transform="scale(0.015625)"/>
      </defs>
      <use xlink:href="#DejaVuSans-4d"/>
      <use xlink:href="#DejaVuSans-52" transform="translate(86.279297 0)"/>
      <use xlink:href="#DejaVuSans-45" transform="translate(155.761719 0)"/>
      <use xlink:href="#DejaVuSans-44" transform="translate(218.945312 0)"/>
      <use xlink:href="#DejaVuSans-20" transform="translate(295.947266 0)"/>
      <use xlink:href="#DejaVuSans-28" transform="translate(327.734375 0)"/>
      <use xlink:href="#DejaVuSans-25" transform="translate(366.748047 0)"/>
      <use xlink:href="#DejaVuSans-29" transform="translate(461.767578 0)"/>
     </g>
    </g>
   </g>
   <g id="patch_115">
    <path d="M 75.35 318.306348 
L 75.35 17.28 
" style="fill: none; stroke: #000000; stroke-width: 0.8; stroke-linejoin: miter; stroke-linecap: square"/>
   </g>
   <g id="patch_116">
    <path d="M 1134.72 318.306348 
L 1134.72 17.28 
" style="fill: none; stroke: #000000; stroke-width: 0.8; stroke-linejoin: miter; stroke-linecap: square"/>
   </g>
   <g id="patch_117">
    <path d="M 75.35 318.306348 
L 1134.72 318.306348 
" style="fill: none; stroke: #000000; stroke-width: 0.8; stroke-linejoin: miter; stroke-linecap: square"/>
   </g>
   <g id="patch_118">
    <path d="M 75.35 17.28 
L 1134.72 17.28 
" style="fill: none; stroke: #000000; stroke-width: 0.8; stroke-linejoin: miter; stroke-linecap: square"/>
   </g>
   <g id="legend_1">
    <g id="patch_119">
     <path d="M 911.4725 217.96 
L 1123.52 217.96 
Q 1126.72 217.96 1126.72 214.76 
L 1126.72 28.48 
Q 1126.72 25.28 1123.52 25.28 
L 911.4725 25.28 
Q 908.2725 25.28 908.2725 28.48 
L 908.2725 214.76 
Q 908.2725 217.96 911.4725 217.96 
z
" style="fill: #ffffff; opacity: 0.8; stroke: #cccccc; stroke-linejoin: miter"/>
    </g>
    <g id="patch_120">
     <path d="M 914.6725 43.8375 
L 946.6725 43.8375 
L 946.6725 32.6375 
L 914.6725 32.6375 
z
" style="fill: #87ceeb; opacity: 0.4"/>
    </g>
    <g id="text_25">
     <!-- No Resynthesis - D3 -->
     <g transform="translate(959.4725 43.8375) scale(0.16 -0.16)">
      <defs>
       <path id="DejaVuSans-4e" d="M 628 4666 
L 1478 4666 
L 3547 763 
L 3547 4666 
L 4159 4666 
L 4159 0 
L 3309 0 
L 1241 3903 
L 1241 0 
L 628 0 
L 628 4666 
z
" transform="scale(0.015625)"/>
       <path id="DejaVuSans-79" d="M 2059 -325 
Q 1816 -950 1584 -1140 
Q 1353 -1331 966 -1331 
L 506 -1331 
L 506 -850 
L 844 -850 
Q 1081 -850 1212 -737 
Q 1344 -625 1503 -206 
L 1606 56 
L 191 3500 
L 800 3500 
L 1894 763 
L 2988 3500 
L 3597 3500 
L 2059 -325 
z
" transform="scale(0.015625)"/>
       <path id="DejaVuSans-2d" d="M 313 2009 
L 1997 2009 
L 1997 1497 
L 313 1497 
L 313 2009 
z
" transform="scale(0.015625)"/>
      </defs>
      <use xlink:href="#DejaVuSans-4e"/>
      <use xlink:href="#DejaVuSans-6f" transform="translate(74.804688 0)"/>
      <use xlink:href="#DejaVuSans-20" transform="translate(135.986328 0)"/>
      <use xlink:href="#DejaVuSans-52" transform="translate(167.773438 0)"/>
      <use xlink:href="#DejaVuSans-65" transform="translate(232.755859 0)"/>
      <use xlink:href="#DejaVuSans-73" transform="translate(294.279297 0)"/>
      <use xlink:href="#DejaVuSans-79" transform="translate(346.378906 0)"/>
      <use xlink:href="#DejaVuSans-6e" transform="translate(405.558594 0)"/>
      <use xlink:href="#DejaVuSans-74" transform="translate(468.9375 0)"/>
      <use xlink:href="#DejaVuSans-68" transform="translate(508.146484 0)"/>
      <use xlink:href="#DejaVuSans-65" transform="translate(571.525391 0)"/>
      <use xlink:href="#DejaVuSans-73" transform="translate(633.048828 0)"/>
      <use xlink:href="#DejaVuSans-69" transform="translate(685.148438 0)"/>
      <use xlink:href="#DejaVuSans-73" transform="translate(712.931641 0)"/>
      <use xlink:href="#DejaVuSans-20" transform="translate(765.03125 0)"/>
      <use xlink:href="#DejaVuSans-2d" transform="translate(796.818359 0)"/>
      <use xlink:href="#DejaVuSans-20" transform="translate(832.902344 0)"/>
      <use xlink:href="#DejaVuSans-44" transform="translate(864.689453 0)"/>
      <use xlink:href="#DejaVuSans-33" transform="translate(941.691406 0)"/>
     </g>
    </g>
    <g id="patch_121">
     <path d="M 914.6725 67.3225 
L 946.6725 67.3225 
L 946.6725 56.1225 
L 914.6725 56.1225 
z
" style="fill: #87ceeb; opacity: 0.6"/>
    </g>
    <g id="text_26">
     <!-- No Resynthesis - D4 -->
     <g transform="translate(959.4725 67.3225) scale(0.16 -0.16)">
      <use xlink:href="#DejaVuSans-4e"/>
      <use xlink:href="#DejaVuSans-6f" transform="translate(74.804688 0)"/>
      <use xlink:href="#DejaVuSans-20" transform="translate(135.986328 0)"/>
      <use xlink:href="#DejaVuSans-52" transform="translate(167.773438 0)"/>
      <use xlink:href="#DejaVuSans-65" transform="translate(232.755859 0)"/>
      <use xlink:href="#DejaVuSans-73" transform="translate(294.279297 0)"/>
      <use xlink:href="#DejaVuSans-79" transform="translate(346.378906 0)"/>
      <use xlink:href="#DejaVuSans-6e" transform="translate(405.558594 0)"/>
      <use xlink:href="#DejaVuSans-74" transform="translate(468.9375 0)"/>
      <use xlink:href="#DejaVuSans-68" transform="translate(508.146484 0)"/>
      <use xlink:href="#DejaVuSans-65" transform="translate(571.525391 0)"/>
      <use xlink:href="#DejaVuSans-73" transform="translate(633.048828 0)"/>
      <use xlink:href="#DejaVuSans-69" transform="translate(685.148438 0)"/>
      <use xlink:href="#DejaVuSans-73" transform="translate(712.931641 0)"/>
      <use xlink:href="#DejaVuSans-20" transform="translate(765.03125 0)"/>
      <use xlink:href="#DejaVuSans-2d" transform="translate(796.818359 0)"/>
      <use xlink:href="#DejaVuSans-20" transform="translate(832.902344 0)"/>
      <use xlink:href="#DejaVuSans-44" transform="translate(864.689453 0)"/>
      <use xlink:href="#DejaVuSans-34" transform="translate(941.691406 0)"/>
     </g>
    </g>
    <g id="patch_122">
     <path d="M 914.6725 90.8075 
L 946.6725 90.8075 
L 946.6725 79.6075 
L 914.6725 79.6075 
z
" style="fill: #87ceeb; opacity: 0.8"/>
    </g>
    <g id="text_27">
     <!-- No Resynthesis - D5 -->
     <g transform="translate(959.4725 90.8075) scale(0.16 -0.16)">
      <use xlink:href="#DejaVuSans-4e"/>
      <use xlink:href="#DejaVuSans-6f" transform="translate(74.804688 0)"/>
      <use xlink:href="#DejaVuSans-20" transform="translate(135.986328 0)"/>
      <use xlink:href="#DejaVuSans-52" transform="translate(167.773438 0)"/>
      <use xlink:href="#DejaVuSans-65" transform="translate(232.755859 0)"/>
      <use xlink:href="#DejaVuSans-73" transform="translate(294.279297 0)"/>
      <use xlink:href="#DejaVuSans-79" transform="translate(346.378906 0)"/>
      <use xlink:href="#DejaVuSans-6e" transform="translate(405.558594 0)"/>
      <use xlink:href="#DejaVuSans-74" transform="translate(468.9375 0)"/>
      <use xlink:href="#DejaVuSans-68" transform="translate(508.146484 0)"/>
      <use xlink:href="#DejaVuSans-65" transform="translate(571.525391 0)"/>
      <use xlink:href="#DejaVuSans-73" transform="translate(633.048828 0)"/>
      <use xlink:href="#DejaVuSans-69" transform="translate(685.148438 0)"/>
      <use xlink:href="#DejaVuSans-73" transform="translate(712.931641 0)"/>
      <use xlink:href="#DejaVuSans-20" transform="translate(765.03125 0)"/>
      <use xlink:href="#DejaVuSans-2d" transform="translate(796.818359 0)"/>
      <use xlink:href="#DejaVuSans-20" transform="translate(832.902344 0)"/>
      <use xlink:href="#DejaVuSans-44" transform="translate(864.689453 0)"/>
      <use xlink:href="#DejaVuSans-35" transform="translate(941.691406 0)"/>
     </g>
    </g>
    <g id="patch_123">
     <path d="M 914.6725 114.2925 
L 946.6725 114.2925 
L 946.6725 103.0925 
L 914.6725 103.0925 
z
" style="fill: #87ceeb"/>
    </g>
    <g id="text_28">
     <!-- No Resynthesis - D6 -->
     <g transform="translate(959.4725 114.2925) scale(0.16 -0.16)">
      <use xlink:href="#DejaVuSans-4e"/>
      <use xlink:href="#DejaVuSans-6f" transform="translate(74.804688 0)"/>
      <use xlink:href="#DejaVuSans-20" transform="translate(135.986328 0)"/>
      <use xlink:href="#DejaVuSans-52" transform="translate(167.773438 0)"/>
      <use xlink:href="#DejaVuSans-65" transform="translate(232.755859 0)"/>
      <use xlink:href="#DejaVuSans-73" transform="translate(294.279297 0)"/>
      <use xlink:href="#DejaVuSans-79" transform="translate(346.378906 0)"/>
      <use xlink:href="#DejaVuSans-6e" transform="translate(405.558594 0)"/>
      <use xlink:href="#DejaVuSans-74" transform="translate(468.9375 0)"/>
      <use xlink:href="#DejaVuSans-68" transform="translate(508.146484 0)"/>
      <use xlink:href="#DejaVuSans-65" transform="translate(571.525391 0)"/>
      <use xlink:href="#DejaVuSans-73" transform="translate(633.048828 0)"/>
      <use xlink:href="#DejaVuSans-69" transform="translate(685.148438 0)"/>
      <use xlink:href="#DejaVuSans-73" transform="translate(712.931641 0)"/>
      <use xlink:href="#DejaVuSans-20" transform="translate(765.03125 0)"/>
      <use xlink:href="#DejaVuSans-2d" transform="translate(796.818359 0)"/>
      <use xlink:href="#DejaVuSans-20" transform="translate(832.902344 0)"/>
      <use xlink:href="#DejaVuSans-44" transform="translate(864.689453 0)"/>
      <use xlink:href="#DejaVuSans-36" transform="translate(941.691406 0)"/>
     </g>
    </g>
    <g id="patch_124">
     <path d="M 914.6725 137.7775 
L 946.6725 137.7775 
L 946.6725 126.5775 
L 914.6725 126.5775 
z
" style="fill: #fa8072; opacity: 0.4"/>
    </g>
    <g id="text_29">
     <!-- Resynthesis - D3 -->
     <g transform="translate(959.4725 137.7775) scale(0.16 -0.16)">
      <use xlink:href="#DejaVuSans-52"/>
      <use xlink:href="#DejaVuSans-65" transform="translate(64.982422 0)"/>
      <use xlink:href="#DejaVuSans-73" transform="translate(126.505859 0)"/>
      <use xlink:href="#DejaVuSans-79" transform="translate(178.605469 0)"/>
      <use xlink:href="#DejaVuSans-6e" transform="translate(237.785156 0)"/>
      <use xlink:href="#DejaVuSans-74" transform="translate(301.164062 0)"/>
      <use xlink:href="#DejaVuSans-68" transform="translate(340.373047 0)"/>
      <use xlink:href="#DejaVuSans-65" transform="translate(403.751953 0)"/>
      <use xlink:href="#DejaVuSans-73" transform="translate(465.275391 0)"/>
      <use xlink:href="#DejaVuSans-69" transform="translate(517.375 0)"/>
      <use xlink:href="#DejaVuSans-73" transform="translate(545.158203 0)"/>
      <use xlink:href="#DejaVuSans-20" transform="translate(597.257812 0)"/>
      <use xlink:href="#DejaVuSans-2d" transform="translate(629.044922 0)"/>
      <use xlink:href="#DejaVuSans-20" transform="translate(665.128906 0)"/>
      <use xlink:href="#DejaVuSans-44" transform="translate(696.916016 0)"/>
      <use xlink:href="#DejaVuSans-33" transform="translate(773.917969 0)"/>
     </g>
    </g>
    <g id="patch_125">
     <path d="M 914.6725 161.2625 
L 946.6725 161.2625 
L 946.6725 150.0625 
L 914.6725 150.0625 
z
" style="fill: #fa8072; opacity: 0.6"/>
    </g>
    <g id="text_30">
     <!-- Resynthesis - D4 -->
     <g transform="translate(959.4725 161.2625) scale(0.16 -0.16)">
      <use xlink:href="#DejaVuSans-52"/>
      <use xlink:href="#DejaVuSans-65" transform="translate(64.982422 0)"/>
      <use xlink:href="#DejaVuSans-73" transform="translate(126.505859 0)"/>
      <use xlink:href="#DejaVuSans-79" transform="translate(178.605469 0)"/>
      <use xlink:href="#DejaVuSans-6e" transform="translate(237.785156 0)"/>
      <use xlink:href="#DejaVuSans-74" transform="translate(301.164062 0)"/>
      <use xlink:href="#DejaVuSans-68" transform="translate(340.373047 0)"/>
      <use xlink:href="#DejaVuSans-65" transform="translate(403.751953 0)"/>
      <use xlink:href="#DejaVuSans-73" transform="translate(465.275391 0)"/>
      <use xlink:href="#DejaVuSans-69" transform="translate(517.375 0)"/>
      <use xlink:href="#DejaVuSans-73" transform="translate(545.158203 0)"/>
      <use xlink:href="#DejaVuSans-20" transform="translate(597.257812 0)"/>
      <use xlink:href="#DejaVuSans-2d" transform="translate(629.044922 0)"/>
      <use xlink:href="#DejaVuSans-20" transform="translate(665.128906 0)"/>
      <use xlink:href="#DejaVuSans-44" transform="translate(696.916016 0)"/>
      <use xlink:href="#DejaVuSans-34" transform="translate(773.917969 0)"/>
     </g>
    </g>
    <g id="patch_126">
     <path d="M 914.6725 184.7475 
L 946.6725 184.7475 
L 946.6725 173.5475 
L 914.6725 173.5475 
z
" style="fill: #fa8072; opacity: 0.8"/>
    </g>
    <g id="text_31">
     <!-- Resynthesis - D5 -->
     <g transform="translate(959.4725 184.7475) scale(0.16 -0.16)">
      <use xlink:href="#DejaVuSans-52"/>
      <use xlink:href="#DejaVuSans-65" transform="translate(64.982422 0)"/>
      <use xlink:href="#DejaVuSans-73" transform="translate(126.505859 0)"/>
      <use xlink:href="#DejaVuSans-79" transform="translate(178.605469 0)"/>
      <use xlink:href="#DejaVuSans-6e" transform="translate(237.785156 0)"/>
      <use xlink:href="#DejaVuSans-74" transform="translate(301.164062 0)"/>
      <use xlink:href="#DejaVuSans-68" transform="translate(340.373047 0)"/>
      <use xlink:href="#DejaVuSans-65" transform="translate(403.751953 0)"/>
      <use xlink:href="#DejaVuSans-73" transform="translate(465.275391 0)"/>
      <use xlink:href="#DejaVuSans-69" transform="translate(517.375 0)"/>
      <use xlink:href="#DejaVuSans-73" transform="translate(545.158203 0)"/>
      <use xlink:href="#DejaVuSans-20" transform="translate(597.257812 0)"/>
      <use xlink:href="#DejaVuSans-2d" transform="translate(629.044922 0)"/>
      <use xlink:href="#DejaVuSans-20" transform="translate(665.128906 0)"/>
      <use xlink:href="#DejaVuSans-44" transform="translate(696.916016 0)"/>
      <use xlink:href="#DejaVuSans-35" transform="translate(773.917969 0)"/>
     </g>
    </g>
    <g id="patch_127">
     <path d="M 914.6725 208.2325 
L 946.6725 208.2325 
L 946.6725 197.0325 
L 914.6725 197.0325 
z
" style="fill: #fa8072"/>
    </g>
    <g id="text_32">
     <!-- Resynthesis - D6 -->
     <g transform="translate(959.4725 208.2325) scale(0.16 -0.16)">
      <use xlink:href="#DejaVuSans-52"/>
      <use xlink:href="#DejaVuSans-65" transform="translate(64.982422 0)"/>
      <use xlink:href="#DejaVuSans-73" transform="translate(126.505859 0)"/>
      <use xlink:href="#DejaVuSans-79" transform="translate(178.605469 0)"/>
      <use xlink:href="#DejaVuSans-6e" transform="translate(237.785156 0)"/>
      <use xlink:href="#DejaVuSans-74" transform="translate(301.164062 0)"/>
      <use xlink:href="#DejaVuSans-68" transform="translate(340.373047 0)"/>
      <use xlink:href="#DejaVuSans-65" transform="translate(403.751953 0)"/>
      <use xlink:href="#DejaVuSans-73" transform="translate(465.275391 0)"/>
      <use xlink:href="#DejaVuSans-69" transform="translate(517.375 0)"/>
      <use xlink:href="#DejaVuSans-73" transform="translate(545.158203 0)"/>
      <use xlink:href="#DejaVuSans-20" transform="translate(597.257812 0)"/>
      <use xlink:href="#DejaVuSans-2d" transform="translate(629.044922 0)"/>
      <use xlink:href="#DejaVuSans-20" transform="translate(665.128906 0)"/>
      <use xlink:href="#DejaVuSans-44" transform="translate(696.916016 0)"/>
      <use xlink:href="#DejaVuSans-36" transform="translate(773.917969 0)"/>
     </g>
    </g>
   </g>
  </g>
 </g>
 <defs>
  <clipPath id="p1724862ff2">
   <rect x="75.35" y="17.28" width="1059.37" height="301.026348"/>
  </clipPath>
 </defs>
</svg>
