<?xml version="1.0" encoding="utf-8" standalone="no"?>
<!DOCTYPE svg PUBLIC "-//W3C//DTD SVG 1.1//EN"
  "http://www.w3.org/Graphics/SVG/1.1/DTD/svg11.dtd">
<svg xmlns:xlink="http://www.w3.org/1999/xlink" width="1152pt" height="432pt" viewBox="0 0 1152 432" xmlns="http://www.w3.org/2000/svg" version="1.1">
 <metadata>
  <rdf:RDF xmlns:dc="http://purl.org/dc/elements/1.1/" xmlns:cc="http://creativecommons.org/ns#" xmlns:rdf="http://www.w3.org/1999/02/22-rdf-syntax-ns#">
   <cc:Work>
    <dc:type rdf:resource="http://purl.org/dc/dcmitype/StillImage"/>
    <dc:date>2025-05-28T14:44:23.594399</dc:date>
    <dc:format>image/svg+xml</dc:format>
    <dc:creator>
     <cc:Agent>
      <dc:title>Matplotlib v3.10.3, https://matplotlib.org/</dc:title>
     </cc:Agent>
    </dc:creator>
   </cc:Work>
  </rdf:RDF>
 </metadata>
 <defs>
  <style type="text/css">*{stroke-linejoin: round; stroke-linecap: butt}</style>
 </defs>
 <g id="figure_1">
  <g id="patch_1">
   <path d="M 0 432 
L 1152 432 
L 1152 0 
L 0 0 
z
" style="fill: #ffffff"/>
  </g>
  <g id="axes_1">
   <g id="patch_2">
    <path d="M 85.52 318.306348 
L 898.12 318.306348 
L 898.12 17.28 
L 85.52 17.28 
z
" style="fill: #ffffff"/>
   </g>
   <g id="patch_3">
    <path d="M 122.456364 318.306348 
L 126.483693 318.306348 
L 126.483693 317.19274 
L 122.456364 317.19274 
z
" clip-path="url(#peecbf8e2eb)" style="fill: #87ceeb; opacity: 0.4"/>
   </g>
   <g id="patch_4">
    <path d="M 179.98964 318.306348 
L 184.01697 318.306348 
L 184.01697 310.920132 
L 179.98964 310.920132 
z
" clip-path="url(#peecbf8e2eb)" style="fill: #87ceeb; opacity: 0.4"/>
   </g>
   <g id="patch_5">
    <path d="M 237.522917 318.306348 
L 241.550246 318.306348 
L 241.550246 318.066179 
L 237.522917 318.066179 
z
" clip-path="url(#peecbf8e2eb)" style="fill: #87ceeb; opacity: 0.4"/>
   </g>
   <g id="patch_6">
    <path d="M 295.056194 318.306348 
L 299.083523 318.306348 
L 299.083523 314.600031 
L 295.056194 314.600031 
z
" clip-path="url(#peecbf8e2eb)" style="fill: #87ceeb; opacity: 0.4"/>
   </g>
   <g id="patch_7">
    <path d="M 352.58947 318.306348 
L 356.6168 318.306348 
L 356.6168 315.593362 
L 352.58947 315.593362 
z
" clip-path="url(#peecbf8e2eb)" style="fill: #87ceeb; opacity: 0.4"/>
   </g>
   <g id="patch_8">
    <path d="M 410.122747 318.306348 
L 414.150076 318.306348 
L 414.150076 316.163966 
L 410.122747 316.163966 
z
" clip-path="url(#peecbf8e2eb)" style="fill: #87ceeb; opacity: 0.4"/>
   </g>
   <g id="patch_9">
    <path d="M 467.656024 318.306348 
L 471.683353 318.306348 
L 471.683353 315.961193 
L 467.656024 315.961193 
z
" clip-path="url(#peecbf8e2eb)" style="fill: #87ceeb; opacity: 0.4"/>
   </g>
   <g id="patch_10">
    <path d="M 525.1893 318.306348 
L 529.21663 318.306348 
L 529.21663 316.047926 
L 525.1893 316.047926 
z
" clip-path="url(#peecbf8e2eb)" style="fill: #87ceeb; opacity: 0.4"/>
   </g>
   <g id="patch_11">
    <path d="M 582.722577 318.306348 
L 586.749907 318.306348 
L 586.749907 316.436791 
L 582.722577 316.436791 
z
" clip-path="url(#peecbf8e2eb)" style="fill: #87ceeb; opacity: 0.4"/>
   </g>
   <g id="patch_12">
    <path d="M 640.255854 318.306348 
L 644.283183 318.306348 
L 644.283183 315.940872 
L 640.255854 315.940872 
z
" clip-path="url(#peecbf8e2eb)" style="fill: #87ceeb; opacity: 0.4"/>
   </g>
   <g id="patch_13">
    <path d="M 697.789131 318.306348 
L 701.81646 318.306348 
L 701.81646 318.068997 
L 697.789131 318.068997 
z
" clip-path="url(#peecbf8e2eb)" style="fill: #87ceeb; opacity: 0.4"/>
   </g>
   <g id="patch_14">
    <path d="M 755.322407 318.306348 
L 759.349737 318.306348 
L 759.349737 318.255575 
L 755.322407 318.255575 
z
" clip-path="url(#peecbf8e2eb)" style="fill: #87ceeb; opacity: 0.4"/>
   </g>
   <g id="patch_15">
    <path d="M 812.855684 318.306348 
L 816.883013 318.306348 
L 816.883013 318.259211 
L 812.855684 318.259211 
z
" clip-path="url(#peecbf8e2eb)" style="fill: #87ceeb; opacity: 0.4"/>
   </g>
   <g id="patch_16">
    <path d="M 126.483693 318.306348 
L 130.511022 318.306348 
L 130.511022 317.090847 
L 126.483693 317.090847 
z
" clip-path="url(#peecbf8e2eb)" style="fill: #87ceeb; opacity: 0.485714"/>
   </g>
   <g id="patch_17">
    <path d="M 184.01697 318.306348 
L 188.044299 318.306348 
L 188.044299 315.932266 
L 184.01697 315.932266 
z
" clip-path="url(#peecbf8e2eb)" style="fill: #87ceeb; opacity: 0.485714"/>
   </g>
   <g id="patch_18">
    <path d="M 241.550246 318.306348 
L 245.577576 318.306348 
L 245.577576 318.040725 
L 241.550246 318.040725 
z
" clip-path="url(#peecbf8e2eb)" style="fill: #87ceeb; opacity: 0.485714"/>
   </g>
   <g id="patch_19">
    <path d="M 299.083523 318.306348 
L 303.110852 318.306348 
L 303.110852 313.832247 
L 299.083523 313.832247 
z
" clip-path="url(#peecbf8e2eb)" style="fill: #87ceeb; opacity: 0.485714"/>
   </g>
   <g id="patch_20">
    <path d="M 356.6168 318.306348 
L 360.644129 318.306348 
L 360.644129 314.852965 
L 356.6168 314.852965 
z
" clip-path="url(#peecbf8e2eb)" style="fill: #87ceeb; opacity: 0.485714"/>
   </g>
   <g id="patch_21">
    <path d="M 414.150076 318.306348 
L 418.177406 318.306348 
L 418.177406 315.210086 
L 414.150076 315.210086 
z
" clip-path="url(#peecbf8e2eb)" style="fill: #87ceeb; opacity: 0.485714"/>
   </g>
   <g id="patch_22">
    <path d="M 471.683353 318.306348 
L 475.710683 318.306348 
L 475.710683 315.075069 
L 471.683353 315.075069 
z
" clip-path="url(#peecbf8e2eb)" style="fill: #87ceeb; opacity: 0.485714"/>
   </g>
   <g id="patch_23">
    <path d="M 529.21663 318.306348 
L 533.243959 318.306348 
L 533.243959 315.180968 
L 529.21663 315.180968 
z
" clip-path="url(#peecbf8e2eb)" style="fill: #87ceeb; opacity: 0.485714"/>
   </g>
   <g id="patch_24">
    <path d="M 586.749907 318.306348 
L 590.777236 318.306348 
L 590.777236 315.773194 
L 586.749907 315.773194 
z
" clip-path="url(#peecbf8e2eb)" style="fill: #87ceeb; opacity: 0.485714"/>
   </g>
   <g id="patch_25">
    <path d="M 644.283183 318.306348 
L 648.310513 318.306348 
L 648.310513 314.97982 
L 644.283183 314.97982 
z
" clip-path="url(#peecbf8e2eb)" style="fill: #87ceeb; opacity: 0.485714"/>
   </g>
   <g id="patch_26">
    <path d="M 701.81646 318.306348 
L 705.843789 318.306348 
L 705.843789 317.987006 
L 701.81646 317.987006 
z
" clip-path="url(#peecbf8e2eb)" style="fill: #87ceeb; opacity: 0.485714"/>
   </g>
   <g id="patch_27">
    <path d="M 759.349737 318.306348 
L 763.377066 318.306348 
L 763.377066 318.252826 
L 759.349737 318.252826 
z
" clip-path="url(#peecbf8e2eb)" style="fill: #87ceeb; opacity: 0.485714"/>
   </g>
   <g id="patch_28">
    <path d="M 816.883013 318.306348 
L 820.910343 318.306348 
L 820.910343 318.258404 
L 816.883013 318.258404 
z
" clip-path="url(#peecbf8e2eb)" style="fill: #87ceeb; opacity: 0.485714"/>
   </g>
   <g id="patch_29">
    <path d="M 130.511022 318.306348 
L 134.538352 318.306348 
L 134.538352 316.767534 
L 130.511022 316.767534 
z
" clip-path="url(#peecbf8e2eb)" style="fill: #87ceeb; opacity: 0.571429"/>
   </g>
   <g id="patch_30">
    <path d="M 188.044299 318.306348 
L 192.071628 318.306348 
L 192.071628 314.729547 
L 188.044299 314.729547 
z
" clip-path="url(#peecbf8e2eb)" style="fill: #87ceeb; opacity: 0.571429"/>
   </g>
   <g id="patch_31">
    <path d="M 245.577576 318.306348 
L 249.604905 318.306348 
L 249.604905 317.985155 
L 245.577576 317.985155 
z
" clip-path="url(#peecbf8e2eb)" style="fill: #87ceeb; opacity: 0.571429"/>
   </g>
   <g id="patch_32">
    <path d="M 303.110852 318.306348 
L 307.138182 318.306348 
L 307.138182 311.461801 
L 303.110852 311.461801 
z
" clip-path="url(#peecbf8e2eb)" style="fill: #87ceeb; opacity: 0.571429"/>
   </g>
   <g id="patch_33">
    <path d="M 360.644129 318.306348 
L 364.671459 318.306348 
L 364.671459 313.018396 
L 360.644129 313.018396 
z
" clip-path="url(#peecbf8e2eb)" style="fill: #87ceeb; opacity: 0.571429"/>
   </g>
   <g id="patch_34">
    <path d="M 418.177406 318.306348 
L 422.204735 318.306348 
L 422.204735 313.460113 
L 418.177406 313.460113 
z
" clip-path="url(#peecbf8e2eb)" style="fill: #87ceeb; opacity: 0.571429"/>
   </g>
   <g id="patch_35">
    <path d="M 475.710683 318.306348 
L 479.738012 318.306348 
L 479.738012 313.233434 
L 475.710683 313.233434 
z
" clip-path="url(#peecbf8e2eb)" style="fill: #87ceeb; opacity: 0.571429"/>
   </g>
   <g id="patch_36">
    <path d="M 533.243959 318.306348 
L 537.271289 318.306348 
L 537.271289 313.448746 
L 533.243959 313.448746 
z
" clip-path="url(#peecbf8e2eb)" style="fill: #87ceeb; opacity: 0.571429"/>
   </g>
   <g id="patch_37">
    <path d="M 590.777236 318.306348 
L 594.804565 318.306348 
L 594.804565 314.355569 
L 590.777236 314.355569 
z
" clip-path="url(#peecbf8e2eb)" style="fill: #87ceeb; opacity: 0.571429"/>
   </g>
   <g id="patch_38">
    <path d="M 648.310513 318.306348 
L 652.337842 318.306348 
L 652.337842 313.101446 
L 648.310513 313.101446 
z
" clip-path="url(#peecbf8e2eb)" style="fill: #87ceeb; opacity: 0.571429"/>
   </g>
   <g id="patch_39">
    <path d="M 705.843789 318.306348 
L 709.871119 318.306348 
L 709.871119 317.868139 
L 705.843789 317.868139 
z
" clip-path="url(#peecbf8e2eb)" style="fill: #87ceeb; opacity: 0.571429"/>
   </g>
   <g id="patch_40">
    <path d="M 763.377066 318.306348 
L 767.404395 318.306348 
L 767.404395 318.250166 
L 763.377066 318.250166 
z
" clip-path="url(#peecbf8e2eb)" style="fill: #87ceeb; opacity: 0.571429"/>
   </g>
   <g id="patch_41">
    <path d="M 820.910343 318.306348 
L 824.937672 318.306348 
L 824.937672 318.25317 
L 820.910343 318.25317 
z
" clip-path="url(#peecbf8e2eb)" style="fill: #87ceeb; opacity: 0.571429"/>
   </g>
   <g id="patch_42">
    <path d="M 134.538352 318.306348 
L 138.565681 318.306348 
L 138.565681 316.630155 
L 134.538352 316.630155 
z
" clip-path="url(#peecbf8e2eb)" style="fill: #87ceeb; opacity: 0.657143"/>
   </g>
   <g id="patch_43">
    <path d="M 192.071628 318.306348 
L 196.098958 318.306348 
L 196.098958 310.99313 
L 192.071628 310.99313 
z
" clip-path="url(#peecbf8e2eb)" style="fill: #87ceeb; opacity: 0.657143"/>
   </g>
   <g id="patch_44">
    <path d="M 249.604905 318.306348 
L 253.632234 318.306348 
L 253.632234 317.932644 
L 249.604905 317.932644 
z
" clip-path="url(#peecbf8e2eb)" style="fill: #87ceeb; opacity: 0.657143"/>
   </g>
   <g id="patch_45">
    <path d="M 307.138182 318.306348 
L 311.165511 318.306348 
L 311.165511 307.541239 
L 307.138182 307.541239 
z
" clip-path="url(#peecbf8e2eb)" style="fill: #87ceeb; opacity: 0.657143"/>
   </g>
   <g id="patch_46">
    <path d="M 364.671459 318.306348 
L 368.698788 318.306348 
L 368.698788 309.850809 
L 364.671459 309.850809 
z
" clip-path="url(#peecbf8e2eb)" style="fill: #87ceeb; opacity: 0.657143"/>
   </g>
   <g id="patch_47">
    <path d="M 422.204735 318.306348 
L 426.232065 318.306348 
L 426.232065 310.868192 
L 422.204735 310.868192 
z
" clip-path="url(#peecbf8e2eb)" style="fill: #87ceeb; opacity: 0.657143"/>
   </g>
   <g id="patch_48">
    <path d="M 479.738012 318.306348 
L 483.765341 318.306348 
L 483.765341 310.630788 
L 479.738012 310.630788 
z
" clip-path="url(#peecbf8e2eb)" style="fill: #87ceeb; opacity: 0.657143"/>
   </g>
   <g id="patch_49">
    <path d="M 537.271289 318.306348 
L 541.298618 318.306348 
L 541.298618 310.845193 
L 537.271289 310.845193 
z
" clip-path="url(#peecbf8e2eb)" style="fill: #87ceeb; opacity: 0.657143"/>
   </g>
   <g id="patch_50">
    <path d="M 594.804565 318.306348 
L 598.831895 318.306348 
L 598.831895 312.221138 
L 594.804565 312.221138 
z
" clip-path="url(#peecbf8e2eb)" style="fill: #87ceeb; opacity: 0.657143"/>
   </g>
   <g id="patch_51">
    <path d="M 652.337842 318.306348 
L 656.365171 318.306348 
L 656.365171 310.11525 
L 652.337842 310.11525 
z
" clip-path="url(#peecbf8e2eb)" style="fill: #87ceeb; opacity: 0.657143"/>
   </g>
   <g id="patch_52">
    <path d="M 709.871119 318.306348 
L 713.898448 318.306348 
L 713.898448 317.642554 
L 709.871119 317.642554 
z
" clip-path="url(#peecbf8e2eb)" style="fill: #87ceeb; opacity: 0.657143"/>
   </g>
   <g id="patch_53">
    <path d="M 767.404395 318.306348 
L 771.431725 318.306348 
L 771.431725 318.246366 
L 767.404395 318.246366 
z
" clip-path="url(#peecbf8e2eb)" style="fill: #87ceeb; opacity: 0.657143"/>
   </g>
   <g id="patch_54">
    <path d="M 824.937672 318.306348 
L 828.965001 318.306348 
L 828.965001 318.250343 
L 824.937672 318.250343 
z
" clip-path="url(#peecbf8e2eb)" style="fill: #87ceeb; opacity: 0.657143"/>
   </g>
   <g id="patch_55">
    <path d="M 138.565681 318.306348 
L 142.59301 318.306348 
L 142.59301 316.04352 
L 138.565681 316.04352 
z
" clip-path="url(#peecbf8e2eb)" style="fill: #87ceeb; opacity: 0.828571"/>
   </g>
   <g id="patch_56">
    <path d="M 196.098958 318.306348 
L 200.126287 318.306348 
L 200.126287 285.836645 
L 196.098958 285.836645 
z
" clip-path="url(#peecbf8e2eb)" style="fill: #87ceeb; opacity: 0.828571"/>
   </g>
   <g id="patch_57">
    <path d="M 253.632234 318.306348 
L 257.659564 318.306348 
L 257.659564 317.632232 
L 253.632234 317.632232 
z
" clip-path="url(#peecbf8e2eb)" style="fill: #87ceeb; opacity: 0.828571"/>
   </g>
   <g id="patch_58">
    <path d="M 311.165511 318.306348 
L 315.192841 318.306348 
L 315.192841 277.285497 
L 311.165511 277.285497 
z
" clip-path="url(#peecbf8e2eb)" style="fill: #87ceeb; opacity: 0.828571"/>
   </g>
   <g id="patch_59">
    <path d="M 368.698788 318.306348 
L 372.726117 318.306348 
L 372.726117 286.557864 
L 368.698788 286.557864 
z
" clip-path="url(#peecbf8e2eb)" style="fill: #87ceeb; opacity: 0.828571"/>
   </g>
   <g id="patch_60">
    <path d="M 426.232065 318.306348 
L 430.259394 318.306348 
L 430.259394 296.651936 
L 426.232065 296.651936 
z
" clip-path="url(#peecbf8e2eb)" style="fill: #87ceeb; opacity: 0.828571"/>
   </g>
   <g id="patch_61">
    <path d="M 483.765341 318.306348 
L 487.792671 318.306348 
L 487.792671 296.995373 
L 483.765341 296.995373 
z
" clip-path="url(#peecbf8e2eb)" style="fill: #87ceeb; opacity: 0.828571"/>
   </g>
   <g id="patch_62">
    <path d="M 541.298618 318.306348 
L 545.325947 318.306348 
L 545.325947 297.65878 
L 541.298618 297.65878 
z
" clip-path="url(#peecbf8e2eb)" style="fill: #87ceeb; opacity: 0.828571"/>
   </g>
   <g id="patch_63">
    <path d="M 598.831895 318.306348 
L 602.859224 318.306348 
L 602.859224 301.176498 
L 598.831895 301.176498 
z
" clip-path="url(#peecbf8e2eb)" style="fill: #87ceeb; opacity: 0.828571"/>
   </g>
   <g id="patch_64">
    <path d="M 656.365171 318.306348 
L 660.392501 318.306348 
L 660.392501 293.249889 
L 656.365171 293.249889 
z
" clip-path="url(#peecbf8e2eb)" style="fill: #87ceeb; opacity: 0.828571"/>
   </g>
   <g id="patch_65">
    <path d="M 713.898448 318.306348 
L 717.925777 318.306348 
L 717.925777 316.510619 
L 713.898448 316.510619 
z
" clip-path="url(#peecbf8e2eb)" style="fill: #87ceeb; opacity: 0.828571"/>
   </g>
   <g id="patch_66">
    <path d="M 771.431725 318.306348 
L 775.459054 318.306348 
L 775.459054 318.238239 
L 771.431725 318.238239 
z
" clip-path="url(#peecbf8e2eb)" style="fill: #87ceeb; opacity: 0.828571"/>
   </g>
   <g id="patch_67">
    <path d="M 828.965001 318.306348 
L 832.992331 318.306348 
L 832.992331 318.237393 
L 828.965001 318.237393 
z
" clip-path="url(#peecbf8e2eb)" style="fill: #87ceeb; opacity: 0.828571"/>
   </g>
   <g id="patch_68">
    <path d="M 142.59301 318.306348 
L 146.62034 318.306348 
L 146.62034 314.637053 
L 142.59301 314.637053 
z
" clip-path="url(#peecbf8e2eb)" style="fill: #87ceeb"/>
   </g>
   <g id="patch_69">
    <path d="M 200.126287 318.306348 
L 204.153617 318.306348 
L 204.153617 87.619499 
L 200.126287 87.619499 
z
" clip-path="url(#peecbf8e2eb)" style="fill: #87ceeb"/>
   </g>
   <g id="patch_70">
    <path d="M 257.659564 318.306348 
L 261.686893 318.306348 
L 261.686893 315.3142 
L 257.659564 315.3142 
z
" clip-path="url(#peecbf8e2eb)" style="fill: #87ceeb"/>
   </g>
   <g id="patch_71">
    <path d="M 315.192841 318.306348 
L 319.22017 318.306348 
L 319.22017 168.873655 
L 315.192841 168.873655 
z
" clip-path="url(#peecbf8e2eb)" style="fill: #87ceeb"/>
   </g>
   <g id="patch_72">
    <path d="M 372.726117 318.306348 
L 376.753447 318.306348 
L 376.753447 185.936697 
L 372.726117 185.936697 
z
" clip-path="url(#peecbf8e2eb)" style="fill: #87ceeb"/>
   </g>
   <g id="patch_73">
    <path d="M 430.259394 318.306348 
L 434.286723 318.306348 
L 434.286723 244.279667 
L 430.259394 244.279667 
z
" clip-path="url(#peecbf8e2eb)" style="fill: #87ceeb"/>
   </g>
   <g id="patch_74">
    <path d="M 487.792671 318.306348 
L 491.82 318.306348 
L 491.82 239.051095 
L 487.792671 239.051095 
z
" clip-path="url(#peecbf8e2eb)" style="fill: #87ceeb"/>
   </g>
   <g id="patch_75">
    <path d="M 545.325947 318.306348 
L 549.353277 318.306348 
L 549.353277 239.208311 
L 545.325947 239.208311 
z
" clip-path="url(#peecbf8e2eb)" style="fill: #87ceeb"/>
   </g>
   <g id="patch_76">
    <path d="M 602.859224 318.306348 
L 606.886553 318.306348 
L 606.886553 255.151999 
L 602.859224 255.151999 
z
" clip-path="url(#peecbf8e2eb)" style="fill: #87ceeb"/>
   </g>
   <g id="patch_77">
    <path d="M 660.392501 318.306348 
L 664.41983 318.306348 
L 664.41983 228.776829 
L 660.392501 228.776829 
z
" clip-path="url(#peecbf8e2eb)" style="fill: #87ceeb"/>
   </g>
   <g id="patch_78">
    <path d="M 717.925777 318.306348 
L 721.953107 318.306348 
L 721.953107 312.492968 
L 717.925777 312.492968 
z
" clip-path="url(#peecbf8e2eb)" style="fill: #87ceeb"/>
   </g>
   <g id="patch_79">
    <path d="M 775.459054 318.306348 
L 779.486383 318.306348 
L 779.486383 318.228448 
L 775.459054 318.228448 
z
" clip-path="url(#peecbf8e2eb)" style="fill: #87ceeb"/>
   </g>
   <g id="patch_80">
    <path d="M 832.992331 318.306348 
L 837.01966 318.306348 
L 837.01966 318.22516 
L 832.992331 318.22516 
z
" clip-path="url(#peecbf8e2eb)" style="fill: #87ceeb"/>
   </g>
   <g id="patch_81">
    <path d="M 146.62034 318.306348 
L 150.647669 318.306348 
L 150.647669 317.157509 
L 146.62034 317.157509 
z
" clip-path="url(#peecbf8e2eb)" style="fill: #fa8072; opacity: 0.4"/>
   </g>
   <g id="patch_82">
    <path d="M 204.153617 318.306348 
L 208.180946 318.306348 
L 208.180946 311.098227 
L 204.153617 311.098227 
z
" clip-path="url(#peecbf8e2eb)" style="fill: #fa8072; opacity: 0.4"/>
   </g>
   <g id="patch_83">
    <path d="M 261.686893 318.306348 
L 265.714223 318.306348 
L 265.714223 318.0366 
L 261.686893 318.0366 
z
" clip-path="url(#peecbf8e2eb)" style="fill: #fa8072; opacity: 0.4"/>
   </g>
   <g id="patch_84">
    <path d="M 319.22017 318.306348 
L 323.247499 318.306348 
L 323.247499 314.495763 
L 319.22017 314.495763 
z
" clip-path="url(#peecbf8e2eb)" style="fill: #fa8072; opacity: 0.4"/>
   </g>
   <g id="patch_85">
    <path d="M 376.753447 318.306348 
L 380.780776 318.306348 
L 380.780776 315.392897 
L 376.753447 315.392897 
z
" clip-path="url(#peecbf8e2eb)" style="fill: #fa8072; opacity: 0.4"/>
   </g>
   <g id="patch_86">
    <path d="M 434.286723 318.306348 
L 438.314053 318.306348 
L 438.314053 316.110952 
L 434.286723 316.110952 
z
" clip-path="url(#peecbf8e2eb)" style="fill: #fa8072; opacity: 0.4"/>
   </g>
   <g id="patch_87">
    <path d="M 491.82 318.306348 
L 495.847329 318.306348 
L 495.847329 315.868732 
L 491.82 315.868732 
z
" clip-path="url(#peecbf8e2eb)" style="fill: #fa8072; opacity: 0.4"/>
   </g>
   <g id="patch_88">
    <path d="M 549.353277 318.306348 
L 553.380606 318.306348 
L 553.380606 316.063411 
L 549.353277 316.063411 
z
" clip-path="url(#peecbf8e2eb)" style="fill: #fa8072; opacity: 0.4"/>
   </g>
   <g id="patch_89">
    <path d="M 606.886553 318.306348 
L 610.913883 318.306348 
L 610.913883 316.407188 
L 606.886553 316.407188 
z
" clip-path="url(#peecbf8e2eb)" style="fill: #fa8072; opacity: 0.4"/>
   </g>
   <g id="patch_90">
    <path d="M 664.41983 318.306348 
L 668.447159 318.306348 
L 668.447159 315.829279 
L 664.41983 315.829279 
z
" clip-path="url(#peecbf8e2eb)" style="fill: #fa8072; opacity: 0.4"/>
   </g>
   <g id="patch_91">
    <path d="M 721.953107 318.306348 
L 725.980436 318.306348 
L 725.980436 318.034455 
L 721.953107 318.034455 
z
" clip-path="url(#peecbf8e2eb)" style="fill: #fa8072; opacity: 0.4"/>
   </g>
   <g id="patch_92">
    <path d="M 779.486383 318.306348 
L 783.513713 318.306348 
L 783.513713 318.227588 
L 779.486383 318.227588 
z
" clip-path="url(#peecbf8e2eb)" style="fill: #fa8072; opacity: 0.4"/>
   </g>
   <g id="patch_93">
    <path d="M 837.01966 318.306348 
L 841.04699 318.306348 
L 841.04699 318.232691 
L 837.01966 318.232691 
z
" clip-path="url(#peecbf8e2eb)" style="fill: #fa8072; opacity: 0.4"/>
   </g>
   <g id="patch_94">
    <path d="M 150.647669 318.306348 
L 154.674999 318.306348 
L 154.674999 316.955193 
L 150.647669 316.955193 
z
" clip-path="url(#peecbf8e2eb)" style="fill: #fa8072; opacity: 0.485714"/>
   </g>
   <g id="patch_95">
    <path d="M 208.180946 318.306348 
L 212.208275 318.306348 
L 212.208275 315.757455 
L 208.180946 315.757455 
z
" clip-path="url(#peecbf8e2eb)" style="fill: #fa8072; opacity: 0.485714"/>
   </g>
   <g id="patch_96">
    <path d="M 265.714223 318.306348 
L 269.741552 318.306348 
L 269.741552 317.998357 
L 265.714223 317.998357 
z
" clip-path="url(#peecbf8e2eb)" style="fill: #fa8072; opacity: 0.485714"/>
   </g>
   <g id="patch_97">
    <path d="M 323.247499 318.306348 
L 327.274829 318.306348 
L 327.274829 313.835989 
L 323.247499 313.835989 
z
" clip-path="url(#peecbf8e2eb)" style="fill: #fa8072; opacity: 0.485714"/>
   </g>
   <g id="patch_98">
    <path d="M 380.780776 318.306348 
L 384.808105 318.306348 
L 384.808105 314.79467 
L 380.780776 314.79467 
z
" clip-path="url(#peecbf8e2eb)" style="fill: #fa8072; opacity: 0.485714"/>
   </g>
   <g id="patch_99">
    <path d="M 438.314053 318.306348 
L 442.341382 318.306348 
L 442.341382 315.200573 
L 438.314053 315.200573 
z
" clip-path="url(#peecbf8e2eb)" style="fill: #fa8072; opacity: 0.485714"/>
   </g>
   <g id="patch_100">
    <path d="M 495.847329 318.306348 
L 499.874659 318.306348 
L 499.874659 315.125698 
L 495.847329 315.125698 
z
" clip-path="url(#peecbf8e2eb)" style="fill: #fa8072; opacity: 0.485714"/>
   </g>
   <g id="patch_101">
    <path d="M 553.380606 318.306348 
L 557.407935 318.306348 
L 557.407935 315.102478 
L 553.380606 315.102478 
z
" clip-path="url(#peecbf8e2eb)" style="fill: #fa8072; opacity: 0.485714"/>
   </g>
   <g id="patch_102">
    <path d="M 610.913883 318.306348 
L 614.941212 318.306348 
L 614.941212 315.765299 
L 610.913883 315.765299 
z
" clip-path="url(#peecbf8e2eb)" style="fill: #fa8072; opacity: 0.485714"/>
   </g>
   <g id="patch_103">
    <path d="M 668.447159 318.306348 
L 672.474489 318.306348 
L 672.474489 314.952512 
L 668.447159 314.952512 
z
" clip-path="url(#peecbf8e2eb)" style="fill: #fa8072; opacity: 0.485714"/>
   </g>
   <g id="patch_104">
    <path d="M 725.980436 318.306348 
L 730.007766 318.306348 
L 730.007766 317.962794 
L 725.980436 317.962794 
z
" clip-path="url(#peecbf8e2eb)" style="fill: #fa8072; opacity: 0.485714"/>
   </g>
   <g id="patch_105">
    <path d="M 783.513713 318.306348 
L 787.541042 318.306348 
L 787.541042 318.217387 
L 783.513713 318.217387 
z
" clip-path="url(#peecbf8e2eb)" style="fill: #fa8072; opacity: 0.485714"/>
   </g>
   <g id="patch_106">
    <path d="M 841.04699 318.306348 
L 845.074319 318.306348 
L 845.074319 318.224328 
L 841.04699 318.224328 
z
" clip-path="url(#peecbf8e2eb)" style="fill: #fa8072; opacity: 0.485714"/>
   </g>
   <g id="patch_107">
    <path d="M 154.674999 318.306348 
L 158.702328 318.306348 
L 158.702328 316.773512 
L 154.674999 316.773512 
z
" clip-path="url(#peecbf8e2eb)" style="fill: #fa8072; opacity: 0.571429"/>
   </g>
   <g id="patch_108">
    <path d="M 212.208275 318.306348 
L 216.235605 318.306348 
L 216.235605 314.449817 
L 212.208275 314.449817 
z
" clip-path="url(#peecbf8e2eb)" style="fill: #fa8072; opacity: 0.571429"/>
   </g>
   <g id="patch_109">
    <path d="M 269.741552 318.306348 
L 273.768881 318.306348 
L 273.768881 317.951579 
L 269.741552 317.951579 
z
" clip-path="url(#peecbf8e2eb)" style="fill: #fa8072; opacity: 0.571429"/>
   </g>
   <g id="patch_110">
    <path d="M 327.274829 318.306348 
L 331.302158 318.306348 
L 331.302158 311.577338 
L 327.274829 311.577338 
z
" clip-path="url(#peecbf8e2eb)" style="fill: #fa8072; opacity: 0.571429"/>
   </g>
   <g id="patch_111">
    <path d="M 384.808105 318.306348 
L 388.835435 318.306348 
L 388.835435 312.895289 
L 384.808105 312.895289 
z
" clip-path="url(#peecbf8e2eb)" style="fill: #fa8072; opacity: 0.571429"/>
   </g>
   <g id="patch_112">
    <path d="M 442.341382 318.306348 
L 446.368711 318.306348 
L 446.368711 313.533872 
L 442.341382 313.533872 
z
" clip-path="url(#peecbf8e2eb)" style="fill: #fa8072; opacity: 0.571429"/>
   </g>
   <g id="patch_113">
    <path d="M 499.874659 318.306348 
L 503.901988 318.306348 
L 503.901988 313.203865 
L 499.874659 313.203865 
z
" clip-path="url(#peecbf8e2eb)" style="fill: #fa8072; opacity: 0.571429"/>
   </g>
   <g id="patch_114">
    <path d="M 557.407935 318.306348 
L 561.435265 318.306348 
L 561.435265 313.433604 
L 557.407935 313.433604 
z
" clip-path="url(#peecbf8e2eb)" style="fill: #fa8072; opacity: 0.571429"/>
   </g>
   <g id="patch_115">
    <path d="M 614.941212 318.306348 
L 618.968541 318.306348 
L 618.968541 314.389691 
L 614.941212 314.389691 
z
" clip-path="url(#peecbf8e2eb)" style="fill: #fa8072; opacity: 0.571429"/>
   </g>
   <g id="patch_116">
    <path d="M 672.474489 318.306348 
L 676.501818 318.306348 
L 676.501818 313.11278 
L 672.474489 313.11278 
z
" clip-path="url(#peecbf8e2eb)" style="fill: #fa8072; opacity: 0.571429"/>
   </g>
   <g id="patch_117">
    <path d="M 730.007766 318.306348 
L 734.035095 318.306348 
L 734.035095 317.833546 
L 730.007766 317.833546 
z
" clip-path="url(#peecbf8e2eb)" style="fill: #fa8072; opacity: 0.571429"/>
   </g>
   <g id="patch_118">
    <path d="M 787.541042 318.306348 
L 791.568372 318.306348 
L 791.568372 318.214767 
L 787.541042 318.214767 
z
" clip-path="url(#peecbf8e2eb)" style="fill: #fa8072; opacity: 0.571429"/>
   </g>
   <g id="patch_119">
    <path d="M 845.074319 318.306348 
L 849.101648 318.306348 
L 849.101648 318.22128 
L 845.074319 318.22128 
z
" clip-path="url(#peecbf8e2eb)" style="fill: #fa8072; opacity: 0.571429"/>
   </g>
   <g id="patch_120">
    <path d="M 158.702328 318.306348 
L 162.729657 318.306348 
L 162.729657 316.5336 
L 158.702328 316.5336 
z
" clip-path="url(#peecbf8e2eb)" style="fill: #fa8072; opacity: 0.657143"/>
   </g>
   <g id="patch_121">
    <path d="M 216.235605 318.306348 
L 220.262934 318.306348 
L 220.262934 310.132294 
L 216.235605 310.132294 
z
" clip-path="url(#peecbf8e2eb)" style="fill: #fa8072; opacity: 0.657143"/>
   </g>
   <g id="patch_122">
    <path d="M 273.768881 318.306348 
L 277.796211 318.306348 
L 277.796211 317.894434 
L 273.768881 317.894434 
z
" clip-path="url(#peecbf8e2eb)" style="fill: #fa8072; opacity: 0.657143"/>
   </g>
   <g id="patch_123">
    <path d="M 331.302158 318.306348 
L 335.329487 318.306348 
L 335.329487 307.503739 
L 331.302158 307.503739 
z
" clip-path="url(#peecbf8e2eb)" style="fill: #fa8072; opacity: 0.657143"/>
   </g>
   <g id="patch_124">
    <path d="M 388.835435 318.306348 
L 392.862764 318.306348 
L 392.862764 309.722941 
L 388.835435 309.722941 
z
" clip-path="url(#peecbf8e2eb)" style="fill: #fa8072; opacity: 0.657143"/>
   </g>
   <g id="patch_125">
    <path d="M 446.368711 318.306348 
L 450.396041 318.306348 
L 450.396041 310.915265 
L 446.368711 310.915265 
z
" clip-path="url(#peecbf8e2eb)" style="fill: #fa8072; opacity: 0.657143"/>
   </g>
   <g id="patch_126">
    <path d="M 503.901988 318.306348 
L 507.929317 318.306348 
L 507.929317 310.715258 
L 503.901988 310.715258 
z
" clip-path="url(#peecbf8e2eb)" style="fill: #fa8072; opacity: 0.657143"/>
   </g>
   <g id="patch_127">
    <path d="M 561.435265 318.306348 
L 565.462594 318.306348 
L 565.462594 310.901779 
L 561.435265 310.901779 
z
" clip-path="url(#peecbf8e2eb)" style="fill: #fa8072; opacity: 0.657143"/>
   </g>
   <g id="patch_128">
    <path d="M 618.968541 318.306348 
L 622.995871 318.306348 
L 622.995871 312.157948 
L 618.968541 312.157948 
z
" clip-path="url(#peecbf8e2eb)" style="fill: #fa8072; opacity: 0.657143"/>
   </g>
   <g id="patch_129">
    <path d="M 676.501818 318.306348 
L 680.529148 318.306348 
L 680.529148 310.087238 
L 676.501818 310.087238 
z
" clip-path="url(#peecbf8e2eb)" style="fill: #fa8072; opacity: 0.657143"/>
   </g>
   <g id="patch_130">
    <path d="M 734.035095 318.306348 
L 738.062424 318.306348 
L 738.062424 317.575232 
L 734.035095 317.575232 
z
" clip-path="url(#peecbf8e2eb)" style="fill: #fa8072; opacity: 0.657143"/>
   </g>
   <g id="patch_131">
    <path d="M 791.568372 318.306348 
L 795.595701 318.306348 
L 795.595701 318.208763 
L 791.568372 318.208763 
z
" clip-path="url(#peecbf8e2eb)" style="fill: #fa8072; opacity: 0.657143"/>
   </g>
   <g id="patch_132">
    <path d="M 849.101648 318.306348 
L 853.128978 318.306348 
L 853.128978 318.213315 
L 849.101648 318.213315 
z
" clip-path="url(#peecbf8e2eb)" style="fill: #fa8072; opacity: 0.657143"/>
   </g>
   <g id="patch_133">
    <path d="M 162.729657 318.306348 
L 166.756987 318.306348 
L 166.756987 316.083363 
L 162.729657 316.083363 
z
" clip-path="url(#peecbf8e2eb)" style="fill: #fa8072; opacity: 0.828571"/>
   </g>
   <g id="patch_134">
    <path d="M 220.262934 318.306348 
L 224.290263 318.306348 
L 224.290263 280.596432 
L 220.262934 280.596432 
z
" clip-path="url(#peecbf8e2eb)" style="fill: #fa8072; opacity: 0.828571"/>
   </g>
   <g id="patch_135">
    <path d="M 277.796211 318.306348 
L 281.82354 318.306348 
L 281.82354 317.571697 
L 277.796211 317.571697 
z
" clip-path="url(#peecbf8e2eb)" style="fill: #fa8072; opacity: 0.828571"/>
   </g>
   <g id="patch_136">
    <path d="M 335.329487 318.306348 
L 339.356817 318.306348 
L 339.356817 280.457385 
L 335.329487 280.457385 
z
" clip-path="url(#peecbf8e2eb)" style="fill: #fa8072; opacity: 0.828571"/>
   </g>
   <g id="patch_137">
    <path d="M 392.862764 318.306348 
L 396.890093 318.306348 
L 396.890093 286.418852 
L 392.862764 286.418852 
z
" clip-path="url(#peecbf8e2eb)" style="fill: #fa8072; opacity: 0.828571"/>
   </g>
   <g id="patch_138">
    <path d="M 450.396041 318.306348 
L 454.42337 318.306348 
L 454.42337 297.258301 
L 450.396041 297.258301 
z
" clip-path="url(#peecbf8e2eb)" style="fill: #fa8072; opacity: 0.828571"/>
   </g>
   <g id="patch_139">
    <path d="M 507.929317 318.306348 
L 511.956647 318.306348 
L 511.956647 296.801213 
L 507.929317 296.801213 
z
" clip-path="url(#peecbf8e2eb)" style="fill: #fa8072; opacity: 0.828571"/>
   </g>
   <g id="patch_140">
    <path d="M 565.462594 318.306348 
L 569.489924 318.306348 
L 569.489924 298.487886 
L 565.462594 298.487886 
z
" clip-path="url(#peecbf8e2eb)" style="fill: #fa8072; opacity: 0.828571"/>
   </g>
   <g id="patch_141">
    <path d="M 622.995871 318.306348 
L 627.0232 318.306348 
L 627.0232 301.758998 
L 622.995871 301.758998 
z
" clip-path="url(#peecbf8e2eb)" style="fill: #fa8072; opacity: 0.828571"/>
   </g>
   <g id="patch_142">
    <path d="M 680.529148 318.306348 
L 684.556477 318.306348 
L 684.556477 293.888187 
L 680.529148 293.888187 
z
" clip-path="url(#peecbf8e2eb)" style="fill: #fa8072; opacity: 0.828571"/>
   </g>
   <g id="patch_143">
    <path d="M 738.062424 318.306348 
L 742.089754 318.306348 
L 742.089754 316.429789 
L 738.062424 316.429789 
z
" clip-path="url(#peecbf8e2eb)" style="fill: #fa8072; opacity: 0.828571"/>
   </g>
   <g id="patch_144">
    <path d="M 795.595701 318.306348 
L 799.62303 318.306348 
L 799.62303 318.193124 
L 795.595701 318.193124 
z
" clip-path="url(#peecbf8e2eb)" style="fill: #fa8072; opacity: 0.828571"/>
   </g>
   <g id="patch_145">
    <path d="M 853.128978 318.306348 
L 857.156307 318.306348 
L 857.156307 318.181133 
L 853.128978 318.181133 
z
" clip-path="url(#peecbf8e2eb)" style="fill: #fa8072; opacity: 0.828571"/>
   </g>
   <g id="patch_146">
    <path d="M 166.756987 318.306348 
L 170.784316 318.306348 
L 170.784316 314.597311 
L 166.756987 314.597311 
z
" clip-path="url(#peecbf8e2eb)" style="fill: #fa8072"/>
   </g>
   <g id="patch_147">
    <path d="M 224.290263 318.306348 
L 228.317593 318.306348 
L 228.317593 31.614588 
L 224.290263 31.614588 
z
" clip-path="url(#peecbf8e2eb)" style="fill: #fa8072"/>
   </g>
   <g id="patch_148">
    <path d="M 281.82354 318.306348 
L 285.850869 318.306348 
L 285.850869 315.011425 
L 281.82354 315.011425 
z
" clip-path="url(#peecbf8e2eb)" style="fill: #fa8072"/>
   </g>
   <g id="patch_149">
    <path d="M 339.356817 318.306348 
L 343.384146 318.306348 
L 343.384146 167.041498 
L 339.356817 167.041498 
z
" clip-path="url(#peecbf8e2eb)" style="fill: #fa8072"/>
   </g>
   <g id="patch_150">
    <path d="M 396.890093 318.306348 
L 400.917423 318.306348 
L 400.917423 189.108006 
L 396.890093 189.108006 
z
" clip-path="url(#peecbf8e2eb)" style="fill: #fa8072"/>
   </g>
   <g id="patch_151">
    <path d="M 454.42337 318.306348 
L 458.4507 318.306348 
L 458.4507 246.157952 
L 454.42337 246.157952 
z
" clip-path="url(#peecbf8e2eb)" style="fill: #fa8072"/>
   </g>
   <g id="patch_152">
    <path d="M 511.956647 318.306348 
L 515.983976 318.306348 
L 515.983976 242.396929 
L 511.956647 242.396929 
z
" clip-path="url(#peecbf8e2eb)" style="fill: #fa8072"/>
   </g>
   <g id="patch_153">
    <path d="M 569.489924 318.306348 
L 573.517253 318.306348 
L 573.517253 244.347558 
L 569.489924 244.347558 
z
" clip-path="url(#peecbf8e2eb)" style="fill: #fa8072"/>
   </g>
   <g id="patch_154">
    <path d="M 627.0232 318.306348 
L 631.05053 318.306348 
L 631.05053 257.110356 
L 627.0232 257.110356 
z
" clip-path="url(#peecbf8e2eb)" style="fill: #fa8072"/>
   </g>
   <g id="patch_155">
    <path d="M 684.556477 318.306348 
L 688.583806 318.306348 
L 688.583806 230.824326 
L 684.556477 230.824326 
z
" clip-path="url(#peecbf8e2eb)" style="fill: #fa8072"/>
   </g>
   <g id="patch_156">
    <path d="M 742.089754 318.306348 
L 746.117083 318.306348 
L 746.117083 311.944459 
L 742.089754 311.944459 
z
" clip-path="url(#peecbf8e2eb)" style="fill: #fa8072"/>
   </g>
   <g id="patch_157">
    <path d="M 799.62303 318.306348 
L 803.65036 318.306348 
L 803.65036 318.169177 
L 799.62303 318.169177 
z
" clip-path="url(#peecbf8e2eb)" style="fill: #fa8072"/>
   </g>
   <g id="patch_158">
    <path d="M 857.156307 318.306348 
L 861.183636 318.306348 
L 861.183636 318.188916 
L 857.156307 318.188916 
z
" clip-path="url(#peecbf8e2eb)" style="fill: #fa8072"/>
   </g>
   <g id="matplotlib.axis_1">
    <g id="xtick_1">
     <g id="line2d_1">
      <defs>
       <path id="m1875489cad" d="M 0 0 
L 0 3.5 
" style="stroke: #000000; stroke-width: 0.8"/>
      </defs>
      <g>
       <use xlink:href="#m1875489cad" x="146.62034" y="318.306348" style="stroke: #000000; stroke-width: 0.8"/>
      </g>
     </g>
     <g id="text_1">
      <!-- DTree -->
      <g transform="translate(111.995089 366.175352) rotate(-45) scale(0.16 -0.16)">
       <defs>
        <path id="DejaVuSans-44" d="M 1259 4147 
L 1259 519 
L 2022 519 
Q 2988 519 3436 956 
Q 3884 1394 3884 2338 
Q 3884 3275 3436 3711 
Q 2988 4147 2022 4147 
L 1259 4147 
z
M 628 4666 
L 1925 4666 
Q 3281 4666 3915 4102 
Q 4550 3538 4550 2338 
Q 4550 1131 3912 565 
Q 3275 0 1925 0 
L 628 0 
L 628 4666 
z
" transform="scale(0.015625)"/>
        <path id="DejaVuSans-54" d="M -19 4666 
L 3928 4666 
L 3928 4134 
L 2272 4134 
L 2272 0 
L 1638 0 
L 1638 4134 
L -19 4134 
L -19 4666 
z
" transform="scale(0.015625)"/>
        <path id="DejaVuSans-72" d="M 2631 2963 
Q 2534 3019 2420 3045 
Q 2306 3072 2169 3072 
Q 1681 3072 1420 2755 
Q 1159 2438 1159 1844 
L 1159 0 
L 581 0 
L 581 3500 
L 1159 3500 
L 1159 2956 
Q 1341 3275 1631 3429 
Q 1922 3584 2338 3584 
Q 2397 3584 2469 3576 
Q 2541 3569 2628 3553 
L 2631 2963 
z
" transform="scale(0.015625)"/>
        <path id="DejaVuSans-65" d="M 3597 1894 
L 3597 1613 
L 953 1613 
Q 991 1019 1311 708 
Q 1631 397 2203 397 
Q 2534 397 2845 478 
Q 3156 559 3463 722 
L 3463 178 
Q 3153 47 2828 -22 
Q 2503 -91 2169 -91 
Q 1331 -91 842 396 
Q 353 884 353 1716 
Q 353 2575 817 3079 
Q 1281 3584 2069 3584 
Q 2775 3584 3186 3129 
Q 3597 2675 3597 1894 
z
M 3022 2063 
Q 3016 2534 2758 2815 
Q 2500 3097 2075 3097 
Q 1594 3097 1305 2825 
Q 1016 2553 972 2059 
L 3022 2063 
z
" transform="scale(0.015625)"/>
       </defs>
       <use xlink:href="#DejaVuSans-44"/>
       <use xlink:href="#DejaVuSans-54" transform="translate(77.001953 0)"/>
       <use xlink:href="#DejaVuSans-72" transform="translate(123.335938 0)"/>
       <use xlink:href="#DejaVuSans-65" transform="translate(162.199219 0)"/>
       <use xlink:href="#DejaVuSans-65" transform="translate(223.722656 0)"/>
      </g>
     </g>
    </g>
    <g id="xtick_2">
     <g id="line2d_2">
      <g>
       <use xlink:href="#m1875489cad" x="204.153617" y="318.306348" style="stroke: #000000; stroke-width: 0.8"/>
      </g>
     </g>
     <g id="text_2">
      <!-- barshift_128b -->
      <g transform="translate(123.858106 411.530948) rotate(-45) scale(0.16 -0.16)">
       <defs>
        <path id="DejaVuSans-62" d="M 3116 1747 
Q 3116 2381 2855 2742 
Q 2594 3103 2138 3103 
Q 1681 3103 1420 2742 
Q 1159 2381 1159 1747 
Q 1159 1113 1420 752 
Q 1681 391 2138 391 
Q 2594 391 2855 752 
Q 3116 1113 3116 1747 
z
M 1159 2969 
Q 1341 3281 1617 3432 
Q 1894 3584 2278 3584 
Q 2916 3584 3314 3078 
Q 3713 2572 3713 1747 
Q 3713 922 3314 415 
Q 2916 -91 2278 -91 
Q 1894 -91 1617 61 
Q 1341 213 1159 525 
L 1159 0 
L 581 0 
L 581 4863 
L 1159 4863 
L 1159 2969 
z
" transform="scale(0.015625)"/>
        <path id="DejaVuSans-61" d="M 2194 1759 
Q 1497 1759 1228 1600 
Q 959 1441 959 1056 
Q 959 750 1161 570 
Q 1363 391 1709 391 
Q 2188 391 2477 730 
Q 2766 1069 2766 1631 
L 2766 1759 
L 2194 1759 
z
M 3341 1997 
L 3341 0 
L 2766 0 
L 2766 531 
Q 2569 213 2275 61 
Q 1981 -91 1556 -91 
Q 1019 -91 701 211 
Q 384 513 384 1019 
Q 384 1609 779 1909 
Q 1175 2209 1959 2209 
L 2766 2209 
L 2766 2266 
Q 2766 2663 2505 2880 
Q 2244 3097 1772 3097 
Q 1472 3097 1187 3025 
Q 903 2953 641 2809 
L 641 3341 
Q 956 3463 1253 3523 
Q 1550 3584 1831 3584 
Q 2591 3584 2966 3190 
Q 3341 2797 3341 1997 
z
" transform="scale(0.015625)"/>
        <path id="DejaVuSans-73" d="M 2834 3397 
L 2834 2853 
Q 2591 2978 2328 3040 
Q 2066 3103 1784 3103 
Q 1356 3103 1142 2972 
Q 928 2841 928 2578 
Q 928 2378 1081 2264 
Q 1234 2150 1697 2047 
L 1894 2003 
Q 2506 1872 2764 1633 
Q 3022 1394 3022 966 
Q 3022 478 2636 193 
Q 2250 -91 1575 -91 
Q 1294 -91 989 -36 
Q 684 19 347 128 
L 347 722 
Q 666 556 975 473 
Q 1284 391 1588 391 
Q 1994 391 2212 530 
Q 2431 669 2431 922 
Q 2431 1156 2273 1281 
Q 2116 1406 1581 1522 
L 1381 1569 
Q 847 1681 609 1914 
Q 372 2147 372 2553 
Q 372 3047 722 3315 
Q 1072 3584 1716 3584 
Q 2034 3584 2315 3537 
Q 2597 3491 2834 3397 
z
" transform="scale(0.015625)"/>
        <path id="DejaVuSans-68" d="M 3513 2113 
L 3513 0 
L 2938 0 
L 2938 2094 
Q 2938 2591 2744 2837 
Q 2550 3084 2163 3084 
Q 1697 3084 1428 2787 
Q 1159 2491 1159 1978 
L 1159 0 
L 581 0 
L 581 4863 
L 1159 4863 
L 1159 2956 
Q 1366 3272 1645 3428 
Q 1925 3584 2291 3584 
Q 2894 3584 3203 3211 
Q 3513 2838 3513 2113 
z
" transform="scale(0.015625)"/>
        <path id="DejaVuSans-69" d="M 603 3500 
L 1178 3500 
L 1178 0 
L 603 0 
L 603 3500 
z
M 603 4863 
L 1178 4863 
L 1178 4134 
L 603 4134 
L 603 4863 
z
" transform="scale(0.015625)"/>
        <path id="DejaVuSans-66" d="M 2375 4863 
L 2375 4384 
L 1825 4384 
Q 1516 4384 1395 4259 
Q 1275 4134 1275 3809 
L 1275 3500 
L 2222 3500 
L 2222 3053 
L 1275 3053 
L 1275 0 
L 697 0 
L 697 3053 
L 147 3053 
L 147 3500 
L 697 3500 
L 697 3744 
Q 697 4328 969 4595 
Q 1241 4863 1831 4863 
L 2375 4863 
z
" transform="scale(0.015625)"/>
        <path id="DejaVuSans-74" d="M 1172 4494 
L 1172 3500 
L 2356 3500 
L 2356 3053 
L 1172 3053 
L 1172 1153 
Q 1172 725 1289 603 
Q 1406 481 1766 481 
L 2356 481 
L 2356 0 
L 1766 0 
Q 1100 0 847 248 
Q 594 497 594 1153 
L 594 3053 
L 172 3053 
L 172 3500 
L 594 3500 
L 594 4494 
L 1172 4494 
z
" transform="scale(0.015625)"/>
        <path id="DejaVuSans-5f" d="M 3263 -1063 
L 3263 -1509 
L -63 -1509 
L -63 -1063 
L 3263 -1063 
z
" transform="scale(0.015625)"/>
        <path id="DejaVuSans-31" d="M 794 531 
L 1825 531 
L 1825 4091 
L 703 3866 
L 703 4441 
L 1819 4666 
L 2450 4666 
L 2450 531 
L 3481 531 
L 3481 0 
L 794 0 
L 794 531 
z
" transform="scale(0.015625)"/>
        <path id="DejaVuSans-32" d="M 1228 531 
L 3431 531 
L 3431 0 
L 469 0 
L 469 531 
Q 828 903 1448 1529 
Q 2069 2156 2228 2338 
Q 2531 2678 2651 2914 
Q 2772 3150 2772 3378 
Q 2772 3750 2511 3984 
Q 2250 4219 1831 4219 
Q 1534 4219 1204 4116 
Q 875 4013 500 3803 
L 500 4441 
Q 881 4594 1212 4672 
Q 1544 4750 1819 4750 
Q 2544 4750 2975 4387 
Q 3406 4025 3406 3419 
Q 3406 3131 3298 2873 
Q 3191 2616 2906 2266 
Q 2828 2175 2409 1742 
Q 1991 1309 1228 531 
z
" transform="scale(0.015625)"/>
        <path id="DejaVuSans-38" d="M 2034 2216 
Q 1584 2216 1326 1975 
Q 1069 1734 1069 1313 
Q 1069 891 1326 650 
Q 1584 409 2034 409 
Q 2484 409 2743 651 
Q 3003 894 3003 1313 
Q 3003 1734 2745 1975 
Q 2488 2216 2034 2216 
z
M 1403 2484 
Q 997 2584 770 2862 
Q 544 3141 544 3541 
Q 544 4100 942 4425 
Q 1341 4750 2034 4750 
Q 2731 4750 3128 4425 
Q 3525 4100 3525 3541 
Q 3525 3141 3298 2862 
Q 3072 2584 2669 2484 
Q 3125 2378 3379 2068 
Q 3634 1759 3634 1313 
Q 3634 634 3220 271 
Q 2806 -91 2034 -91 
Q 1263 -91 848 271 
Q 434 634 434 1313 
Q 434 1759 690 2068 
Q 947 2378 1403 2484 
z
M 1172 3481 
Q 1172 3119 1398 2916 
Q 1625 2713 2034 2713 
Q 2441 2713 2670 2916 
Q 2900 3119 2900 3481 
Q 2900 3844 2670 4047 
Q 2441 4250 2034 4250 
Q 1625 4250 1398 4047 
Q 1172 3844 1172 3481 
z
" transform="scale(0.015625)"/>
       </defs>
       <use xlink:href="#DejaVuSans-62"/>
       <use xlink:href="#DejaVuSans-61" transform="translate(63.476562 0)"/>
       <use xlink:href="#DejaVuSans-72" transform="translate(124.755859 0)"/>
       <use xlink:href="#DejaVuSans-73" transform="translate(165.869141 0)"/>
       <use xlink:href="#DejaVuSans-68" transform="translate(217.96875 0)"/>
       <use xlink:href="#DejaVuSans-69" transform="translate(281.347656 0)"/>
       <use xlink:href="#DejaVuSans-66" transform="translate(309.130859 0)"/>
       <use xlink:href="#DejaVuSans-74" transform="translate(342.585938 0)"/>
       <use xlink:href="#DejaVuSans-5f" transform="translate(381.794922 0)"/>
       <use xlink:href="#DejaVuSans-31" transform="translate(431.794922 0)"/>
       <use xlink:href="#DejaVuSans-32" transform="translate(495.417969 0)"/>
       <use xlink:href="#DejaVuSans-38" transform="translate(559.041016 0)"/>
       <use xlink:href="#DejaVuSans-62" transform="translate(622.664062 0)"/>
      </g>
     </g>
    </g>
    <g id="xtick_3">
     <g id="line2d_3">
      <g>
       <use xlink:href="#m1875489cad" x="261.686893" y="318.306348" style="stroke: #000000; stroke-width: 0.8"/>
      </g>
     </g>
     <g id="text_3">
      <!-- sobel -->
      <g transform="translate(229.230692 364.006302) rotate(-45) scale(0.16 -0.16)">
       <defs>
        <path id="DejaVuSans-6f" d="M 1959 3097 
Q 1497 3097 1228 2736 
Q 959 2375 959 1747 
Q 959 1119 1226 758 
Q 1494 397 1959 397 
Q 2419 397 2687 759 
Q 2956 1122 2956 1747 
Q 2956 2369 2687 2733 
Q 2419 3097 1959 3097 
z
M 1959 3584 
Q 2709 3584 3137 3096 
Q 3566 2609 3566 1747 
Q 3566 888 3137 398 
Q 2709 -91 1959 -91 
Q 1206 -91 779 398 
Q 353 888 353 1747 
Q 353 2609 779 3096 
Q 1206 3584 1959 3584 
z
" transform="scale(0.015625)"/>
        <path id="DejaVuSans-6c" d="M 603 4863 
L 1178 4863 
L 1178 0 
L 603 0 
L 603 4863 
z
" transform="scale(0.015625)"/>
       </defs>
       <use xlink:href="#DejaVuSans-73"/>
       <use xlink:href="#DejaVuSans-6f" transform="translate(52.099609 0)"/>
       <use xlink:href="#DejaVuSans-62" transform="translate(113.28125 0)"/>
       <use xlink:href="#DejaVuSans-65" transform="translate(176.757812 0)"/>
       <use xlink:href="#DejaVuSans-6c" transform="translate(238.28125 0)"/>
      </g>
     </g>
    </g>
    <g id="xtick_4">
     <g id="line2d_4">
      <g>
       <use xlink:href="#m1875489cad" x="319.22017" y="318.306348" style="stroke: #000000; stroke-width: 0.8"/>
      </g>
     </g>
     <g id="text_4">
      <!-- BK_32b -->
      <g transform="translate(274.135042 376.320566) rotate(-45) scale(0.16 -0.16)">
       <defs>
        <path id="DejaVuSans-42" d="M 1259 2228 
L 1259 519 
L 2272 519 
Q 2781 519 3026 730 
Q 3272 941 3272 1375 
Q 3272 1813 3026 2020 
Q 2781 2228 2272 2228 
L 1259 2228 
z
M 1259 4147 
L 1259 2741 
L 2194 2741 
Q 2656 2741 2882 2914 
Q 3109 3088 3109 3444 
Q 3109 3797 2882 3972 
Q 2656 4147 2194 4147 
L 1259 4147 
z
M 628 4666 
L 2241 4666 
Q 2963 4666 3353 4366 
Q 3744 4066 3744 3513 
Q 3744 3084 3544 2831 
Q 3344 2578 2956 2516 
Q 3422 2416 3680 2098 
Q 3938 1781 3938 1306 
Q 3938 681 3513 340 
Q 3088 0 2303 0 
L 628 0 
L 628 4666 
z
" transform="scale(0.015625)"/>
        <path id="DejaVuSans-4b" d="M 628 4666 
L 1259 4666 
L 1259 2694 
L 3353 4666 
L 4166 4666 
L 1850 2491 
L 4331 0 
L 3500 0 
L 1259 2247 
L 1259 0 
L 628 0 
L 628 4666 
z
" transform="scale(0.015625)"/>
        <path id="DejaVuSans-33" d="M 2597 2516 
Q 3050 2419 3304 2112 
Q 3559 1806 3559 1356 
Q 3559 666 3084 287 
Q 2609 -91 1734 -91 
Q 1441 -91 1130 -33 
Q 819 25 488 141 
L 488 750 
Q 750 597 1062 519 
Q 1375 441 1716 441 
Q 2309 441 2620 675 
Q 2931 909 2931 1356 
Q 2931 1769 2642 2001 
Q 2353 2234 1838 2234 
L 1294 2234 
L 1294 2753 
L 1863 2753 
Q 2328 2753 2575 2939 
Q 2822 3125 2822 3475 
Q 2822 3834 2567 4026 
Q 2313 4219 1838 4219 
Q 1578 4219 1281 4162 
Q 984 4106 628 3988 
L 628 4550 
Q 988 4650 1302 4700 
Q 1616 4750 1894 4750 
Q 2613 4750 3031 4423 
Q 3450 4097 3450 3541 
Q 3450 3153 3228 2886 
Q 3006 2619 2597 2516 
z
" transform="scale(0.015625)"/>
       </defs>
       <use xlink:href="#DejaVuSans-42"/>
       <use xlink:href="#DejaVuSans-4b" transform="translate(68.603516 0)"/>
       <use xlink:href="#DejaVuSans-5f" transform="translate(134.179688 0)"/>
       <use xlink:href="#DejaVuSans-33" transform="translate(184.179688 0)"/>
       <use xlink:href="#DejaVuSans-32" transform="translate(247.802734 0)"/>
       <use xlink:href="#DejaVuSans-62" transform="translate(311.425781 0)"/>
      </g>
     </g>
    </g>
    <g id="xtick_5">
     <g id="line2d_5">
      <g>
       <use xlink:href="#m1875489cad" x="376.753447" y="318.306348" style="stroke: #000000; stroke-width: 0.8"/>
      </g>
     </g>
     <g id="text_5">
      <!-- KS_32b -->
      <g transform="translate(332.248146 375.740739) rotate(-45) scale(0.16 -0.16)">
       <defs>
        <path id="DejaVuSans-53" d="M 3425 4513 
L 3425 3897 
Q 3066 4069 2747 4153 
Q 2428 4238 2131 4238 
Q 1616 4238 1336 4038 
Q 1056 3838 1056 3469 
Q 1056 3159 1242 3001 
Q 1428 2844 1947 2747 
L 2328 2669 
Q 3034 2534 3370 2195 
Q 3706 1856 3706 1288 
Q 3706 609 3251 259 
Q 2797 -91 1919 -91 
Q 1588 -91 1214 -16 
Q 841 59 441 206 
L 441 856 
Q 825 641 1194 531 
Q 1563 422 1919 422 
Q 2459 422 2753 634 
Q 3047 847 3047 1241 
Q 3047 1584 2836 1778 
Q 2625 1972 2144 2069 
L 1759 2144 
Q 1053 2284 737 2584 
Q 422 2884 422 3419 
Q 422 4038 858 4394 
Q 1294 4750 2059 4750 
Q 2388 4750 2728 4690 
Q 3069 4631 3425 4513 
z
" transform="scale(0.015625)"/>
       </defs>
       <use xlink:href="#DejaVuSans-4b"/>
       <use xlink:href="#DejaVuSans-53" transform="translate(65.576172 0)"/>
       <use xlink:href="#DejaVuSans-5f" transform="translate(129.052734 0)"/>
       <use xlink:href="#DejaVuSans-33" transform="translate(179.052734 0)"/>
       <use xlink:href="#DejaVuSans-32" transform="translate(242.675781 0)"/>
       <use xlink:href="#DejaVuSans-62" transform="translate(306.298828 0)"/>
      </g>
     </g>
    </g>
    <g id="xtick_6">
     <g id="line2d_6">
      <g>
       <use xlink:href="#m1875489cad" x="434.286723" y="318.306348" style="stroke: #000000; stroke-width: 0.8"/>
      </g>
     </g>
     <g id="text_6">
      <!-- CLA_16b -->
      <g transform="translate(382.185328 383.336833) rotate(-45) scale(0.16 -0.16)">
       <defs>
        <path id="DejaVuSans-43" d="M 4122 4306 
L 4122 3641 
Q 3803 3938 3442 4084 
Q 3081 4231 2675 4231 
Q 1875 4231 1450 3742 
Q 1025 3253 1025 2328 
Q 1025 1406 1450 917 
Q 1875 428 2675 428 
Q 3081 428 3442 575 
Q 3803 722 4122 1019 
L 4122 359 
Q 3791 134 3420 21 
Q 3050 -91 2638 -91 
Q 1578 -91 968 557 
Q 359 1206 359 2328 
Q 359 3453 968 4101 
Q 1578 4750 2638 4750 
Q 3056 4750 3426 4639 
Q 3797 4528 4122 4306 
z
" transform="scale(0.015625)"/>
        <path id="DejaVuSans-4c" d="M 628 4666 
L 1259 4666 
L 1259 531 
L 3531 531 
L 3531 0 
L 628 0 
L 628 4666 
z
" transform="scale(0.015625)"/>
        <path id="DejaVuSans-41" d="M 2188 4044 
L 1331 1722 
L 3047 1722 
L 2188 4044 
z
M 1831 4666 
L 2547 4666 
L 4325 0 
L 3669 0 
L 3244 1197 
L 1141 1197 
L 716 0 
L 50 0 
L 1831 4666 
z
" transform="scale(0.015625)"/>
        <path id="DejaVuSans-36" d="M 2113 2584 
Q 1688 2584 1439 2293 
Q 1191 2003 1191 1497 
Q 1191 994 1439 701 
Q 1688 409 2113 409 
Q 2538 409 2786 701 
Q 3034 994 3034 1497 
Q 3034 2003 2786 2293 
Q 2538 2584 2113 2584 
z
M 3366 4563 
L 3366 3988 
Q 3128 4100 2886 4159 
Q 2644 4219 2406 4219 
Q 1781 4219 1451 3797 
Q 1122 3375 1075 2522 
Q 1259 2794 1537 2939 
Q 1816 3084 2150 3084 
Q 2853 3084 3261 2657 
Q 3669 2231 3669 1497 
Q 3669 778 3244 343 
Q 2819 -91 2113 -91 
Q 1303 -91 875 529 
Q 447 1150 447 2328 
Q 447 3434 972 4092 
Q 1497 4750 2381 4750 
Q 2619 4750 2861 4703 
Q 3103 4656 3366 4563 
z
" transform="scale(0.015625)"/>
       </defs>
       <use xlink:href="#DejaVuSans-43"/>
       <use xlink:href="#DejaVuSans-4c" transform="translate(69.824219 0)"/>
       <use xlink:href="#DejaVuSans-41" transform="translate(127.787109 0)"/>
       <use xlink:href="#DejaVuSans-5f" transform="translate(196.195312 0)"/>
       <use xlink:href="#DejaVuSans-31" transform="translate(246.195312 0)"/>
       <use xlink:href="#DejaVuSans-36" transform="translate(309.818359 0)"/>
       <use xlink:href="#DejaVuSans-62" transform="translate(373.441406 0)"/>
      </g>
     </g>
    </g>
    <g id="xtick_7">
     <g id="line2d_7">
      <g>
       <use xlink:href="#m1875489cad" x="491.82" y="318.306348" style="stroke: #000000; stroke-width: 0.8"/>
      </g>
     </g>
     <g id="text_7">
      <!-- BK_16b -->
      <g transform="translate(446.734872 376.320566) rotate(-45) scale(0.16 -0.16)">
       <use xlink:href="#DejaVuSans-42"/>
       <use xlink:href="#DejaVuSans-4b" transform="translate(68.603516 0)"/>
       <use xlink:href="#DejaVuSans-5f" transform="translate(134.179688 0)"/>
       <use xlink:href="#DejaVuSans-31" transform="translate(184.179688 0)"/>
       <use xlink:href="#DejaVuSans-36" transform="translate(247.802734 0)"/>
       <use xlink:href="#DejaVuSans-62" transform="translate(311.425781 0)"/>
      </g>
     </g>
    </g>
    <g id="xtick_8">
     <g id="line2d_8">
      <g>
       <use xlink:href="#m1875489cad" x="549.353277" y="318.306348" style="stroke: #000000; stroke-width: 0.8"/>
      </g>
     </g>
     <g id="text_8">
      <!-- CSkipA_16b -->
      <g transform="translate(479.750988 400.837726) rotate(-45) scale(0.16 -0.16)">
       <defs>
        <path id="DejaVuSans-6b" d="M 581 4863 
L 1159 4863 
L 1159 1991 
L 2875 3500 
L 3609 3500 
L 1753 1863 
L 3688 0 
L 2938 0 
L 1159 1709 
L 1159 0 
L 581 0 
L 581 4863 
z
" transform="scale(0.015625)"/>
        <path id="DejaVuSans-70" d="M 1159 525 
L 1159 -1331 
L 581 -1331 
L 581 3500 
L 1159 3500 
L 1159 2969 
Q 1341 3281 1617 3432 
Q 1894 3584 2278 3584 
Q 2916 3584 3314 3078 
Q 3713 2572 3713 1747 
Q 3713 922 3314 415 
Q 2916 -91 2278 -91 
Q 1894 -91 1617 61 
Q 1341 213 1159 525 
z
M 3116 1747 
Q 3116 2381 2855 2742 
Q 2594 3103 2138 3103 
Q 1681 3103 1420 2742 
Q 1159 2381 1159 1747 
Q 1159 1113 1420 752 
Q 1681 391 2138 391 
Q 2594 391 2855 752 
Q 3116 1113 3116 1747 
z
" transform="scale(0.015625)"/>
       </defs>
       <use xlink:href="#DejaVuSans-43"/>
       <use xlink:href="#DejaVuSans-53" transform="translate(69.824219 0)"/>
       <use xlink:href="#DejaVuSans-6b" transform="translate(133.300781 0)"/>
       <use xlink:href="#DejaVuSans-69" transform="translate(191.210938 0)"/>
       <use xlink:href="#DejaVuSans-70" transform="translate(218.994141 0)"/>
       <use xlink:href="#DejaVuSans-41" transform="translate(282.470703 0)"/>
       <use xlink:href="#DejaVuSans-5f" transform="translate(350.878906 0)"/>
       <use xlink:href="#DejaVuSans-31" transform="translate(400.878906 0)"/>
       <use xlink:href="#DejaVuSans-36" transform="translate(464.501953 0)"/>
       <use xlink:href="#DejaVuSans-62" transform="translate(528.125 0)"/>
      </g>
     </g>
    </g>
    <g id="xtick_9">
     <g id="line2d_9">
      <g>
       <use xlink:href="#m1875489cad" x="606.886553" y="318.306348" style="stroke: #000000; stroke-width: 0.8"/>
      </g>
     </g>
     <g id="text_9">
      <!-- KS_16b -->
      <g transform="translate(562.381253 375.740739) rotate(-45) scale(0.16 -0.16)">
       <use xlink:href="#DejaVuSans-4b"/>
       <use xlink:href="#DejaVuSans-53" transform="translate(65.576172 0)"/>
       <use xlink:href="#DejaVuSans-5f" transform="translate(129.052734 0)"/>
       <use xlink:href="#DejaVuSans-31" transform="translate(179.052734 0)"/>
       <use xlink:href="#DejaVuSans-36" transform="translate(242.675781 0)"/>
       <use xlink:href="#DejaVuSans-62" transform="translate(306.298828 0)"/>
      </g>
     </g>
    </g>
    <g id="xtick_10">
     <g id="line2d_10">
      <g>
       <use xlink:href="#m1875489cad" x="664.41983" y="318.306348" style="stroke: #000000; stroke-width: 0.8"/>
      </g>
     </g>
     <g id="text_10">
      <!-- LFA_16b -->
      <g transform="translate(614.998369 380.656899) rotate(-45) scale(0.16 -0.16)">
       <defs>
        <path id="DejaVuSans-46" d="M 628 4666 
L 3309 4666 
L 3309 4134 
L 1259 4134 
L 1259 2759 
L 3109 2759 
L 3109 2228 
L 1259 2228 
L 1259 0 
L 628 0 
L 628 4666 
z
" transform="scale(0.015625)"/>
       </defs>
       <use xlink:href="#DejaVuSans-4c"/>
       <use xlink:href="#DejaVuSans-46" transform="translate(55.712891 0)"/>
       <use xlink:href="#DejaVuSans-41" transform="translate(104.107422 0)"/>
       <use xlink:href="#DejaVuSans-5f" transform="translate(172.515625 0)"/>
       <use xlink:href="#DejaVuSans-31" transform="translate(222.515625 0)"/>
       <use xlink:href="#DejaVuSans-36" transform="translate(286.138672 0)"/>
       <use xlink:href="#DejaVuSans-62" transform="translate(349.761719 0)"/>
      </g>
     </g>
    </g>
    <g id="xtick_11">
     <g id="line2d_11">
      <g>
       <use xlink:href="#m1875489cad" x="721.953107" y="318.306348" style="stroke: #000000; stroke-width: 0.8"/>
      </g>
     </g>
     <g id="text_11">
      <!-- WT_8b -->
      <g transform="translate(681.151278 372.037267) rotate(-45) scale(0.16 -0.16)">
       <defs>
        <path id="DejaVuSans-57" d="M 213 4666 
L 850 4666 
L 1831 722 
L 2809 4666 
L 3519 4666 
L 4500 722 
L 5478 4666 
L 6119 4666 
L 4947 0 
L 4153 0 
L 3169 4050 
L 2175 0 
L 1381 0 
L 213 4666 
z
" transform="scale(0.015625)"/>
       </defs>
       <use xlink:href="#DejaVuSans-57"/>
       <use xlink:href="#DejaVuSans-54" transform="translate(98.876953 0)"/>
       <use xlink:href="#DejaVuSans-5f" transform="translate(159.960938 0)"/>
       <use xlink:href="#DejaVuSans-38" transform="translate(209.960938 0)"/>
       <use xlink:href="#DejaVuSans-62" transform="translate(273.583984 0)"/>
      </g>
     </g>
    </g>
    <g id="xtick_12">
     <g id="line2d_12">
      <g>
       <use xlink:href="#m1875489cad" x="779.486383" y="318.306348" style="stroke: #000000; stroke-width: 0.8"/>
      </g>
     </g>
     <g id="text_12">
      <!-- int2float -->
      <g transform="translate(729.769706 381.266778) rotate(-45) scale(0.16 -0.16)">
       <defs>
        <path id="DejaVuSans-6e" d="M 3513 2113 
L 3513 0 
L 2938 0 
L 2938 2094 
Q 2938 2591 2744 2837 
Q 2550 3084 2163 3084 
Q 1697 3084 1428 2787 
Q 1159 2491 1159 1978 
L 1159 0 
L 581 0 
L 581 3500 
L 1159 3500 
L 1159 2956 
Q 1366 3272 1645 3428 
Q 1925 3584 2291 3584 
Q 2894 3584 3203 3211 
Q 3513 2838 3513 2113 
z
" transform="scale(0.015625)"/>
       </defs>
       <use xlink:href="#DejaVuSans-69"/>
       <use xlink:href="#DejaVuSans-6e" transform="translate(27.783203 0)"/>
       <use xlink:href="#DejaVuSans-74" transform="translate(91.162109 0)"/>
       <use xlink:href="#DejaVuSans-32" transform="translate(130.371094 0)"/>
       <use xlink:href="#DejaVuSans-66" transform="translate(193.994141 0)"/>
       <use xlink:href="#DejaVuSans-6c" transform="translate(229.199219 0)"/>
       <use xlink:href="#DejaVuSans-6f" transform="translate(256.982422 0)"/>
       <use xlink:href="#DejaVuSans-61" transform="translate(318.164062 0)"/>
       <use xlink:href="#DejaVuSans-74" transform="translate(379.443359 0)"/>
      </g>
     </g>
    </g>
    <g id="xtick_13">
     <g id="line2d_13">
      <g>
       <use xlink:href="#m1875489cad" x="837.01966" y="318.306348" style="stroke: #000000; stroke-width: 0.8"/>
      </g>
     </g>
     <g id="text_13">
      <!-- RCA_4b -->
      <g transform="translate(791.379453 376.875645) rotate(-45) scale(0.16 -0.16)">
       <defs>
        <path id="DejaVuSans-52" d="M 2841 2188 
Q 3044 2119 3236 1894 
Q 3428 1669 3622 1275 
L 4263 0 
L 3584 0 
L 2988 1197 
Q 2756 1666 2539 1819 
Q 2322 1972 1947 1972 
L 1259 1972 
L 1259 0 
L 628 0 
L 628 4666 
L 2053 4666 
Q 2853 4666 3247 4331 
Q 3641 3997 3641 3322 
Q 3641 2881 3436 2590 
Q 3231 2300 2841 2188 
z
M 1259 4147 
L 1259 2491 
L 2053 2491 
Q 2509 2491 2742 2702 
Q 2975 2913 2975 3322 
Q 2975 3731 2742 3939 
Q 2509 4147 2053 4147 
L 1259 4147 
z
" transform="scale(0.015625)"/>
        <path id="DejaVuSans-34" d="M 2419 4116 
L 825 1625 
L 2419 1625 
L 2419 4116 
z
M 2253 4666 
L 3047 4666 
L 3047 1625 
L 3713 1625 
L 3713 1100 
L 3047 1100 
L 3047 0 
L 2419 0 
L 2419 1100 
L 313 1100 
L 313 1709 
L 2253 4666 
z
" transform="scale(0.015625)"/>
       </defs>
       <use xlink:href="#DejaVuSans-52"/>
       <use xlink:href="#DejaVuSans-43" transform="translate(64.482422 0)"/>
       <use xlink:href="#DejaVuSans-41" transform="translate(134.306641 0)"/>
       <use xlink:href="#DejaVuSans-5f" transform="translate(202.714844 0)"/>
       <use xlink:href="#DejaVuSans-34" transform="translate(252.714844 0)"/>
       <use xlink:href="#DejaVuSans-62" transform="translate(316.337891 0)"/>
      </g>
     </g>
    </g>
   </g>
   <g id="matplotlib.axis_2">
    <g id="ytick_1">
     <g id="line2d_14">
      <path d="M 85.52 318.306348 
L 898.12 318.306348 
" clip-path="url(#peecbf8e2eb)" style="fill: none; stroke-dasharray: 2.96,1.28; stroke-dashoffset: 0; stroke: #b0b0b0; stroke-opacity: 0.5; stroke-width: 0.8"/>
     </g>
     <g id="line2d_15">
      <defs>
       <path id="medc793bb23" d="M 0 0 
L -3.5 0 
" style="stroke: #000000; stroke-width: 0.8"/>
      </defs>
      <g>
       <use xlink:href="#medc793bb23" x="85.52" y="318.306348" style="stroke: #000000; stroke-width: 0.8"/>
      </g>
     </g>
     <g id="text_14">
      <!-- 0 -->
      <g transform="translate(68.34 324.385098) scale(0.16 -0.16)">
       <defs>
        <path id="DejaVuSans-30" d="M 2034 4250 
Q 1547 4250 1301 3770 
Q 1056 3291 1056 2328 
Q 1056 1369 1301 889 
Q 1547 409 2034 409 
Q 2525 409 2770 889 
Q 3016 1369 3016 2328 
Q 3016 3291 2770 3770 
Q 2525 4250 2034 4250 
z
M 2034 4750 
Q 2819 4750 3233 4129 
Q 3647 3509 3647 2328 
Q 3647 1150 3233 529 
Q 2819 -91 2034 -91 
Q 1250 -91 836 529 
Q 422 1150 422 2328 
Q 422 3509 836 4129 
Q 1250 4750 2034 4750 
z
" transform="scale(0.015625)"/>
       </defs>
       <use xlink:href="#DejaVuSans-30"/>
      </g>
     </g>
    </g>
    <g id="ytick_2">
     <g id="line2d_16">
      <path d="M 85.52 284.216423 
L 898.12 284.216423 
" clip-path="url(#peecbf8e2eb)" style="fill: none; stroke-dasharray: 2.96,1.28; stroke-dashoffset: 0; stroke: #b0b0b0; stroke-opacity: 0.5; stroke-width: 0.8"/>
     </g>
     <g id="line2d_17">
      <g>
       <use xlink:href="#medc793bb23" x="85.52" y="284.216423" style="stroke: #000000; stroke-width: 0.8"/>
      </g>
     </g>
     <g id="text_15">
      <!-- 250 -->
      <g transform="translate(47.98 290.295173) scale(0.16 -0.16)">
       <defs>
        <path id="DejaVuSans-35" d="M 691 4666 
L 3169 4666 
L 3169 4134 
L 1269 4134 
L 1269 2991 
Q 1406 3038 1543 3061 
Q 1681 3084 1819 3084 
Q 2600 3084 3056 2656 
Q 3513 2228 3513 1497 
Q 3513 744 3044 326 
Q 2575 -91 1722 -91 
Q 1428 -91 1123 -41 
Q 819 9 494 109 
L 494 744 
Q 775 591 1075 516 
Q 1375 441 1709 441 
Q 2250 441 2565 725 
Q 2881 1009 2881 1497 
Q 2881 1984 2565 2268 
Q 2250 2553 1709 2553 
Q 1456 2553 1204 2497 
Q 953 2441 691 2322 
L 691 4666 
z
" transform="scale(0.015625)"/>
       </defs>
       <use xlink:href="#DejaVuSans-32"/>
       <use xlink:href="#DejaVuSans-35" transform="translate(63.623047 0)"/>
       <use xlink:href="#DejaVuSans-30" transform="translate(127.246094 0)"/>
      </g>
     </g>
    </g>
    <g id="ytick_3">
     <g id="line2d_18">
      <path d="M 85.52 250.126499 
L 898.12 250.126499 
" clip-path="url(#peecbf8e2eb)" style="fill: none; stroke-dasharray: 2.96,1.28; stroke-dashoffset: 0; stroke: #b0b0b0; stroke-opacity: 0.5; stroke-width: 0.8"/>
     </g>
     <g id="line2d_19">
      <g>
       <use xlink:href="#medc793bb23" x="85.52" y="250.126499" style="stroke: #000000; stroke-width: 0.8"/>
      </g>
     </g>
     <g id="text_16">
      <!-- 500 -->
      <g transform="translate(47.98 256.205249) scale(0.16 -0.16)">
       <use xlink:href="#DejaVuSans-35"/>
       <use xlink:href="#DejaVuSans-30" transform="translate(63.623047 0)"/>
       <use xlink:href="#DejaVuSans-30" transform="translate(127.246094 0)"/>
      </g>
     </g>
    </g>
    <g id="ytick_4">
     <g id="line2d_20">
      <path d="M 85.52 216.036575 
L 898.12 216.036575 
" clip-path="url(#peecbf8e2eb)" style="fill: none; stroke-dasharray: 2.96,1.28; stroke-dashoffset: 0; stroke: #b0b0b0; stroke-opacity: 0.5; stroke-width: 0.8"/>
     </g>
     <g id="line2d_21">
      <g>
       <use xlink:href="#medc793bb23" x="85.52" y="216.036575" style="stroke: #000000; stroke-width: 0.8"/>
      </g>
     </g>
     <g id="text_17">
      <!-- 750 -->
      <g transform="translate(47.98 222.115325) scale(0.16 -0.16)">
       <defs>
        <path id="DejaVuSans-37" d="M 525 4666 
L 3525 4666 
L 3525 4397 
L 1831 0 
L 1172 0 
L 2766 4134 
L 525 4134 
L 525 4666 
z
" transform="scale(0.015625)"/>
       </defs>
       <use xlink:href="#DejaVuSans-37"/>
       <use xlink:href="#DejaVuSans-35" transform="translate(63.623047 0)"/>
       <use xlink:href="#DejaVuSans-30" transform="translate(127.246094 0)"/>
      </g>
     </g>
    </g>
    <g id="ytick_5">
     <g id="line2d_22">
      <path d="M 85.52 181.946651 
L 898.12 181.946651 
" clip-path="url(#peecbf8e2eb)" style="fill: none; stroke-dasharray: 2.96,1.28; stroke-dashoffset: 0; stroke: #b0b0b0; stroke-opacity: 0.5; stroke-width: 0.8"/>
     </g>
     <g id="line2d_23">
      <g>
       <use xlink:href="#medc793bb23" x="85.52" y="181.946651" style="stroke: #000000; stroke-width: 0.8"/>
      </g>
     </g>
     <g id="text_18">
      <!-- 1000 -->
      <g transform="translate(37.8 188.025401) scale(0.16 -0.16)">
       <use xlink:href="#DejaVuSans-31"/>
       <use xlink:href="#DejaVuSans-30" transform="translate(63.623047 0)"/>
       <use xlink:href="#DejaVuSans-30" transform="translate(127.246094 0)"/>
       <use xlink:href="#DejaVuSans-30" transform="translate(190.869141 0)"/>
      </g>
     </g>
    </g>
    <g id="ytick_6">
     <g id="line2d_24">
      <path d="M 85.52 147.856727 
L 898.12 147.856727 
" clip-path="url(#peecbf8e2eb)" style="fill: none; stroke-dasharray: 2.96,1.28; stroke-dashoffset: 0; stroke: #b0b0b0; stroke-opacity: 0.5; stroke-width: 0.8"/>
     </g>
     <g id="line2d_25">
      <g>
       <use xlink:href="#medc793bb23" x="85.52" y="147.856727" style="stroke: #000000; stroke-width: 0.8"/>
      </g>
     </g>
     <g id="text_19">
      <!-- 1250 -->
      <g transform="translate(37.8 153.935477) scale(0.16 -0.16)">
       <use xlink:href="#DejaVuSans-31"/>
       <use xlink:href="#DejaVuSans-32" transform="translate(63.623047 0)"/>
       <use xlink:href="#DejaVuSans-35" transform="translate(127.246094 0)"/>
       <use xlink:href="#DejaVuSans-30" transform="translate(190.869141 0)"/>
      </g>
     </g>
    </g>
    <g id="ytick_7">
     <g id="line2d_26">
      <path d="M 85.52 113.766803 
L 898.12 113.766803 
" clip-path="url(#peecbf8e2eb)" style="fill: none; stroke-dasharray: 2.96,1.28; stroke-dashoffset: 0; stroke: #b0b0b0; stroke-opacity: 0.5; stroke-width: 0.8"/>
     </g>
     <g id="line2d_27">
      <g>
       <use xlink:href="#medc793bb23" x="85.52" y="113.766803" style="stroke: #000000; stroke-width: 0.8"/>
      </g>
     </g>
     <g id="text_20">
      <!-- 1500 -->
      <g transform="translate(37.8 119.845553) scale(0.16 -0.16)">
       <use xlink:href="#DejaVuSans-31"/>
       <use xlink:href="#DejaVuSans-35" transform="translate(63.623047 0)"/>
       <use xlink:href="#DejaVuSans-30" transform="translate(127.246094 0)"/>
       <use xlink:href="#DejaVuSans-30" transform="translate(190.869141 0)"/>
      </g>
     </g>
    </g>
    <g id="ytick_8">
     <g id="line2d_28">
      <path d="M 85.52 79.676878 
L 898.12 79.676878 
" clip-path="url(#peecbf8e2eb)" style="fill: none; stroke-dasharray: 2.96,1.28; stroke-dashoffset: 0; stroke: #b0b0b0; stroke-opacity: 0.5; stroke-width: 0.8"/>
     </g>
     <g id="line2d_29">
      <g>
       <use xlink:href="#medc793bb23" x="85.52" y="79.676878" style="stroke: #000000; stroke-width: 0.8"/>
      </g>
     </g>
     <g id="text_21">
      <!-- 1750 -->
      <g transform="translate(37.8 85.755628) scale(0.16 -0.16)">
       <use xlink:href="#DejaVuSans-31"/>
       <use xlink:href="#DejaVuSans-37" transform="translate(63.623047 0)"/>
       <use xlink:href="#DejaVuSans-35" transform="translate(127.246094 0)"/>
       <use xlink:href="#DejaVuSans-30" transform="translate(190.869141 0)"/>
      </g>
     </g>
    </g>
    <g id="ytick_9">
     <g id="line2d_30">
      <path d="M 85.52 45.586954 
L 898.12 45.586954 
" clip-path="url(#peecbf8e2eb)" style="fill: none; stroke-dasharray: 2.96,1.28; stroke-dashoffset: 0; stroke: #b0b0b0; stroke-opacity: 0.5; stroke-width: 0.8"/>
     </g>
     <g id="line2d_31">
      <g>
       <use xlink:href="#medc793bb23" x="85.52" y="45.586954" style="stroke: #000000; stroke-width: 0.8"/>
      </g>
     </g>
     <g id="text_22">
      <!-- 2000 -->
      <g transform="translate(37.8 51.665704) scale(0.16 -0.16)">
       <use xlink:href="#DejaVuSans-32"/>
       <use xlink:href="#DejaVuSans-30" transform="translate(63.623047 0)"/>
       <use xlink:href="#DejaVuSans-30" transform="translate(127.246094 0)"/>
       <use xlink:href="#DejaVuSans-30" transform="translate(190.869141 0)"/>
      </g>
     </g>
    </g>
    <g id="text_23">
     <!-- Tiempo (s) -->
     <g transform="translate(30.4725 210.293174) rotate(-90) scale(0.16 -0.16)">
      <defs>
       <path id="DejaVuSans-6d" d="M 3328 2828 
Q 3544 3216 3844 3400 
Q 4144 3584 4550 3584 
Q 5097 3584 5394 3201 
Q 5691 2819 5691 2113 
L 5691 0 
L 5113 0 
L 5113 2094 
Q 5113 2597 4934 2840 
Q 4756 3084 4391 3084 
Q 3944 3084 3684 2787 
Q 3425 2491 3425 1978 
L 3425 0 
L 2847 0 
L 2847 2094 
Q 2847 2600 2669 2842 
Q 2491 3084 2119 3084 
Q 1678 3084 1418 2786 
Q 1159 2488 1159 1978 
L 1159 0 
L 581 0 
L 581 3500 
L 1159 3500 
L 1159 2956 
Q 1356 3278 1631 3431 
Q 1906 3584 2284 3584 
Q 2666 3584 2933 3390 
Q 3200 3197 3328 2828 
z
" transform="scale(0.015625)"/>
       <path id="DejaVuSans-20" transform="scale(0.015625)"/>
       <path id="DejaVuSans-28" d="M 1984 4856 
Q 1566 4138 1362 3434 
Q 1159 2731 1159 2009 
Q 1159 1288 1364 580 
Q 1569 -128 1984 -844 
L 1484 -844 
Q 1016 -109 783 600 
Q 550 1309 550 2009 
Q 550 2706 781 3412 
Q 1013 4119 1484 4856 
L 1984 4856 
z
" transform="scale(0.015625)"/>
       <path id="DejaVuSans-29" d="M 513 4856 
L 1013 4856 
Q 1481 4119 1714 3412 
Q 1947 2706 1947 2009 
Q 1947 1309 1714 600 
Q 1481 -109 1013 -844 
L 513 -844 
Q 928 -128 1133 580 
Q 1338 1288 1338 2009 
Q 1338 2731 1133 3434 
Q 928 4138 513 4856 
z
" transform="scale(0.015625)"/>
      </defs>
      <use xlink:href="#DejaVuSans-54"/>
      <use xlink:href="#DejaVuSans-69" transform="translate(57.958984 0)"/>
      <use xlink:href="#DejaVuSans-65" transform="translate(85.742188 0)"/>
      <use xlink:href="#DejaVuSans-6d" transform="translate(147.265625 0)"/>
      <use xlink:href="#DejaVuSans-70" transform="translate(244.677734 0)"/>
      <use xlink:href="#DejaVuSans-6f" transform="translate(308.154297 0)"/>
      <use xlink:href="#DejaVuSans-20" transform="translate(369.335938 0)"/>
      <use xlink:href="#DejaVuSans-28" transform="translate(401.123047 0)"/>
      <use xlink:href="#DejaVuSans-73" transform="translate(440.136719 0)"/>
      <use xlink:href="#DejaVuSans-29" transform="translate(492.236328 0)"/>
     </g>
    </g>
   </g>
   <g id="patch_159">
    <path d="M 85.52 318.306348 
L 85.52 17.28 
" style="fill: none; stroke: #000000; stroke-width: 0.8; stroke-linejoin: miter; stroke-linecap: square"/>
   </g>
   <g id="patch_160">
    <path d="M 898.12 318.306348 
L 898.12 17.28 
" style="fill: none; stroke: #000000; stroke-width: 0.8; stroke-linejoin: miter; stroke-linecap: square"/>
   </g>
   <g id="patch_161">
    <path d="M 85.52 318.306348 
L 898.12 318.306348 
" style="fill: none; stroke: #000000; stroke-width: 0.8; stroke-linejoin: miter; stroke-linecap: square"/>
   </g>
   <g id="patch_162">
    <path d="M 85.52 17.28 
L 898.12 17.28 
" style="fill: none; stroke: #000000; stroke-width: 0.8; stroke-linejoin: miter; stroke-linecap: square"/>
   </g>
   <g id="legend_1">
    <g id="patch_163">
     <path d="M 909.32 311.9 
L 1131.5475 311.9 
Q 1134.7475 311.9 1134.7475 308.7 
L 1134.7475 28.48 
Q 1134.7475 25.28 1131.5475 25.28 
L 909.32 25.28 
Q 906.12 25.28 906.12 28.48 
L 906.12 308.7 
Q 906.12 311.9 909.32 311.9 
z
" style="fill: #ffffff; opacity: 0.8; stroke: #cccccc; stroke-linejoin: miter"/>
    </g>
    <g id="patch_164">
     <path d="M 912.52 43.8375 
L 944.52 43.8375 
L 944.52 32.6375 
L 912.52 32.6375 
z
" style="fill: #87ceeb; opacity: 0.4"/>
    </g>
    <g id="text_24">
     <!-- No Resynthesis - D3 -->
     <g transform="translate(957.32 43.8375) scale(0.16 -0.16)">
      <defs>
       <path id="DejaVuSans-4e" d="M 628 4666 
L 1478 4666 
L 3547 763 
L 3547 4666 
L 4159 4666 
L 4159 0 
L 3309 0 
L 1241 3903 
L 1241 0 
L 628 0 
L 628 4666 
z
" transform="scale(0.015625)"/>
       <path id="DejaVuSans-79" d="M 2059 -325 
Q 1816 -950 1584 -1140 
Q 1353 -1331 966 -1331 
L 506 -1331 
L 506 -850 
L 844 -850 
Q 1081 -850 1212 -737 
Q 1344 -625 1503 -206 
L 1606 56 
L 191 3500 
L 800 3500 
L 1894 763 
L 2988 3500 
L 3597 3500 
L 2059 -325 
z
" transform="scale(0.015625)"/>
       <path id="DejaVuSans-2d" d="M 313 2009 
L 1997 2009 
L 1997 1497 
L 313 1497 
L 313 2009 
z
" transform="scale(0.015625)"/>
      </defs>
      <use xlink:href="#DejaVuSans-4e"/>
      <use xlink:href="#DejaVuSans-6f" transform="translate(74.804688 0)"/>
      <use xlink:href="#DejaVuSans-20" transform="translate(135.986328 0)"/>
      <use xlink:href="#DejaVuSans-52" transform="translate(167.773438 0)"/>
      <use xlink:href="#DejaVuSans-65" transform="translate(232.755859 0)"/>
      <use xlink:href="#DejaVuSans-73" transform="translate(294.279297 0)"/>
      <use xlink:href="#DejaVuSans-79" transform="translate(346.378906 0)"/>
      <use xlink:href="#DejaVuSans-6e" transform="translate(405.558594 0)"/>
      <use xlink:href="#DejaVuSans-74" transform="translate(468.9375 0)"/>
      <use xlink:href="#DejaVuSans-68" transform="translate(508.146484 0)"/>
      <use xlink:href="#DejaVuSans-65" transform="translate(571.525391 0)"/>
      <use xlink:href="#DejaVuSans-73" transform="translate(633.048828 0)"/>
      <use xlink:href="#DejaVuSans-69" transform="translate(685.148438 0)"/>
      <use xlink:href="#DejaVuSans-73" transform="translate(712.931641 0)"/>
      <use xlink:href="#DejaVuSans-20" transform="translate(765.03125 0)"/>
      <use xlink:href="#DejaVuSans-2d" transform="translate(796.818359 0)"/>
      <use xlink:href="#DejaVuSans-20" transform="translate(832.902344 0)"/>
      <use xlink:href="#DejaVuSans-44" transform="translate(864.689453 0)"/>
      <use xlink:href="#DejaVuSans-33" transform="translate(941.691406 0)"/>
     </g>
    </g>
    <g id="patch_165">
     <path d="M 912.52 67.3225 
L 944.52 67.3225 
L 944.52 56.1225 
L 912.52 56.1225 
z
" style="fill: #87ceeb; opacity: 0.485714"/>
    </g>
    <g id="text_25">
     <!-- No Resynthesis - D4 -->
     <g transform="translate(957.32 67.3225) scale(0.16 -0.16)">
      <use xlink:href="#DejaVuSans-4e"/>
      <use xlink:href="#DejaVuSans-6f" transform="translate(74.804688 0)"/>
      <use xlink:href="#DejaVuSans-20" transform="translate(135.986328 0)"/>
      <use xlink:href="#DejaVuSans-52" transform="translate(167.773438 0)"/>
      <use xlink:href="#DejaVuSans-65" transform="translate(232.755859 0)"/>
      <use xlink:href="#DejaVuSans-73" transform="translate(294.279297 0)"/>
      <use xlink:href="#DejaVuSans-79" transform="translate(346.378906 0)"/>
      <use xlink:href="#DejaVuSans-6e" transform="translate(405.558594 0)"/>
      <use xlink:href="#DejaVuSans-74" transform="translate(468.9375 0)"/>
      <use xlink:href="#DejaVuSans-68" transform="translate(508.146484 0)"/>
      <use xlink:href="#DejaVuSans-65" transform="translate(571.525391 0)"/>
      <use xlink:href="#DejaVuSans-73" transform="translate(633.048828 0)"/>
      <use xlink:href="#DejaVuSans-69" transform="translate(685.148438 0)"/>
      <use xlink:href="#DejaVuSans-73" transform="translate(712.931641 0)"/>
      <use xlink:href="#DejaVuSans-20" transform="translate(765.03125 0)"/>
      <use xlink:href="#DejaVuSans-2d" transform="translate(796.818359 0)"/>
      <use xlink:href="#DejaVuSans-20" transform="translate(832.902344 0)"/>
      <use xlink:href="#DejaVuSans-44" transform="translate(864.689453 0)"/>
      <use xlink:href="#DejaVuSans-34" transform="translate(941.691406 0)"/>
     </g>
    </g>
    <g id="patch_166">
     <path d="M 912.52 90.8075 
L 944.52 90.8075 
L 944.52 79.6075 
L 912.52 79.6075 
z
" style="fill: #87ceeb; opacity: 0.571429"/>
    </g>
    <g id="text_26">
     <!-- No Resynthesis - D5 -->
     <g transform="translate(957.32 90.8075) scale(0.16 -0.16)">
      <use xlink:href="#DejaVuSans-4e"/>
      <use xlink:href="#DejaVuSans-6f" transform="translate(74.804688 0)"/>
      <use xlink:href="#DejaVuSans-20" transform="translate(135.986328 0)"/>
      <use xlink:href="#DejaVuSans-52" transform="translate(167.773438 0)"/>
      <use xlink:href="#DejaVuSans-65" transform="translate(232.755859 0)"/>
      <use xlink:href="#DejaVuSans-73" transform="translate(294.279297 0)"/>
      <use xlink:href="#DejaVuSans-79" transform="translate(346.378906 0)"/>
      <use xlink:href="#DejaVuSans-6e" transform="translate(405.558594 0)"/>
      <use xlink:href="#DejaVuSans-74" transform="translate(468.9375 0)"/>
      <use xlink:href="#DejaVuSans-68" transform="translate(508.146484 0)"/>
      <use xlink:href="#DejaVuSans-65" transform="translate(571.525391 0)"/>
      <use xlink:href="#DejaVuSans-73" transform="translate(633.048828 0)"/>
      <use xlink:href="#DejaVuSans-69" transform="translate(685.148438 0)"/>
      <use xlink:href="#DejaVuSans-73" transform="translate(712.931641 0)"/>
      <use xlink:href="#DejaVuSans-20" transform="translate(765.03125 0)"/>
      <use xlink:href="#DejaVuSans-2d" transform="translate(796.818359 0)"/>
      <use xlink:href="#DejaVuSans-20" transform="translate(832.902344 0)"/>
      <use xlink:href="#DejaVuSans-44" transform="translate(864.689453 0)"/>
      <use xlink:href="#DejaVuSans-35" transform="translate(941.691406 0)"/>
     </g>
    </g>
    <g id="patch_167">
     <path d="M 912.52 114.2925 
L 944.52 114.2925 
L 944.52 103.0925 
L 912.52 103.0925 
z
" style="fill: #87ceeb; opacity: 0.657143"/>
    </g>
    <g id="text_27">
     <!-- No Resynthesis - D6 -->
     <g transform="translate(957.32 114.2925) scale(0.16 -0.16)">
      <use xlink:href="#DejaVuSans-4e"/>
      <use xlink:href="#DejaVuSans-6f" transform="translate(74.804688 0)"/>
      <use xlink:href="#DejaVuSans-20" transform="translate(135.986328 0)"/>
      <use xlink:href="#DejaVuSans-52" transform="translate(167.773438 0)"/>
      <use xlink:href="#DejaVuSans-65" transform="translate(232.755859 0)"/>
      <use xlink:href="#DejaVuSans-73" transform="translate(294.279297 0)"/>
      <use xlink:href="#DejaVuSans-79" transform="translate(346.378906 0)"/>
      <use xlink:href="#DejaVuSans-6e" transform="translate(405.558594 0)"/>
      <use xlink:href="#DejaVuSans-74" transform="translate(468.9375 0)"/>
      <use xlink:href="#DejaVuSans-68" transform="translate(508.146484 0)"/>
      <use xlink:href="#DejaVuSans-65" transform="translate(571.525391 0)"/>
      <use xlink:href="#DejaVuSans-73" transform="translate(633.048828 0)"/>
      <use xlink:href="#DejaVuSans-69" transform="translate(685.148438 0)"/>
      <use xlink:href="#DejaVuSans-73" transform="translate(712.931641 0)"/>
      <use xlink:href="#DejaVuSans-20" transform="translate(765.03125 0)"/>
      <use xlink:href="#DejaVuSans-2d" transform="translate(796.818359 0)"/>
      <use xlink:href="#DejaVuSans-20" transform="translate(832.902344 0)"/>
      <use xlink:href="#DejaVuSans-44" transform="translate(864.689453 0)"/>
      <use xlink:href="#DejaVuSans-36" transform="translate(941.691406 0)"/>
     </g>
    </g>
    <g id="patch_168">
     <path d="M 912.52 137.7775 
L 944.52 137.7775 
L 944.52 126.5775 
L 912.52 126.5775 
z
" style="fill: #87ceeb; opacity: 0.828571"/>
    </g>
    <g id="text_28">
     <!-- No Resynthesis - D8 -->
     <g transform="translate(957.32 137.7775) scale(0.16 -0.16)">
      <use xlink:href="#DejaVuSans-4e"/>
      <use xlink:href="#DejaVuSans-6f" transform="translate(74.804688 0)"/>
      <use xlink:href="#DejaVuSans-20" transform="translate(135.986328 0)"/>
      <use xlink:href="#DejaVuSans-52" transform="translate(167.773438 0)"/>
      <use xlink:href="#DejaVuSans-65" transform="translate(232.755859 0)"/>
      <use xlink:href="#DejaVuSans-73" transform="translate(294.279297 0)"/>
      <use xlink:href="#DejaVuSans-79" transform="translate(346.378906 0)"/>
      <use xlink:href="#DejaVuSans-6e" transform="translate(405.558594 0)"/>
      <use xlink:href="#DejaVuSans-74" transform="translate(468.9375 0)"/>
      <use xlink:href="#DejaVuSans-68" transform="translate(508.146484 0)"/>
      <use xlink:href="#DejaVuSans-65" transform="translate(571.525391 0)"/>
      <use xlink:href="#DejaVuSans-73" transform="translate(633.048828 0)"/>
      <use xlink:href="#DejaVuSans-69" transform="translate(685.148438 0)"/>
      <use xlink:href="#DejaVuSans-73" transform="translate(712.931641 0)"/>
      <use xlink:href="#DejaVuSans-20" transform="translate(765.03125 0)"/>
      <use xlink:href="#DejaVuSans-2d" transform="translate(796.818359 0)"/>
      <use xlink:href="#DejaVuSans-20" transform="translate(832.902344 0)"/>
      <use xlink:href="#DejaVuSans-44" transform="translate(864.689453 0)"/>
      <use xlink:href="#DejaVuSans-38" transform="translate(941.691406 0)"/>
     </g>
    </g>
    <g id="patch_169">
     <path d="M 912.52 161.2625 
L 944.52 161.2625 
L 944.52 150.0625 
L 912.52 150.0625 
z
" style="fill: #87ceeb"/>
    </g>
    <g id="text_29">
     <!-- No Resynthesis - D10 -->
     <g transform="translate(957.32 161.2625) scale(0.16 -0.16)">
      <use xlink:href="#DejaVuSans-4e"/>
      <use xlink:href="#DejaVuSans-6f" transform="translate(74.804688 0)"/>
      <use xlink:href="#DejaVuSans-20" transform="translate(135.986328 0)"/>
      <use xlink:href="#DejaVuSans-52" transform="translate(167.773438 0)"/>
      <use xlink:href="#DejaVuSans-65" transform="translate(232.755859 0)"/>
      <use xlink:href="#DejaVuSans-73" transform="translate(294.279297 0)"/>
      <use xlink:href="#DejaVuSans-79" transform="translate(346.378906 0)"/>
      <use xlink:href="#DejaVuSans-6e" transform="translate(405.558594 0)"/>
      <use xlink:href="#DejaVuSans-74" transform="translate(468.9375 0)"/>
      <use xlink:href="#DejaVuSans-68" transform="translate(508.146484 0)"/>
      <use xlink:href="#DejaVuSans-65" transform="translate(571.525391 0)"/>
      <use xlink:href="#DejaVuSans-73" transform="translate(633.048828 0)"/>
      <use xlink:href="#DejaVuSans-69" transform="translate(685.148438 0)"/>
      <use xlink:href="#DejaVuSans-73" transform="translate(712.931641 0)"/>
      <use xlink:href="#DejaVuSans-20" transform="translate(765.03125 0)"/>
      <use xlink:href="#DejaVuSans-2d" transform="translate(796.818359 0)"/>
      <use xlink:href="#DejaVuSans-20" transform="translate(832.902344 0)"/>
      <use xlink:href="#DejaVuSans-44" transform="translate(864.689453 0)"/>
      <use xlink:href="#DejaVuSans-31" transform="translate(941.691406 0)"/>
      <use xlink:href="#DejaVuSans-30" transform="translate(1005.314453 0)"/>
     </g>
    </g>
    <g id="patch_170">
     <path d="M 912.52 184.7475 
L 944.52 184.7475 
L 944.52 173.5475 
L 912.52 173.5475 
z
" style="fill: #fa8072; opacity: 0.4"/>
    </g>
    <g id="text_30">
     <!-- Resynthesis - D3 -->
     <g transform="translate(957.32 184.7475) scale(0.16 -0.16)">
      <use xlink:href="#DejaVuSans-52"/>
      <use xlink:href="#DejaVuSans-65" transform="translate(64.982422 0)"/>
      <use xlink:href="#DejaVuSans-73" transform="translate(126.505859 0)"/>
      <use xlink:href="#DejaVuSans-79" transform="translate(178.605469 0)"/>
      <use xlink:href="#DejaVuSans-6e" transform="translate(237.785156 0)"/>
      <use xlink:href="#DejaVuSans-74" transform="translate(301.164062 0)"/>
      <use xlink:href="#DejaVuSans-68" transform="translate(340.373047 0)"/>
      <use xlink:href="#DejaVuSans-65" transform="translate(403.751953 0)"/>
      <use xlink:href="#DejaVuSans-73" transform="translate(465.275391 0)"/>
      <use xlink:href="#DejaVuSans-69" transform="translate(517.375 0)"/>
      <use xlink:href="#DejaVuSans-73" transform="translate(545.158203 0)"/>
      <use xlink:href="#DejaVuSans-20" transform="translate(597.257812 0)"/>
      <use xlink:href="#DejaVuSans-2d" transform="translate(629.044922 0)"/>
      <use xlink:href="#DejaVuSans-20" transform="translate(665.128906 0)"/>
      <use xlink:href="#DejaVuSans-44" transform="translate(696.916016 0)"/>
      <use xlink:href="#DejaVuSans-33" transform="translate(773.917969 0)"/>
     </g>
    </g>
    <g id="patch_171">
     <path d="M 912.52 208.2325 
L 944.52 208.2325 
L 944.52 197.0325 
L 912.52 197.0325 
z
" style="fill: #fa8072; opacity: 0.485714"/>
    </g>
    <g id="text_31">
     <!-- Resynthesis - D4 -->
     <g transform="translate(957.32 208.2325) scale(0.16 -0.16)">
      <use xlink:href="#DejaVuSans-52"/>
      <use xlink:href="#DejaVuSans-65" transform="translate(64.982422 0)"/>
      <use xlink:href="#DejaVuSans-73" transform="translate(126.505859 0)"/>
      <use xlink:href="#DejaVuSans-79" transform="translate(178.605469 0)"/>
      <use xlink:href="#DejaVuSans-6e" transform="translate(237.785156 0)"/>
      <use xlink:href="#DejaVuSans-74" transform="translate(301.164062 0)"/>
      <use xlink:href="#DejaVuSans-68" transform="translate(340.373047 0)"/>
      <use xlink:href="#DejaVuSans-65" transform="translate(403.751953 0)"/>
      <use xlink:href="#DejaVuSans-73" transform="translate(465.275391 0)"/>
      <use xlink:href="#DejaVuSans-69" transform="translate(517.375 0)"/>
      <use xlink:href="#DejaVuSans-73" transform="translate(545.158203 0)"/>
      <use xlink:href="#DejaVuSans-20" transform="translate(597.257812 0)"/>
      <use xlink:href="#DejaVuSans-2d" transform="translate(629.044922 0)"/>
      <use xlink:href="#DejaVuSans-20" transform="translate(665.128906 0)"/>
      <use xlink:href="#DejaVuSans-44" transform="translate(696.916016 0)"/>
      <use xlink:href="#DejaVuSans-34" transform="translate(773.917969 0)"/>
     </g>
    </g>
    <g id="patch_172">
     <path d="M 912.52 231.7175 
L 944.52 231.7175 
L 944.52 220.5175 
L 912.52 220.5175 
z
" style="fill: #fa8072; opacity: 0.571429"/>
    </g>
    <g id="text_32">
     <!-- Resynthesis - D5 -->
     <g transform="translate(957.32 231.7175) scale(0.16 -0.16)">
      <use xlink:href="#DejaVuSans-52"/>
      <use xlink:href="#DejaVuSans-65" transform="translate(64.982422 0)"/>
      <use xlink:href="#DejaVuSans-73" transform="translate(126.505859 0)"/>
      <use xlink:href="#DejaVuSans-79" transform="translate(178.605469 0)"/>
      <use xlink:href="#DejaVuSans-6e" transform="translate(237.785156 0)"/>
      <use xlink:href="#DejaVuSans-74" transform="translate(301.164062 0)"/>
      <use xlink:href="#DejaVuSans-68" transform="translate(340.373047 0)"/>
      <use xlink:href="#DejaVuSans-65" transform="translate(403.751953 0)"/>
      <use xlink:href="#DejaVuSans-73" transform="translate(465.275391 0)"/>
      <use xlink:href="#DejaVuSans-69" transform="translate(517.375 0)"/>
      <use xlink:href="#DejaVuSans-73" transform="translate(545.158203 0)"/>
      <use xlink:href="#DejaVuSans-20" transform="translate(597.257812 0)"/>
      <use xlink:href="#DejaVuSans-2d" transform="translate(629.044922 0)"/>
      <use xlink:href="#DejaVuSans-20" transform="translate(665.128906 0)"/>
      <use xlink:href="#DejaVuSans-44" transform="translate(696.916016 0)"/>
      <use xlink:href="#DejaVuSans-35" transform="translate(773.917969 0)"/>
     </g>
    </g>
    <g id="patch_173">
     <path d="M 912.52 255.2025 
L 944.52 255.2025 
L 944.52 244.0025 
L 912.52 244.0025 
z
" style="fill: #fa8072; opacity: 0.657143"/>
    </g>
    <g id="text_33">
     <!-- Resynthesis - D6 -->
     <g transform="translate(957.32 255.2025) scale(0.16 -0.16)">
      <use xlink:href="#DejaVuSans-52"/>
      <use xlink:href="#DejaVuSans-65" transform="translate(64.982422 0)"/>
      <use xlink:href="#DejaVuSans-73" transform="translate(126.505859 0)"/>
      <use xlink:href="#DejaVuSans-79" transform="translate(178.605469 0)"/>
      <use xlink:href="#DejaVuSans-6e" transform="translate(237.785156 0)"/>
      <use xlink:href="#DejaVuSans-74" transform="translate(301.164062 0)"/>
      <use xlink:href="#DejaVuSans-68" transform="translate(340.373047 0)"/>
      <use xlink:href="#DejaVuSans-65" transform="translate(403.751953 0)"/>
      <use xlink:href="#DejaVuSans-73" transform="translate(465.275391 0)"/>
      <use xlink:href="#DejaVuSans-69" transform="translate(517.375 0)"/>
      <use xlink:href="#DejaVuSans-73" transform="translate(545.158203 0)"/>
      <use xlink:href="#DejaVuSans-20" transform="translate(597.257812 0)"/>
      <use xlink:href="#DejaVuSans-2d" transform="translate(629.044922 0)"/>
      <use xlink:href="#DejaVuSans-20" transform="translate(665.128906 0)"/>
      <use xlink:href="#DejaVuSans-44" transform="translate(696.916016 0)"/>
      <use xlink:href="#DejaVuSans-36" transform="translate(773.917969 0)"/>
     </g>
    </g>
    <g id="patch_174">
     <path d="M 912.52 278.6875 
L 944.52 278.6875 
L 944.52 267.4875 
L 912.52 267.4875 
z
" style="fill: #fa8072; opacity: 0.828571"/>
    </g>
    <g id="text_34">
     <!-- Resynthesis - D8 -->
     <g transform="translate(957.32 278.6875) scale(0.16 -0.16)">
      <use xlink:href="#DejaVuSans-52"/>
      <use xlink:href="#DejaVuSans-65" transform="translate(64.982422 0)"/>
      <use xlink:href="#DejaVuSans-73" transform="translate(126.505859 0)"/>
      <use xlink:href="#DejaVuSans-79" transform="translate(178.605469 0)"/>
      <use xlink:href="#DejaVuSans-6e" transform="translate(237.785156 0)"/>
      <use xlink:href="#DejaVuSans-74" transform="translate(301.164062 0)"/>
      <use xlink:href="#DejaVuSans-68" transform="translate(340.373047 0)"/>
      <use xlink:href="#DejaVuSans-65" transform="translate(403.751953 0)"/>
      <use xlink:href="#DejaVuSans-73" transform="translate(465.275391 0)"/>
      <use xlink:href="#DejaVuSans-69" transform="translate(517.375 0)"/>
      <use xlink:href="#DejaVuSans-73" transform="translate(545.158203 0)"/>
      <use xlink:href="#DejaVuSans-20" transform="translate(597.257812 0)"/>
      <use xlink:href="#DejaVuSans-2d" transform="translate(629.044922 0)"/>
      <use xlink:href="#DejaVuSans-20" transform="translate(665.128906 0)"/>
      <use xlink:href="#DejaVuSans-44" transform="translate(696.916016 0)"/>
      <use xlink:href="#DejaVuSans-38" transform="translate(773.917969 0)"/>
     </g>
    </g>
    <g id="patch_175">
     <path d="M 912.52 302.1725 
L 944.52 302.1725 
L 944.52 290.9725 
L 912.52 290.9725 
z
" style="fill: #fa8072"/>
    </g>
    <g id="text_35">
     <!-- Resynthesis - D10 -->
     <g transform="translate(957.32 302.1725) scale(0.16 -0.16)">
      <use xlink:href="#DejaVuSans-52"/>
      <use xlink:href="#DejaVuSans-65" transform="translate(64.982422 0)"/>
      <use xlink:href="#DejaVuSans-73" transform="translate(126.505859 0)"/>
      <use xlink:href="#DejaVuSans-79" transform="translate(178.605469 0)"/>
      <use xlink:href="#DejaVuSans-6e" transform="translate(237.785156 0)"/>
      <use xlink:href="#DejaVuSans-74" transform="translate(301.164062 0)"/>
      <use xlink:href="#DejaVuSans-68" transform="translate(340.373047 0)"/>
      <use xlink:href="#DejaVuSans-65" transform="translate(403.751953 0)"/>
      <use xlink:href="#DejaVuSans-73" transform="translate(465.275391 0)"/>
      <use xlink:href="#DejaVuSans-69" transform="translate(517.375 0)"/>
      <use xlink:href="#DejaVuSans-73" transform="translate(545.158203 0)"/>
      <use xlink:href="#DejaVuSans-20" transform="translate(597.257812 0)"/>
      <use xlink:href="#DejaVuSans-2d" transform="translate(629.044922 0)"/>
      <use xlink:href="#DejaVuSans-20" transform="translate(665.128906 0)"/>
      <use xlink:href="#DejaVuSans-44" transform="translate(696.916016 0)"/>
      <use xlink:href="#DejaVuSans-31" transform="translate(773.917969 0)"/>
      <use xlink:href="#DejaVuSans-30" transform="translate(837.541016 0)"/>
     </g>
    </g>
   </g>
  </g>
 </g>
 <defs>
  <clipPath id="peecbf8e2eb">
   <rect x="85.52" y="17.28" width="812.6" height="301.026348"/>
  </clipPath>
 </defs>
</svg>
