<?xml version="1.0" encoding="utf-8" standalone="no"?>
<!DOCTYPE svg PUBLIC "-//W3C//DTD SVG 1.1//EN"
  "http://www.w3.org/Graphics/SVG/1.1/DTD/svg11.dtd">
<svg xmlns:xlink="http://www.w3.org/1999/xlink" width="1152pt" height="432pt" viewBox="0 0 1152 432" xmlns="http://www.w3.org/2000/svg" version="1.1">
 <metadata>
  <rdf:RDF xmlns:dc="http://purl.org/dc/elements/1.1/" xmlns:cc="http://creativecommons.org/ns#" xmlns:rdf="http://www.w3.org/1999/02/22-rdf-syntax-ns#">
   <cc:Work>
    <dc:type rdf:resource="http://purl.org/dc/dcmitype/StillImage"/>
    <dc:date>2025-05-28T11:51:27.847542</dc:date>
    <dc:format>image/svg+xml</dc:format>
    <dc:creator>
     <cc:Agent>
      <dc:title>Matplotlib v3.10.3, https://matplotlib.org/</dc:title>
     </cc:Agent>
    </dc:creator>
   </cc:Work>
  </rdf:RDF>
 </metadata>
 <defs>
  <style type="text/css">*{stroke-linejoin: round; stroke-linecap: butt}</style>
 </defs>
 <g id="figure_1">
  <g id="patch_1">
   <path d="M 0 432 
L 1152 432 
L 1152 0 
L 0 0 
z
" style="fill: #ffffff"/>
  </g>
  <g id="axes_1">
   <g id="patch_2">
    <path d="M 85.52 318.306348 
L 853.48 318.306348 
L 853.48 17.28 
L 85.52 17.28 
z
" style="fill: #ffffff"/>
   </g>
   <g id="patch_3">
    <path d="M 120.427273 318.306348 
L 124.233362 318.306348 
L 124.233362 317.795484 
L 120.427273 317.795484 
z
" clip-path="url(#p30e5abab2d)" style="fill: #87ceeb; opacity: 0.4"/>
   </g>
   <g id="patch_4">
    <path d="M 174.799972 318.306348 
L 178.606061 318.306348 
L 178.606061 309.978656 
L 174.799972 309.978656 
z
" clip-path="url(#p30e5abab2d)" style="fill: #87ceeb; opacity: 0.4"/>
   </g>
   <g id="patch_5">
    <path d="M 229.172671 318.306348 
L 232.97876 318.306348 
L 232.97876 318.169423 
L 229.172671 318.169423 
z
" clip-path="url(#p30e5abab2d)" style="fill: #87ceeb; opacity: 0.4"/>
   </g>
   <g id="patch_6">
    <path d="M 283.54537 318.306348 
L 287.351459 318.306348 
L 287.351459 316.206183 
L 283.54537 316.206183 
z
" clip-path="url(#p30e5abab2d)" style="fill: #87ceeb; opacity: 0.4"/>
   </g>
   <g id="patch_7">
    <path d="M 337.918069 318.306348 
L 341.724157 318.306348 
L 341.724157 316.907591 
L 337.918069 316.907591 
z
" clip-path="url(#p30e5abab2d)" style="fill: #87ceeb; opacity: 0.4"/>
   </g>
   <g id="patch_8">
    <path d="M 392.290767 318.306348 
L 396.096856 318.306348 
L 396.096856 317.283796 
L 392.290767 317.283796 
z
" clip-path="url(#p30e5abab2d)" style="fill: #87ceeb; opacity: 0.4"/>
   </g>
   <g id="patch_9">
    <path d="M 446.663466 318.306348 
L 450.469555 318.306348 
L 450.469555 317.119822 
L 446.663466 317.119822 
z
" clip-path="url(#p30e5abab2d)" style="fill: #87ceeb; opacity: 0.4"/>
   </g>
   <g id="patch_10">
    <path d="M 501.036165 318.306348 
L 504.842254 318.306348 
L 504.842254 317.227978 
L 501.036165 317.227978 
z
" clip-path="url(#p30e5abab2d)" style="fill: #87ceeb; opacity: 0.4"/>
   </g>
   <g id="patch_11">
    <path d="M 555.408864 318.306348 
L 559.214953 318.306348 
L 559.214953 317.342683 
L 555.408864 317.342683 
z
" clip-path="url(#p30e5abab2d)" style="fill: #87ceeb; opacity: 0.4"/>
   </g>
   <g id="patch_12">
    <path d="M 609.781563 318.306348 
L 613.587652 318.306348 
L 613.587652 317.120245 
L 609.781563 317.120245 
z
" clip-path="url(#p30e5abab2d)" style="fill: #87ceeb; opacity: 0.4"/>
   </g>
   <g id="patch_13">
    <path d="M 664.154262 318.306348 
L 667.960351 318.306348 
L 667.960351 318.19363 
L 664.154262 318.19363 
z
" clip-path="url(#p30e5abab2d)" style="fill: #87ceeb; opacity: 0.4"/>
   </g>
   <g id="patch_14">
    <path d="M 718.526961 318.306348 
L 722.33305 318.306348 
L 722.33305 318.262681 
L 718.526961 318.262681 
z
" clip-path="url(#p30e5abab2d)" style="fill: #87ceeb; opacity: 0.4"/>
   </g>
   <g id="patch_15">
    <path d="M 772.89966 318.306348 
L 776.705749 318.306348 
L 776.705749 318.264539 
L 772.89966 318.264539 
z
" clip-path="url(#p30e5abab2d)" style="fill: #87ceeb; opacity: 0.4"/>
   </g>
   <g id="patch_16">
    <path d="M 124.233362 318.306348 
L 128.039451 318.306348 
L 128.039451 317.687948 
L 124.233362 317.687948 
z
" clip-path="url(#p30e5abab2d)" style="fill: #87ceeb; opacity: 0.485714"/>
   </g>
   <g id="patch_17">
    <path d="M 178.606061 318.306348 
L 182.41215 318.306348 
L 182.41215 317.62032 
L 178.606061 317.62032 
z
" clip-path="url(#p30e5abab2d)" style="fill: #87ceeb; opacity: 0.485714"/>
   </g>
   <g id="patch_18">
    <path d="M 232.97876 318.306348 
L 236.784848 318.306348 
L 236.784848 318.155896 
L 232.97876 318.155896 
z
" clip-path="url(#p30e5abab2d)" style="fill: #87ceeb; opacity: 0.485714"/>
   </g>
   <g id="patch_19">
    <path d="M 287.351459 318.306348 
L 291.157547 318.306348 
L 291.157547 316.937414 
L 287.351459 316.937414 
z
" clip-path="url(#p30e5abab2d)" style="fill: #87ceeb; opacity: 0.485714"/>
   </g>
   <g id="patch_20">
    <path d="M 341.724157 318.306348 
L 345.530246 318.306348 
L 345.530246 317.219276 
L 341.724157 317.219276 
z
" clip-path="url(#p30e5abab2d)" style="fill: #87ceeb; opacity: 0.485714"/>
   </g>
   <g id="patch_21">
    <path d="M 396.096856 318.306348 
L 399.902945 318.306348 
L 399.902945 317.028735 
L 396.096856 317.028735 
z
" clip-path="url(#p30e5abab2d)" style="fill: #87ceeb; opacity: 0.485714"/>
   </g>
   <g id="patch_22">
    <path d="M 450.469555 318.306348 
L 454.275644 318.306348 
L 454.275644 317.026366 
L 450.469555 317.026366 
z
" clip-path="url(#p30e5abab2d)" style="fill: #87ceeb; opacity: 0.485714"/>
   </g>
   <g id="patch_23">
    <path d="M 504.842254 318.306348 
L 508.648343 318.306348 
L 508.648343 317.017136 
L 504.842254 317.017136 
z
" clip-path="url(#p30e5abab2d)" style="fill: #87ceeb; opacity: 0.485714"/>
   </g>
   <g id="patch_24">
    <path d="M 559.214953 318.306348 
L 563.021042 318.306348 
L 563.021042 317.260089 
L 559.214953 317.260089 
z
" clip-path="url(#p30e5abab2d)" style="fill: #87ceeb; opacity: 0.485714"/>
   </g>
   <g id="patch_25">
    <path d="M 613.587652 318.306348 
L 617.393741 318.306348 
L 617.393741 317.035309 
L 613.587652 317.035309 
z
" clip-path="url(#p30e5abab2d)" style="fill: #87ceeb; opacity: 0.485714"/>
   </g>
   <g id="patch_26">
    <path d="M 667.960351 318.306348 
L 671.76644 318.306348 
L 671.76644 318.166873 
L 667.960351 318.166873 
z
" clip-path="url(#p30e5abab2d)" style="fill: #87ceeb; opacity: 0.485714"/>
   </g>
   <g id="patch_27">
    <path d="M 722.33305 318.306348 
L 726.139139 318.306348 
L 726.139139 318.258158 
L 722.33305 318.258158 
z
" clip-path="url(#p30e5abab2d)" style="fill: #87ceeb; opacity: 0.485714"/>
   </g>
   <g id="patch_28">
    <path d="M 776.705749 318.306348 
L 780.511838 318.306348 
L 780.511838 318.263183 
L 776.705749 318.263183 
z
" clip-path="url(#p30e5abab2d)" style="fill: #87ceeb; opacity: 0.485714"/>
   </g>
   <g id="patch_29">
    <path d="M 128.039451 318.306348 
L 131.84554 318.306348 
L 131.84554 317.626351 
L 128.039451 317.626351 
z
" clip-path="url(#p30e5abab2d)" style="fill: #87ceeb; opacity: 0.571429"/>
   </g>
   <g id="patch_30">
    <path d="M 182.41215 318.306348 
L 186.218238 318.306348 
L 186.218238 317.203584 
L 182.41215 317.203584 
z
" clip-path="url(#p30e5abab2d)" style="fill: #87ceeb; opacity: 0.571429"/>
   </g>
   <g id="patch_31">
    <path d="M 236.784848 318.306348 
L 240.590937 318.306348 
L 240.590937 318.130935 
L 236.784848 318.130935 
z
" clip-path="url(#p30e5abab2d)" style="fill: #87ceeb; opacity: 0.571429"/>
   </g>
   <g id="patch_32">
    <path d="M 291.157547 318.306348 
L 294.963636 318.306348 
L 294.963636 315.966942 
L 291.157547 315.966942 
z
" clip-path="url(#p30e5abab2d)" style="fill: #87ceeb; opacity: 0.571429"/>
   </g>
   <g id="patch_33">
    <path d="M 345.530246 318.306348 
L 349.336335 318.306348 
L 349.336335 316.459756 
L 345.530246 316.459756 
z
" clip-path="url(#p30e5abab2d)" style="fill: #87ceeb; opacity: 0.571429"/>
   </g>
   <g id="patch_34">
    <path d="M 399.902945 318.306348 
L 403.709034 318.306348 
L 403.709034 316.394402 
L 399.902945 316.394402 
z
" clip-path="url(#p30e5abab2d)" style="fill: #87ceeb; opacity: 0.571429"/>
   </g>
   <g id="patch_35">
    <path d="M 454.275644 318.306348 
L 458.081733 318.306348 
L 458.081733 316.08365 
L 454.275644 316.08365 
z
" clip-path="url(#p30e5abab2d)" style="fill: #87ceeb; opacity: 0.571429"/>
   </g>
   <g id="patch_36">
    <path d="M 508.648343 318.306348 
L 512.454432 318.306348 
L 512.454432 316.240657 
L 508.648343 316.240657 
z
" clip-path="url(#p30e5abab2d)" style="fill: #87ceeb; opacity: 0.571429"/>
   </g>
   <g id="patch_37">
    <path d="M 563.021042 318.306348 
L 566.827131 318.306348 
L 566.827131 316.643162 
L 563.021042 316.643162 
z
" clip-path="url(#p30e5abab2d)" style="fill: #87ceeb; opacity: 0.571429"/>
   </g>
   <g id="patch_38">
    <path d="M 617.393741 318.306348 
L 621.19983 318.306348 
L 621.19983 316.214975 
L 617.393741 316.214975 
z
" clip-path="url(#p30e5abab2d)" style="fill: #87ceeb; opacity: 0.571429"/>
   </g>
   <g id="patch_39">
    <path d="M 671.76644 318.306348 
L 675.572529 318.306348 
L 675.572529 318.134298 
L 671.76644 318.134298 
z
" clip-path="url(#p30e5abab2d)" style="fill: #87ceeb; opacity: 0.571429"/>
   </g>
   <g id="patch_40">
    <path d="M 726.139139 318.306348 
L 729.945228 318.306348 
L 729.945228 318.256749 
L 726.139139 318.256749 
z
" clip-path="url(#p30e5abab2d)" style="fill: #87ceeb; opacity: 0.571429"/>
   </g>
   <g id="patch_41">
    <path d="M 780.511838 318.306348 
L 784.317927 318.306348 
L 784.317927 318.259243 
L 780.511838 318.259243 
z
" clip-path="url(#p30e5abab2d)" style="fill: #87ceeb; opacity: 0.571429"/>
   </g>
   <g id="patch_42">
    <path d="M 131.84554 318.306348 
L 135.651628 318.306348 
L 135.651628 317.562604 
L 131.84554 317.562604 
z
" clip-path="url(#p30e5abab2d)" style="fill: #87ceeb; opacity: 0.657143"/>
   </g>
   <g id="patch_43">
    <path d="M 186.218238 318.306348 
L 190.024327 318.306348 
L 190.024327 316.215109 
L 186.218238 316.215109 
z
" clip-path="url(#p30e5abab2d)" style="fill: #87ceeb; opacity: 0.657143"/>
   </g>
   <g id="patch_44">
    <path d="M 240.590937 318.306348 
L 244.397026 318.306348 
L 244.397026 318.103039 
L 240.590937 318.103039 
z
" clip-path="url(#p30e5abab2d)" style="fill: #87ceeb; opacity: 0.657143"/>
   </g>
   <g id="patch_45">
    <path d="M 294.963636 318.306348 
L 298.769725 318.306348 
L 298.769725 314.835037 
L 294.963636 314.835037 
z
" clip-path="url(#p30e5abab2d)" style="fill: #87ceeb; opacity: 0.657143"/>
   </g>
   <g id="patch_46">
    <path d="M 349.336335 318.306348 
L 353.142424 318.306348 
L 353.142424 315.497675 
L 349.336335 315.497675 
z
" clip-path="url(#p30e5abab2d)" style="fill: #87ceeb; opacity: 0.657143"/>
   </g>
   <g id="patch_47">
    <path d="M 403.709034 318.306348 
L 407.515123 318.306348 
L 407.515123 315.465655 
L 403.709034 315.465655 
z
" clip-path="url(#p30e5abab2d)" style="fill: #87ceeb; opacity: 0.657143"/>
   </g>
   <g id="patch_48">
    <path d="M 458.081733 318.306348 
L 461.887822 318.306348 
L 461.887822 315.084562 
L 458.081733 315.084562 
z
" clip-path="url(#p30e5abab2d)" style="fill: #87ceeb; opacity: 0.657143"/>
   </g>
   <g id="patch_49">
    <path d="M 512.454432 318.306348 
L 516.260521 318.306348 
L 516.260521 315.17481 
L 512.454432 315.17481 
z
" clip-path="url(#p30e5abab2d)" style="fill: #87ceeb; opacity: 0.657143"/>
   </g>
   <g id="patch_50">
    <path d="M 566.827131 318.306348 
L 570.63322 318.306348 
L 570.63322 315.777811 
L 566.827131 315.777811 
z
" clip-path="url(#p30e5abab2d)" style="fill: #87ceeb; opacity: 0.657143"/>
   </g>
   <g id="patch_51">
    <path d="M 621.19983 318.306348 
L 625.005919 318.306348 
L 625.005919 315.202991 
L 621.19983 315.202991 
z
" clip-path="url(#p30e5abab2d)" style="fill: #87ceeb; opacity: 0.657143"/>
   </g>
   <g id="patch_52">
    <path d="M 675.572529 318.306348 
L 679.378618 318.306348 
L 679.378618 318.032276 
L 675.572529 318.032276 
z
" clip-path="url(#p30e5abab2d)" style="fill: #87ceeb; opacity: 0.657143"/>
   </g>
   <g id="patch_53">
    <path d="M 729.945228 318.306348 
L 733.751317 318.306348 
L 733.751317 318.253864 
L 729.945228 318.253864 
z
" clip-path="url(#p30e5abab2d)" style="fill: #87ceeb; opacity: 0.657143"/>
   </g>
   <g id="patch_54">
    <path d="M 784.317927 318.306348 
L 788.124016 318.306348 
L 788.124016 318.260071 
L 784.317927 318.260071 
z
" clip-path="url(#p30e5abab2d)" style="fill: #87ceeb; opacity: 0.657143"/>
   </g>
   <g id="patch_55">
    <path d="M 135.651628 318.306348 
L 139.457717 318.306348 
L 139.457717 317.247568 
L 135.651628 317.247568 
z
" clip-path="url(#p30e5abab2d)" style="fill: #87ceeb; opacity: 0.828571"/>
   </g>
   <g id="patch_56">
    <path d="M 190.024327 318.306348 
L 193.830416 318.306348 
L 193.830416 308.240276 
L 190.024327 308.240276 
z
" clip-path="url(#p30e5abab2d)" style="fill: #87ceeb; opacity: 0.828571"/>
   </g>
   <g id="patch_57">
    <path d="M 244.397026 318.306348 
L 248.203115 318.306348 
L 248.203115 317.91424 
L 244.397026 317.91424 
z
" clip-path="url(#p30e5abab2d)" style="fill: #87ceeb; opacity: 0.828571"/>
   </g>
   <g id="patch_58">
    <path d="M 298.769725 318.306348 
L 302.575814 318.306348 
L 302.575814 309.452178 
L 298.769725 309.452178 
z
" clip-path="url(#p30e5abab2d)" style="fill: #87ceeb; opacity: 0.828571"/>
   </g>
   <g id="patch_59">
    <path d="M 353.142424 318.306348 
L 356.948513 318.306348 
L 356.948513 310.754778 
L 353.142424 310.754778 
z
" clip-path="url(#p30e5abab2d)" style="fill: #87ceeb; opacity: 0.828571"/>
   </g>
   <g id="patch_60">
    <path d="M 407.515123 318.306348 
L 411.321212 318.306348 
L 411.321212 310.379823 
L 407.515123 310.379823 
z
" clip-path="url(#p30e5abab2d)" style="fill: #87ceeb; opacity: 0.828571"/>
   </g>
   <g id="patch_61">
    <path d="M 461.887822 318.306348 
L 465.693911 318.306348 
L 465.693911 309.139099 
L 461.887822 309.139099 
z
" clip-path="url(#p30e5abab2d)" style="fill: #87ceeb; opacity: 0.828571"/>
   </g>
   <g id="patch_62">
    <path d="M 516.260521 318.306348 
L 520.06661 318.306348 
L 520.06661 310.116036 
L 516.260521 310.116036 
z
" clip-path="url(#p30e5abab2d)" style="fill: #87ceeb; opacity: 0.828571"/>
   </g>
   <g id="patch_63">
    <path d="M 570.63322 318.306348 
L 574.439309 318.306348 
L 574.439309 312.025408 
L 570.63322 312.025408 
z
" clip-path="url(#p30e5abab2d)" style="fill: #87ceeb; opacity: 0.828571"/>
   </g>
   <g id="patch_64">
    <path d="M 625.005919 318.306348 
L 628.812008 318.306348 
L 628.812008 309.261963 
L 625.005919 309.261963 
z
" clip-path="url(#p30e5abab2d)" style="fill: #87ceeb; opacity: 0.828571"/>
   </g>
   <g id="patch_65">
    <path d="M 679.378618 318.306348 
L 683.184707 318.306348 
L 683.184707 317.444896 
L 679.378618 317.444896 
z
" clip-path="url(#p30e5abab2d)" style="fill: #87ceeb; opacity: 0.828571"/>
   </g>
   <g id="patch_66">
    <path d="M 733.751317 318.306348 
L 737.557406 318.306348 
L 737.557406 318.245628 
L 733.751317 318.245628 
z
" clip-path="url(#p30e5abab2d)" style="fill: #87ceeb; opacity: 0.828571"/>
   </g>
   <g id="patch_67">
    <path d="M 788.124016 318.306348 
L 791.930105 318.306348 
L 791.930105 318.238497 
L 788.124016 318.238497 
z
" clip-path="url(#p30e5abab2d)" style="fill: #87ceeb; opacity: 0.828571"/>
   </g>
   <g id="patch_68">
    <path d="M 139.457717 318.306348 
L 143.263806 318.306348 
L 143.263806 316.402186 
L 139.457717 316.402186 
z
" clip-path="url(#p30e5abab2d)" style="fill: #87ceeb"/>
   </g>
   <g id="patch_69">
    <path d="M 193.830416 318.306348 
L 197.636505 318.306348 
L 197.636505 249.49996 
L 193.830416 249.49996 
z
" clip-path="url(#p30e5abab2d)" style="fill: #87ceeb"/>
   </g>
   <g id="patch_70">
    <path d="M 248.203115 318.306348 
L 252.009204 318.306348 
L 252.009204 316.944671 
L 248.203115 316.944671 
z
" clip-path="url(#p30e5abab2d)" style="fill: #87ceeb"/>
   </g>
   <g id="patch_71">
    <path d="M 302.575814 318.306348 
L 306.381903 318.306348 
L 306.381903 281.235213 
L 302.575814 281.235213 
z
" clip-path="url(#p30e5abab2d)" style="fill: #87ceeb"/>
   </g>
   <g id="patch_72">
    <path d="M 356.948513 318.306348 
L 360.754602 318.306348 
L 360.754602 284.61673 
L 356.948513 284.61673 
z
" clip-path="url(#p30e5abab2d)" style="fill: #87ceeb"/>
   </g>
   <g id="patch_73">
    <path d="M 411.321212 318.306348 
L 415.127301 318.306348 
L 415.127301 292.186356 
L 411.321212 292.186356 
z
" clip-path="url(#p30e5abab2d)" style="fill: #87ceeb"/>
   </g>
   <g id="patch_74">
    <path d="M 465.693911 318.306348 
L 469.5 318.306348 
L 469.5 290.150196 
L 465.693911 290.150196 
z
" clip-path="url(#p30e5abab2d)" style="fill: #87ceeb"/>
   </g>
   <g id="patch_75">
    <path d="M 520.06661 318.306348 
L 523.872699 318.306348 
L 523.872699 288.922437 
L 520.06661 288.922437 
z
" clip-path="url(#p30e5abab2d)" style="fill: #87ceeb"/>
   </g>
   <g id="patch_76">
    <path d="M 574.439309 318.306348 
L 578.245398 318.306348 
L 578.245398 294.815 
L 574.439309 294.815 
z
" clip-path="url(#p30e5abab2d)" style="fill: #87ceeb"/>
   </g>
   <g id="patch_77">
    <path d="M 628.812008 318.306348 
L 632.618097 318.306348 
L 632.618097 288.439488 
L 628.812008 288.439488 
z
" clip-path="url(#p30e5abab2d)" style="fill: #87ceeb"/>
   </g>
   <g id="patch_78">
    <path d="M 683.184707 318.306348 
L 686.990796 318.306348 
L 686.990796 315.313467 
L 683.184707 315.313467 
z
" clip-path="url(#p30e5abab2d)" style="fill: #87ceeb"/>
   </g>
   <g id="patch_79">
    <path d="M 737.557406 318.306348 
L 741.363495 318.306348 
L 741.363495 318.238033 
L 737.557406 318.238033 
z
" clip-path="url(#p30e5abab2d)" style="fill: #87ceeb"/>
   </g>
   <g id="patch_80">
    <path d="M 791.930105 318.306348 
L 795.736194 318.306348 
L 795.736194 318.234525 
L 791.930105 318.234525 
z
" clip-path="url(#p30e5abab2d)" style="fill: #87ceeb"/>
   </g>
   <g id="patch_81">
    <path d="M 143.263806 318.306348 
L 147.069895 318.306348 
L 147.069895 317.262652 
L 143.263806 317.262652 
z
" clip-path="url(#p30e5abab2d)" style="fill: #fa8072; opacity: 0.4"/>
   </g>
   <g id="patch_82">
    <path d="M 197.636505 318.306348 
L 201.442594 318.306348 
L 201.442594 316.606065 
L 197.636505 316.606065 
z
" clip-path="url(#p30e5abab2d)" style="fill: #fa8072; opacity: 0.4"/>
   </g>
   <g id="patch_83">
    <path d="M 252.009204 318.306348 
L 255.815293 318.306348 
L 255.815293 318.092902 
L 252.009204 318.092902 
z
" clip-path="url(#p30e5abab2d)" style="fill: #fa8072; opacity: 0.4"/>
   </g>
   <g id="patch_84">
    <path d="M 306.381903 318.306348 
L 310.187992 318.306348 
L 310.187992 315.241543 
L 306.381903 315.241543 
z
" clip-path="url(#p30e5abab2d)" style="fill: #fa8072; opacity: 0.4"/>
   </g>
   <g id="patch_85">
    <path d="M 360.754602 318.306348 
L 364.560691 318.306348 
L 364.560691 315.839101 
L 360.754602 315.839101 
z
" clip-path="url(#p30e5abab2d)" style="fill: #fa8072; opacity: 0.4"/>
   </g>
   <g id="patch_86">
    <path d="M 415.127301 318.306348 
L 418.93339 318.306348 
L 418.93339 316.348351 
L 415.127301 316.348351 
z
" clip-path="url(#p30e5abab2d)" style="fill: #fa8072; opacity: 0.4"/>
   </g>
   <g id="patch_87">
    <path d="M 469.5 318.306348 
L 473.306089 318.306348 
L 473.306089 316.206565 
L 469.5 316.206565 
z
" clip-path="url(#p30e5abab2d)" style="fill: #fa8072; opacity: 0.4"/>
   </g>
   <g id="patch_88">
    <path d="M 523.872699 318.306348 
L 527.678788 318.306348 
L 527.678788 316.291771 
L 523.872699 316.291771 
z
" clip-path="url(#p30e5abab2d)" style="fill: #fa8072; opacity: 0.4"/>
   </g>
   <g id="patch_89">
    <path d="M 578.245398 318.306348 
L 582.051487 318.306348 
L 582.051487 316.680474 
L 578.245398 316.680474 
z
" clip-path="url(#p30e5abab2d)" style="fill: #fa8072; opacity: 0.4"/>
   </g>
   <g id="patch_90">
    <path d="M 632.618097 318.306348 
L 636.424186 318.306348 
L 636.424186 316.16507 
L 632.618097 316.16507 
z
" clip-path="url(#p30e5abab2d)" style="fill: #fa8072; opacity: 0.4"/>
   </g>
   <g id="patch_91">
    <path d="M 686.990796 318.306348 
L 690.796885 318.306348 
L 690.796885 318.069156 
L 686.990796 318.069156 
z
" clip-path="url(#p30e5abab2d)" style="fill: #fa8072; opacity: 0.4"/>
   </g>
   <g id="patch_92">
    <path d="M 741.363495 318.306348 
L 745.169584 318.306348 
L 745.169584 318.261011 
L 741.363495 318.261011 
z
" clip-path="url(#p30e5abab2d)" style="fill: #fa8072; opacity: 0.4"/>
   </g>
   <g id="patch_93">
    <path d="M 795.736194 318.306348 
L 799.542283 318.306348 
L 799.542283 318.265156 
L 795.736194 318.265156 
z
" clip-path="url(#p30e5abab2d)" style="fill: #fa8072; opacity: 0.4"/>
   </g>
   <g id="patch_94">
    <path d="M 147.069895 318.306348 
L 150.875984 318.306348 
L 150.875984 317.052769 
L 147.069895 317.052769 
z
" clip-path="url(#p30e5abab2d)" style="fill: #fa8072; opacity: 0.485714"/>
   </g>
   <g id="patch_95">
    <path d="M 201.442594 318.306348 
L 205.248683 318.306348 
L 205.248683 315.60973 
L 201.442594 315.60973 
z
" clip-path="url(#p30e5abab2d)" style="fill: #fa8072; opacity: 0.485714"/>
   </g>
   <g id="patch_96">
    <path d="M 255.815293 318.306348 
L 259.621382 318.306348 
L 259.621382 318.062661 
L 255.815293 318.062661 
z
" clip-path="url(#p30e5abab2d)" style="fill: #fa8072; opacity: 0.485714"/>
   </g>
   <g id="patch_97">
    <path d="M 310.187992 318.306348 
L 313.994081 318.306348 
L 313.994081 313.529417 
L 310.187992 313.529417 
z
" clip-path="url(#p30e5abab2d)" style="fill: #fa8072; opacity: 0.485714"/>
   </g>
   <g id="patch_98">
    <path d="M 364.560691 318.306348 
L 368.36678 318.306348 
L 368.36678 314.607628 
L 364.560691 314.607628 
z
" clip-path="url(#p30e5abab2d)" style="fill: #fa8072; opacity: 0.485714"/>
   </g>
   <g id="patch_99">
    <path d="M 418.93339 318.306348 
L 422.739479 318.306348 
L 422.739479 315.322454 
L 418.93339 315.322454 
z
" clip-path="url(#p30e5abab2d)" style="fill: #fa8072; opacity: 0.485714"/>
   </g>
   <g id="patch_100">
    <path d="M 473.306089 318.306348 
L 477.112178 318.306348 
L 477.112178 315.180603 
L 473.306089 315.180603 
z
" clip-path="url(#p30e5abab2d)" style="fill: #fa8072; opacity: 0.485714"/>
   </g>
   <g id="patch_101">
    <path d="M 527.678788 318.306348 
L 531.484877 318.306348 
L 531.484877 315.246642 
L 527.678788 315.246642 
z
" clip-path="url(#p30e5abab2d)" style="fill: #fa8072; opacity: 0.485714"/>
   </g>
   <g id="patch_102">
    <path d="M 582.051487 318.306348 
L 585.857576 318.306348 
L 585.857576 315.86605 
L 582.051487 315.86605 
z
" clip-path="url(#p30e5abab2d)" style="fill: #fa8072; opacity: 0.485714"/>
   </g>
   <g id="patch_103">
    <path d="M 636.424186 318.306348 
L 640.230275 318.306348 
L 640.230275 314.987214 
L 636.424186 314.987214 
z
" clip-path="url(#p30e5abab2d)" style="fill: #fa8072; opacity: 0.485714"/>
   </g>
   <g id="patch_104">
    <path d="M 690.796885 318.306348 
L 694.602974 318.306348 
L 694.602974 317.990337 
L 690.796885 317.990337 
z
" clip-path="url(#p30e5abab2d)" style="fill: #fa8072; opacity: 0.485714"/>
   </g>
   <g id="patch_105">
    <path d="M 745.169584 318.306348 
L 748.975673 318.306348 
L 748.975673 318.256635 
L 745.169584 318.256635 
z
" clip-path="url(#p30e5abab2d)" style="fill: #fa8072; opacity: 0.485714"/>
   </g>
   <g id="patch_106">
    <path d="M 799.542283 318.306348 
L 803.348372 318.306348 
L 803.348372 318.260213 
L 799.542283 318.260213 
z
" clip-path="url(#p30e5abab2d)" style="fill: #fa8072; opacity: 0.485714"/>
   </g>
   <g id="patch_107">
    <path d="M 150.875984 318.306348 
L 154.682073 318.306348 
L 154.682073 316.87577 
L 150.875984 316.87577 
z
" clip-path="url(#p30e5abab2d)" style="fill: #fa8072; opacity: 0.571429"/>
   </g>
   <g id="patch_108">
    <path d="M 205.248683 318.306348 
L 209.054772 318.306348 
L 209.054772 314.301565 
L 205.248683 314.301565 
z
" clip-path="url(#p30e5abab2d)" style="fill: #fa8072; opacity: 0.571429"/>
   </g>
   <g id="patch_109">
    <path d="M 259.621382 318.306348 
L 263.427471 318.306348 
L 263.427471 318.017298 
L 259.621382 318.017298 
z
" clip-path="url(#p30e5abab2d)" style="fill: #fa8072; opacity: 0.571429"/>
   </g>
   <g id="patch_110">
    <path d="M 313.994081 318.306348 
L 317.80017 318.306348 
L 317.80017 311.319171 
L 313.994081 311.319171 
z
" clip-path="url(#p30e5abab2d)" style="fill: #fa8072; opacity: 0.571429"/>
   </g>
   <g id="patch_111">
    <path d="M 368.36678 318.306348 
L 372.172869 318.306348 
L 372.172869 312.801499 
L 368.36678 312.801499 
z
" clip-path="url(#p30e5abab2d)" style="fill: #fa8072; opacity: 0.571429"/>
   </g>
   <g id="patch_112">
    <path d="M 422.739479 318.306348 
L 426.545568 318.306348 
L 426.545568 313.609142 
L 422.739479 313.609142 
z
" clip-path="url(#p30e5abab2d)" style="fill: #fa8072; opacity: 0.571429"/>
   </g>
   <g id="patch_113">
    <path d="M 477.112178 318.306348 
L 480.918267 318.306348 
L 480.918267 313.537386 
L 477.112178 313.537386 
z
" clip-path="url(#p30e5abab2d)" style="fill: #fa8072; opacity: 0.571429"/>
   </g>
   <g id="patch_114">
    <path d="M 531.484877 318.306348 
L 535.290966 318.306348 
L 535.290966 313.68618 
L 531.484877 313.68618 
z
" clip-path="url(#p30e5abab2d)" style="fill: #fa8072; opacity: 0.571429"/>
   </g>
   <g id="patch_115">
    <path d="M 585.857576 318.306348 
L 589.663665 318.306348 
L 589.663665 314.563707 
L 585.857576 314.563707 
z
" clip-path="url(#p30e5abab2d)" style="fill: #fa8072; opacity: 0.571429"/>
   </g>
   <g id="patch_116">
    <path d="M 640.230275 318.306348 
L 644.036364 318.306348 
L 644.036364 313.252784 
L 640.230275 313.252784 
z
" clip-path="url(#p30e5abab2d)" style="fill: #fa8072; opacity: 0.571429"/>
   </g>
   <g id="patch_117">
    <path d="M 694.602974 318.306348 
L 698.409063 318.306348 
L 698.409063 317.852429 
L 694.602974 317.852429 
z
" clip-path="url(#p30e5abab2d)" style="fill: #fa8072; opacity: 0.571429"/>
   </g>
   <g id="patch_118">
    <path d="M 748.975673 318.306348 
L 752.781762 318.306348 
L 752.781762 318.254417 
L 748.975673 318.254417 
z
" clip-path="url(#p30e5abab2d)" style="fill: #fa8072; opacity: 0.571429"/>
   </g>
   <g id="patch_119">
    <path d="M 803.348372 318.306348 
L 807.15446 318.306348 
L 807.15446 318.258462 
L 803.348372 318.258462 
z
" clip-path="url(#p30e5abab2d)" style="fill: #fa8072; opacity: 0.571429"/>
   </g>
   <g id="patch_120">
    <path d="M 154.682073 318.306348 
L 158.488162 318.306348 
L 158.488162 316.680275 
L 154.682073 316.680275 
z
" clip-path="url(#p30e5abab2d)" style="fill: #fa8072; opacity: 0.657143"/>
   </g>
   <g id="patch_121">
    <path d="M 209.054772 318.306348 
L 212.860861 318.306348 
L 212.860861 309.756063 
L 209.054772 309.756063 
z
" clip-path="url(#p30e5abab2d)" style="fill: #fa8072; opacity: 0.657143"/>
   </g>
   <g id="patch_122">
    <path d="M 263.427471 318.306348 
L 267.23356 318.306348 
L 267.23356 317.969848 
L 263.427471 317.969848 
z
" clip-path="url(#p30e5abab2d)" style="fill: #fa8072; opacity: 0.657143"/>
   </g>
   <g id="patch_123">
    <path d="M 317.80017 318.306348 
L 321.606259 318.306348 
L 321.606259 306.958175 
L 317.80017 306.958175 
z
" clip-path="url(#p30e5abab2d)" style="fill: #fa8072; opacity: 0.657143"/>
   </g>
   <g id="patch_124">
    <path d="M 372.172869 318.306348 
L 375.978958 318.306348 
L 375.978958 309.407321 
L 372.172869 309.407321 
z
" clip-path="url(#p30e5abab2d)" style="fill: #fa8072; opacity: 0.657143"/>
   </g>
   <g id="patch_125">
    <path d="M 426.545568 318.306348 
L 430.351657 318.306348 
L 430.351657 310.957661 
L 426.545568 310.957661 
z
" clip-path="url(#p30e5abab2d)" style="fill: #fa8072; opacity: 0.657143"/>
   </g>
   <g id="patch_126">
    <path d="M 480.918267 318.306348 
L 484.724356 318.306348 
L 484.724356 311.038204 
L 480.918267 311.038204 
z
" clip-path="url(#p30e5abab2d)" style="fill: #fa8072; opacity: 0.657143"/>
   </g>
   <g id="patch_127">
    <path d="M 535.290966 318.306348 
L 539.097055 318.306348 
L 539.097055 311.223438 
L 535.290966 311.223438 
z
" clip-path="url(#p30e5abab2d)" style="fill: #fa8072; opacity: 0.657143"/>
   </g>
   <g id="patch_128">
    <path d="M 589.663665 318.306348 
L 593.469754 318.306348 
L 593.469754 312.428998 
L 589.663665 312.428998 
z
" clip-path="url(#p30e5abab2d)" style="fill: #fa8072; opacity: 0.657143"/>
   </g>
   <g id="patch_129">
    <path d="M 644.036364 318.306348 
L 647.842453 318.306348 
L 647.842453 310.13402 
L 644.036364 310.13402 
z
" clip-path="url(#p30e5abab2d)" style="fill: #fa8072; opacity: 0.657143"/>
   </g>
   <g id="patch_130">
    <path d="M 698.409063 318.306348 
L 702.215152 318.306348 
L 702.215152 317.621957 
L 698.409063 317.621957 
z
" clip-path="url(#p30e5abab2d)" style="fill: #fa8072; opacity: 0.657143"/>
   </g>
   <g id="patch_131">
    <path d="M 752.781762 318.306348 
L 756.58785 318.306348 
L 756.58785 318.250565 
L 752.781762 318.250565 
z
" clip-path="url(#p30e5abab2d)" style="fill: #fa8072; opacity: 0.657143"/>
   </g>
   <g id="patch_132">
    <path d="M 807.15446 318.306348 
L 810.960549 318.306348 
L 810.960549 318.250218 
L 807.15446 318.250218 
z
" clip-path="url(#p30e5abab2d)" style="fill: #fa8072; opacity: 0.657143"/>
   </g>
   <g id="patch_133">
    <path d="M 158.488162 318.306348 
L 162.294251 318.306348 
L 162.294251 316.282862 
L 158.488162 316.282862 
z
" clip-path="url(#p30e5abab2d)" style="fill: #fa8072; opacity: 0.828571"/>
   </g>
   <g id="patch_134">
    <path d="M 212.860861 318.306348 
L 216.66695 318.306348 
L 216.66695 280.151013 
L 212.860861 280.151013 
z
" clip-path="url(#p30e5abab2d)" style="fill: #fa8072; opacity: 0.828571"/>
   </g>
   <g id="patch_135">
    <path d="M 267.23356 318.306348 
L 271.039649 318.306348 
L 271.039649 317.730472 
L 267.23356 317.730472 
z
" clip-path="url(#p30e5abab2d)" style="fill: #fa8072; opacity: 0.828571"/>
   </g>
   <g id="patch_136">
    <path d="M 321.606259 318.306348 
L 325.412348 318.306348 
L 325.412348 272.967954 
L 321.606259 272.967954 
z
" clip-path="url(#p30e5abab2d)" style="fill: #fa8072; opacity: 0.828571"/>
   </g>
   <g id="patch_137">
    <path d="M 375.978958 318.306348 
L 379.785047 318.306348 
L 379.785047 282.132737 
L 375.978958 282.132737 
z
" clip-path="url(#p30e5abab2d)" style="fill: #fa8072; opacity: 0.828571"/>
   </g>
   <g id="patch_138">
    <path d="M 430.351657 318.306348 
L 434.157746 318.306348 
L 434.157746 296.89141 
L 430.351657 296.89141 
z
" clip-path="url(#p30e5abab2d)" style="fill: #fa8072; opacity: 0.828571"/>
   </g>
   <g id="patch_139">
    <path d="M 484.724356 318.306348 
L 488.530445 318.306348 
L 488.530445 298.054043 
L 484.724356 298.054043 
z
" clip-path="url(#p30e5abab2d)" style="fill: #fa8072; opacity: 0.828571"/>
   </g>
   <g id="patch_140">
    <path d="M 539.097055 318.306348 
L 542.903144 318.306348 
L 542.903144 298.69188 
L 539.097055 298.69188 
z
" clip-path="url(#p30e5abab2d)" style="fill: #fa8072; opacity: 0.828571"/>
   </g>
   <g id="patch_141">
    <path d="M 593.469754 318.306348 
L 597.275843 318.306348 
L 597.275843 301.447208 
L 593.469754 301.447208 
z
" clip-path="url(#p30e5abab2d)" style="fill: #fa8072; opacity: 0.828571"/>
   </g>
   <g id="patch_142">
    <path d="M 647.842453 318.306348 
L 651.648541 318.306348 
L 651.648541 293.356022 
L 647.842453 293.356022 
z
" clip-path="url(#p30e5abab2d)" style="fill: #fa8072; opacity: 0.828571"/>
   </g>
   <g id="patch_143">
    <path d="M 702.215152 318.306348 
L 706.02124 318.306348 
L 706.02124 316.644518 
L 702.215152 316.644518 
z
" clip-path="url(#p30e5abab2d)" style="fill: #fa8072; opacity: 0.828571"/>
   </g>
   <g id="patch_144">
    <path d="M 756.58785 318.306348 
L 760.393939 318.306348 
L 760.393939 318.242471 
L 756.58785 318.242471 
z
" clip-path="url(#p30e5abab2d)" style="fill: #fa8072; opacity: 0.828571"/>
   </g>
   <g id="patch_145">
    <path d="M 810.960549 318.306348 
L 814.766638 318.306348 
L 814.766638 318.240783 
L 810.960549 318.240783 
z
" clip-path="url(#p30e5abab2d)" style="fill: #fa8072; opacity: 0.828571"/>
   </g>
   <g id="patch_146">
    <path d="M 162.294251 318.306348 
L 166.10034 318.306348 
L 166.10034 315.140753 
L 162.294251 315.140753 
z
" clip-path="url(#p30e5abab2d)" style="fill: #fa8072"/>
   </g>
   <g id="patch_147">
    <path d="M 216.66695 318.306348 
L 220.473039 318.306348 
L 220.473039 31.614588 
L 216.66695 31.614588 
z
" clip-path="url(#p30e5abab2d)" style="fill: #fa8072"/>
   </g>
   <g id="patch_148">
    <path d="M 271.039649 318.306348 
L 274.845738 318.306348 
L 274.845738 315.348088 
L 271.039649 315.348088 
z
" clip-path="url(#p30e5abab2d)" style="fill: #fa8072"/>
   </g>
   <g id="patch_149">
    <path d="M 325.412348 318.306348 
L 329.218437 318.306348 
L 329.218437 148.763955 
L 325.412348 148.763955 
z
" clip-path="url(#p30e5abab2d)" style="fill: #fa8072"/>
   </g>
   <g id="patch_150">
    <path d="M 379.785047 318.306348 
L 383.591136 318.306348 
L 383.591136 172.268905 
L 379.785047 172.268905 
z
" clip-path="url(#p30e5abab2d)" style="fill: #fa8072"/>
   </g>
   <g id="patch_151">
    <path d="M 434.157746 318.306348 
L 437.963835 318.306348 
L 437.963835 243.987381 
L 434.157746 243.987381 
z
" clip-path="url(#p30e5abab2d)" style="fill: #fa8072"/>
   </g>
   <g id="patch_152">
    <path d="M 488.530445 318.306348 
L 492.336534 318.306348 
L 492.336534 239.846663 
L 488.530445 239.846663 
z
" clip-path="url(#p30e5abab2d)" style="fill: #fa8072"/>
   </g>
   <g id="patch_153">
    <path d="M 542.903144 318.306348 
L 546.709233 318.306348 
L 546.709233 242.522752 
L 542.903144 242.522752 
z
" clip-path="url(#p30e5abab2d)" style="fill: #fa8072"/>
   </g>
   <g id="patch_154">
    <path d="M 597.275843 318.306348 
L 601.081931 318.306348 
L 601.081931 256.354821 
L 597.275843 256.354821 
z
" clip-path="url(#p30e5abab2d)" style="fill: #fa8072"/>
   </g>
   <g id="patch_155">
    <path d="M 651.648541 318.306348 
L 655.45463 318.306348 
L 655.45463 226.546078 
L 651.648541 226.546078 
z
" clip-path="url(#p30e5abab2d)" style="fill: #fa8072"/>
   </g>
   <g id="patch_156">
    <path d="M 706.02124 318.306348 
L 709.827329 318.306348 
L 709.827329 312.93343 
L 706.02124 312.93343 
z
" clip-path="url(#p30e5abab2d)" style="fill: #fa8072"/>
   </g>
   <g id="patch_157">
    <path d="M 760.393939 318.306348 
L 764.200028 318.306348 
L 764.200028 318.226884 
L 760.393939 318.226884 
z
" clip-path="url(#p30e5abab2d)" style="fill: #fa8072"/>
   </g>
   <g id="patch_158">
    <path d="M 814.766638 318.306348 
L 818.572727 318.306348 
L 818.572727 318.241696 
L 814.766638 318.241696 
z
" clip-path="url(#p30e5abab2d)" style="fill: #fa8072"/>
   </g>
   <g id="matplotlib.axis_1">
    <g id="xtick_1">
     <g id="line2d_1">
      <defs>
       <path id="m7a212fbf53" d="M 0 0 
L 0 3.5 
" style="stroke: #000000; stroke-width: 0.8"/>
      </defs>
      <g>
       <use xlink:href="#m7a212fbf53" x="143.263806" y="318.306348" style="stroke: #000000; stroke-width: 0.8"/>
      </g>
     </g>
     <g id="text_1">
      <!-- DTree -->
      <g transform="translate(108.638555 366.175352) rotate(-45) scale(0.16 -0.16)">
       <defs>
        <path id="DejaVuSans-44" d="M 1259 4147 
L 1259 519 
L 2022 519 
Q 2988 519 3436 956 
Q 3884 1394 3884 2338 
Q 3884 3275 3436 3711 
Q 2988 4147 2022 4147 
L 1259 4147 
z
M 628 4666 
L 1925 4666 
Q 3281 4666 3915 4102 
Q 4550 3538 4550 2338 
Q 4550 1131 3912 565 
Q 3275 0 1925 0 
L 628 0 
L 628 4666 
z
" transform="scale(0.015625)"/>
        <path id="DejaVuSans-54" d="M -19 4666 
L 3928 4666 
L 3928 4134 
L 2272 4134 
L 2272 0 
L 1638 0 
L 1638 4134 
L -19 4134 
L -19 4666 
z
" transform="scale(0.015625)"/>
        <path id="DejaVuSans-72" d="M 2631 2963 
Q 2534 3019 2420 3045 
Q 2306 3072 2169 3072 
Q 1681 3072 1420 2755 
Q 1159 2438 1159 1844 
L 1159 0 
L 581 0 
L 581 3500 
L 1159 3500 
L 1159 2956 
Q 1341 3275 1631 3429 
Q 1922 3584 2338 3584 
Q 2397 3584 2469 3576 
Q 2541 3569 2628 3553 
L 2631 2963 
z
" transform="scale(0.015625)"/>
        <path id="DejaVuSans-65" d="M 3597 1894 
L 3597 1613 
L 953 1613 
Q 991 1019 1311 708 
Q 1631 397 2203 397 
Q 2534 397 2845 478 
Q 3156 559 3463 722 
L 3463 178 
Q 3153 47 2828 -22 
Q 2503 -91 2169 -91 
Q 1331 -91 842 396 
Q 353 884 353 1716 
Q 353 2575 817 3079 
Q 1281 3584 2069 3584 
Q 2775 3584 3186 3129 
Q 3597 2675 3597 1894 
z
M 3022 2063 
Q 3016 2534 2758 2815 
Q 2500 3097 2075 3097 
Q 1594 3097 1305 2825 
Q 1016 2553 972 2059 
L 3022 2063 
z
" transform="scale(0.015625)"/>
       </defs>
       <use xlink:href="#DejaVuSans-44"/>
       <use xlink:href="#DejaVuSans-54" transform="translate(77.001953 0)"/>
       <use xlink:href="#DejaVuSans-72" transform="translate(123.335938 0)"/>
       <use xlink:href="#DejaVuSans-65" transform="translate(162.199219 0)"/>
       <use xlink:href="#DejaVuSans-65" transform="translate(223.722656 0)"/>
      </g>
     </g>
    </g>
    <g id="xtick_2">
     <g id="line2d_2">
      <g>
       <use xlink:href="#m7a212fbf53" x="197.636505" y="318.306348" style="stroke: #000000; stroke-width: 0.8"/>
      </g>
     </g>
     <g id="text_2">
      <!-- barshift_128b -->
      <g transform="translate(117.340995 411.530948) rotate(-45) scale(0.16 -0.16)">
       <defs>
        <path id="DejaVuSans-62" d="M 3116 1747 
Q 3116 2381 2855 2742 
Q 2594 3103 2138 3103 
Q 1681 3103 1420 2742 
Q 1159 2381 1159 1747 
Q 1159 1113 1420 752 
Q 1681 391 2138 391 
Q 2594 391 2855 752 
Q 3116 1113 3116 1747 
z
M 1159 2969 
Q 1341 3281 1617 3432 
Q 1894 3584 2278 3584 
Q 2916 3584 3314 3078 
Q 3713 2572 3713 1747 
Q 3713 922 3314 415 
Q 2916 -91 2278 -91 
Q 1894 -91 1617 61 
Q 1341 213 1159 525 
L 1159 0 
L 581 0 
L 581 4863 
L 1159 4863 
L 1159 2969 
z
" transform="scale(0.015625)"/>
        <path id="DejaVuSans-61" d="M 2194 1759 
Q 1497 1759 1228 1600 
Q 959 1441 959 1056 
Q 959 750 1161 570 
Q 1363 391 1709 391 
Q 2188 391 2477 730 
Q 2766 1069 2766 1631 
L 2766 1759 
L 2194 1759 
z
M 3341 1997 
L 3341 0 
L 2766 0 
L 2766 531 
Q 2569 213 2275 61 
Q 1981 -91 1556 -91 
Q 1019 -91 701 211 
Q 384 513 384 1019 
Q 384 1609 779 1909 
Q 1175 2209 1959 2209 
L 2766 2209 
L 2766 2266 
Q 2766 2663 2505 2880 
Q 2244 3097 1772 3097 
Q 1472 3097 1187 3025 
Q 903 2953 641 2809 
L 641 3341 
Q 956 3463 1253 3523 
Q 1550 3584 1831 3584 
Q 2591 3584 2966 3190 
Q 3341 2797 3341 1997 
z
" transform="scale(0.015625)"/>
        <path id="DejaVuSans-73" d="M 2834 3397 
L 2834 2853 
Q 2591 2978 2328 3040 
Q 2066 3103 1784 3103 
Q 1356 3103 1142 2972 
Q 928 2841 928 2578 
Q 928 2378 1081 2264 
Q 1234 2150 1697 2047 
L 1894 2003 
Q 2506 1872 2764 1633 
Q 3022 1394 3022 966 
Q 3022 478 2636 193 
Q 2250 -91 1575 -91 
Q 1294 -91 989 -36 
Q 684 19 347 128 
L 347 722 
Q 666 556 975 473 
Q 1284 391 1588 391 
Q 1994 391 2212 530 
Q 2431 669 2431 922 
Q 2431 1156 2273 1281 
Q 2116 1406 1581 1522 
L 1381 1569 
Q 847 1681 609 1914 
Q 372 2147 372 2553 
Q 372 3047 722 3315 
Q 1072 3584 1716 3584 
Q 2034 3584 2315 3537 
Q 2597 3491 2834 3397 
z
" transform="scale(0.015625)"/>
        <path id="DejaVuSans-68" d="M 3513 2113 
L 3513 0 
L 2938 0 
L 2938 2094 
Q 2938 2591 2744 2837 
Q 2550 3084 2163 3084 
Q 1697 3084 1428 2787 
Q 1159 2491 1159 1978 
L 1159 0 
L 581 0 
L 581 4863 
L 1159 4863 
L 1159 2956 
Q 1366 3272 1645 3428 
Q 1925 3584 2291 3584 
Q 2894 3584 3203 3211 
Q 3513 2838 3513 2113 
z
" transform="scale(0.015625)"/>
        <path id="DejaVuSans-69" d="M 603 3500 
L 1178 3500 
L 1178 0 
L 603 0 
L 603 3500 
z
M 603 4863 
L 1178 4863 
L 1178 4134 
L 603 4134 
L 603 4863 
z
" transform="scale(0.015625)"/>
        <path id="DejaVuSans-66" d="M 2375 4863 
L 2375 4384 
L 1825 4384 
Q 1516 4384 1395 4259 
Q 1275 4134 1275 3809 
L 1275 3500 
L 2222 3500 
L 2222 3053 
L 1275 3053 
L 1275 0 
L 697 0 
L 697 3053 
L 147 3053 
L 147 3500 
L 697 3500 
L 697 3744 
Q 697 4328 969 4595 
Q 1241 4863 1831 4863 
L 2375 4863 
z
" transform="scale(0.015625)"/>
        <path id="DejaVuSans-74" d="M 1172 4494 
L 1172 3500 
L 2356 3500 
L 2356 3053 
L 1172 3053 
L 1172 1153 
Q 1172 725 1289 603 
Q 1406 481 1766 481 
L 2356 481 
L 2356 0 
L 1766 0 
Q 1100 0 847 248 
Q 594 497 594 1153 
L 594 3053 
L 172 3053 
L 172 3500 
L 594 3500 
L 594 4494 
L 1172 4494 
z
" transform="scale(0.015625)"/>
        <path id="DejaVuSans-5f" d="M 3263 -1063 
L 3263 -1509 
L -63 -1509 
L -63 -1063 
L 3263 -1063 
z
" transform="scale(0.015625)"/>
        <path id="DejaVuSans-31" d="M 794 531 
L 1825 531 
L 1825 4091 
L 703 3866 
L 703 4441 
L 1819 4666 
L 2450 4666 
L 2450 531 
L 3481 531 
L 3481 0 
L 794 0 
L 794 531 
z
" transform="scale(0.015625)"/>
        <path id="DejaVuSans-32" d="M 1228 531 
L 3431 531 
L 3431 0 
L 469 0 
L 469 531 
Q 828 903 1448 1529 
Q 2069 2156 2228 2338 
Q 2531 2678 2651 2914 
Q 2772 3150 2772 3378 
Q 2772 3750 2511 3984 
Q 2250 4219 1831 4219 
Q 1534 4219 1204 4116 
Q 875 4013 500 3803 
L 500 4441 
Q 881 4594 1212 4672 
Q 1544 4750 1819 4750 
Q 2544 4750 2975 4387 
Q 3406 4025 3406 3419 
Q 3406 3131 3298 2873 
Q 3191 2616 2906 2266 
Q 2828 2175 2409 1742 
Q 1991 1309 1228 531 
z
" transform="scale(0.015625)"/>
        <path id="DejaVuSans-38" d="M 2034 2216 
Q 1584 2216 1326 1975 
Q 1069 1734 1069 1313 
Q 1069 891 1326 650 
Q 1584 409 2034 409 
Q 2484 409 2743 651 
Q 3003 894 3003 1313 
Q 3003 1734 2745 1975 
Q 2488 2216 2034 2216 
z
M 1403 2484 
Q 997 2584 770 2862 
Q 544 3141 544 3541 
Q 544 4100 942 4425 
Q 1341 4750 2034 4750 
Q 2731 4750 3128 4425 
Q 3525 4100 3525 3541 
Q 3525 3141 3298 2862 
Q 3072 2584 2669 2484 
Q 3125 2378 3379 2068 
Q 3634 1759 3634 1313 
Q 3634 634 3220 271 
Q 2806 -91 2034 -91 
Q 1263 -91 848 271 
Q 434 634 434 1313 
Q 434 1759 690 2068 
Q 947 2378 1403 2484 
z
M 1172 3481 
Q 1172 3119 1398 2916 
Q 1625 2713 2034 2713 
Q 2441 2713 2670 2916 
Q 2900 3119 2900 3481 
Q 2900 3844 2670 4047 
Q 2441 4250 2034 4250 
Q 1625 4250 1398 4047 
Q 1172 3844 1172 3481 
z
" transform="scale(0.015625)"/>
       </defs>
       <use xlink:href="#DejaVuSans-62"/>
       <use xlink:href="#DejaVuSans-61" transform="translate(63.476562 0)"/>
       <use xlink:href="#DejaVuSans-72" transform="translate(124.755859 0)"/>
       <use xlink:href="#DejaVuSans-73" transform="translate(165.869141 0)"/>
       <use xlink:href="#DejaVuSans-68" transform="translate(217.96875 0)"/>
       <use xlink:href="#DejaVuSans-69" transform="translate(281.347656 0)"/>
       <use xlink:href="#DejaVuSans-66" transform="translate(309.130859 0)"/>
       <use xlink:href="#DejaVuSans-74" transform="translate(342.585938 0)"/>
       <use xlink:href="#DejaVuSans-5f" transform="translate(381.794922 0)"/>
       <use xlink:href="#DejaVuSans-31" transform="translate(431.794922 0)"/>
       <use xlink:href="#DejaVuSans-32" transform="translate(495.417969 0)"/>
       <use xlink:href="#DejaVuSans-38" transform="translate(559.041016 0)"/>
       <use xlink:href="#DejaVuSans-62" transform="translate(622.664062 0)"/>
      </g>
     </g>
    </g>
    <g id="xtick_3">
     <g id="line2d_3">
      <g>
       <use xlink:href="#m7a212fbf53" x="252.009204" y="318.306348" style="stroke: #000000; stroke-width: 0.8"/>
      </g>
     </g>
     <g id="text_3">
      <!-- sobel -->
      <g transform="translate(219.553003 364.006302) rotate(-45) scale(0.16 -0.16)">
       <defs>
        <path id="DejaVuSans-6f" d="M 1959 3097 
Q 1497 3097 1228 2736 
Q 959 2375 959 1747 
Q 959 1119 1226 758 
Q 1494 397 1959 397 
Q 2419 397 2687 759 
Q 2956 1122 2956 1747 
Q 2956 2369 2687 2733 
Q 2419 3097 1959 3097 
z
M 1959 3584 
Q 2709 3584 3137 3096 
Q 3566 2609 3566 1747 
Q 3566 888 3137 398 
Q 2709 -91 1959 -91 
Q 1206 -91 779 398 
Q 353 888 353 1747 
Q 353 2609 779 3096 
Q 1206 3584 1959 3584 
z
" transform="scale(0.015625)"/>
        <path id="DejaVuSans-6c" d="M 603 4863 
L 1178 4863 
L 1178 0 
L 603 0 
L 603 4863 
z
" transform="scale(0.015625)"/>
       </defs>
       <use xlink:href="#DejaVuSans-73"/>
       <use xlink:href="#DejaVuSans-6f" transform="translate(52.099609 0)"/>
       <use xlink:href="#DejaVuSans-62" transform="translate(113.28125 0)"/>
       <use xlink:href="#DejaVuSans-65" transform="translate(176.757812 0)"/>
       <use xlink:href="#DejaVuSans-6c" transform="translate(238.28125 0)"/>
      </g>
     </g>
    </g>
    <g id="xtick_4">
     <g id="line2d_4">
      <g>
       <use xlink:href="#m7a212fbf53" x="306.381903" y="318.306348" style="stroke: #000000; stroke-width: 0.8"/>
      </g>
     </g>
     <g id="text_4">
      <!-- BK_32b -->
      <g transform="translate(261.296775 376.320566) rotate(-45) scale(0.16 -0.16)">
       <defs>
        <path id="DejaVuSans-42" d="M 1259 2228 
L 1259 519 
L 2272 519 
Q 2781 519 3026 730 
Q 3272 941 3272 1375 
Q 3272 1813 3026 2020 
Q 2781 2228 2272 2228 
L 1259 2228 
z
M 1259 4147 
L 1259 2741 
L 2194 2741 
Q 2656 2741 2882 2914 
Q 3109 3088 3109 3444 
Q 3109 3797 2882 3972 
Q 2656 4147 2194 4147 
L 1259 4147 
z
M 628 4666 
L 2241 4666 
Q 2963 4666 3353 4366 
Q 3744 4066 3744 3513 
Q 3744 3084 3544 2831 
Q 3344 2578 2956 2516 
Q 3422 2416 3680 2098 
Q 3938 1781 3938 1306 
Q 3938 681 3513 340 
Q 3088 0 2303 0 
L 628 0 
L 628 4666 
z
" transform="scale(0.015625)"/>
        <path id="DejaVuSans-4b" d="M 628 4666 
L 1259 4666 
L 1259 2694 
L 3353 4666 
L 4166 4666 
L 1850 2491 
L 4331 0 
L 3500 0 
L 1259 2247 
L 1259 0 
L 628 0 
L 628 4666 
z
" transform="scale(0.015625)"/>
        <path id="DejaVuSans-33" d="M 2597 2516 
Q 3050 2419 3304 2112 
Q 3559 1806 3559 1356 
Q 3559 666 3084 287 
Q 2609 -91 1734 -91 
Q 1441 -91 1130 -33 
Q 819 25 488 141 
L 488 750 
Q 750 597 1062 519 
Q 1375 441 1716 441 
Q 2309 441 2620 675 
Q 2931 909 2931 1356 
Q 2931 1769 2642 2001 
Q 2353 2234 1838 2234 
L 1294 2234 
L 1294 2753 
L 1863 2753 
Q 2328 2753 2575 2939 
Q 2822 3125 2822 3475 
Q 2822 3834 2567 4026 
Q 2313 4219 1838 4219 
Q 1578 4219 1281 4162 
Q 984 4106 628 3988 
L 628 4550 
Q 988 4650 1302 4700 
Q 1616 4750 1894 4750 
Q 2613 4750 3031 4423 
Q 3450 4097 3450 3541 
Q 3450 3153 3228 2886 
Q 3006 2619 2597 2516 
z
" transform="scale(0.015625)"/>
       </defs>
       <use xlink:href="#DejaVuSans-42"/>
       <use xlink:href="#DejaVuSans-4b" transform="translate(68.603516 0)"/>
       <use xlink:href="#DejaVuSans-5f" transform="translate(134.179688 0)"/>
       <use xlink:href="#DejaVuSans-33" transform="translate(184.179688 0)"/>
       <use xlink:href="#DejaVuSans-32" transform="translate(247.802734 0)"/>
       <use xlink:href="#DejaVuSans-62" transform="translate(311.425781 0)"/>
      </g>
     </g>
    </g>
    <g id="xtick_5">
     <g id="line2d_5">
      <g>
       <use xlink:href="#m7a212fbf53" x="360.754602" y="318.306348" style="stroke: #000000; stroke-width: 0.8"/>
      </g>
     </g>
     <g id="text_5">
      <!-- KS_32b -->
      <g transform="translate(316.249301 375.740739) rotate(-45) scale(0.16 -0.16)">
       <defs>
        <path id="DejaVuSans-53" d="M 3425 4513 
L 3425 3897 
Q 3066 4069 2747 4153 
Q 2428 4238 2131 4238 
Q 1616 4238 1336 4038 
Q 1056 3838 1056 3469 
Q 1056 3159 1242 3001 
Q 1428 2844 1947 2747 
L 2328 2669 
Q 3034 2534 3370 2195 
Q 3706 1856 3706 1288 
Q 3706 609 3251 259 
Q 2797 -91 1919 -91 
Q 1588 -91 1214 -16 
Q 841 59 441 206 
L 441 856 
Q 825 641 1194 531 
Q 1563 422 1919 422 
Q 2459 422 2753 634 
Q 3047 847 3047 1241 
Q 3047 1584 2836 1778 
Q 2625 1972 2144 2069 
L 1759 2144 
Q 1053 2284 737 2584 
Q 422 2884 422 3419 
Q 422 4038 858 4394 
Q 1294 4750 2059 4750 
Q 2388 4750 2728 4690 
Q 3069 4631 3425 4513 
z
" transform="scale(0.015625)"/>
       </defs>
       <use xlink:href="#DejaVuSans-4b"/>
       <use xlink:href="#DejaVuSans-53" transform="translate(65.576172 0)"/>
       <use xlink:href="#DejaVuSans-5f" transform="translate(129.052734 0)"/>
       <use xlink:href="#DejaVuSans-33" transform="translate(179.052734 0)"/>
       <use xlink:href="#DejaVuSans-32" transform="translate(242.675781 0)"/>
       <use xlink:href="#DejaVuSans-62" transform="translate(306.298828 0)"/>
      </g>
     </g>
    </g>
    <g id="xtick_6">
     <g id="line2d_6">
      <g>
       <use xlink:href="#m7a212fbf53" x="415.127301" y="318.306348" style="stroke: #000000; stroke-width: 0.8"/>
      </g>
     </g>
     <g id="text_6">
      <!-- CLA_16b -->
      <g transform="translate(363.025906 383.336833) rotate(-45) scale(0.16 -0.16)">
       <defs>
        <path id="DejaVuSans-43" d="M 4122 4306 
L 4122 3641 
Q 3803 3938 3442 4084 
Q 3081 4231 2675 4231 
Q 1875 4231 1450 3742 
Q 1025 3253 1025 2328 
Q 1025 1406 1450 917 
Q 1875 428 2675 428 
Q 3081 428 3442 575 
Q 3803 722 4122 1019 
L 4122 359 
Q 3791 134 3420 21 
Q 3050 -91 2638 -91 
Q 1578 -91 968 557 
Q 359 1206 359 2328 
Q 359 3453 968 4101 
Q 1578 4750 2638 4750 
Q 3056 4750 3426 4639 
Q 3797 4528 4122 4306 
z
" transform="scale(0.015625)"/>
        <path id="DejaVuSans-4c" d="M 628 4666 
L 1259 4666 
L 1259 531 
L 3531 531 
L 3531 0 
L 628 0 
L 628 4666 
z
" transform="scale(0.015625)"/>
        <path id="DejaVuSans-41" d="M 2188 4044 
L 1331 1722 
L 3047 1722 
L 2188 4044 
z
M 1831 4666 
L 2547 4666 
L 4325 0 
L 3669 0 
L 3244 1197 
L 1141 1197 
L 716 0 
L 50 0 
L 1831 4666 
z
" transform="scale(0.015625)"/>
        <path id="DejaVuSans-36" d="M 2113 2584 
Q 1688 2584 1439 2293 
Q 1191 2003 1191 1497 
Q 1191 994 1439 701 
Q 1688 409 2113 409 
Q 2538 409 2786 701 
Q 3034 994 3034 1497 
Q 3034 2003 2786 2293 
Q 2538 2584 2113 2584 
z
M 3366 4563 
L 3366 3988 
Q 3128 4100 2886 4159 
Q 2644 4219 2406 4219 
Q 1781 4219 1451 3797 
Q 1122 3375 1075 2522 
Q 1259 2794 1537 2939 
Q 1816 3084 2150 3084 
Q 2853 3084 3261 2657 
Q 3669 2231 3669 1497 
Q 3669 778 3244 343 
Q 2819 -91 2113 -91 
Q 1303 -91 875 529 
Q 447 1150 447 2328 
Q 447 3434 972 4092 
Q 1497 4750 2381 4750 
Q 2619 4750 2861 4703 
Q 3103 4656 3366 4563 
z
" transform="scale(0.015625)"/>
       </defs>
       <use xlink:href="#DejaVuSans-43"/>
       <use xlink:href="#DejaVuSans-4c" transform="translate(69.824219 0)"/>
       <use xlink:href="#DejaVuSans-41" transform="translate(127.787109 0)"/>
       <use xlink:href="#DejaVuSans-5f" transform="translate(196.195312 0)"/>
       <use xlink:href="#DejaVuSans-31" transform="translate(246.195312 0)"/>
       <use xlink:href="#DejaVuSans-36" transform="translate(309.818359 0)"/>
       <use xlink:href="#DejaVuSans-62" transform="translate(373.441406 0)"/>
      </g>
     </g>
    </g>
    <g id="xtick_7">
     <g id="line2d_7">
      <g>
       <use xlink:href="#m7a212fbf53" x="469.5" y="318.306348" style="stroke: #000000; stroke-width: 0.8"/>
      </g>
     </g>
     <g id="text_7">
      <!-- BK_16b -->
      <g transform="translate(424.414872 376.320566) rotate(-45) scale(0.16 -0.16)">
       <use xlink:href="#DejaVuSans-42"/>
       <use xlink:href="#DejaVuSans-4b" transform="translate(68.603516 0)"/>
       <use xlink:href="#DejaVuSans-5f" transform="translate(134.179688 0)"/>
       <use xlink:href="#DejaVuSans-31" transform="translate(184.179688 0)"/>
       <use xlink:href="#DejaVuSans-36" transform="translate(247.802734 0)"/>
       <use xlink:href="#DejaVuSans-62" transform="translate(311.425781 0)"/>
      </g>
     </g>
    </g>
    <g id="xtick_8">
     <g id="line2d_8">
      <g>
       <use xlink:href="#m7a212fbf53" x="523.872699" y="318.306348" style="stroke: #000000; stroke-width: 0.8"/>
      </g>
     </g>
     <g id="text_8">
      <!-- CSkipA_16b -->
      <g transform="translate(454.270411 400.837726) rotate(-45) scale(0.16 -0.16)">
       <defs>
        <path id="DejaVuSans-6b" d="M 581 4863 
L 1159 4863 
L 1159 1991 
L 2875 3500 
L 3609 3500 
L 1753 1863 
L 3688 0 
L 2938 0 
L 1159 1709 
L 1159 0 
L 581 0 
L 581 4863 
z
" transform="scale(0.015625)"/>
        <path id="DejaVuSans-70" d="M 1159 525 
L 1159 -1331 
L 581 -1331 
L 581 3500 
L 1159 3500 
L 1159 2969 
Q 1341 3281 1617 3432 
Q 1894 3584 2278 3584 
Q 2916 3584 3314 3078 
Q 3713 2572 3713 1747 
Q 3713 922 3314 415 
Q 2916 -91 2278 -91 
Q 1894 -91 1617 61 
Q 1341 213 1159 525 
z
M 3116 1747 
Q 3116 2381 2855 2742 
Q 2594 3103 2138 3103 
Q 1681 3103 1420 2742 
Q 1159 2381 1159 1747 
Q 1159 1113 1420 752 
Q 1681 391 2138 391 
Q 2594 391 2855 752 
Q 3116 1113 3116 1747 
z
" transform="scale(0.015625)"/>
       </defs>
       <use xlink:href="#DejaVuSans-43"/>
       <use xlink:href="#DejaVuSans-53" transform="translate(69.824219 0)"/>
       <use xlink:href="#DejaVuSans-6b" transform="translate(133.300781 0)"/>
       <use xlink:href="#DejaVuSans-69" transform="translate(191.210938 0)"/>
       <use xlink:href="#DejaVuSans-70" transform="translate(218.994141 0)"/>
       <use xlink:href="#DejaVuSans-41" transform="translate(282.470703 0)"/>
       <use xlink:href="#DejaVuSans-5f" transform="translate(350.878906 0)"/>
       <use xlink:href="#DejaVuSans-31" transform="translate(400.878906 0)"/>
       <use xlink:href="#DejaVuSans-36" transform="translate(464.501953 0)"/>
       <use xlink:href="#DejaVuSans-62" transform="translate(528.125 0)"/>
      </g>
     </g>
    </g>
    <g id="xtick_9">
     <g id="line2d_9">
      <g>
       <use xlink:href="#m7a212fbf53" x="578.245398" y="318.306348" style="stroke: #000000; stroke-width: 0.8"/>
      </g>
     </g>
     <g id="text_9">
      <!-- KS_16b -->
      <g transform="translate(533.740097 375.740739) rotate(-45) scale(0.16 -0.16)">
       <use xlink:href="#DejaVuSans-4b"/>
       <use xlink:href="#DejaVuSans-53" transform="translate(65.576172 0)"/>
       <use xlink:href="#DejaVuSans-5f" transform="translate(129.052734 0)"/>
       <use xlink:href="#DejaVuSans-31" transform="translate(179.052734 0)"/>
       <use xlink:href="#DejaVuSans-36" transform="translate(242.675781 0)"/>
       <use xlink:href="#DejaVuSans-62" transform="translate(306.298828 0)"/>
      </g>
     </g>
    </g>
    <g id="xtick_10">
     <g id="line2d_10">
      <g>
       <use xlink:href="#m7a212fbf53" x="632.618097" y="318.306348" style="stroke: #000000; stroke-width: 0.8"/>
      </g>
     </g>
     <g id="text_10">
      <!-- LFA_16b -->
      <g transform="translate(583.196636 380.656899) rotate(-45) scale(0.16 -0.16)">
       <defs>
        <path id="DejaVuSans-46" d="M 628 4666 
L 3309 4666 
L 3309 4134 
L 1259 4134 
L 1259 2759 
L 3109 2759 
L 3109 2228 
L 1259 2228 
L 1259 0 
L 628 0 
L 628 4666 
z
" transform="scale(0.015625)"/>
       </defs>
       <use xlink:href="#DejaVuSans-4c"/>
       <use xlink:href="#DejaVuSans-46" transform="translate(55.712891 0)"/>
       <use xlink:href="#DejaVuSans-41" transform="translate(104.107422 0)"/>
       <use xlink:href="#DejaVuSans-5f" transform="translate(172.515625 0)"/>
       <use xlink:href="#DejaVuSans-31" transform="translate(222.515625 0)"/>
       <use xlink:href="#DejaVuSans-36" transform="translate(286.138672 0)"/>
       <use xlink:href="#DejaVuSans-62" transform="translate(349.761719 0)"/>
      </g>
     </g>
    </g>
    <g id="xtick_11">
     <g id="line2d_11">
      <g>
       <use xlink:href="#m7a212fbf53" x="686.990796" y="318.306348" style="stroke: #000000; stroke-width: 0.8"/>
      </g>
     </g>
     <g id="text_11">
      <!-- WT_8b -->
      <g transform="translate(646.188967 372.037267) rotate(-45) scale(0.16 -0.16)">
       <defs>
        <path id="DejaVuSans-57" d="M 213 4666 
L 850 4666 
L 1831 722 
L 2809 4666 
L 3519 4666 
L 4500 722 
L 5478 4666 
L 6119 4666 
L 4947 0 
L 4153 0 
L 3169 4050 
L 2175 0 
L 1381 0 
L 213 4666 
z
" transform="scale(0.015625)"/>
       </defs>
       <use xlink:href="#DejaVuSans-57"/>
       <use xlink:href="#DejaVuSans-54" transform="translate(98.876953 0)"/>
       <use xlink:href="#DejaVuSans-5f" transform="translate(159.960938 0)"/>
       <use xlink:href="#DejaVuSans-38" transform="translate(209.960938 0)"/>
       <use xlink:href="#DejaVuSans-62" transform="translate(273.583984 0)"/>
      </g>
     </g>
    </g>
    <g id="xtick_12">
     <g id="line2d_12">
      <g>
       <use xlink:href="#m7a212fbf53" x="741.363495" y="318.306348" style="stroke: #000000; stroke-width: 0.8"/>
      </g>
     </g>
     <g id="text_12">
      <!-- int2float -->
      <g transform="translate(691.646817 381.266778) rotate(-45) scale(0.16 -0.16)">
       <defs>
        <path id="DejaVuSans-6e" d="M 3513 2113 
L 3513 0 
L 2938 0 
L 2938 2094 
Q 2938 2591 2744 2837 
Q 2550 3084 2163 3084 
Q 1697 3084 1428 2787 
Q 1159 2491 1159 1978 
L 1159 0 
L 581 0 
L 581 3500 
L 1159 3500 
L 1159 2956 
Q 1366 3272 1645 3428 
Q 1925 3584 2291 3584 
Q 2894 3584 3203 3211 
Q 3513 2838 3513 2113 
z
" transform="scale(0.015625)"/>
       </defs>
       <use xlink:href="#DejaVuSans-69"/>
       <use xlink:href="#DejaVuSans-6e" transform="translate(27.783203 0)"/>
       <use xlink:href="#DejaVuSans-74" transform="translate(91.162109 0)"/>
       <use xlink:href="#DejaVuSans-32" transform="translate(130.371094 0)"/>
       <use xlink:href="#DejaVuSans-66" transform="translate(193.994141 0)"/>
       <use xlink:href="#DejaVuSans-6c" transform="translate(229.199219 0)"/>
       <use xlink:href="#DejaVuSans-6f" transform="translate(256.982422 0)"/>
       <use xlink:href="#DejaVuSans-61" transform="translate(318.164062 0)"/>
       <use xlink:href="#DejaVuSans-74" transform="translate(379.443359 0)"/>
      </g>
     </g>
    </g>
    <g id="xtick_13">
     <g id="line2d_13">
      <g>
       <use xlink:href="#m7a212fbf53" x="795.736194" y="318.306348" style="stroke: #000000; stroke-width: 0.8"/>
      </g>
     </g>
     <g id="text_13">
      <!-- RCA_4b -->
      <g transform="translate(750.095987 376.875645) rotate(-45) scale(0.16 -0.16)">
       <defs>
        <path id="DejaVuSans-52" d="M 2841 2188 
Q 3044 2119 3236 1894 
Q 3428 1669 3622 1275 
L 4263 0 
L 3584 0 
L 2988 1197 
Q 2756 1666 2539 1819 
Q 2322 1972 1947 1972 
L 1259 1972 
L 1259 0 
L 628 0 
L 628 4666 
L 2053 4666 
Q 2853 4666 3247 4331 
Q 3641 3997 3641 3322 
Q 3641 2881 3436 2590 
Q 3231 2300 2841 2188 
z
M 1259 4147 
L 1259 2491 
L 2053 2491 
Q 2509 2491 2742 2702 
Q 2975 2913 2975 3322 
Q 2975 3731 2742 3939 
Q 2509 4147 2053 4147 
L 1259 4147 
z
" transform="scale(0.015625)"/>
        <path id="DejaVuSans-34" d="M 2419 4116 
L 825 1625 
L 2419 1625 
L 2419 4116 
z
M 2253 4666 
L 3047 4666 
L 3047 1625 
L 3713 1625 
L 3713 1100 
L 3047 1100 
L 3047 0 
L 2419 0 
L 2419 1100 
L 313 1100 
L 313 1709 
L 2253 4666 
z
" transform="scale(0.015625)"/>
       </defs>
       <use xlink:href="#DejaVuSans-52"/>
       <use xlink:href="#DejaVuSans-43" transform="translate(64.482422 0)"/>
       <use xlink:href="#DejaVuSans-41" transform="translate(134.306641 0)"/>
       <use xlink:href="#DejaVuSans-5f" transform="translate(202.714844 0)"/>
       <use xlink:href="#DejaVuSans-34" transform="translate(252.714844 0)"/>
       <use xlink:href="#DejaVuSans-62" transform="translate(316.337891 0)"/>
      </g>
     </g>
    </g>
   </g>
   <g id="matplotlib.axis_2">
    <g id="ytick_1">
     <g id="line2d_14">
      <path d="M 85.52 318.306348 
L 853.48 318.306348 
" clip-path="url(#p30e5abab2d)" style="fill: none; stroke-dasharray: 2.96,1.28; stroke-dashoffset: 0; stroke: #b0b0b0; stroke-opacity: 0.5; stroke-width: 0.8"/>
     </g>
     <g id="line2d_15">
      <defs>
       <path id="m58d4fdffd4" d="M 0 0 
L -3.5 0 
" style="stroke: #000000; stroke-width: 0.8"/>
      </defs>
      <g>
       <use xlink:href="#m58d4fdffd4" x="85.52" y="318.306348" style="stroke: #000000; stroke-width: 0.8"/>
      </g>
     </g>
     <g id="text_14">
      <!-- 0 -->
      <g transform="translate(68.34 324.385098) scale(0.16 -0.16)">
       <defs>
        <path id="DejaVuSans-30" d="M 2034 4250 
Q 1547 4250 1301 3770 
Q 1056 3291 1056 2328 
Q 1056 1369 1301 889 
Q 1547 409 2034 409 
Q 2525 409 2770 889 
Q 3016 1369 3016 2328 
Q 3016 3291 2770 3770 
Q 2525 4250 2034 4250 
z
M 2034 4750 
Q 2819 4750 3233 4129 
Q 3647 3509 3647 2328 
Q 3647 1150 3233 529 
Q 2819 -91 2034 -91 
Q 1250 -91 836 529 
Q 422 1150 422 2328 
Q 422 3509 836 4129 
Q 1250 4750 2034 4750 
z
" transform="scale(0.015625)"/>
       </defs>
       <use xlink:href="#DejaVuSans-30"/>
      </g>
     </g>
    </g>
    <g id="ytick_2">
     <g id="line2d_16">
      <path d="M 85.52 271.459011 
L 853.48 271.459011 
" clip-path="url(#p30e5abab2d)" style="fill: none; stroke-dasharray: 2.96,1.28; stroke-dashoffset: 0; stroke: #b0b0b0; stroke-opacity: 0.5; stroke-width: 0.8"/>
     </g>
     <g id="line2d_17">
      <g>
       <use xlink:href="#m58d4fdffd4" x="85.52" y="271.459011" style="stroke: #000000; stroke-width: 0.8"/>
      </g>
     </g>
     <g id="text_15">
      <!-- 500 -->
      <g transform="translate(47.98 277.537761) scale(0.16 -0.16)">
       <defs>
        <path id="DejaVuSans-35" d="M 691 4666 
L 3169 4666 
L 3169 4134 
L 1269 4134 
L 1269 2991 
Q 1406 3038 1543 3061 
Q 1681 3084 1819 3084 
Q 2600 3084 3056 2656 
Q 3513 2228 3513 1497 
Q 3513 744 3044 326 
Q 2575 -91 1722 -91 
Q 1428 -91 1123 -41 
Q 819 9 494 109 
L 494 744 
Q 775 591 1075 516 
Q 1375 441 1709 441 
Q 2250 441 2565 725 
Q 2881 1009 2881 1497 
Q 2881 1984 2565 2268 
Q 2250 2553 1709 2553 
Q 1456 2553 1204 2497 
Q 953 2441 691 2322 
L 691 4666 
z
" transform="scale(0.015625)"/>
       </defs>
       <use xlink:href="#DejaVuSans-35"/>
       <use xlink:href="#DejaVuSans-30" transform="translate(63.623047 0)"/>
       <use xlink:href="#DejaVuSans-30" transform="translate(127.246094 0)"/>
      </g>
     </g>
    </g>
    <g id="ytick_3">
     <g id="line2d_18">
      <path d="M 85.52 224.611675 
L 853.48 224.611675 
" clip-path="url(#p30e5abab2d)" style="fill: none; stroke-dasharray: 2.96,1.28; stroke-dashoffset: 0; stroke: #b0b0b0; stroke-opacity: 0.5; stroke-width: 0.8"/>
     </g>
     <g id="line2d_19">
      <g>
       <use xlink:href="#m58d4fdffd4" x="85.52" y="224.611675" style="stroke: #000000; stroke-width: 0.8"/>
      </g>
     </g>
     <g id="text_16">
      <!-- 1000 -->
      <g transform="translate(37.8 230.690425) scale(0.16 -0.16)">
       <use xlink:href="#DejaVuSans-31"/>
       <use xlink:href="#DejaVuSans-30" transform="translate(63.623047 0)"/>
       <use xlink:href="#DejaVuSans-30" transform="translate(127.246094 0)"/>
       <use xlink:href="#DejaVuSans-30" transform="translate(190.869141 0)"/>
      </g>
     </g>
    </g>
    <g id="ytick_4">
     <g id="line2d_20">
      <path d="M 85.52 177.764338 
L 853.48 177.764338 
" clip-path="url(#p30e5abab2d)" style="fill: none; stroke-dasharray: 2.96,1.28; stroke-dashoffset: 0; stroke: #b0b0b0; stroke-opacity: 0.5; stroke-width: 0.8"/>
     </g>
     <g id="line2d_21">
      <g>
       <use xlink:href="#m58d4fdffd4" x="85.52" y="177.764338" style="stroke: #000000; stroke-width: 0.8"/>
      </g>
     </g>
     <g id="text_17">
      <!-- 1500 -->
      <g transform="translate(37.8 183.843088) scale(0.16 -0.16)">
       <use xlink:href="#DejaVuSans-31"/>
       <use xlink:href="#DejaVuSans-35" transform="translate(63.623047 0)"/>
       <use xlink:href="#DejaVuSans-30" transform="translate(127.246094 0)"/>
       <use xlink:href="#DejaVuSans-30" transform="translate(190.869141 0)"/>
      </g>
     </g>
    </g>
    <g id="ytick_5">
     <g id="line2d_22">
      <path d="M 85.52 130.917002 
L 853.48 130.917002 
" clip-path="url(#p30e5abab2d)" style="fill: none; stroke-dasharray: 2.96,1.28; stroke-dashoffset: 0; stroke: #b0b0b0; stroke-opacity: 0.5; stroke-width: 0.8"/>
     </g>
     <g id="line2d_23">
      <g>
       <use xlink:href="#m58d4fdffd4" x="85.52" y="130.917002" style="stroke: #000000; stroke-width: 0.8"/>
      </g>
     </g>
     <g id="text_18">
      <!-- 2000 -->
      <g transform="translate(37.8 136.995752) scale(0.16 -0.16)">
       <use xlink:href="#DejaVuSans-32"/>
       <use xlink:href="#DejaVuSans-30" transform="translate(63.623047 0)"/>
       <use xlink:href="#DejaVuSans-30" transform="translate(127.246094 0)"/>
       <use xlink:href="#DejaVuSans-30" transform="translate(190.869141 0)"/>
      </g>
     </g>
    </g>
    <g id="ytick_6">
     <g id="line2d_24">
      <path d="M 85.52 84.069665 
L 853.48 84.069665 
" clip-path="url(#p30e5abab2d)" style="fill: none; stroke-dasharray: 2.96,1.28; stroke-dashoffset: 0; stroke: #b0b0b0; stroke-opacity: 0.5; stroke-width: 0.8"/>
     </g>
     <g id="line2d_25">
      <g>
       <use xlink:href="#m58d4fdffd4" x="85.52" y="84.069665" style="stroke: #000000; stroke-width: 0.8"/>
      </g>
     </g>
     <g id="text_19">
      <!-- 2500 -->
      <g transform="translate(37.8 90.148415) scale(0.16 -0.16)">
       <use xlink:href="#DejaVuSans-32"/>
       <use xlink:href="#DejaVuSans-35" transform="translate(63.623047 0)"/>
       <use xlink:href="#DejaVuSans-30" transform="translate(127.246094 0)"/>
       <use xlink:href="#DejaVuSans-30" transform="translate(190.869141 0)"/>
      </g>
     </g>
    </g>
    <g id="ytick_7">
     <g id="line2d_26">
      <path d="M 85.52 37.222329 
L 853.48 37.222329 
" clip-path="url(#p30e5abab2d)" style="fill: none; stroke-dasharray: 2.96,1.28; stroke-dashoffset: 0; stroke: #b0b0b0; stroke-opacity: 0.5; stroke-width: 0.8"/>
     </g>
     <g id="line2d_27">
      <g>
       <use xlink:href="#m58d4fdffd4" x="85.52" y="37.222329" style="stroke: #000000; stroke-width: 0.8"/>
      </g>
     </g>
     <g id="text_20">
      <!-- 3000 -->
      <g transform="translate(37.8 43.301079) scale(0.16 -0.16)">
       <use xlink:href="#DejaVuSans-33"/>
       <use xlink:href="#DejaVuSans-30" transform="translate(63.623047 0)"/>
       <use xlink:href="#DejaVuSans-30" transform="translate(127.246094 0)"/>
       <use xlink:href="#DejaVuSans-30" transform="translate(190.869141 0)"/>
      </g>
     </g>
    </g>
    <g id="text_21">
     <!-- Tiempo (s) -->
     <g transform="translate(30.4725 210.293174) rotate(-90) scale(0.16 -0.16)">
      <defs>
       <path id="DejaVuSans-6d" d="M 3328 2828 
Q 3544 3216 3844 3400 
Q 4144 3584 4550 3584 
Q 5097 3584 5394 3201 
Q 5691 2819 5691 2113 
L 5691 0 
L 5113 0 
L 5113 2094 
Q 5113 2597 4934 2840 
Q 4756 3084 4391 3084 
Q 3944 3084 3684 2787 
Q 3425 2491 3425 1978 
L 3425 0 
L 2847 0 
L 2847 2094 
Q 2847 2600 2669 2842 
Q 2491 3084 2119 3084 
Q 1678 3084 1418 2786 
Q 1159 2488 1159 1978 
L 1159 0 
L 581 0 
L 581 3500 
L 1159 3500 
L 1159 2956 
Q 1356 3278 1631 3431 
Q 1906 3584 2284 3584 
Q 2666 3584 2933 3390 
Q 3200 3197 3328 2828 
z
" transform="scale(0.015625)"/>
       <path id="DejaVuSans-20" transform="scale(0.015625)"/>
       <path id="DejaVuSans-28" d="M 1984 4856 
Q 1566 4138 1362 3434 
Q 1159 2731 1159 2009 
Q 1159 1288 1364 580 
Q 1569 -128 1984 -844 
L 1484 -844 
Q 1016 -109 783 600 
Q 550 1309 550 2009 
Q 550 2706 781 3412 
Q 1013 4119 1484 4856 
L 1984 4856 
z
" transform="scale(0.015625)"/>
       <path id="DejaVuSans-29" d="M 513 4856 
L 1013 4856 
Q 1481 4119 1714 3412 
Q 1947 2706 1947 2009 
Q 1947 1309 1714 600 
Q 1481 -109 1013 -844 
L 513 -844 
Q 928 -128 1133 580 
Q 1338 1288 1338 2009 
Q 1338 2731 1133 3434 
Q 928 4138 513 4856 
z
" transform="scale(0.015625)"/>
      </defs>
      <use xlink:href="#DejaVuSans-54"/>
      <use xlink:href="#DejaVuSans-69" transform="translate(57.958984 0)"/>
      <use xlink:href="#DejaVuSans-65" transform="translate(85.742188 0)"/>
      <use xlink:href="#DejaVuSans-6d" transform="translate(147.265625 0)"/>
      <use xlink:href="#DejaVuSans-70" transform="translate(244.677734 0)"/>
      <use xlink:href="#DejaVuSans-6f" transform="translate(308.154297 0)"/>
      <use xlink:href="#DejaVuSans-20" transform="translate(369.335938 0)"/>
      <use xlink:href="#DejaVuSans-28" transform="translate(401.123047 0)"/>
      <use xlink:href="#DejaVuSans-73" transform="translate(440.136719 0)"/>
      <use xlink:href="#DejaVuSans-29" transform="translate(492.236328 0)"/>
     </g>
    </g>
   </g>
   <g id="patch_159">
    <path d="M 85.52 318.306348 
L 85.52 17.28 
" style="fill: none; stroke: #000000; stroke-width: 0.8; stroke-linejoin: miter; stroke-linecap: square"/>
   </g>
   <g id="patch_160">
    <path d="M 853.48 318.306348 
L 853.48 17.28 
" style="fill: none; stroke: #000000; stroke-width: 0.8; stroke-linejoin: miter; stroke-linecap: square"/>
   </g>
   <g id="patch_161">
    <path d="M 85.52 318.306348 
L 853.48 318.306348 
" style="fill: none; stroke: #000000; stroke-width: 0.8; stroke-linejoin: miter; stroke-linecap: square"/>
   </g>
   <g id="patch_162">
    <path d="M 85.52 17.28 
L 853.48 17.28 
" style="fill: none; stroke: #000000; stroke-width: 0.8; stroke-linejoin: miter; stroke-linecap: square"/>
   </g>
   <g id="legend_1">
    <g id="patch_163">
     <path d="M 864.68 315.74 
L 1130.95 315.74 
Q 1134.15 315.74 1134.15 312.54 
L 1134.15 28.48 
Q 1134.15 25.28 1130.95 25.28 
L 864.68 25.28 
Q 861.48 25.28 861.48 28.48 
L 861.48 312.54 
Q 861.48 315.74 864.68 315.74 
z
" style="fill: #ffffff; opacity: 0.8; stroke: #cccccc; stroke-linejoin: miter"/>
    </g>
    <g id="patch_164">
     <path d="M 867.88 43.8375 
L 899.88 43.8375 
L 899.88 32.6375 
L 867.88 32.6375 
z
" style="fill: #87ceeb; opacity: 0.4"/>
    </g>
    <g id="text_22">
     <!-- Un rbol multi-salida - D3 -->
     <g transform="translate(912.68 43.8375) scale(0.16 -0.16)">
      <defs>
       <path id="DejaVuSans-55" d="M 556 4666 
L 1191 4666 
L 1191 1831 
Q 1191 1081 1462 751 
Q 1734 422 2344 422 
Q 2950 422 3222 751 
Q 3494 1081 3494 1831 
L 3494 4666 
L 4128 4666 
L 4128 1753 
Q 4128 841 3676 375 
Q 3225 -91 2344 -91 
Q 1459 -91 1007 375 
Q 556 841 556 1753 
L 556 4666 
z
" transform="scale(0.015625)"/>
       <path id="DejaVuSans-e1" d="M 2194 1759 
Q 1497 1759 1228 1600 
Q 959 1441 959 1056 
Q 959 750 1161 570 
Q 1363 391 1709 391 
Q 2188 391 2477 730 
Q 2766 1069 2766 1631 
L 2766 1759 
L 2194 1759 
z
M 3341 1997 
L 3341 0 
L 2766 0 
L 2766 531 
Q 2569 213 2275 61 
Q 1981 -91 1556 -91 
Q 1019 -91 701 211 
Q 384 513 384 1019 
Q 384 1609 779 1909 
Q 1175 2209 1959 2209 
L 2766 2209 
L 2766 2266 
Q 2766 2663 2505 2880 
Q 2244 3097 1772 3097 
Q 1472 3097 1187 3025 
Q 903 2953 641 2809 
L 641 3341 
Q 956 3463 1253 3523 
Q 1550 3584 1831 3584 
Q 2591 3584 2966 3190 
Q 3341 2797 3341 1997 
z
M 2291 5119 
L 2913 5119 
L 1894 3944 
L 1416 3944 
L 2291 5119 
z
" transform="scale(0.015625)"/>
       <path id="DejaVuSans-75" d="M 544 1381 
L 544 3500 
L 1119 3500 
L 1119 1403 
Q 1119 906 1312 657 
Q 1506 409 1894 409 
Q 2359 409 2629 706 
Q 2900 1003 2900 1516 
L 2900 3500 
L 3475 3500 
L 3475 0 
L 2900 0 
L 2900 538 
Q 2691 219 2414 64 
Q 2138 -91 1772 -91 
Q 1169 -91 856 284 
Q 544 659 544 1381 
z
M 1991 3584 
L 1991 3584 
z
" transform="scale(0.015625)"/>
       <path id="DejaVuSans-2d" d="M 313 2009 
L 1997 2009 
L 1997 1497 
L 313 1497 
L 313 2009 
z
" transform="scale(0.015625)"/>
       <path id="DejaVuSans-64" d="M 2906 2969 
L 2906 4863 
L 3481 4863 
L 3481 0 
L 2906 0 
L 2906 525 
Q 2725 213 2448 61 
Q 2172 -91 1784 -91 
Q 1150 -91 751 415 
Q 353 922 353 1747 
Q 353 2572 751 3078 
Q 1150 3584 1784 3584 
Q 2172 3584 2448 3432 
Q 2725 3281 2906 2969 
z
M 947 1747 
Q 947 1113 1208 752 
Q 1469 391 1925 391 
Q 2381 391 2643 752 
Q 2906 1113 2906 1747 
Q 2906 2381 2643 2742 
Q 2381 3103 1925 3103 
Q 1469 3103 1208 2742 
Q 947 2381 947 1747 
z
" transform="scale(0.015625)"/>
      </defs>
      <use xlink:href="#DejaVuSans-55"/>
      <use xlink:href="#DejaVuSans-6e" transform="translate(73.193359 0)"/>
      <use xlink:href="#DejaVuSans-20" transform="translate(136.572266 0)"/>
      <use xlink:href="#DejaVuSans-e1" transform="translate(168.359375 0)"/>
      <use xlink:href="#DejaVuSans-72" transform="translate(229.638672 0)"/>
      <use xlink:href="#DejaVuSans-62" transform="translate(270.751953 0)"/>
      <use xlink:href="#DejaVuSans-6f" transform="translate(334.228516 0)"/>
      <use xlink:href="#DejaVuSans-6c" transform="translate(395.410156 0)"/>
      <use xlink:href="#DejaVuSans-20" transform="translate(423.193359 0)"/>
      <use xlink:href="#DejaVuSans-6d" transform="translate(454.980469 0)"/>
      <use xlink:href="#DejaVuSans-75" transform="translate(552.392578 0)"/>
      <use xlink:href="#DejaVuSans-6c" transform="translate(615.771484 0)"/>
      <use xlink:href="#DejaVuSans-74" transform="translate(643.554688 0)"/>
      <use xlink:href="#DejaVuSans-69" transform="translate(682.763672 0)"/>
      <use xlink:href="#DejaVuSans-2d" transform="translate(710.546875 0)"/>
      <use xlink:href="#DejaVuSans-73" transform="translate(746.630859 0)"/>
      <use xlink:href="#DejaVuSans-61" transform="translate(798.730469 0)"/>
      <use xlink:href="#DejaVuSans-6c" transform="translate(860.009766 0)"/>
      <use xlink:href="#DejaVuSans-69" transform="translate(887.792969 0)"/>
      <use xlink:href="#DejaVuSans-64" transform="translate(915.576172 0)"/>
      <use xlink:href="#DejaVuSans-61" transform="translate(979.052734 0)"/>
      <use xlink:href="#DejaVuSans-20" transform="translate(1040.332031 0)"/>
      <use xlink:href="#DejaVuSans-2d" transform="translate(1072.119141 0)"/>
      <use xlink:href="#DejaVuSans-20" transform="translate(1108.203125 0)"/>
      <use xlink:href="#DejaVuSans-44" transform="translate(1139.990234 0)"/>
      <use xlink:href="#DejaVuSans-33" transform="translate(1216.992188 0)"/>
     </g>
    </g>
    <g id="patch_165">
     <path d="M 867.88 67.3225 
L 899.88 67.3225 
L 899.88 56.1225 
L 867.88 56.1225 
z
" style="fill: #87ceeb; opacity: 0.485714"/>
    </g>
    <g id="text_23">
     <!-- Un rbol multi-salida - D4 -->
     <g transform="translate(912.68 67.3225) scale(0.16 -0.16)">
      <use xlink:href="#DejaVuSans-55"/>
      <use xlink:href="#DejaVuSans-6e" transform="translate(73.193359 0)"/>
      <use xlink:href="#DejaVuSans-20" transform="translate(136.572266 0)"/>
      <use xlink:href="#DejaVuSans-e1" transform="translate(168.359375 0)"/>
      <use xlink:href="#DejaVuSans-72" transform="translate(229.638672 0)"/>
      <use xlink:href="#DejaVuSans-62" transform="translate(270.751953 0)"/>
      <use xlink:href="#DejaVuSans-6f" transform="translate(334.228516 0)"/>
      <use xlink:href="#DejaVuSans-6c" transform="translate(395.410156 0)"/>
      <use xlink:href="#DejaVuSans-20" transform="translate(423.193359 0)"/>
      <use xlink:href="#DejaVuSans-6d" transform="translate(454.980469 0)"/>
      <use xlink:href="#DejaVuSans-75" transform="translate(552.392578 0)"/>
      <use xlink:href="#DejaVuSans-6c" transform="translate(615.771484 0)"/>
      <use xlink:href="#DejaVuSans-74" transform="translate(643.554688 0)"/>
      <use xlink:href="#DejaVuSans-69" transform="translate(682.763672 0)"/>
      <use xlink:href="#DejaVuSans-2d" transform="translate(710.546875 0)"/>
      <use xlink:href="#DejaVuSans-73" transform="translate(746.630859 0)"/>
      <use xlink:href="#DejaVuSans-61" transform="translate(798.730469 0)"/>
      <use xlink:href="#DejaVuSans-6c" transform="translate(860.009766 0)"/>
      <use xlink:href="#DejaVuSans-69" transform="translate(887.792969 0)"/>
      <use xlink:href="#DejaVuSans-64" transform="translate(915.576172 0)"/>
      <use xlink:href="#DejaVuSans-61" transform="translate(979.052734 0)"/>
      <use xlink:href="#DejaVuSans-20" transform="translate(1040.332031 0)"/>
      <use xlink:href="#DejaVuSans-2d" transform="translate(1072.119141 0)"/>
      <use xlink:href="#DejaVuSans-20" transform="translate(1108.203125 0)"/>
      <use xlink:href="#DejaVuSans-44" transform="translate(1139.990234 0)"/>
      <use xlink:href="#DejaVuSans-34" transform="translate(1216.992188 0)"/>
     </g>
    </g>
    <g id="patch_166">
     <path d="M 867.88 90.8075 
L 899.88 90.8075 
L 899.88 79.6075 
L 867.88 79.6075 
z
" style="fill: #87ceeb; opacity: 0.571429"/>
    </g>
    <g id="text_24">
     <!-- Un rbol multi-salida - D5 -->
     <g transform="translate(912.68 90.8075) scale(0.16 -0.16)">
      <use xlink:href="#DejaVuSans-55"/>
      <use xlink:href="#DejaVuSans-6e" transform="translate(73.193359 0)"/>
      <use xlink:href="#DejaVuSans-20" transform="translate(136.572266 0)"/>
      <use xlink:href="#DejaVuSans-e1" transform="translate(168.359375 0)"/>
      <use xlink:href="#DejaVuSans-72" transform="translate(229.638672 0)"/>
      <use xlink:href="#DejaVuSans-62" transform="translate(270.751953 0)"/>
      <use xlink:href="#DejaVuSans-6f" transform="translate(334.228516 0)"/>
      <use xlink:href="#DejaVuSans-6c" transform="translate(395.410156 0)"/>
      <use xlink:href="#DejaVuSans-20" transform="translate(423.193359 0)"/>
      <use xlink:href="#DejaVuSans-6d" transform="translate(454.980469 0)"/>
      <use xlink:href="#DejaVuSans-75" transform="translate(552.392578 0)"/>
      <use xlink:href="#DejaVuSans-6c" transform="translate(615.771484 0)"/>
      <use xlink:href="#DejaVuSans-74" transform="translate(643.554688 0)"/>
      <use xlink:href="#DejaVuSans-69" transform="translate(682.763672 0)"/>
      <use xlink:href="#DejaVuSans-2d" transform="translate(710.546875 0)"/>
      <use xlink:href="#DejaVuSans-73" transform="translate(746.630859 0)"/>
      <use xlink:href="#DejaVuSans-61" transform="translate(798.730469 0)"/>
      <use xlink:href="#DejaVuSans-6c" transform="translate(860.009766 0)"/>
      <use xlink:href="#DejaVuSans-69" transform="translate(887.792969 0)"/>
      <use xlink:href="#DejaVuSans-64" transform="translate(915.576172 0)"/>
      <use xlink:href="#DejaVuSans-61" transform="translate(979.052734 0)"/>
      <use xlink:href="#DejaVuSans-20" transform="translate(1040.332031 0)"/>
      <use xlink:href="#DejaVuSans-2d" transform="translate(1072.119141 0)"/>
      <use xlink:href="#DejaVuSans-20" transform="translate(1108.203125 0)"/>
      <use xlink:href="#DejaVuSans-44" transform="translate(1139.990234 0)"/>
      <use xlink:href="#DejaVuSans-35" transform="translate(1216.992188 0)"/>
     </g>
    </g>
    <g id="patch_167">
     <path d="M 867.88 114.2925 
L 899.88 114.2925 
L 899.88 103.0925 
L 867.88 103.0925 
z
" style="fill: #87ceeb; opacity: 0.657143"/>
    </g>
    <g id="text_25">
     <!-- Un rbol multi-salida - D6 -->
     <g transform="translate(912.68 114.2925) scale(0.16 -0.16)">
      <use xlink:href="#DejaVuSans-55"/>
      <use xlink:href="#DejaVuSans-6e" transform="translate(73.193359 0)"/>
      <use xlink:href="#DejaVuSans-20" transform="translate(136.572266 0)"/>
      <use xlink:href="#DejaVuSans-e1" transform="translate(168.359375 0)"/>
      <use xlink:href="#DejaVuSans-72" transform="translate(229.638672 0)"/>
      <use xlink:href="#DejaVuSans-62" transform="translate(270.751953 0)"/>
      <use xlink:href="#DejaVuSans-6f" transform="translate(334.228516 0)"/>
      <use xlink:href="#DejaVuSans-6c" transform="translate(395.410156 0)"/>
      <use xlink:href="#DejaVuSans-20" transform="translate(423.193359 0)"/>
      <use xlink:href="#DejaVuSans-6d" transform="translate(454.980469 0)"/>
      <use xlink:href="#DejaVuSans-75" transform="translate(552.392578 0)"/>
      <use xlink:href="#DejaVuSans-6c" transform="translate(615.771484 0)"/>
      <use xlink:href="#DejaVuSans-74" transform="translate(643.554688 0)"/>
      <use xlink:href="#DejaVuSans-69" transform="translate(682.763672 0)"/>
      <use xlink:href="#DejaVuSans-2d" transform="translate(710.546875 0)"/>
      <use xlink:href="#DejaVuSans-73" transform="translate(746.630859 0)"/>
      <use xlink:href="#DejaVuSans-61" transform="translate(798.730469 0)"/>
      <use xlink:href="#DejaVuSans-6c" transform="translate(860.009766 0)"/>
      <use xlink:href="#DejaVuSans-69" transform="translate(887.792969 0)"/>
      <use xlink:href="#DejaVuSans-64" transform="translate(915.576172 0)"/>
      <use xlink:href="#DejaVuSans-61" transform="translate(979.052734 0)"/>
      <use xlink:href="#DejaVuSans-20" transform="translate(1040.332031 0)"/>
      <use xlink:href="#DejaVuSans-2d" transform="translate(1072.119141 0)"/>
      <use xlink:href="#DejaVuSans-20" transform="translate(1108.203125 0)"/>
      <use xlink:href="#DejaVuSans-44" transform="translate(1139.990234 0)"/>
      <use xlink:href="#DejaVuSans-36" transform="translate(1216.992188 0)"/>
     </g>
    </g>
    <g id="patch_168">
     <path d="M 867.88 137.7775 
L 899.88 137.7775 
L 899.88 126.5775 
L 867.88 126.5775 
z
" style="fill: #87ceeb; opacity: 0.828571"/>
    </g>
    <g id="text_26">
     <!-- Un rbol multi-salida - D8 -->
     <g transform="translate(912.68 137.7775) scale(0.16 -0.16)">
      <use xlink:href="#DejaVuSans-55"/>
      <use xlink:href="#DejaVuSans-6e" transform="translate(73.193359 0)"/>
      <use xlink:href="#DejaVuSans-20" transform="translate(136.572266 0)"/>
      <use xlink:href="#DejaVuSans-e1" transform="translate(168.359375 0)"/>
      <use xlink:href="#DejaVuSans-72" transform="translate(229.638672 0)"/>
      <use xlink:href="#DejaVuSans-62" transform="translate(270.751953 0)"/>
      <use xlink:href="#DejaVuSans-6f" transform="translate(334.228516 0)"/>
      <use xlink:href="#DejaVuSans-6c" transform="translate(395.410156 0)"/>
      <use xlink:href="#DejaVuSans-20" transform="translate(423.193359 0)"/>
      <use xlink:href="#DejaVuSans-6d" transform="translate(454.980469 0)"/>
      <use xlink:href="#DejaVuSans-75" transform="translate(552.392578 0)"/>
      <use xlink:href="#DejaVuSans-6c" transform="translate(615.771484 0)"/>
      <use xlink:href="#DejaVuSans-74" transform="translate(643.554688 0)"/>
      <use xlink:href="#DejaVuSans-69" transform="translate(682.763672 0)"/>
      <use xlink:href="#DejaVuSans-2d" transform="translate(710.546875 0)"/>
      <use xlink:href="#DejaVuSans-73" transform="translate(746.630859 0)"/>
      <use xlink:href="#DejaVuSans-61" transform="translate(798.730469 0)"/>
      <use xlink:href="#DejaVuSans-6c" transform="translate(860.009766 0)"/>
      <use xlink:href="#DejaVuSans-69" transform="translate(887.792969 0)"/>
      <use xlink:href="#DejaVuSans-64" transform="translate(915.576172 0)"/>
      <use xlink:href="#DejaVuSans-61" transform="translate(979.052734 0)"/>
      <use xlink:href="#DejaVuSans-20" transform="translate(1040.332031 0)"/>
      <use xlink:href="#DejaVuSans-2d" transform="translate(1072.119141 0)"/>
      <use xlink:href="#DejaVuSans-20" transform="translate(1108.203125 0)"/>
      <use xlink:href="#DejaVuSans-44" transform="translate(1139.990234 0)"/>
      <use xlink:href="#DejaVuSans-38" transform="translate(1216.992188 0)"/>
     </g>
    </g>
    <g id="patch_169">
     <path d="M 867.88 161.2625 
L 899.88 161.2625 
L 899.88 150.0625 
L 867.88 150.0625 
z
" style="fill: #87ceeb"/>
    </g>
    <g id="text_27">
     <!-- Un rbol multi-salida - D10 -->
     <g transform="translate(912.68 161.2625) scale(0.16 -0.16)">
      <use xlink:href="#DejaVuSans-55"/>
      <use xlink:href="#DejaVuSans-6e" transform="translate(73.193359 0)"/>
      <use xlink:href="#DejaVuSans-20" transform="translate(136.572266 0)"/>
      <use xlink:href="#DejaVuSans-e1" transform="translate(168.359375 0)"/>
      <use xlink:href="#DejaVuSans-72" transform="translate(229.638672 0)"/>
      <use xlink:href="#DejaVuSans-62" transform="translate(270.751953 0)"/>
      <use xlink:href="#DejaVuSans-6f" transform="translate(334.228516 0)"/>
      <use xlink:href="#DejaVuSans-6c" transform="translate(395.410156 0)"/>
      <use xlink:href="#DejaVuSans-20" transform="translate(423.193359 0)"/>
      <use xlink:href="#DejaVuSans-6d" transform="translate(454.980469 0)"/>
      <use xlink:href="#DejaVuSans-75" transform="translate(552.392578 0)"/>
      <use xlink:href="#DejaVuSans-6c" transform="translate(615.771484 0)"/>
      <use xlink:href="#DejaVuSans-74" transform="translate(643.554688 0)"/>
      <use xlink:href="#DejaVuSans-69" transform="translate(682.763672 0)"/>
      <use xlink:href="#DejaVuSans-2d" transform="translate(710.546875 0)"/>
      <use xlink:href="#DejaVuSans-73" transform="translate(746.630859 0)"/>
      <use xlink:href="#DejaVuSans-61" transform="translate(798.730469 0)"/>
      <use xlink:href="#DejaVuSans-6c" transform="translate(860.009766 0)"/>
      <use xlink:href="#DejaVuSans-69" transform="translate(887.792969 0)"/>
      <use xlink:href="#DejaVuSans-64" transform="translate(915.576172 0)"/>
      <use xlink:href="#DejaVuSans-61" transform="translate(979.052734 0)"/>
      <use xlink:href="#DejaVuSans-20" transform="translate(1040.332031 0)"/>
      <use xlink:href="#DejaVuSans-2d" transform="translate(1072.119141 0)"/>
      <use xlink:href="#DejaVuSans-20" transform="translate(1108.203125 0)"/>
      <use xlink:href="#DejaVuSans-44" transform="translate(1139.990234 0)"/>
      <use xlink:href="#DejaVuSans-31" transform="translate(1216.992188 0)"/>
      <use xlink:href="#DejaVuSans-30" transform="translate(1280.615234 0)"/>
     </g>
    </g>
    <g id="patch_170">
     <path d="M 867.88 185.3875 
L 899.88 185.3875 
L 899.88 174.1875 
L 867.88 174.1875 
z
" style="fill: #fa8072; opacity: 0.4"/>
    </g>
    <g id="text_28">
     <!-- Un rbol por salida - D3 -->
     <g transform="translate(912.68 185.3875) scale(0.16 -0.16)">
      <use xlink:href="#DejaVuSans-55"/>
      <use xlink:href="#DejaVuSans-6e" transform="translate(73.193359 0)"/>
      <use xlink:href="#DejaVuSans-20" transform="translate(136.572266 0)"/>
      <use xlink:href="#DejaVuSans-e1" transform="translate(168.359375 0)"/>
      <use xlink:href="#DejaVuSans-72" transform="translate(229.638672 0)"/>
      <use xlink:href="#DejaVuSans-62" transform="translate(270.751953 0)"/>
      <use xlink:href="#DejaVuSans-6f" transform="translate(334.228516 0)"/>
      <use xlink:href="#DejaVuSans-6c" transform="translate(395.410156 0)"/>
      <use xlink:href="#DejaVuSans-20" transform="translate(423.193359 0)"/>
      <use xlink:href="#DejaVuSans-70" transform="translate(454.980469 0)"/>
      <use xlink:href="#DejaVuSans-6f" transform="translate(518.457031 0)"/>
      <use xlink:href="#DejaVuSans-72" transform="translate(579.638672 0)"/>
      <use xlink:href="#DejaVuSans-20" transform="translate(620.751953 0)"/>
      <use xlink:href="#DejaVuSans-73" transform="translate(652.539062 0)"/>
      <use xlink:href="#DejaVuSans-61" transform="translate(704.638672 0)"/>
      <use xlink:href="#DejaVuSans-6c" transform="translate(765.917969 0)"/>
      <use xlink:href="#DejaVuSans-69" transform="translate(793.701172 0)"/>
      <use xlink:href="#DejaVuSans-64" transform="translate(821.484375 0)"/>
      <use xlink:href="#DejaVuSans-61" transform="translate(884.960938 0)"/>
      <use xlink:href="#DejaVuSans-20" transform="translate(946.240234 0)"/>
      <use xlink:href="#DejaVuSans-2d" transform="translate(978.027344 0)"/>
      <use xlink:href="#DejaVuSans-20" transform="translate(1014.111328 0)"/>
      <use xlink:href="#DejaVuSans-44" transform="translate(1045.898438 0)"/>
      <use xlink:href="#DejaVuSans-33" transform="translate(1122.900391 0)"/>
     </g>
    </g>
    <g id="patch_171">
     <path d="M 867.88 209.5125 
L 899.88 209.5125 
L 899.88 198.3125 
L 867.88 198.3125 
z
" style="fill: #fa8072; opacity: 0.485714"/>
    </g>
    <g id="text_29">
     <!-- Un rbol por salida - D4 -->
     <g transform="translate(912.68 209.5125) scale(0.16 -0.16)">
      <use xlink:href="#DejaVuSans-55"/>
      <use xlink:href="#DejaVuSans-6e" transform="translate(73.193359 0)"/>
      <use xlink:href="#DejaVuSans-20" transform="translate(136.572266 0)"/>
      <use xlink:href="#DejaVuSans-e1" transform="translate(168.359375 0)"/>
      <use xlink:href="#DejaVuSans-72" transform="translate(229.638672 0)"/>
      <use xlink:href="#DejaVuSans-62" transform="translate(270.751953 0)"/>
      <use xlink:href="#DejaVuSans-6f" transform="translate(334.228516 0)"/>
      <use xlink:href="#DejaVuSans-6c" transform="translate(395.410156 0)"/>
      <use xlink:href="#DejaVuSans-20" transform="translate(423.193359 0)"/>
      <use xlink:href="#DejaVuSans-70" transform="translate(454.980469 0)"/>
      <use xlink:href="#DejaVuSans-6f" transform="translate(518.457031 0)"/>
      <use xlink:href="#DejaVuSans-72" transform="translate(579.638672 0)"/>
      <use xlink:href="#DejaVuSans-20" transform="translate(620.751953 0)"/>
      <use xlink:href="#DejaVuSans-73" transform="translate(652.539062 0)"/>
      <use xlink:href="#DejaVuSans-61" transform="translate(704.638672 0)"/>
      <use xlink:href="#DejaVuSans-6c" transform="translate(765.917969 0)"/>
      <use xlink:href="#DejaVuSans-69" transform="translate(793.701172 0)"/>
      <use xlink:href="#DejaVuSans-64" transform="translate(821.484375 0)"/>
      <use xlink:href="#DejaVuSans-61" transform="translate(884.960938 0)"/>
      <use xlink:href="#DejaVuSans-20" transform="translate(946.240234 0)"/>
      <use xlink:href="#DejaVuSans-2d" transform="translate(978.027344 0)"/>
      <use xlink:href="#DejaVuSans-20" transform="translate(1014.111328 0)"/>
      <use xlink:href="#DejaVuSans-44" transform="translate(1045.898438 0)"/>
      <use xlink:href="#DejaVuSans-34" transform="translate(1122.900391 0)"/>
     </g>
    </g>
    <g id="patch_172">
     <path d="M 867.88 233.6375 
L 899.88 233.6375 
L 899.88 222.4375 
L 867.88 222.4375 
z
" style="fill: #fa8072; opacity: 0.571429"/>
    </g>
    <g id="text_30">
     <!-- Un rbol por salida - D5 -->
     <g transform="translate(912.68 233.6375) scale(0.16 -0.16)">
      <use xlink:href="#DejaVuSans-55"/>
      <use xlink:href="#DejaVuSans-6e" transform="translate(73.193359 0)"/>
      <use xlink:href="#DejaVuSans-20" transform="translate(136.572266 0)"/>
      <use xlink:href="#DejaVuSans-e1" transform="translate(168.359375 0)"/>
      <use xlink:href="#DejaVuSans-72" transform="translate(229.638672 0)"/>
      <use xlink:href="#DejaVuSans-62" transform="translate(270.751953 0)"/>
      <use xlink:href="#DejaVuSans-6f" transform="translate(334.228516 0)"/>
      <use xlink:href="#DejaVuSans-6c" transform="translate(395.410156 0)"/>
      <use xlink:href="#DejaVuSans-20" transform="translate(423.193359 0)"/>
      <use xlink:href="#DejaVuSans-70" transform="translate(454.980469 0)"/>
      <use xlink:href="#DejaVuSans-6f" transform="translate(518.457031 0)"/>
      <use xlink:href="#DejaVuSans-72" transform="translate(579.638672 0)"/>
      <use xlink:href="#DejaVuSans-20" transform="translate(620.751953 0)"/>
      <use xlink:href="#DejaVuSans-73" transform="translate(652.539062 0)"/>
      <use xlink:href="#DejaVuSans-61" transform="translate(704.638672 0)"/>
      <use xlink:href="#DejaVuSans-6c" transform="translate(765.917969 0)"/>
      <use xlink:href="#DejaVuSans-69" transform="translate(793.701172 0)"/>
      <use xlink:href="#DejaVuSans-64" transform="translate(821.484375 0)"/>
      <use xlink:href="#DejaVuSans-61" transform="translate(884.960938 0)"/>
      <use xlink:href="#DejaVuSans-20" transform="translate(946.240234 0)"/>
      <use xlink:href="#DejaVuSans-2d" transform="translate(978.027344 0)"/>
      <use xlink:href="#DejaVuSans-20" transform="translate(1014.111328 0)"/>
      <use xlink:href="#DejaVuSans-44" transform="translate(1045.898438 0)"/>
      <use xlink:href="#DejaVuSans-35" transform="translate(1122.900391 0)"/>
     </g>
    </g>
    <g id="patch_173">
     <path d="M 867.88 257.7625 
L 899.88 257.7625 
L 899.88 246.5625 
L 867.88 246.5625 
z
" style="fill: #fa8072; opacity: 0.657143"/>
    </g>
    <g id="text_31">
     <!-- Un rbol por salida - D6 -->
     <g transform="translate(912.68 257.7625) scale(0.16 -0.16)">
      <use xlink:href="#DejaVuSans-55"/>
      <use xlink:href="#DejaVuSans-6e" transform="translate(73.193359 0)"/>
      <use xlink:href="#DejaVuSans-20" transform="translate(136.572266 0)"/>
      <use xlink:href="#DejaVuSans-e1" transform="translate(168.359375 0)"/>
      <use xlink:href="#DejaVuSans-72" transform="translate(229.638672 0)"/>
      <use xlink:href="#DejaVuSans-62" transform="translate(270.751953 0)"/>
      <use xlink:href="#DejaVuSans-6f" transform="translate(334.228516 0)"/>
      <use xlink:href="#DejaVuSans-6c" transform="translate(395.410156 0)"/>
      <use xlink:href="#DejaVuSans-20" transform="translate(423.193359 0)"/>
      <use xlink:href="#DejaVuSans-70" transform="translate(454.980469 0)"/>
      <use xlink:href="#DejaVuSans-6f" transform="translate(518.457031 0)"/>
      <use xlink:href="#DejaVuSans-72" transform="translate(579.638672 0)"/>
      <use xlink:href="#DejaVuSans-20" transform="translate(620.751953 0)"/>
      <use xlink:href="#DejaVuSans-73" transform="translate(652.539062 0)"/>
      <use xlink:href="#DejaVuSans-61" transform="translate(704.638672 0)"/>
      <use xlink:href="#DejaVuSans-6c" transform="translate(765.917969 0)"/>
      <use xlink:href="#DejaVuSans-69" transform="translate(793.701172 0)"/>
      <use xlink:href="#DejaVuSans-64" transform="translate(821.484375 0)"/>
      <use xlink:href="#DejaVuSans-61" transform="translate(884.960938 0)"/>
      <use xlink:href="#DejaVuSans-20" transform="translate(946.240234 0)"/>
      <use xlink:href="#DejaVuSans-2d" transform="translate(978.027344 0)"/>
      <use xlink:href="#DejaVuSans-20" transform="translate(1014.111328 0)"/>
      <use xlink:href="#DejaVuSans-44" transform="translate(1045.898438 0)"/>
      <use xlink:href="#DejaVuSans-36" transform="translate(1122.900391 0)"/>
     </g>
    </g>
    <g id="patch_174">
     <path d="M 867.88 281.8875 
L 899.88 281.8875 
L 899.88 270.6875 
L 867.88 270.6875 
z
" style="fill: #fa8072; opacity: 0.828571"/>
    </g>
    <g id="text_32">
     <!-- Un rbol por salida - D8 -->
     <g transform="translate(912.68 281.8875) scale(0.16 -0.16)">
      <use xlink:href="#DejaVuSans-55"/>
      <use xlink:href="#DejaVuSans-6e" transform="translate(73.193359 0)"/>
      <use xlink:href="#DejaVuSans-20" transform="translate(136.572266 0)"/>
      <use xlink:href="#DejaVuSans-e1" transform="translate(168.359375 0)"/>
      <use xlink:href="#DejaVuSans-72" transform="translate(229.638672 0)"/>
      <use xlink:href="#DejaVuSans-62" transform="translate(270.751953 0)"/>
      <use xlink:href="#DejaVuSans-6f" transform="translate(334.228516 0)"/>
      <use xlink:href="#DejaVuSans-6c" transform="translate(395.410156 0)"/>
      <use xlink:href="#DejaVuSans-20" transform="translate(423.193359 0)"/>
      <use xlink:href="#DejaVuSans-70" transform="translate(454.980469 0)"/>
      <use xlink:href="#DejaVuSans-6f" transform="translate(518.457031 0)"/>
      <use xlink:href="#DejaVuSans-72" transform="translate(579.638672 0)"/>
      <use xlink:href="#DejaVuSans-20" transform="translate(620.751953 0)"/>
      <use xlink:href="#DejaVuSans-73" transform="translate(652.539062 0)"/>
      <use xlink:href="#DejaVuSans-61" transform="translate(704.638672 0)"/>
      <use xlink:href="#DejaVuSans-6c" transform="translate(765.917969 0)"/>
      <use xlink:href="#DejaVuSans-69" transform="translate(793.701172 0)"/>
      <use xlink:href="#DejaVuSans-64" transform="translate(821.484375 0)"/>
      <use xlink:href="#DejaVuSans-61" transform="translate(884.960938 0)"/>
      <use xlink:href="#DejaVuSans-20" transform="translate(946.240234 0)"/>
      <use xlink:href="#DejaVuSans-2d" transform="translate(978.027344 0)"/>
      <use xlink:href="#DejaVuSans-20" transform="translate(1014.111328 0)"/>
      <use xlink:href="#DejaVuSans-44" transform="translate(1045.898438 0)"/>
      <use xlink:href="#DejaVuSans-38" transform="translate(1122.900391 0)"/>
     </g>
    </g>
    <g id="patch_175">
     <path d="M 867.88 306.0125 
L 899.88 306.0125 
L 899.88 294.8125 
L 867.88 294.8125 
z
" style="fill: #fa8072"/>
    </g>
    <g id="text_33">
     <!-- Un rbol por salida - D10 -->
     <g transform="translate(912.68 306.0125) scale(0.16 -0.16)">
      <use xlink:href="#DejaVuSans-55"/>
      <use xlink:href="#DejaVuSans-6e" transform="translate(73.193359 0)"/>
      <use xlink:href="#DejaVuSans-20" transform="translate(136.572266 0)"/>
      <use xlink:href="#DejaVuSans-e1" transform="translate(168.359375 0)"/>
      <use xlink:href="#DejaVuSans-72" transform="translate(229.638672 0)"/>
      <use xlink:href="#DejaVuSans-62" transform="translate(270.751953 0)"/>
      <use xlink:href="#DejaVuSans-6f" transform="translate(334.228516 0)"/>
      <use xlink:href="#DejaVuSans-6c" transform="translate(395.410156 0)"/>
      <use xlink:href="#DejaVuSans-20" transform="translate(423.193359 0)"/>
      <use xlink:href="#DejaVuSans-70" transform="translate(454.980469 0)"/>
      <use xlink:href="#DejaVuSans-6f" transform="translate(518.457031 0)"/>
      <use xlink:href="#DejaVuSans-72" transform="translate(579.638672 0)"/>
      <use xlink:href="#DejaVuSans-20" transform="translate(620.751953 0)"/>
      <use xlink:href="#DejaVuSans-73" transform="translate(652.539062 0)"/>
      <use xlink:href="#DejaVuSans-61" transform="translate(704.638672 0)"/>
      <use xlink:href="#DejaVuSans-6c" transform="translate(765.917969 0)"/>
      <use xlink:href="#DejaVuSans-69" transform="translate(793.701172 0)"/>
      <use xlink:href="#DejaVuSans-64" transform="translate(821.484375 0)"/>
      <use xlink:href="#DejaVuSans-61" transform="translate(884.960938 0)"/>
      <use xlink:href="#DejaVuSans-20" transform="translate(946.240234 0)"/>
      <use xlink:href="#DejaVuSans-2d" transform="translate(978.027344 0)"/>
      <use xlink:href="#DejaVuSans-20" transform="translate(1014.111328 0)"/>
      <use xlink:href="#DejaVuSans-44" transform="translate(1045.898438 0)"/>
      <use xlink:href="#DejaVuSans-31" transform="translate(1122.900391 0)"/>
      <use xlink:href="#DejaVuSans-30" transform="translate(1186.523438 0)"/>
     </g>
    </g>
   </g>
  </g>
 </g>
 <defs>
  <clipPath id="p30e5abab2d">
   <rect x="85.52" y="17.28" width="767.96" height="301.026348"/>
  </clipPath>
 </defs>
</svg>
